%TF.GenerationSoftware,KiCad,Pcbnew,(5.99.0-10506-gb986797469)*%
%TF.CreationDate,2021-09-15T01:16:02+02:00*%
%TF.ProjectId,Tastatur,54617374-6174-4757-922e-6b696361645f,rev?*%
%TF.SameCoordinates,Original*%
%TF.FileFunction,Copper,L2,Bot*%
%TF.FilePolarity,Positive*%
%FSLAX46Y46*%
G04 Gerber Fmt 4.6, Leading zero omitted, Abs format (unit mm)*
G04 Created by KiCad (PCBNEW (5.99.0-10506-gb986797469)) date 2021-09-15 01:16:02*
%MOMM*%
%LPD*%
G01*
G04 APERTURE LIST*
%TA.AperFunction,ComponentPad*%
%ADD10R,1.000000X1.000000*%
%TD*%
%TA.AperFunction,ComponentPad*%
%ADD11O,1.000000X1.000000*%
%TD*%
%TA.AperFunction,ComponentPad*%
%ADD12O,1.700000X1.700000*%
%TD*%
%TA.AperFunction,ComponentPad*%
%ADD13R,1.700000X1.700000*%
%TD*%
%TA.AperFunction,ComponentPad*%
%ADD14R,0.900000X0.500000*%
%TD*%
%TA.AperFunction,ViaPad*%
%ADD15C,0.800000*%
%TD*%
%TA.AperFunction,ViaPad*%
%ADD16C,0.500000*%
%TD*%
%TA.AperFunction,Conductor*%
%ADD17C,0.250000*%
%TD*%
G04 APERTURE END LIST*
D10*
%TO.P,J3,1,Pin_1*%
%TO.N,GND*%
X195000000Y-66200000D03*
D11*
%TO.P,J3,2,Pin_2*%
%TO.N,+5V*%
X195000000Y-67470000D03*
%TD*%
D10*
%TO.P,J5,1,Pin_1*%
%TO.N,GND*%
X191800000Y-66200000D03*
D11*
%TO.P,J5,2,Pin_2*%
%TO.N,+4V*%
X191800000Y-67470000D03*
%TD*%
D12*
%TO.P,J2,8,Pin_8*%
%TO.N,+3V3*%
X252465000Y-78820000D03*
%TO.P,J2,7,Pin_7*%
%TO.N,/C18*%
X249925000Y-78820000D03*
%TO.P,J2,6,Pin_6*%
%TO.N,/EN*%
X252465000Y-76280000D03*
%TO.P,J2,5,Pin_5*%
%TO.N,/C0*%
X249925000Y-76280000D03*
%TO.P,J2,4,Pin_4*%
%TO.N,/C2*%
X252465000Y-73740000D03*
%TO.P,J2,3,Pin_3*%
%TO.N,/C1*%
X249925000Y-73740000D03*
%TO.P,J2,2,Pin_2*%
%TO.N,/TX*%
X252465000Y-71200000D03*
D13*
%TO.P,J2,1,Pin_1*%
%TO.N,GND*%
X249925000Y-71200000D03*
%TD*%
D14*
%TO.P,AE1,2,Shield*%
%TO.N,GND*%
X213900000Y-70225000D03*
%TD*%
D10*
%TO.P,J4,1,Pin_1*%
%TO.N,GND*%
X188550000Y-67500000D03*
D11*
%TO.P,J4,2,Pin_2*%
%TO.N,+4V*%
X188550000Y-66230000D03*
%TD*%
D15*
%TO.N,GND*%
X251450000Y-80150000D03*
D16*
X214600000Y-76800000D03*
X206800000Y-73600000D03*
X239950000Y-79100000D03*
X236500000Y-69100000D03*
X213000000Y-73800000D03*
X212600000Y-71400000D03*
X215550000Y-66450000D03*
X233900000Y-73900000D03*
X203773816Y-70626184D03*
X190400000Y-73200000D03*
X191050000Y-77200000D03*
D15*
X220000000Y-74000000D03*
D16*
X241300000Y-75650000D03*
X200400000Y-70626184D03*
X241150000Y-77900000D03*
X206800000Y-74400000D03*
X207573816Y-70626184D03*
X206800000Y-72800000D03*
X189550000Y-78550000D03*
X196800000Y-65400000D03*
X235700000Y-79200000D03*
X199400000Y-77450000D03*
X234000000Y-67400000D03*
X196300000Y-73000000D03*
X236100000Y-66150000D03*
X214000000Y-73899500D03*
X215000000Y-73899500D03*
X202573816Y-70626184D03*
X213200000Y-72000000D03*
X188900000Y-73450000D03*
X214600000Y-77600000D03*
X198400000Y-70000000D03*
X199200000Y-70600000D03*
X212200000Y-73200000D03*
X211100500Y-70626184D03*
X196300000Y-73900000D03*
X190400000Y-72350000D03*
X198050000Y-79350000D03*
X229200000Y-66200000D03*
X196300000Y-74900000D03*
X196300000Y-72200000D03*
X212150000Y-80250000D03*
X244850000Y-77050000D03*
X233993767Y-70206233D03*
X190450000Y-70600000D03*
X214200000Y-72400008D03*
X234000000Y-68400000D03*
X211200000Y-71800000D03*
X212499500Y-70600000D03*
X209973816Y-70626184D03*
X228400000Y-71400000D03*
X226100000Y-67400000D03*
X206373816Y-70626184D03*
X246450000Y-79150000D03*
X197000000Y-67200000D03*
X243100000Y-77450000D03*
X247450000Y-77700000D03*
X197600000Y-68800000D03*
X187200000Y-70650000D03*
D15*
X218600000Y-70400000D03*
D16*
X227800011Y-75400000D03*
X206800000Y-75200000D03*
X216700000Y-71800000D03*
X189750000Y-80200000D03*
X195400000Y-79450000D03*
X190550000Y-80200000D03*
X208773816Y-70626184D03*
X244300000Y-79150000D03*
X187800000Y-79500000D03*
X201573816Y-70626184D03*
X236500000Y-71150000D03*
X211600000Y-72600000D03*
D15*
X222200000Y-71800000D03*
D16*
X204973816Y-70626184D03*
X229400000Y-73600000D03*
X237900000Y-79150000D03*
X208900000Y-72100000D03*
X230600000Y-68200000D03*
X236300000Y-74600000D03*
X233900000Y-79150000D03*
X199600000Y-80050000D03*
X204450000Y-77450000D03*
X210900000Y-76100000D03*
X239950000Y-75650000D03*
X234000000Y-71200000D03*
X222000000Y-78577900D03*
%TO.N,/ADC1_CH3*%
X215594216Y-76111316D03*
X231400000Y-71000000D03*
%TO.N,/ADC1_CH2*%
X216263369Y-75907512D03*
X231400000Y-70200000D03*
%TO.N,/ADC1_CH1*%
X216018517Y-75252264D03*
X231606233Y-69206233D03*
%TO.N,/ADC1_CH0*%
X231590500Y-68400000D03*
X215349362Y-75456067D03*
%TO.N,/EN*%
X218081333Y-78420414D03*
%TO.N,+3V3*%
X223966182Y-75025501D03*
X224324020Y-68721151D03*
X215000000Y-71600000D03*
X216600000Y-68800000D03*
X215800000Y-69600000D03*
X219200000Y-66600000D03*
X201200000Y-72100000D03*
X211900000Y-74800000D03*
X225206233Y-72006233D03*
X248000000Y-75000000D03*
%TO.N,+5V*%
X199050000Y-75450000D03*
X194300000Y-71974500D03*
D15*
%TO.N,/TX*%
X216400000Y-65400000D03*
%TO.N,/C1*%
X194400000Y-80000000D03*
D16*
X225616899Y-74312341D03*
D15*
X238325000Y-72999598D03*
%TO.N,/C2*%
X236900000Y-73400000D03*
X196400000Y-80000000D03*
D16*
X226319750Y-73189534D03*
%TO.N,/C0*%
X231300000Y-80524020D03*
X231318739Y-78893727D03*
X222600000Y-81075460D03*
X209450000Y-80600000D03*
X226159050Y-73870327D03*
X222600000Y-82700000D03*
%TO.N,/C18*%
X232600000Y-75676940D03*
X232000000Y-78200000D03*
D15*
X237550000Y-74450000D03*
D16*
%TO.N,/C16*%
X192343767Y-79543767D03*
X219607659Y-76997447D03*
%TO.N,/C17*%
X220534349Y-77029248D03*
X193200000Y-79500000D03*
%TO.N,/C15*%
X223986116Y-76775980D03*
X200400000Y-80400000D03*
%TO.N,/C8*%
X223157874Y-75871620D03*
X218800000Y-78577900D03*
%TO.N,/C6*%
X202600000Y-80400000D03*
X224575980Y-76400000D03*
%TO.N,/C7*%
X224940980Y-75786662D03*
X204400000Y-80600000D03*
%TO.N,/C9*%
X206600000Y-80600000D03*
X225349017Y-74958517D03*
%TO.N,/C4*%
X226900497Y-73790980D03*
X210600000Y-80600000D03*
%TO.N,/C5*%
X226800000Y-78600000D03*
X227600000Y-73790980D03*
%TO.N,/C3*%
X228058049Y-78258049D03*
X228800000Y-74000000D03*
%TO.N,/C10*%
X228775907Y-78175907D03*
X229000000Y-75676940D03*
%TO.N,/C14*%
X229983580Y-75596046D03*
X229590650Y-78184417D03*
%TO.N,/C11*%
X230393767Y-78193767D03*
X230753063Y-75639031D03*
%TO.N,/C13*%
X231200000Y-78200000D03*
X231593767Y-75606233D03*
%TO.N,/C12*%
X191500000Y-79500000D03*
X216536764Y-68063236D03*
%TO.N,+4V*%
X204600000Y-72900000D03*
X208900000Y-73100000D03*
%TD*%
D17*
%TO.N,GND*%
X212499500Y-71299500D02*
X212600000Y-71400000D01*
X211100500Y-70626184D02*
X212499500Y-70626184D01*
X212499500Y-70626184D02*
X212499500Y-71299500D01*
%TO.N,/ADC1_CH3*%
X225754030Y-70148560D02*
X230498283Y-70148560D01*
X222150480Y-70649520D02*
X225253071Y-70649520D01*
X215688858Y-76183278D02*
X215987603Y-76482023D01*
X230999243Y-70649520D02*
X231349723Y-71000000D01*
X216849520Y-76171638D02*
X216849520Y-75950480D01*
X215688858Y-76016674D02*
X215688858Y-76183278D01*
X216849520Y-75950480D02*
X222150480Y-70649520D01*
X230498283Y-70148560D02*
X230999243Y-70649520D01*
X225253071Y-70649520D02*
X225754030Y-70148560D01*
X215987603Y-76482023D02*
X216539135Y-76482023D01*
X231349723Y-71000000D02*
X231400000Y-71000000D01*
X215594216Y-76111316D02*
X215688858Y-76016674D01*
X216539135Y-76482023D02*
X216849520Y-76171638D01*
%TO.N,/ADC1_CH2*%
X216400000Y-75770881D02*
X216400000Y-75764283D01*
X216263369Y-75907512D02*
X216400000Y-75770881D01*
X216400000Y-75764283D02*
X221964282Y-70200000D01*
X225066873Y-70200000D02*
X221964282Y-70200000D01*
X225567833Y-69699040D02*
X225066873Y-70200000D01*
X224564282Y-70200000D02*
X221964282Y-70200000D01*
X230899040Y-69699040D02*
X225567833Y-69699040D01*
X231400000Y-70200000D02*
X230899040Y-69699040D01*
%TO.N,/ADC1_CH1*%
X231562946Y-69249520D02*
X231606233Y-69206233D01*
X225381635Y-69249520D02*
X231562946Y-69249520D01*
X216018517Y-75252264D02*
X221525610Y-69745171D01*
X221525610Y-69745171D02*
X224885984Y-69745171D01*
X224885984Y-69745171D02*
X225381635Y-69249520D01*
%TO.N,/ADC1_CH0*%
X215349362Y-75086356D02*
X215349362Y-75456067D01*
X231590500Y-68400000D02*
X231190500Y-68800000D01*
X231190500Y-68800000D02*
X225195437Y-68800000D01*
X221140067Y-69295651D02*
X215349362Y-75086356D01*
X224699786Y-69295651D02*
X221140067Y-69295651D01*
X225195437Y-68800000D02*
X224699786Y-69295651D01*
%TO.N,/EN*%
X218498358Y-78003389D02*
X219075766Y-78003389D01*
X222500000Y-76200000D02*
X222500000Y-73900000D01*
X218081333Y-78420414D02*
X218498358Y-78003389D01*
X248504511Y-77454511D02*
X251290489Y-77454511D01*
X238665242Y-71950960D02*
X242163803Y-75449520D01*
X246499520Y-75449520D02*
X248504511Y-77454511D01*
X242163803Y-75449520D02*
X246499520Y-75449520D01*
X251290489Y-77454511D02*
X252465000Y-76280000D01*
X225300000Y-71100000D02*
X227849723Y-71100000D01*
X222500000Y-73900000D02*
X225300000Y-71100000D01*
X230179065Y-70825489D02*
X231304536Y-71950960D01*
X231304536Y-71950960D02*
X238665242Y-71950960D01*
X220571620Y-78128380D02*
X222500000Y-76200000D01*
X228124234Y-70825489D02*
X230179065Y-70825489D01*
X219075766Y-78003389D02*
X219200757Y-78128380D01*
X219200757Y-78128380D02*
X220571620Y-78128380D01*
X227849723Y-71100000D02*
X228124234Y-70825489D01*
%TO.N,+3V3*%
X224153808Y-73058658D02*
X224153808Y-74837875D01*
X210850000Y-73199723D02*
X209175766Y-71525489D01*
X229500000Y-68200000D02*
X230874511Y-66825489D01*
X252465000Y-81785000D02*
X251300000Y-82950000D01*
X237400000Y-68800000D02*
X237400000Y-70050000D01*
X215800000Y-68176749D02*
X215800000Y-67949723D01*
X224845171Y-68200000D02*
X229500000Y-68200000D01*
X186850000Y-87400000D02*
X186850000Y-79200000D01*
X201824511Y-71525489D02*
X201649520Y-71700480D01*
X215800000Y-71400000D02*
X215800000Y-69600000D01*
X252465000Y-78820000D02*
X252465000Y-81785000D01*
X242350000Y-75000000D02*
X248000000Y-75000000D01*
X215600000Y-71600000D02*
X215800000Y-71400000D01*
X217149723Y-66600000D02*
X219200000Y-66600000D01*
X250900000Y-88300000D02*
X187750000Y-88300000D01*
X211900000Y-74800000D02*
X211700000Y-74800000D01*
X199500000Y-76100000D02*
X201200000Y-74400000D01*
X251300000Y-82950000D02*
X251300000Y-87900000D01*
X222202869Y-66600000D02*
X219200000Y-66600000D01*
X224324020Y-68721151D02*
X222202869Y-66600000D01*
X235425489Y-66825489D02*
X237400000Y-68800000D01*
X216423251Y-68800000D02*
X215800000Y-68176749D01*
X216600000Y-68800000D02*
X215800000Y-69600000D01*
X230874511Y-66825489D02*
X235425489Y-66825489D01*
X224324020Y-68721151D02*
X224845171Y-68200000D01*
X224153808Y-74837875D02*
X223966182Y-75025501D01*
X187750000Y-88300000D02*
X186850000Y-87400000D01*
X186850000Y-79200000D02*
X189950000Y-76100000D01*
X201599520Y-71700480D02*
X201200000Y-72100000D01*
X201649520Y-71700480D02*
X201599520Y-71700480D01*
X210850000Y-73950000D02*
X210850000Y-73199723D01*
X201200000Y-74400000D02*
X201200000Y-72100000D01*
X216600000Y-68800000D02*
X216423251Y-68800000D01*
X237400000Y-70050000D02*
X242350000Y-75000000D01*
X215000000Y-71600000D02*
X215600000Y-71600000D01*
X215800000Y-67949723D02*
X217149723Y-66600000D01*
X251300000Y-87900000D02*
X250900000Y-88300000D01*
X189950000Y-76100000D02*
X199500000Y-76100000D01*
X211700000Y-74800000D02*
X210850000Y-73950000D01*
X225206233Y-72006233D02*
X224153808Y-73058658D01*
X209175766Y-71525489D02*
X201824511Y-71525489D01*
%TO.N,+5V*%
X194300000Y-71974500D02*
X194325500Y-71974500D01*
X195000000Y-67470000D02*
X195000000Y-69765000D01*
X194325500Y-71974500D02*
X195767500Y-70532500D01*
X199050000Y-73815000D02*
X195767500Y-70532500D01*
X195000000Y-69765000D02*
X195767500Y-70532500D01*
X199050000Y-75450000D02*
X199050000Y-73815000D01*
%TO.N,/TX*%
X246000000Y-65400000D02*
X250625489Y-70025489D01*
X216400000Y-65400000D02*
X246000000Y-65400000D01*
X250625489Y-70025489D02*
X251290489Y-70025489D01*
X251290489Y-70025489D02*
X252465000Y-71200000D01*
%TO.N,/C1*%
X202049520Y-87649520D02*
X194400000Y-80000000D01*
X231118339Y-72400480D02*
X230893828Y-72175969D01*
X225584539Y-73074468D02*
X225584539Y-74146093D01*
X239050000Y-73724598D02*
X239050000Y-75657994D01*
X237000480Y-72400480D02*
X231118339Y-72400480D01*
X237599598Y-72999598D02*
X237000480Y-72400480D01*
X239050000Y-75657994D02*
X238033963Y-76674031D01*
X224036474Y-87649520D02*
X202049520Y-87649520D01*
X230893828Y-72175969D02*
X226483038Y-72175969D01*
X238325000Y-72999598D02*
X237599598Y-72999598D01*
X233024031Y-78661963D02*
X231736474Y-79949520D01*
X227649520Y-84036474D02*
X224036474Y-87649520D01*
X227649520Y-83021916D02*
X227649520Y-84036474D01*
X238325000Y-72999598D02*
X239050000Y-73724598D01*
X231736474Y-79949520D02*
X230721916Y-79949520D01*
X230721916Y-79949520D02*
X227649520Y-83021916D01*
X238033963Y-76674031D02*
X233861687Y-76674031D01*
X233861687Y-76674031D02*
X233024031Y-77511687D01*
X226483038Y-72175969D02*
X225584539Y-73074468D01*
X233024031Y-77511687D02*
X233024031Y-78661963D01*
%TO.N,/C2*%
X236600000Y-73100000D02*
X236900000Y-73400000D01*
X230782141Y-72700000D02*
X231182141Y-73100000D01*
X231182141Y-73100000D02*
X236600000Y-73100000D01*
X233675489Y-76224511D02*
X232574511Y-77325489D01*
X238350000Y-75722277D02*
X237847766Y-76224511D01*
X227200000Y-83850277D02*
X223850277Y-87200000D01*
X226319750Y-73189534D02*
X226809284Y-72700000D01*
X223850277Y-87200000D02*
X203600000Y-87200000D01*
X226809284Y-72700000D02*
X230782141Y-72700000D01*
X238350000Y-74050000D02*
X238350000Y-75722277D01*
X236949118Y-73449118D02*
X237749118Y-73449118D01*
X231550277Y-79500000D02*
X230535718Y-79500000D01*
X237847766Y-76224511D02*
X233675489Y-76224511D01*
X237749118Y-73449118D02*
X238350000Y-74050000D01*
X230535718Y-79500000D02*
X227200000Y-82835718D01*
X236900000Y-73400000D02*
X236949118Y-73449118D01*
X232574511Y-77325489D02*
X232574511Y-78475766D01*
X232574511Y-78475766D02*
X231550277Y-79500000D01*
X227200000Y-82835718D02*
X227200000Y-83850277D01*
X203600000Y-87200000D02*
X196400000Y-80000000D01*
%TO.N,/C0*%
X230506273Y-78893727D02*
X231318739Y-78893727D01*
X253028766Y-75105489D02*
X253639511Y-75716234D01*
X252837788Y-77645489D02*
X251954511Y-77645489D01*
X225775969Y-78588313D02*
X223413802Y-80950480D01*
X253639511Y-76843766D02*
X252837788Y-77645489D01*
X211750480Y-80950480D02*
X222649520Y-80950480D01*
X251099511Y-79383766D02*
X250283277Y-80200000D01*
X249925000Y-76280000D02*
X250726723Y-76280000D01*
X226100960Y-77813045D02*
X225775969Y-78138037D01*
X209450000Y-80600000D02*
X210024511Y-80025489D01*
X210024511Y-80025489D02*
X210875766Y-80025489D01*
X236175980Y-80524020D02*
X236500000Y-80200000D01*
X225775969Y-78138037D02*
X225775969Y-78588313D01*
X226326449Y-74037726D02*
X226326449Y-77130679D01*
X231300000Y-80524020D02*
X236175980Y-80524020D01*
X210875766Y-80025489D02*
X211174511Y-80324234D01*
X251099511Y-78500489D02*
X251099511Y-79383766D01*
X251954511Y-77645489D02*
X251099511Y-78500489D01*
X226800000Y-82600000D02*
X230506273Y-78893727D01*
X211174511Y-80324234D02*
X211174511Y-80374511D01*
X222649520Y-81025940D02*
X222649520Y-80950480D01*
X250283277Y-80200000D02*
X236500000Y-80200000D01*
X250726723Y-76280000D02*
X251901234Y-75105489D01*
X222600000Y-81075460D02*
X222649520Y-81025940D01*
X226100960Y-77356168D02*
X226100960Y-77813045D01*
X251901234Y-75105489D02*
X253028766Y-75105489D01*
X222600000Y-82700000D02*
X222700000Y-82600000D01*
X211174511Y-80374511D02*
X211750480Y-80950480D01*
X222700000Y-82600000D02*
X226800000Y-82600000D01*
X253639511Y-75716234D02*
X253639511Y-76843766D01*
X223413802Y-80950480D02*
X222649520Y-80950480D01*
X226326449Y-77130679D02*
X226100960Y-77356168D01*
X226159050Y-73870327D02*
X226326449Y-74037726D01*
%TO.N,/C18*%
X236323060Y-75676940D02*
X232600000Y-75676940D01*
X232000000Y-76276940D02*
X232000000Y-78200000D01*
X237550000Y-74450000D02*
X236323060Y-75676940D01*
X232600000Y-75676940D02*
X232000000Y-76276940D01*
%TO.N,/C16*%
X206729720Y-78227409D02*
X208157129Y-76800000D01*
X192343767Y-79543767D02*
X193287534Y-78600000D01*
X205605209Y-78227409D02*
X206729720Y-78227409D01*
X208157129Y-76800000D02*
X212949723Y-76800000D01*
X215456876Y-78200000D02*
X217256876Y-76400000D01*
X198511964Y-78325969D02*
X198785995Y-78600000D01*
X198785995Y-78600000D02*
X205232618Y-78600000D01*
X217256876Y-76400000D02*
X219010212Y-76400000D01*
X205232618Y-78600000D02*
X205605209Y-78227409D01*
X219010212Y-76400000D02*
X219607659Y-76997447D01*
X214349723Y-78200000D02*
X215456876Y-78200000D01*
X212949723Y-76800000D02*
X214349723Y-78200000D01*
X195038037Y-78325969D02*
X198511964Y-78325969D01*
X193287534Y-78600000D02*
X194764005Y-78600000D01*
X194764005Y-78600000D02*
X195038037Y-78325969D01*
%TO.N,/C17*%
X219331893Y-77571958D02*
X219991639Y-77571958D01*
X218609455Y-76849520D02*
X219331893Y-77571958D01*
X214152880Y-78702880D02*
X215589713Y-78702880D01*
X198325766Y-78775489D02*
X198600277Y-79050000D01*
X212700000Y-77250000D02*
X214152880Y-78702880D01*
X208342846Y-77250000D02*
X212700000Y-77250000D01*
X193200000Y-79500000D02*
X193650000Y-79050000D01*
X194949723Y-79050000D02*
X195224234Y-78775489D01*
X193650000Y-79050000D02*
X194949723Y-79050000D01*
X198600277Y-79050000D02*
X205418335Y-79050000D01*
X206915917Y-78676929D02*
X208342846Y-77250000D01*
X215589713Y-78702880D02*
X217443073Y-76849520D01*
X205418335Y-79050000D02*
X205791407Y-78676929D01*
X219991639Y-77571958D02*
X220534349Y-77029248D01*
X195224234Y-78775489D02*
X198325766Y-78775489D01*
X217443073Y-76849520D02*
X218609455Y-76849520D01*
X205791407Y-78676929D02*
X206915917Y-78676929D01*
%TO.N,/C15*%
X213966682Y-79152400D02*
X212513802Y-77699520D01*
X212513802Y-77699520D02*
X208529044Y-77699520D01*
X205604053Y-79500000D02*
X201300000Y-79500000D01*
X208529044Y-77699520D02*
X207102115Y-79126449D01*
X201300000Y-79500000D02*
X200400000Y-80400000D01*
X205977604Y-79126449D02*
X205604053Y-79500000D01*
X223750480Y-77011616D02*
X223750480Y-77978084D01*
X223750480Y-77978084D02*
X222576164Y-79152400D01*
X207102115Y-79126449D02*
X205977604Y-79126449D01*
X222576164Y-79152400D02*
X213966682Y-79152400D01*
X223986116Y-76775980D02*
X223750480Y-77011616D01*
%TO.N,/C8*%
X223157874Y-75871620D02*
X223157874Y-76177844D01*
X223157874Y-76177844D02*
X220757818Y-78577900D01*
X220757818Y-78577900D02*
X218800000Y-78577900D01*
%TO.N,/C6*%
X208664282Y-78200000D02*
X207288313Y-79575969D01*
X213780484Y-79601920D02*
X212378564Y-78200000D01*
X212378564Y-78200000D02*
X208664282Y-78200000D01*
X203000000Y-80000000D02*
X202600000Y-80400000D01*
X206163802Y-79575969D02*
X205739771Y-80000000D01*
X224700960Y-77305894D02*
X224200000Y-77806854D01*
X207288313Y-79575969D02*
X206163802Y-79575969D01*
X224575980Y-76400000D02*
X224700960Y-76524980D01*
X224700960Y-76524980D02*
X224700960Y-77305894D01*
X205739771Y-80000000D02*
X203000000Y-80000000D01*
X224200000Y-77806854D02*
X224200000Y-78164282D01*
X222762361Y-79601920D02*
X213780484Y-79601920D01*
X224200000Y-78164282D02*
X222762361Y-79601920D01*
%TO.N,/C7*%
X225150480Y-75996162D02*
X225150480Y-77492092D01*
X206350000Y-80025489D02*
X205775489Y-80600000D01*
X224768263Y-77874309D02*
X224768263Y-78231737D01*
X213594286Y-80051440D02*
X212192366Y-78649520D01*
X222948558Y-80051440D02*
X213594286Y-80051440D01*
X224940980Y-75786662D02*
X225150480Y-75996162D01*
X208850480Y-78649520D02*
X207474511Y-80025489D01*
X205775489Y-80600000D02*
X204400000Y-80600000D01*
X225150480Y-77492092D02*
X224768263Y-77874309D01*
X207474511Y-80025489D02*
X206350000Y-80025489D01*
X212192366Y-78649520D02*
X208850480Y-78649520D01*
X224768263Y-78231737D02*
X222948558Y-80051440D01*
%TO.N,/C9*%
X206600000Y-80600000D02*
X207749723Y-80600000D01*
X209250683Y-79099040D02*
X212006168Y-79099040D01*
X225876929Y-76944481D02*
X225876929Y-75486429D01*
X212006168Y-79099040D02*
X213408088Y-80500960D01*
X225326449Y-77951840D02*
X225651440Y-77626848D01*
X207749723Y-80600000D02*
X209250683Y-79099040D01*
X225326449Y-78402114D02*
X225326449Y-77951840D01*
X225651440Y-77626848D02*
X225651440Y-77169970D01*
X225651440Y-77169970D02*
X225876929Y-76944481D01*
X223227604Y-80500960D02*
X225326449Y-78402114D01*
X213408088Y-80500960D02*
X223227604Y-80500960D01*
X225876929Y-75486429D02*
X225349017Y-74958517D01*
%TO.N,/C4*%
X226550480Y-77542366D02*
X226775969Y-77316877D01*
X223350029Y-81649971D02*
X226225489Y-78774511D01*
X226225489Y-78774511D02*
X226225489Y-78324234D01*
X222324234Y-81649971D02*
X223350029Y-81649971D01*
X226225489Y-78324234D02*
X226550480Y-77999242D01*
X210600000Y-80600000D02*
X211400000Y-81400000D01*
X226775969Y-73915508D02*
X226900497Y-73790980D01*
X222074263Y-81400000D02*
X222324234Y-81649971D01*
X211400000Y-81400000D02*
X222074263Y-81400000D01*
X226775969Y-77316877D02*
X226775969Y-73915508D01*
X226550480Y-77999242D02*
X226550480Y-77542366D01*
%TO.N,/C5*%
X226999999Y-78400001D02*
X226999999Y-77728565D01*
X227600000Y-74200000D02*
X227600000Y-73790980D01*
X227225489Y-77503075D02*
X227225489Y-74574511D01*
X227225489Y-74574511D02*
X227600000Y-74200000D01*
X226999999Y-77728565D02*
X227225489Y-77503075D01*
X226800000Y-78600000D02*
X226999999Y-78400001D01*
%TO.N,/C3*%
X228700000Y-74798756D02*
X228374522Y-75124234D01*
X228374522Y-75675766D02*
X228326387Y-75723901D01*
X228374522Y-75124234D02*
X228374522Y-75675766D01*
X228800000Y-74000000D02*
X228700000Y-74100000D01*
X228700000Y-74100000D02*
X228700000Y-74798756D01*
X228326387Y-75723901D02*
X228326387Y-77775150D01*
X228326387Y-77775150D02*
X228058049Y-78043488D01*
X228058049Y-78043488D02*
X228058049Y-78258049D01*
%TO.N,/C10*%
X229150480Y-77801334D02*
X229150480Y-75827420D01*
X229150480Y-75827420D02*
X229000000Y-75676940D01*
X228775907Y-78175907D02*
X229150480Y-77801334D01*
%TO.N,/C14*%
X229590650Y-78184417D02*
X229600000Y-78175067D01*
X229600000Y-78175067D02*
X229600000Y-75979626D01*
X229600000Y-75979626D02*
X229983580Y-75596046D01*
%TO.N,/C11*%
X230393767Y-75998327D02*
X230753063Y-75639031D01*
X230393767Y-78193767D02*
X230393767Y-75998327D01*
%TO.N,/C13*%
X231593767Y-75606233D02*
X231200000Y-76000000D01*
X231200000Y-76000000D02*
X231200000Y-78200000D01*
%TO.N,/C12*%
X194851840Y-77876449D02*
X198698162Y-77876449D01*
X207671411Y-75525489D02*
X214274511Y-75525489D01*
X205046420Y-78150480D02*
X207671411Y-75525489D01*
X214274511Y-75525489D02*
X217800000Y-72000000D01*
X217800000Y-69149723D02*
X216713513Y-68063236D01*
X191500000Y-79500000D02*
X192650000Y-78350000D01*
X216713513Y-68063236D02*
X216536764Y-68063236D01*
X194577808Y-78150480D02*
X194851840Y-77876449D01*
X198698162Y-77876449D02*
X198972193Y-78150480D01*
X193101337Y-78150480D02*
X194577808Y-78150480D01*
X192901816Y-78350000D02*
X193101337Y-78150480D01*
X198972193Y-78150480D02*
X205046420Y-78150480D01*
X192650000Y-78350000D02*
X192901816Y-78350000D01*
X217800000Y-72000000D02*
X217800000Y-69149723D01*
%TO.N,+4V*%
X207950000Y-72150000D02*
X208900000Y-73100000D01*
X204600000Y-72900000D02*
X205350000Y-72150000D01*
X205350000Y-72150000D02*
X207950000Y-72150000D01*
%TD*%
%TA.AperFunction,Conductor*%
%TO.N,GND*%
G36*
X251569182Y-79389242D02*
G01*
X251592838Y-79410769D01*
X251705737Y-79553212D01*
X251709417Y-79556344D01*
X251709419Y-79556346D01*
X251756256Y-79596207D01*
X251862612Y-79686723D01*
X251866835Y-79689083D01*
X251866839Y-79689086D01*
X251972696Y-79748247D01*
X252042432Y-79787221D01*
X252065546Y-79794731D01*
X252071092Y-79796533D01*
X252120592Y-79832497D01*
X252139500Y-79890688D01*
X252139500Y-81609166D01*
X252120593Y-81667357D01*
X252110504Y-81679170D01*
X251082755Y-82706918D01*
X251076400Y-82712740D01*
X251069897Y-82718197D01*
X251053457Y-82731991D01*
X251053455Y-82731993D01*
X251046822Y-82737559D01*
X251029321Y-82767871D01*
X251027397Y-82771204D01*
X251022758Y-82778486D01*
X251007539Y-82800222D01*
X251000465Y-82810325D01*
X250998223Y-82818694D01*
X250995757Y-82823983D01*
X250993763Y-82829461D01*
X250989432Y-82836962D01*
X250987928Y-82845490D01*
X250987928Y-82845491D01*
X250982685Y-82875226D01*
X250980816Y-82883658D01*
X250970758Y-82921195D01*
X250971513Y-82929822D01*
X250974123Y-82959656D01*
X250974500Y-82968285D01*
X250974500Y-87724165D01*
X250955593Y-87782356D01*
X250945504Y-87794169D01*
X250794169Y-87945504D01*
X250739652Y-87973281D01*
X250724165Y-87974500D01*
X224410829Y-87974500D01*
X224352638Y-87955593D01*
X224316674Y-87906093D01*
X224316674Y-87844907D01*
X224340825Y-87805496D01*
X227866748Y-84279573D01*
X227873115Y-84273740D01*
X227896059Y-84254487D01*
X227896063Y-84254483D01*
X227902698Y-84248915D01*
X227922130Y-84215258D01*
X227926769Y-84207977D01*
X227944086Y-84183245D01*
X227949055Y-84176149D01*
X227951297Y-84167781D01*
X227953764Y-84162492D01*
X227955759Y-84157010D01*
X227960088Y-84149512D01*
X227966834Y-84111256D01*
X227968703Y-84102826D01*
X227976522Y-84073646D01*
X227976522Y-84073641D01*
X227978763Y-84065279D01*
X227975397Y-84026809D01*
X227975020Y-84018181D01*
X227975020Y-83197751D01*
X227993927Y-83139560D01*
X228004016Y-83127747D01*
X230680563Y-80451200D01*
X230735080Y-80423423D01*
X230795512Y-80432994D01*
X230838777Y-80476259D01*
X230849564Y-80521981D01*
X230849527Y-80526719D01*
X230849044Y-80588201D01*
X230851164Y-80595289D01*
X230851164Y-80595291D01*
X230884440Y-80706557D01*
X230887851Y-80717962D01*
X230891963Y-80724116D01*
X230891964Y-80724118D01*
X230907505Y-80747376D01*
X230963098Y-80830577D01*
X230968839Y-80835251D01*
X231062395Y-80911418D01*
X231062398Y-80911420D01*
X231068132Y-80916088D01*
X231193666Y-80966934D01*
X231328601Y-80978621D01*
X231395785Y-80964157D01*
X231453769Y-80951674D01*
X231453772Y-80951673D01*
X231461008Y-80950115D01*
X231498280Y-80929242D01*
X231572724Y-80887551D01*
X231579179Y-80883936D01*
X231584285Y-80878583D01*
X231590136Y-80874045D01*
X231591317Y-80875568D01*
X231636601Y-80851132D01*
X231654391Y-80849520D01*
X236157695Y-80849520D01*
X236166324Y-80849897D01*
X236204785Y-80853262D01*
X236242322Y-80843204D01*
X236250754Y-80841335D01*
X236280489Y-80836092D01*
X236280490Y-80836092D01*
X236289018Y-80834588D01*
X236296519Y-80830257D01*
X236301997Y-80828263D01*
X236307286Y-80825797D01*
X236315655Y-80823555D01*
X236322752Y-80818586D01*
X236347494Y-80801262D01*
X236354776Y-80796623D01*
X236359420Y-80793942D01*
X236388421Y-80777198D01*
X236413239Y-80747621D01*
X236419073Y-80741254D01*
X236605831Y-80554496D01*
X236660348Y-80526719D01*
X236675835Y-80525500D01*
X250264992Y-80525500D01*
X250273621Y-80525877D01*
X250312082Y-80529242D01*
X250349619Y-80519184D01*
X250358051Y-80517315D01*
X250387786Y-80512072D01*
X250387787Y-80512072D01*
X250396315Y-80510568D01*
X250403816Y-80506237D01*
X250409294Y-80504243D01*
X250414583Y-80501777D01*
X250422952Y-80499535D01*
X250430049Y-80494566D01*
X250454791Y-80477242D01*
X250462073Y-80472603D01*
X250488218Y-80457508D01*
X250488217Y-80457508D01*
X250495718Y-80453178D01*
X250520536Y-80423601D01*
X250526370Y-80417234D01*
X251316745Y-79626859D01*
X251323113Y-79621024D01*
X251352689Y-79596207D01*
X251372115Y-79562561D01*
X251376753Y-79555280D01*
X251385367Y-79542976D01*
X251399046Y-79523441D01*
X251401287Y-79515077D01*
X251403752Y-79509792D01*
X251405750Y-79504303D01*
X251410079Y-79496804D01*
X251416826Y-79458541D01*
X251418699Y-79450096D01*
X251419629Y-79446627D01*
X251452959Y-79395317D01*
X251510084Y-79373398D01*
X251569182Y-79389242D01*
G37*
%TD.AperFunction*%
%TA.AperFunction,Conductor*%
G36*
X205007867Y-71869896D02*
G01*
X205043831Y-71919396D01*
X205043831Y-71980582D01*
X205019680Y-72019993D01*
X204616709Y-72422964D01*
X204562192Y-72450741D01*
X204553699Y-72451713D01*
X204500636Y-72455470D01*
X204471029Y-72466924D01*
X204381222Y-72501667D01*
X204381220Y-72501668D01*
X204374319Y-72504338D01*
X204368506Y-72508921D01*
X204289195Y-72571445D01*
X204267955Y-72588189D01*
X204263748Y-72594276D01*
X204263747Y-72594277D01*
X204228564Y-72645182D01*
X204190948Y-72699608D01*
X204150108Y-72828744D01*
X204149864Y-72859833D01*
X204149165Y-72948839D01*
X204149044Y-72964181D01*
X204151164Y-72971269D01*
X204151164Y-72971271D01*
X204166018Y-73020937D01*
X204187851Y-73093942D01*
X204191963Y-73100096D01*
X204191964Y-73100098D01*
X204197169Y-73107888D01*
X204263098Y-73206557D01*
X204268839Y-73211231D01*
X204362395Y-73287398D01*
X204362398Y-73287400D01*
X204368132Y-73292068D01*
X204493666Y-73342914D01*
X204628601Y-73354601D01*
X204682886Y-73342914D01*
X204753769Y-73327654D01*
X204753772Y-73327653D01*
X204761008Y-73326095D01*
X204771376Y-73320289D01*
X204872724Y-73263531D01*
X204879179Y-73259916D01*
X204972667Y-73161915D01*
X205033206Y-73040757D01*
X205050687Y-72935737D01*
X205078338Y-72881989D01*
X205455831Y-72504496D01*
X205510348Y-72476719D01*
X205525835Y-72475500D01*
X207774165Y-72475500D01*
X207832356Y-72494407D01*
X207844169Y-72504496D01*
X208420152Y-73080479D01*
X208447929Y-73134996D01*
X208449145Y-73151257D01*
X208449114Y-73155296D01*
X208449044Y-73164181D01*
X208451164Y-73171270D01*
X208467556Y-73226082D01*
X208487851Y-73293942D01*
X208491963Y-73300096D01*
X208491964Y-73300098D01*
X208506918Y-73322478D01*
X208563098Y-73406557D01*
X208568839Y-73411231D01*
X208662395Y-73487398D01*
X208662398Y-73487400D01*
X208668132Y-73492068D01*
X208793666Y-73542914D01*
X208928601Y-73554601D01*
X208995785Y-73540137D01*
X209053769Y-73527654D01*
X209053772Y-73527653D01*
X209061008Y-73526095D01*
X209072501Y-73519659D01*
X209172724Y-73463531D01*
X209179179Y-73459916D01*
X209272667Y-73361915D01*
X209333206Y-73240757D01*
X209355444Y-73107155D01*
X209355500Y-73100000D01*
X209354781Y-73095213D01*
X209336465Y-72973386D01*
X209336464Y-72973384D01*
X209335364Y-72966065D01*
X209330907Y-72956782D01*
X209279937Y-72850639D01*
X209276735Y-72843971D01*
X209184798Y-72744514D01*
X209097002Y-72693518D01*
X209074079Y-72680203D01*
X209074078Y-72680202D01*
X209067681Y-72676487D01*
X209060475Y-72674817D01*
X209060473Y-72674816D01*
X208942949Y-72647575D01*
X208942946Y-72647575D01*
X208935738Y-72645904D01*
X208935900Y-72645203D01*
X208884790Y-72624031D01*
X208879082Y-72618756D01*
X208280320Y-72019993D01*
X208252543Y-71965476D01*
X208262114Y-71905044D01*
X208305379Y-71861779D01*
X208350324Y-71850989D01*
X208999931Y-71850989D01*
X209058122Y-71869896D01*
X209069935Y-71879985D01*
X210495504Y-73305554D01*
X210523281Y-73360071D01*
X210524500Y-73375558D01*
X210524500Y-73931715D01*
X210524123Y-73940344D01*
X210520758Y-73978805D01*
X210525185Y-73995325D01*
X210530816Y-74016342D01*
X210532685Y-74024774D01*
X210537928Y-74054509D01*
X210539432Y-74063038D01*
X210543763Y-74070539D01*
X210545757Y-74076017D01*
X210548223Y-74081306D01*
X210550465Y-74089675D01*
X210555433Y-74096771D01*
X210555434Y-74096772D01*
X210572758Y-74121514D01*
X210577396Y-74128795D01*
X210596822Y-74162441D01*
X210603456Y-74168008D01*
X210603459Y-74168011D01*
X210626399Y-74187260D01*
X210632767Y-74193094D01*
X211456902Y-75017228D01*
X211462738Y-75023598D01*
X211474281Y-75037355D01*
X211497200Y-75094085D01*
X211482397Y-75153453D01*
X211435525Y-75192781D01*
X211398441Y-75199989D01*
X207689696Y-75199989D01*
X207681068Y-75199612D01*
X207679937Y-75199513D01*
X207642606Y-75196247D01*
X207630048Y-75199612D01*
X207605069Y-75206305D01*
X207596637Y-75208174D01*
X207566902Y-75213417D01*
X207566901Y-75213417D01*
X207558373Y-75214921D01*
X207550872Y-75219252D01*
X207545389Y-75221248D01*
X207540105Y-75223712D01*
X207531736Y-75225954D01*
X207506652Y-75243518D01*
X207499908Y-75248240D01*
X207492627Y-75252879D01*
X207458970Y-75272311D01*
X207453404Y-75278944D01*
X207453402Y-75278946D01*
X207434148Y-75301893D01*
X207428313Y-75308261D01*
X204940589Y-77795984D01*
X204886072Y-77823761D01*
X204870585Y-77824980D01*
X199148028Y-77824980D01*
X199089837Y-77806073D01*
X199078024Y-77795984D01*
X198941255Y-77659215D01*
X198935420Y-77652847D01*
X198930106Y-77646514D01*
X198910603Y-77623271D01*
X198876957Y-77603845D01*
X198869676Y-77599207D01*
X198844934Y-77581883D01*
X198844933Y-77581882D01*
X198837837Y-77576914D01*
X198829468Y-77574672D01*
X198824179Y-77572206D01*
X198818701Y-77570212D01*
X198811200Y-77565881D01*
X198802672Y-77564377D01*
X198802671Y-77564377D01*
X198772936Y-77559134D01*
X198764504Y-77557265D01*
X198735330Y-77549448D01*
X198735331Y-77549448D01*
X198726967Y-77547207D01*
X198688545Y-77550569D01*
X198688506Y-77550572D01*
X198679877Y-77550949D01*
X194870125Y-77550949D01*
X194861497Y-77550572D01*
X194848661Y-77549449D01*
X194823035Y-77547207D01*
X194785494Y-77557267D01*
X194777073Y-77559133D01*
X194747330Y-77564377D01*
X194747328Y-77564378D01*
X194738802Y-77565881D01*
X194731302Y-77570211D01*
X194725816Y-77572208D01*
X194720530Y-77574673D01*
X194712166Y-77576914D01*
X194705071Y-77581882D01*
X194680340Y-77599199D01*
X194673061Y-77603836D01*
X194639399Y-77623271D01*
X194619896Y-77646514D01*
X194614572Y-77652859D01*
X194608736Y-77659227D01*
X194471978Y-77795984D01*
X194417462Y-77823761D01*
X194401975Y-77824980D01*
X193119631Y-77824980D01*
X193111002Y-77824603D01*
X193072533Y-77821237D01*
X193059971Y-77824603D01*
X193034992Y-77831296D01*
X193026564Y-77833164D01*
X192988299Y-77839912D01*
X192980796Y-77844244D01*
X192975312Y-77846240D01*
X192970030Y-77848703D01*
X192961663Y-77850945D01*
X192929828Y-77873236D01*
X192922552Y-77877871D01*
X192919297Y-77879750D01*
X192896395Y-77892972D01*
X192896393Y-77892973D01*
X192888896Y-77897302D01*
X192868796Y-77921257D01*
X192864079Y-77926878D01*
X192858244Y-77933246D01*
X192795986Y-77995504D01*
X192741469Y-78023281D01*
X192725982Y-78024500D01*
X192668293Y-78024500D01*
X192659664Y-78024123D01*
X192621195Y-78020757D01*
X192612833Y-78022998D01*
X192612828Y-78022998D01*
X192583648Y-78030817D01*
X192575218Y-78032686D01*
X192568373Y-78033893D01*
X192545489Y-78037928D01*
X192545487Y-78037929D01*
X192536962Y-78039432D01*
X192529464Y-78043761D01*
X192523982Y-78045756D01*
X192518693Y-78048223D01*
X192510325Y-78050465D01*
X192483027Y-78069579D01*
X192478497Y-78072751D01*
X192471216Y-78077390D01*
X192437559Y-78096822D01*
X192431993Y-78103455D01*
X192431991Y-78103457D01*
X192412737Y-78126404D01*
X192406902Y-78132772D01*
X191516709Y-79022964D01*
X191462192Y-79050741D01*
X191453699Y-79051713D01*
X191400636Y-79055470D01*
X191392972Y-79058435D01*
X191281222Y-79101667D01*
X191281220Y-79101668D01*
X191274319Y-79104338D01*
X191167955Y-79188189D01*
X191163748Y-79194276D01*
X191163747Y-79194277D01*
X191122804Y-79253517D01*
X191090948Y-79299608D01*
X191088716Y-79306666D01*
X191057777Y-79404496D01*
X191050108Y-79428744D01*
X191049989Y-79443907D01*
X191049106Y-79556346D01*
X191049044Y-79564181D01*
X191051164Y-79571269D01*
X191051164Y-79571271D01*
X191056379Y-79588707D01*
X191087851Y-79693942D01*
X191091963Y-79700096D01*
X191091964Y-79700098D01*
X191097383Y-79708208D01*
X191163098Y-79806557D01*
X191168837Y-79811229D01*
X191168839Y-79811231D01*
X191262395Y-79887398D01*
X191262398Y-79887400D01*
X191268132Y-79892068D01*
X191393666Y-79942914D01*
X191528601Y-79954601D01*
X191595785Y-79940137D01*
X191653769Y-79927654D01*
X191653772Y-79927653D01*
X191661008Y-79926095D01*
X191694573Y-79907298D01*
X191772724Y-79863531D01*
X191779179Y-79859916D01*
X191784283Y-79854566D01*
X191784289Y-79854561D01*
X191831551Y-79805016D01*
X191885398Y-79775961D01*
X191946039Y-79784106D01*
X191985499Y-79818347D01*
X192006865Y-79850324D01*
X192012606Y-79854998D01*
X192106162Y-79931165D01*
X192106165Y-79931167D01*
X192111899Y-79935835D01*
X192118755Y-79938612D01*
X192151100Y-79951713D01*
X192237433Y-79986681D01*
X192372368Y-79998368D01*
X192439552Y-79983904D01*
X192497536Y-79971421D01*
X192497539Y-79971420D01*
X192504775Y-79969862D01*
X192532026Y-79954601D01*
X192616491Y-79907298D01*
X192622946Y-79903683D01*
X192716434Y-79805682D01*
X192718305Y-79807467D01*
X192757780Y-79777838D01*
X192818958Y-79776886D01*
X192861180Y-79803687D01*
X192863098Y-79806557D01*
X192868837Y-79811229D01*
X192962395Y-79887398D01*
X192962398Y-79887400D01*
X192968132Y-79892068D01*
X193093666Y-79942914D01*
X193228601Y-79954601D01*
X193295785Y-79940137D01*
X193353769Y-79927654D01*
X193353772Y-79927653D01*
X193361008Y-79926095D01*
X193394573Y-79907298D01*
X193472724Y-79863531D01*
X193479179Y-79859916D01*
X193572667Y-79761915D01*
X193607677Y-79691848D01*
X193629899Y-79647376D01*
X193629900Y-79647374D01*
X193633206Y-79640757D01*
X193650687Y-79535737D01*
X193678338Y-79481989D01*
X193755831Y-79404496D01*
X193810348Y-79376719D01*
X193825835Y-79375500D01*
X193936087Y-79375500D01*
X193994278Y-79394407D01*
X194030242Y-79443907D01*
X194030242Y-79505093D01*
X193996356Y-79553041D01*
X193971847Y-79571847D01*
X193875622Y-79697250D01*
X193815132Y-79843285D01*
X193794500Y-80000000D01*
X193815132Y-80156715D01*
X193875622Y-80302750D01*
X193971847Y-80428153D01*
X194097250Y-80524378D01*
X194152772Y-80547376D01*
X194236335Y-80581989D01*
X194243285Y-80584868D01*
X194400000Y-80605500D01*
X194406434Y-80604653D01*
X194479880Y-80594984D01*
X194540041Y-80606134D01*
X194562806Y-80623133D01*
X198154934Y-84215260D01*
X201745170Y-87805496D01*
X201772947Y-87860013D01*
X201763376Y-87920445D01*
X201720111Y-87963710D01*
X201675166Y-87974500D01*
X187925835Y-87974500D01*
X187867644Y-87955593D01*
X187855831Y-87945504D01*
X187204496Y-87294169D01*
X187176719Y-87239652D01*
X187175500Y-87224165D01*
X187175500Y-79375835D01*
X187194407Y-79317644D01*
X187204496Y-79305831D01*
X190055831Y-76454496D01*
X190110348Y-76426719D01*
X190125835Y-76425500D01*
X199481715Y-76425500D01*
X199490344Y-76425877D01*
X199528805Y-76429242D01*
X199566342Y-76419184D01*
X199574774Y-76417315D01*
X199604509Y-76412072D01*
X199604510Y-76412072D01*
X199613038Y-76410568D01*
X199620539Y-76406237D01*
X199626017Y-76404243D01*
X199631306Y-76401777D01*
X199639675Y-76399535D01*
X199663600Y-76382783D01*
X199671514Y-76377242D01*
X199678796Y-76372603D01*
X199704941Y-76357508D01*
X199704940Y-76357508D01*
X199712441Y-76353178D01*
X199737259Y-76323601D01*
X199743093Y-76317234D01*
X201417234Y-74643093D01*
X201423602Y-74637258D01*
X201430836Y-74631188D01*
X201453178Y-74612441D01*
X201472604Y-74578795D01*
X201477242Y-74571514D01*
X201494566Y-74546772D01*
X201494567Y-74546771D01*
X201499535Y-74539675D01*
X201501777Y-74531306D01*
X201504243Y-74526017D01*
X201506237Y-74520539D01*
X201510568Y-74513038D01*
X201512471Y-74502248D01*
X201517315Y-74474774D01*
X201519184Y-74466342D01*
X201527001Y-74437168D01*
X201529242Y-74428805D01*
X201525877Y-74390344D01*
X201525500Y-74381715D01*
X201525500Y-72451007D01*
X201544407Y-72392816D01*
X201552866Y-72382672D01*
X201565579Y-72369345D01*
X201572667Y-72361915D01*
X201633206Y-72240757D01*
X201647712Y-72153609D01*
X201650687Y-72135736D01*
X201678339Y-72081988D01*
X201728675Y-72031651D01*
X201760423Y-72011424D01*
X201762558Y-72011048D01*
X201770058Y-72006718D01*
X201775541Y-72004722D01*
X201780829Y-72002256D01*
X201789195Y-72000015D01*
X201800545Y-71992068D01*
X201821034Y-71977722D01*
X201828316Y-71973083D01*
X201854458Y-71957990D01*
X201861961Y-71953658D01*
X201876488Y-71936346D01*
X201886774Y-71924087D01*
X201892608Y-71917719D01*
X201930342Y-71879985D01*
X201984859Y-71852208D01*
X202000346Y-71850989D01*
X204949676Y-71850989D01*
X205007867Y-71869896D01*
G37*
%TD.AperFunction*%
%TA.AperFunction,Conductor*%
G36*
X198208122Y-79119896D02*
G01*
X198219935Y-79129985D01*
X198357184Y-79267234D01*
X198363018Y-79273601D01*
X198387836Y-79303178D01*
X198395337Y-79307508D01*
X198395336Y-79307508D01*
X198421481Y-79322603D01*
X198428763Y-79327242D01*
X198439596Y-79334827D01*
X198460602Y-79349535D01*
X198468966Y-79351776D01*
X198474251Y-79354241D01*
X198479740Y-79356239D01*
X198487239Y-79360568D01*
X198495768Y-79362072D01*
X198525502Y-79367315D01*
X198533931Y-79369183D01*
X198571471Y-79379242D01*
X198609933Y-79375877D01*
X198618561Y-79375500D01*
X200725165Y-79375500D01*
X200783356Y-79394407D01*
X200819320Y-79443907D01*
X200819320Y-79505093D01*
X200795169Y-79544504D01*
X200416709Y-79922964D01*
X200362192Y-79950741D01*
X200353699Y-79951713D01*
X200300636Y-79955470D01*
X200272784Y-79966245D01*
X200181222Y-80001667D01*
X200181220Y-80001668D01*
X200174319Y-80004338D01*
X200168506Y-80008921D01*
X200078495Y-80079880D01*
X200067955Y-80088189D01*
X200063748Y-80094276D01*
X200063747Y-80094277D01*
X200001349Y-80184559D01*
X199990948Y-80199608D01*
X199988716Y-80206666D01*
X199967099Y-80275020D01*
X199950108Y-80328744D01*
X199950050Y-80336143D01*
X199949183Y-80446544D01*
X199949044Y-80464181D01*
X199951164Y-80471269D01*
X199951164Y-80471271D01*
X199969762Y-80533457D01*
X199987851Y-80593942D01*
X199991963Y-80600096D01*
X199991964Y-80600098D01*
X200001380Y-80614190D01*
X200063098Y-80706557D01*
X200068839Y-80711231D01*
X200162395Y-80787398D01*
X200162398Y-80787400D01*
X200168132Y-80792068D01*
X200174988Y-80794845D01*
X200187957Y-80800098D01*
X200293666Y-80842914D01*
X200428601Y-80854601D01*
X200495785Y-80840137D01*
X200553769Y-80827654D01*
X200553772Y-80827653D01*
X200561008Y-80826095D01*
X200571376Y-80820289D01*
X200672724Y-80763531D01*
X200679179Y-80759916D01*
X200772667Y-80661915D01*
X200833206Y-80540757D01*
X200850687Y-80435737D01*
X200878338Y-80381989D01*
X201405831Y-79854496D01*
X201460348Y-79826719D01*
X201475835Y-79825500D01*
X202316697Y-79825500D01*
X202374888Y-79844407D01*
X202410852Y-79893907D01*
X202410852Y-79955093D01*
X202375368Y-80003932D01*
X202374319Y-80004338D01*
X202369963Y-80007772D01*
X202369960Y-80007774D01*
X202278495Y-80079880D01*
X202267955Y-80088189D01*
X202263748Y-80094276D01*
X202263747Y-80094277D01*
X202201349Y-80184559D01*
X202190948Y-80199608D01*
X202188716Y-80206666D01*
X202167099Y-80275020D01*
X202150108Y-80328744D01*
X202150050Y-80336143D01*
X202149183Y-80446544D01*
X202149044Y-80464181D01*
X202151164Y-80471269D01*
X202151164Y-80471271D01*
X202169762Y-80533457D01*
X202187851Y-80593942D01*
X202191963Y-80600096D01*
X202191964Y-80600098D01*
X202201380Y-80614190D01*
X202263098Y-80706557D01*
X202268839Y-80711231D01*
X202362395Y-80787398D01*
X202362398Y-80787400D01*
X202368132Y-80792068D01*
X202374988Y-80794845D01*
X202387957Y-80800098D01*
X202493666Y-80842914D01*
X202628601Y-80854601D01*
X202695785Y-80840137D01*
X202753769Y-80827654D01*
X202753772Y-80827653D01*
X202761008Y-80826095D01*
X202771376Y-80820289D01*
X202872724Y-80763531D01*
X202879179Y-80759916D01*
X202972667Y-80661915D01*
X203033206Y-80540757D01*
X203050687Y-80435737D01*
X203078338Y-80381989D01*
X203105831Y-80354496D01*
X203160348Y-80326719D01*
X203175835Y-80325500D01*
X203879243Y-80325500D01*
X203937434Y-80344407D01*
X203973398Y-80393907D01*
X203973635Y-80454352D01*
X203955381Y-80512072D01*
X203950108Y-80528744D01*
X203949044Y-80664181D01*
X203951164Y-80671269D01*
X203951164Y-80671271D01*
X203980859Y-80770564D01*
X203987851Y-80793942D01*
X203991963Y-80800096D01*
X203991964Y-80800098D01*
X204006918Y-80822478D01*
X204063098Y-80906557D01*
X204068839Y-80911231D01*
X204162395Y-80987398D01*
X204162398Y-80987400D01*
X204168132Y-80992068D01*
X204293666Y-81042914D01*
X204428601Y-81054601D01*
X204495785Y-81040137D01*
X204553769Y-81027654D01*
X204553772Y-81027653D01*
X204561008Y-81026095D01*
X204630107Y-80987398D01*
X204672724Y-80963531D01*
X204679179Y-80959916D01*
X204684285Y-80954563D01*
X204690136Y-80950025D01*
X204691317Y-80951548D01*
X204736601Y-80927112D01*
X204754391Y-80925500D01*
X205757204Y-80925500D01*
X205765833Y-80925877D01*
X205804294Y-80929242D01*
X205841831Y-80919184D01*
X205850263Y-80917315D01*
X205879998Y-80912072D01*
X205879999Y-80912072D01*
X205888527Y-80910568D01*
X205896028Y-80906237D01*
X205901506Y-80904243D01*
X205906795Y-80901777D01*
X205915164Y-80899535D01*
X205922261Y-80894566D01*
X205947003Y-80877242D01*
X205954285Y-80872603D01*
X205987930Y-80853178D01*
X206012748Y-80823601D01*
X206018582Y-80817234D01*
X206044082Y-80791734D01*
X206098599Y-80763957D01*
X206159031Y-80773528D01*
X206196398Y-80806733D01*
X206263098Y-80906557D01*
X206268839Y-80911231D01*
X206362395Y-80987398D01*
X206362398Y-80987400D01*
X206368132Y-80992068D01*
X206493666Y-81042914D01*
X206628601Y-81054601D01*
X206695785Y-81040137D01*
X206753769Y-81027654D01*
X206753772Y-81027653D01*
X206761008Y-81026095D01*
X206830107Y-80987398D01*
X206872724Y-80963531D01*
X206879179Y-80959916D01*
X206884285Y-80954563D01*
X206890136Y-80950025D01*
X206891317Y-80951548D01*
X206936601Y-80927112D01*
X206954391Y-80925500D01*
X207731438Y-80925500D01*
X207740067Y-80925877D01*
X207778528Y-80929242D01*
X207816065Y-80919184D01*
X207824497Y-80917315D01*
X207854232Y-80912072D01*
X207854233Y-80912072D01*
X207862761Y-80910568D01*
X207870262Y-80906237D01*
X207875740Y-80904243D01*
X207881029Y-80901777D01*
X207889398Y-80899535D01*
X207896495Y-80894566D01*
X207921237Y-80877242D01*
X207928519Y-80872603D01*
X207962164Y-80853178D01*
X207986982Y-80823601D01*
X207992816Y-80817234D01*
X209356514Y-79453536D01*
X209411031Y-79425759D01*
X209426518Y-79424540D01*
X211830333Y-79424540D01*
X211888524Y-79443447D01*
X211900337Y-79453536D01*
X212902777Y-80455976D01*
X212930554Y-80510493D01*
X212920983Y-80570925D01*
X212877718Y-80614190D01*
X212832773Y-80624980D01*
X211926315Y-80624980D01*
X211868124Y-80606073D01*
X211856311Y-80595984D01*
X211505839Y-80245512D01*
X211485500Y-80213583D01*
X211485079Y-80211196D01*
X211480751Y-80203700D01*
X211478755Y-80198214D01*
X211476287Y-80192922D01*
X211474046Y-80184559D01*
X211453313Y-80154948D01*
X211451753Y-80152720D01*
X211447114Y-80145438D01*
X211437210Y-80128284D01*
X211427689Y-80111793D01*
X211398112Y-80086975D01*
X211391745Y-80081141D01*
X211118859Y-79808255D01*
X211113024Y-79801887D01*
X211088207Y-79772311D01*
X211054561Y-79752885D01*
X211047280Y-79748247D01*
X211022538Y-79730923D01*
X211022537Y-79730922D01*
X211015441Y-79725954D01*
X211007072Y-79723712D01*
X211001783Y-79721246D01*
X210996305Y-79719252D01*
X210988804Y-79714921D01*
X210980276Y-79713417D01*
X210980275Y-79713417D01*
X210950540Y-79708174D01*
X210942108Y-79706305D01*
X210912934Y-79698488D01*
X210912935Y-79698488D01*
X210904571Y-79696247D01*
X210866149Y-79699609D01*
X210866110Y-79699612D01*
X210857481Y-79699989D01*
X210042795Y-79699989D01*
X210034167Y-79699612D01*
X210033036Y-79699513D01*
X209995705Y-79696247D01*
X209958169Y-79706305D01*
X209949744Y-79708172D01*
X209936311Y-79710541D01*
X209920001Y-79713417D01*
X209920000Y-79713417D01*
X209911473Y-79714921D01*
X209903974Y-79719250D01*
X209898505Y-79721241D01*
X209893205Y-79723713D01*
X209884836Y-79725955D01*
X209877741Y-79730923D01*
X209877739Y-79730924D01*
X209853008Y-79748241D01*
X209845726Y-79752880D01*
X209812070Y-79772311D01*
X209787253Y-79801887D01*
X209781418Y-79808255D01*
X209466709Y-80122964D01*
X209412192Y-80150741D01*
X209403699Y-80151713D01*
X209350636Y-80155470D01*
X209314308Y-80169524D01*
X209231222Y-80201667D01*
X209231220Y-80201668D01*
X209224319Y-80204338D01*
X209215620Y-80211196D01*
X209134660Y-80275020D01*
X209117955Y-80288189D01*
X209113748Y-80294276D01*
X209113747Y-80294277D01*
X209079100Y-80344407D01*
X209040948Y-80399608D01*
X209029522Y-80435738D01*
X209005381Y-80512072D01*
X209000108Y-80528744D01*
X208999044Y-80664181D01*
X209001164Y-80671269D01*
X209001164Y-80671271D01*
X209030859Y-80770564D01*
X209037851Y-80793942D01*
X209041963Y-80800096D01*
X209041964Y-80800098D01*
X209056918Y-80822478D01*
X209113098Y-80906557D01*
X209118839Y-80911231D01*
X209212395Y-80987398D01*
X209212398Y-80987400D01*
X209218132Y-80992068D01*
X209343666Y-81042914D01*
X209478601Y-81054601D01*
X209545785Y-81040137D01*
X209603769Y-81027654D01*
X209603772Y-81027653D01*
X209611008Y-81026095D01*
X209680107Y-80987398D01*
X209722724Y-80963531D01*
X209729179Y-80959916D01*
X209822667Y-80861915D01*
X209866831Y-80773528D01*
X209879899Y-80747376D01*
X209879900Y-80747374D01*
X209883206Y-80740757D01*
X209900687Y-80635737D01*
X209928338Y-80581989D01*
X209980543Y-80529784D01*
X210035060Y-80502007D01*
X210095492Y-80511578D01*
X210138757Y-80554843D01*
X210149544Y-80600565D01*
X210149044Y-80664181D01*
X210151164Y-80671269D01*
X210151164Y-80671271D01*
X210180859Y-80770564D01*
X210187851Y-80793942D01*
X210191963Y-80800096D01*
X210191964Y-80800098D01*
X210206918Y-80822478D01*
X210263098Y-80906557D01*
X210268839Y-80911231D01*
X210362395Y-80987398D01*
X210362398Y-80987400D01*
X210368132Y-80992068D01*
X210493666Y-81042914D01*
X210555072Y-81048233D01*
X210611413Y-81072090D01*
X210616519Y-81076846D01*
X211053618Y-81513944D01*
X211156902Y-81617228D01*
X211162737Y-81623596D01*
X211181991Y-81646543D01*
X211181993Y-81646545D01*
X211187559Y-81653178D01*
X211221214Y-81672609D01*
X211228495Y-81677248D01*
X211260325Y-81699535D01*
X211268694Y-81701777D01*
X211273978Y-81704241D01*
X211279461Y-81706237D01*
X211286962Y-81710568D01*
X211295490Y-81712072D01*
X211295491Y-81712072D01*
X211325226Y-81717315D01*
X211333658Y-81719184D01*
X211338174Y-81720394D01*
X211371195Y-81729242D01*
X211409657Y-81725877D01*
X211418285Y-81725500D01*
X217586395Y-81725500D01*
X217644586Y-81744407D01*
X217680550Y-81793907D01*
X217680550Y-81855093D01*
X217644586Y-81904593D01*
X217637014Y-81909580D01*
X217379564Y-82062747D01*
X217121800Y-82261611D01*
X216889793Y-82490002D01*
X216686905Y-82744611D01*
X216679403Y-82756782D01*
X216523753Y-83009293D01*
X216516074Y-83021750D01*
X216514826Y-83024458D01*
X216514824Y-83024461D01*
X216486995Y-83084827D01*
X216379775Y-83317405D01*
X216279983Y-83627294D01*
X216218142Y-83946927D01*
X216195148Y-84271674D01*
X216196558Y-84300000D01*
X216211336Y-84596831D01*
X216266469Y-84917689D01*
X216359750Y-85229599D01*
X216360938Y-85232326D01*
X216360940Y-85232330D01*
X216397093Y-85315278D01*
X216489827Y-85528044D01*
X216654817Y-85808701D01*
X216656625Y-85811070D01*
X216656627Y-85811073D01*
X216703482Y-85872468D01*
X216852328Y-86067503D01*
X217079501Y-86300702D01*
X217333044Y-86504921D01*
X217335572Y-86506498D01*
X217335574Y-86506499D01*
X217606760Y-86675625D01*
X217606764Y-86675627D01*
X217609286Y-86677200D01*
X217611976Y-86678457D01*
X217611994Y-86678467D01*
X217627712Y-86685813D01*
X217672424Y-86727580D01*
X217684045Y-86787652D01*
X217658138Y-86843082D01*
X217604598Y-86872698D01*
X217585794Y-86874500D01*
X203775834Y-86874500D01*
X203717643Y-86855593D01*
X203705830Y-86845504D01*
X197023133Y-80162806D01*
X196995356Y-80108289D01*
X196994984Y-80079880D01*
X197004653Y-80006434D01*
X197005500Y-80000000D01*
X196984868Y-79843285D01*
X196924378Y-79697250D01*
X196828153Y-79571847D01*
X196702750Y-79475622D01*
X196556715Y-79415132D01*
X196427737Y-79398152D01*
X196406434Y-79395347D01*
X196400000Y-79394500D01*
X196393566Y-79395347D01*
X196372263Y-79398152D01*
X196243285Y-79415132D01*
X196097250Y-79475622D01*
X195971847Y-79571847D01*
X195875622Y-79697250D01*
X195815132Y-79843285D01*
X195794500Y-80000000D01*
X195815132Y-80156715D01*
X195875622Y-80302750D01*
X195971847Y-80428153D01*
X196097250Y-80524378D01*
X196152772Y-80547376D01*
X196236335Y-80581989D01*
X196243285Y-80584868D01*
X196400000Y-80605500D01*
X196406434Y-80604653D01*
X196479880Y-80594984D01*
X196540041Y-80606134D01*
X196562806Y-80623133D01*
X199891089Y-83951415D01*
X203094690Y-87155016D01*
X203122467Y-87209533D01*
X203112896Y-87269965D01*
X203069631Y-87313230D01*
X203024686Y-87324020D01*
X202225354Y-87324020D01*
X202167163Y-87305113D01*
X202155350Y-87295024D01*
X195023133Y-80162806D01*
X194995356Y-80108289D01*
X194994984Y-80079880D01*
X195004653Y-80006434D01*
X195005500Y-80000000D01*
X194984868Y-79843285D01*
X194924378Y-79697250D01*
X194828153Y-79571847D01*
X194803644Y-79553041D01*
X194768990Y-79502617D01*
X194770592Y-79441453D01*
X194807839Y-79392911D01*
X194863913Y-79375500D01*
X194931438Y-79375500D01*
X194940067Y-79375877D01*
X194978528Y-79379242D01*
X195016065Y-79369184D01*
X195024497Y-79367315D01*
X195054232Y-79362072D01*
X195054233Y-79362072D01*
X195062761Y-79360568D01*
X195070262Y-79356237D01*
X195075740Y-79354243D01*
X195081029Y-79351777D01*
X195089398Y-79349535D01*
X195110404Y-79334827D01*
X195121237Y-79327242D01*
X195128519Y-79322603D01*
X195154664Y-79307508D01*
X195154663Y-79307508D01*
X195162164Y-79303178D01*
X195186982Y-79273601D01*
X195192816Y-79267234D01*
X195330065Y-79129985D01*
X195384582Y-79102208D01*
X195400069Y-79100989D01*
X198149931Y-79100989D01*
X198208122Y-79119896D01*
G37*
%TD.AperFunction*%
%TA.AperFunction,Conductor*%
G36*
X230664497Y-73044407D02*
G01*
X230676310Y-73054496D01*
X230939048Y-73317234D01*
X230944882Y-73323601D01*
X230969700Y-73353178D01*
X230994450Y-73367467D01*
X231003355Y-73372608D01*
X231010638Y-73377248D01*
X231035369Y-73394565D01*
X231035371Y-73394566D01*
X231042466Y-73399534D01*
X231050835Y-73401776D01*
X231056135Y-73404248D01*
X231061604Y-73406239D01*
X231069103Y-73410568D01*
X231077630Y-73412072D01*
X231077631Y-73412072D01*
X231093941Y-73414948D01*
X231107374Y-73417317D01*
X231115799Y-73419184D01*
X231153335Y-73429242D01*
X231191797Y-73425877D01*
X231200425Y-73425500D01*
X236211037Y-73425500D01*
X236269228Y-73444407D01*
X236305192Y-73493907D01*
X236309189Y-73511575D01*
X236315132Y-73556715D01*
X236375622Y-73702750D01*
X236471847Y-73828153D01*
X236597250Y-73924378D01*
X236743285Y-73984868D01*
X236858224Y-74000000D01*
X236882796Y-74003235D01*
X236900000Y-74005500D01*
X236926553Y-74002004D01*
X236986712Y-74013153D01*
X237028829Y-74057535D01*
X237036816Y-74118197D01*
X237026538Y-74146056D01*
X237025622Y-74147250D01*
X236965132Y-74293285D01*
X236944500Y-74450000D01*
X236945347Y-74456434D01*
X236955016Y-74529880D01*
X236943866Y-74590041D01*
X236926867Y-74612806D01*
X236217229Y-75322444D01*
X236162712Y-75350221D01*
X236147225Y-75351440D01*
X232955234Y-75351440D01*
X232893336Y-75329703D01*
X232889818Y-75326885D01*
X232884798Y-75321454D01*
X232838259Y-75294422D01*
X232774079Y-75257143D01*
X232774078Y-75257142D01*
X232767681Y-75253427D01*
X232760475Y-75251757D01*
X232760473Y-75251756D01*
X232721648Y-75242757D01*
X232635738Y-75222844D01*
X232500636Y-75232410D01*
X232460462Y-75247952D01*
X232381222Y-75278607D01*
X232381220Y-75278608D01*
X232374319Y-75281278D01*
X232330720Y-75315649D01*
X232274568Y-75359916D01*
X232267955Y-75365129D01*
X232263748Y-75371216D01*
X232263747Y-75371217D01*
X232255602Y-75383002D01*
X232193886Y-75472298D01*
X232193579Y-75472742D01*
X232144940Y-75509862D01*
X232083772Y-75511303D01*
X232033438Y-75476516D01*
X232022894Y-75459309D01*
X231973704Y-75356872D01*
X231970502Y-75350204D01*
X231878565Y-75250747D01*
X231788595Y-75198488D01*
X231767846Y-75186436D01*
X231767845Y-75186435D01*
X231761448Y-75182720D01*
X231754242Y-75181050D01*
X231754240Y-75181049D01*
X231717112Y-75172443D01*
X231629505Y-75152137D01*
X231494403Y-75161703D01*
X231470390Y-75170993D01*
X231374989Y-75207900D01*
X231374987Y-75207901D01*
X231368086Y-75210571D01*
X231326702Y-75243196D01*
X231272582Y-75285861D01*
X231261722Y-75294422D01*
X231241705Y-75323385D01*
X231240511Y-75325112D01*
X231191871Y-75362231D01*
X231130703Y-75363672D01*
X231086372Y-75336024D01*
X231077928Y-75326889D01*
X231037861Y-75283545D01*
X230957458Y-75236843D01*
X230927142Y-75219234D01*
X230927141Y-75219233D01*
X230920744Y-75215518D01*
X230913538Y-75213848D01*
X230913536Y-75213847D01*
X230856552Y-75200639D01*
X230788801Y-75184935D01*
X230653699Y-75194501D01*
X230618356Y-75208174D01*
X230534285Y-75240698D01*
X230534283Y-75240699D01*
X230527382Y-75243369D01*
X230466968Y-75290996D01*
X230450929Y-75303640D01*
X230393526Y-75324818D01*
X230334638Y-75308210D01*
X230316941Y-75293095D01*
X230273403Y-75245995D01*
X230273399Y-75245992D01*
X230268378Y-75240560D01*
X230188169Y-75193971D01*
X230157659Y-75176249D01*
X230157658Y-75176248D01*
X230151261Y-75172533D01*
X230144055Y-75170863D01*
X230144053Y-75170862D01*
X230106925Y-75162256D01*
X230019318Y-75141950D01*
X229884216Y-75151516D01*
X229848447Y-75165354D01*
X229764802Y-75197713D01*
X229764800Y-75197714D01*
X229757899Y-75200384D01*
X229713888Y-75235080D01*
X229663520Y-75274787D01*
X229651535Y-75284235D01*
X229647328Y-75290322D01*
X229647327Y-75290323D01*
X229580234Y-75387398D01*
X229574528Y-75395654D01*
X229572296Y-75402712D01*
X229566570Y-75420817D01*
X229530996Y-75470598D01*
X229472956Y-75489962D01*
X229414618Y-75471512D01*
X229382934Y-75433820D01*
X229379937Y-75427579D01*
X229376735Y-75420911D01*
X229284798Y-75321454D01*
X229187733Y-75265074D01*
X229174079Y-75257143D01*
X229174078Y-75257142D01*
X229167681Y-75253427D01*
X229160475Y-75251757D01*
X229160473Y-75251756D01*
X229121648Y-75242757D01*
X229035738Y-75222844D01*
X228977895Y-75226940D01*
X228918516Y-75212190D01*
X228879146Y-75165354D01*
X228874824Y-75104322D01*
X228900900Y-75058183D01*
X228917234Y-75041849D01*
X228923602Y-75036014D01*
X228938399Y-75023598D01*
X228953178Y-75011197D01*
X228972609Y-74977541D01*
X228977248Y-74970259D01*
X228994565Y-74945528D01*
X228994566Y-74945526D01*
X228999534Y-74938431D01*
X229001776Y-74930062D01*
X229004248Y-74924762D01*
X229006239Y-74919293D01*
X229010568Y-74911794D01*
X229017317Y-74873523D01*
X229019185Y-74865095D01*
X229021072Y-74858053D01*
X229029242Y-74827562D01*
X229025877Y-74789100D01*
X229025500Y-74780472D01*
X229025500Y-74448003D01*
X229044407Y-74389812D01*
X229067692Y-74369119D01*
X229066876Y-74368067D01*
X229072723Y-74363532D01*
X229079179Y-74359916D01*
X229172667Y-74261915D01*
X229216837Y-74173517D01*
X229229899Y-74147376D01*
X229229900Y-74147374D01*
X229233206Y-74140757D01*
X229253107Y-74021194D01*
X229254804Y-74011001D01*
X229254804Y-74010999D01*
X229255444Y-74007155D01*
X229255500Y-74000000D01*
X229254798Y-73995325D01*
X229236465Y-73873386D01*
X229236464Y-73873384D01*
X229235364Y-73866065D01*
X229219803Y-73833658D01*
X229179937Y-73750639D01*
X229176735Y-73743971D01*
X229084798Y-73644514D01*
X228967681Y-73576487D01*
X228960475Y-73574817D01*
X228960473Y-73574816D01*
X228908252Y-73562712D01*
X228835738Y-73545904D01*
X228700636Y-73555470D01*
X228658149Y-73571907D01*
X228581222Y-73601667D01*
X228581220Y-73601668D01*
X228574319Y-73604338D01*
X228568506Y-73608921D01*
X228475815Y-73681993D01*
X228467955Y-73688189D01*
X228463748Y-73694276D01*
X228463747Y-73694277D01*
X228434051Y-73737244D01*
X228390948Y-73799608D01*
X228378946Y-73837559D01*
X228352611Y-73920831D01*
X228350108Y-73928744D01*
X228349044Y-74064181D01*
X228351164Y-74071269D01*
X228351164Y-74071271D01*
X228370349Y-74135420D01*
X228374500Y-74163786D01*
X228374500Y-74622921D01*
X228355593Y-74681112D01*
X228345504Y-74692925D01*
X228157288Y-74881141D01*
X228150921Y-74886975D01*
X228121344Y-74911793D01*
X228104716Y-74940593D01*
X228101919Y-74945438D01*
X228097280Y-74952720D01*
X228080377Y-74976861D01*
X228074987Y-74984559D01*
X228072745Y-74992928D01*
X228070279Y-74998217D01*
X228068285Y-75003695D01*
X228063954Y-75011196D01*
X228062450Y-75019724D01*
X228062450Y-75019725D01*
X228057207Y-75049460D01*
X228055338Y-75057892D01*
X228045280Y-75095429D01*
X228046035Y-75104056D01*
X228048645Y-75133890D01*
X228049022Y-75142519D01*
X228049022Y-75521350D01*
X228034110Y-75568641D01*
X228035481Y-75569280D01*
X228031821Y-75577130D01*
X228026852Y-75584226D01*
X228024610Y-75592594D01*
X228022146Y-75597879D01*
X228020150Y-75603362D01*
X228015819Y-75610863D01*
X228014315Y-75619391D01*
X228014315Y-75619392D01*
X228009072Y-75649127D01*
X228007203Y-75657559D01*
X227997145Y-75695096D01*
X227997900Y-75703723D01*
X228000510Y-75733557D01*
X228000887Y-75742186D01*
X228000887Y-77599315D01*
X227981980Y-77657506D01*
X227971891Y-77669319D01*
X227840815Y-77800395D01*
X227834448Y-77806229D01*
X227804871Y-77831047D01*
X227785634Y-77864366D01*
X227785446Y-77864692D01*
X227780807Y-77871974D01*
X227775363Y-77879750D01*
X227758514Y-77903813D01*
X227757140Y-77908942D01*
X227736094Y-77935521D01*
X227736882Y-77936261D01*
X227731815Y-77941657D01*
X227726004Y-77946238D01*
X227721797Y-77952325D01*
X227721796Y-77952326D01*
X227673585Y-78022081D01*
X227648997Y-78057657D01*
X227608157Y-78186793D01*
X227608099Y-78194192D01*
X227607362Y-78288048D01*
X227607093Y-78322230D01*
X227609213Y-78329318D01*
X227609213Y-78329320D01*
X227643779Y-78444899D01*
X227645900Y-78451991D01*
X227650012Y-78458145D01*
X227650013Y-78458147D01*
X227666906Y-78483429D01*
X227721147Y-78564606D01*
X227726888Y-78569280D01*
X227820444Y-78645447D01*
X227820447Y-78645449D01*
X227826181Y-78650117D01*
X227951715Y-78700963D01*
X228086650Y-78712650D01*
X228153834Y-78698186D01*
X228211818Y-78685703D01*
X228211821Y-78685702D01*
X228219057Y-78684144D01*
X228238164Y-78673444D01*
X228330773Y-78621580D01*
X228337228Y-78617965D01*
X228342336Y-78612611D01*
X228342338Y-78612609D01*
X228391308Y-78561276D01*
X228445155Y-78532222D01*
X228505796Y-78540367D01*
X228525444Y-78552836D01*
X228544039Y-78567975D01*
X228550895Y-78570752D01*
X228576594Y-78581161D01*
X228669573Y-78618821D01*
X228804508Y-78630508D01*
X228871692Y-78616044D01*
X228929676Y-78603561D01*
X228929679Y-78603560D01*
X228936915Y-78602002D01*
X228947751Y-78595934D01*
X229048631Y-78539438D01*
X229055086Y-78535823D01*
X229105067Y-78483429D01*
X229158914Y-78454375D01*
X229219555Y-78462520D01*
X229249772Y-78485024D01*
X229253748Y-78490974D01*
X229265233Y-78500324D01*
X229353045Y-78571815D01*
X229353048Y-78571817D01*
X229358782Y-78576485D01*
X229365638Y-78579262D01*
X229397255Y-78592068D01*
X229484316Y-78627331D01*
X229619251Y-78639018D01*
X229686435Y-78624554D01*
X229744419Y-78612071D01*
X229744422Y-78612070D01*
X229751658Y-78610512D01*
X229769449Y-78600549D01*
X229863374Y-78547948D01*
X229869829Y-78544333D01*
X229874937Y-78538979D01*
X229874939Y-78538977D01*
X229913468Y-78498588D01*
X229967315Y-78469533D01*
X230027956Y-78477678D01*
X230055380Y-78498101D01*
X230056865Y-78500324D01*
X230161899Y-78585835D01*
X230168761Y-78588614D01*
X230173456Y-78591391D01*
X230213919Y-78637287D01*
X230219677Y-78698201D01*
X230193065Y-78746609D01*
X228440138Y-80499535D01*
X226694169Y-82245504D01*
X226639652Y-82273281D01*
X226624165Y-82274500D01*
X222770431Y-82274500D01*
X222748079Y-82271943D01*
X222674756Y-82254948D01*
X222642948Y-82247575D01*
X222642947Y-82247575D01*
X222635738Y-82245904D01*
X222500636Y-82255470D01*
X222479360Y-82263701D01*
X222381222Y-82301667D01*
X222381220Y-82301668D01*
X222374319Y-82304338D01*
X222267955Y-82388189D01*
X222263748Y-82394276D01*
X222263747Y-82394277D01*
X222216934Y-82462010D01*
X222190948Y-82499608D01*
X222150108Y-82628744D01*
X222149044Y-82764181D01*
X222151164Y-82771269D01*
X222151164Y-82771271D01*
X222167045Y-82824371D01*
X222187851Y-82893942D01*
X222263098Y-83006557D01*
X222268839Y-83011231D01*
X222362395Y-83087398D01*
X222362398Y-83087400D01*
X222368132Y-83092068D01*
X222493666Y-83142914D01*
X222628601Y-83154601D01*
X222698465Y-83139560D01*
X222753769Y-83127654D01*
X222753772Y-83127653D01*
X222761008Y-83126095D01*
X222830107Y-83087398D01*
X222872724Y-83063531D01*
X222879179Y-83059916D01*
X222972667Y-82961915D01*
X222973643Y-82962846D01*
X223016272Y-82930838D01*
X223048342Y-82925500D01*
X226775500Y-82925500D01*
X226833691Y-82944407D01*
X226869655Y-82993907D01*
X226874500Y-83024500D01*
X226874500Y-83674443D01*
X226855593Y-83732634D01*
X226845504Y-83744447D01*
X223744446Y-86845504D01*
X223689929Y-86873281D01*
X223674442Y-86874500D01*
X220211060Y-86874500D01*
X220152869Y-86855593D01*
X220116905Y-86806093D01*
X220116905Y-86744907D01*
X220152869Y-86695407D01*
X220161336Y-86689893D01*
X220394345Y-86554550D01*
X220396924Y-86553052D01*
X220399296Y-86551261D01*
X220399304Y-86551256D01*
X220654386Y-86358688D01*
X220654387Y-86358687D01*
X220656757Y-86356898D01*
X220891143Y-86130949D01*
X221096686Y-85878479D01*
X221099341Y-85874272D01*
X221268821Y-85605662D01*
X221270410Y-85603144D01*
X221409797Y-85308932D01*
X221512829Y-85000106D01*
X221516470Y-84982291D01*
X221577417Y-84684062D01*
X221577418Y-84684053D01*
X221578014Y-84681138D01*
X221579782Y-84659407D01*
X221604265Y-84358400D01*
X221604266Y-84358388D01*
X221604407Y-84356649D01*
X221605000Y-84300000D01*
X221601468Y-84241413D01*
X221585589Y-83978009D01*
X221585588Y-83978002D01*
X221585409Y-83975030D01*
X221526918Y-83654767D01*
X221524378Y-83646586D01*
X221431260Y-83346697D01*
X221431258Y-83346693D01*
X221430376Y-83343851D01*
X221429155Y-83341127D01*
X221298401Y-83049504D01*
X221298398Y-83049498D01*
X221297181Y-83046784D01*
X221283742Y-83024461D01*
X221130800Y-82770427D01*
X221130799Y-82770425D01*
X221129261Y-82767871D01*
X221127424Y-82765515D01*
X220930891Y-82513511D01*
X220930887Y-82513506D01*
X220929050Y-82511151D01*
X220699448Y-82280344D01*
X220560059Y-82170458D01*
X220446125Y-82080639D01*
X220446118Y-82080634D01*
X220443780Y-82078791D01*
X220355554Y-82025043D01*
X220165750Y-81909414D01*
X220166517Y-81908155D01*
X220127655Y-81868046D01*
X220119039Y-81807471D01*
X220147674Y-81753400D01*
X220202622Y-81726486D01*
X220216563Y-81725500D01*
X221898428Y-81725500D01*
X221956619Y-81744407D01*
X221968432Y-81754496D01*
X222081141Y-81867205D01*
X222086975Y-81873572D01*
X222111793Y-81903149D01*
X222125439Y-81911027D01*
X222145448Y-81922579D01*
X222152731Y-81927219D01*
X222177462Y-81944536D01*
X222177464Y-81944537D01*
X222184559Y-81949505D01*
X222192928Y-81951747D01*
X222198228Y-81954219D01*
X222203697Y-81956210D01*
X222211196Y-81960539D01*
X222219723Y-81962043D01*
X222219724Y-81962043D01*
X222236034Y-81964919D01*
X222249467Y-81967288D01*
X222257892Y-81969155D01*
X222295428Y-81979213D01*
X222333890Y-81975848D01*
X222342518Y-81975471D01*
X223331744Y-81975471D01*
X223340373Y-81975848D01*
X223378834Y-81979213D01*
X223416371Y-81969155D01*
X223424803Y-81967286D01*
X223454538Y-81962043D01*
X223454539Y-81962043D01*
X223463067Y-81960539D01*
X223470568Y-81956208D01*
X223476046Y-81954214D01*
X223481335Y-81951748D01*
X223489704Y-81949506D01*
X223496802Y-81944536D01*
X223521543Y-81927213D01*
X223528825Y-81922574D01*
X223549514Y-81910629D01*
X223562470Y-81903149D01*
X223587288Y-81873572D01*
X223593122Y-81867205D01*
X226442717Y-79017609D01*
X226449087Y-79011773D01*
X226459277Y-79003223D01*
X226516008Y-78980304D01*
X226567925Y-78992578D01*
X226568132Y-78992068D01*
X226574989Y-78994845D01*
X226574990Y-78994846D01*
X226631190Y-79017609D01*
X226693666Y-79042914D01*
X226828601Y-79054601D01*
X226895785Y-79040137D01*
X226953769Y-79027654D01*
X226953772Y-79027653D01*
X226961008Y-79026095D01*
X227019370Y-78993411D01*
X227072724Y-78963531D01*
X227079179Y-78959916D01*
X227172667Y-78861915D01*
X227205798Y-78795610D01*
X227229899Y-78747376D01*
X227229900Y-78747374D01*
X227233206Y-78740757D01*
X227252180Y-78626768D01*
X227264098Y-78593526D01*
X227272609Y-78578784D01*
X227277241Y-78571513D01*
X227299533Y-78539676D01*
X227301776Y-78531307D01*
X227304247Y-78526007D01*
X227306238Y-78520538D01*
X227310567Y-78513039D01*
X227317316Y-78474768D01*
X227319184Y-78466340D01*
X227327000Y-78437170D01*
X227329241Y-78428807D01*
X227325876Y-78390345D01*
X227325499Y-78381717D01*
X227325499Y-77904400D01*
X227344406Y-77846209D01*
X227354495Y-77834396D01*
X227442723Y-77746168D01*
X227449091Y-77740333D01*
X227459764Y-77731377D01*
X227478667Y-77715516D01*
X227498093Y-77681870D01*
X227502731Y-77674589D01*
X227520055Y-77649847D01*
X227520056Y-77649846D01*
X227525024Y-77642750D01*
X227527266Y-77634381D01*
X227529732Y-77629092D01*
X227531726Y-77623614D01*
X227536057Y-77616113D01*
X227539039Y-77599199D01*
X227542804Y-77577849D01*
X227544673Y-77569417D01*
X227552490Y-77540243D01*
X227554731Y-77531880D01*
X227551366Y-77493419D01*
X227550989Y-77484790D01*
X227550989Y-74750345D01*
X227569896Y-74692154D01*
X227579985Y-74680342D01*
X227817221Y-74443105D01*
X227823589Y-74437269D01*
X227833676Y-74428805D01*
X227853178Y-74412441D01*
X227872613Y-74378779D01*
X227877250Y-74371500D01*
X227878915Y-74369123D01*
X227899535Y-74339674D01*
X227901776Y-74331311D01*
X227904240Y-74326027D01*
X227906238Y-74320538D01*
X227910568Y-74313038D01*
X227917315Y-74274771D01*
X227919185Y-74266340D01*
X227927001Y-74237172D01*
X227929243Y-74228805D01*
X227925877Y-74190332D01*
X227925500Y-74181703D01*
X227925500Y-74141987D01*
X227944407Y-74083796D01*
X227952866Y-74073652D01*
X227955179Y-74071227D01*
X227972667Y-74052895D01*
X228012022Y-73974133D01*
X228029899Y-73938356D01*
X228029900Y-73938354D01*
X228033206Y-73931737D01*
X228052608Y-73815173D01*
X228054804Y-73801981D01*
X228054804Y-73801979D01*
X228055444Y-73798135D01*
X228055500Y-73790980D01*
X228053524Y-73777832D01*
X228036465Y-73664366D01*
X228036464Y-73664364D01*
X228035364Y-73657045D01*
X228025357Y-73636204D01*
X227979937Y-73541619D01*
X227976735Y-73534951D01*
X227884798Y-73435494D01*
X227801525Y-73387125D01*
X227774079Y-73371183D01*
X227774078Y-73371182D01*
X227767681Y-73367467D01*
X227760475Y-73365797D01*
X227760473Y-73365796D01*
X227715172Y-73355296D01*
X227635738Y-73336884D01*
X227500636Y-73346450D01*
X227472055Y-73357507D01*
X227381222Y-73392647D01*
X227381220Y-73392648D01*
X227374319Y-73395318D01*
X227314668Y-73442343D01*
X227257265Y-73463520D01*
X227198377Y-73446911D01*
X227191480Y-73441859D01*
X227190319Y-73440929D01*
X227185295Y-73435494D01*
X227102022Y-73387125D01*
X227074576Y-73371183D01*
X227074575Y-73371182D01*
X227068178Y-73367467D01*
X227060972Y-73365797D01*
X227060970Y-73365796D01*
X227015669Y-73355296D01*
X226936235Y-73336884D01*
X226874927Y-73341225D01*
X226815546Y-73326475D01*
X226776176Y-73279638D01*
X226770285Y-73226180D01*
X226770302Y-73226082D01*
X226770443Y-73225233D01*
X226798089Y-73171522D01*
X226854280Y-73115331D01*
X226915113Y-73054497D01*
X226969630Y-73026719D01*
X226985117Y-73025500D01*
X230606306Y-73025500D01*
X230664497Y-73044407D01*
G37*
%TD.AperFunction*%
%TA.AperFunction,Conductor*%
G36*
X196759191Y-65018907D02*
G01*
X196795155Y-65068407D01*
X196800000Y-65099000D01*
X196800000Y-65800000D01*
X196800497Y-65803479D01*
X196997141Y-67179985D01*
X197000000Y-67200000D01*
X197002197Y-67205491D01*
X197002197Y-67205493D01*
X197165794Y-67614486D01*
X197400000Y-68200000D01*
X198000000Y-69400000D01*
X198800000Y-70200000D01*
X198809332Y-70203733D01*
X198809334Y-70203734D01*
X199730777Y-70572311D01*
X199800000Y-70600000D01*
X212400000Y-70600000D01*
X212771004Y-70228996D01*
X212825521Y-70201219D01*
X212841008Y-70200000D01*
X215000000Y-70200000D01*
X215000000Y-65099000D01*
X215018907Y-65040809D01*
X215068407Y-65004845D01*
X215099000Y-65000000D01*
X215767740Y-65000000D01*
X215825931Y-65018907D01*
X215861895Y-65068407D01*
X215861895Y-65129593D01*
X215859204Y-65136886D01*
X215815132Y-65243285D01*
X215794500Y-65400000D01*
X215815132Y-65556715D01*
X215817616Y-65562712D01*
X215821198Y-65571359D01*
X215875622Y-65702750D01*
X215971847Y-65828153D01*
X216097250Y-65924378D01*
X216243285Y-65984868D01*
X216400000Y-66005500D01*
X216556715Y-65984868D01*
X216702750Y-65924378D01*
X216828153Y-65828153D01*
X216877201Y-65764233D01*
X216927624Y-65729577D01*
X216955742Y-65725500D01*
X245824165Y-65725500D01*
X245882356Y-65744407D01*
X245894169Y-65754496D01*
X250382396Y-70242723D01*
X250388230Y-70249090D01*
X250413048Y-70278667D01*
X250446703Y-70298097D01*
X250453986Y-70302737D01*
X250478717Y-70320054D01*
X250478719Y-70320055D01*
X250485814Y-70325023D01*
X250494183Y-70327265D01*
X250499483Y-70329737D01*
X250504952Y-70331728D01*
X250512451Y-70336057D01*
X250520978Y-70337561D01*
X250520979Y-70337561D01*
X250537289Y-70340437D01*
X250550722Y-70342806D01*
X250559147Y-70344673D01*
X250596683Y-70354731D01*
X250635145Y-70351366D01*
X250643773Y-70350989D01*
X251114654Y-70350989D01*
X251172845Y-70369896D01*
X251184658Y-70379985D01*
X251476022Y-70671349D01*
X251503799Y-70725866D01*
X251497028Y-70780238D01*
X251494853Y-70784194D01*
X251432565Y-70980549D01*
X251432025Y-70985361D01*
X251432025Y-70985362D01*
X251410171Y-71180203D01*
X251409603Y-71185263D01*
X251416313Y-71265174D01*
X251425724Y-71377242D01*
X251426840Y-71390538D01*
X251428173Y-71395186D01*
X251428173Y-71395187D01*
X251481948Y-71582720D01*
X251483621Y-71588555D01*
X251485836Y-71592865D01*
X251495897Y-71612441D01*
X251577782Y-71771773D01*
X251705737Y-71933212D01*
X251709417Y-71936344D01*
X251709419Y-71936346D01*
X251804463Y-72017234D01*
X251862612Y-72066723D01*
X251866835Y-72069083D01*
X251866839Y-72069086D01*
X251983453Y-72134259D01*
X252042432Y-72167221D01*
X252047030Y-72168715D01*
X252233742Y-72229382D01*
X252233745Y-72229383D01*
X252238347Y-72230878D01*
X252442895Y-72255269D01*
X252447717Y-72254898D01*
X252447720Y-72254898D01*
X252643458Y-72239837D01*
X252643463Y-72239836D01*
X252648286Y-72239465D01*
X252846695Y-72184068D01*
X252851013Y-72181887D01*
X253026244Y-72093371D01*
X253026246Y-72093370D01*
X253030565Y-72091188D01*
X253192893Y-71964363D01*
X253196055Y-71960700D01*
X253196060Y-71960695D01*
X253300517Y-71839679D01*
X253327496Y-71808424D01*
X253338992Y-71788189D01*
X253426858Y-71633517D01*
X253426859Y-71633514D01*
X253429247Y-71629311D01*
X253431359Y-71622964D01*
X253492743Y-71438435D01*
X253492743Y-71438433D01*
X253494270Y-71433844D01*
X253495053Y-71427651D01*
X253519740Y-71232225D01*
X253520088Y-71229471D01*
X253520500Y-71200000D01*
X253518559Y-71180203D01*
X253500870Y-70999796D01*
X253500869Y-70999792D01*
X253500398Y-70994986D01*
X253497493Y-70985362D01*
X253442256Y-70802412D01*
X253440858Y-70797780D01*
X253344148Y-70615895D01*
X253213952Y-70456259D01*
X253065509Y-70333456D01*
X253058955Y-70328034D01*
X253058953Y-70328033D01*
X253055228Y-70324951D01*
X252903152Y-70242723D01*
X252878277Y-70229273D01*
X252878276Y-70229272D01*
X252874023Y-70226973D01*
X252776459Y-70196772D01*
X252681859Y-70167488D01*
X252681855Y-70167487D01*
X252677238Y-70166058D01*
X252672431Y-70165553D01*
X252672427Y-70165552D01*
X252477185Y-70145032D01*
X252477183Y-70145032D01*
X252472369Y-70144526D01*
X252404372Y-70150714D01*
X252272039Y-70162757D01*
X252272036Y-70162758D01*
X252267219Y-70163196D01*
X252262577Y-70164562D01*
X252262573Y-70164563D01*
X252074250Y-70219989D01*
X252074247Y-70219990D01*
X252069603Y-70221357D01*
X252053330Y-70229864D01*
X251993004Y-70240068D01*
X251937461Y-70212134D01*
X251533582Y-69808255D01*
X251527747Y-69801887D01*
X251521080Y-69793942D01*
X251502930Y-69772311D01*
X251469284Y-69752885D01*
X251462003Y-69748247D01*
X251437261Y-69730923D01*
X251437260Y-69730922D01*
X251430164Y-69725954D01*
X251421795Y-69723712D01*
X251416506Y-69721246D01*
X251411028Y-69719252D01*
X251403527Y-69714921D01*
X251394999Y-69713417D01*
X251394998Y-69713417D01*
X251365263Y-69708174D01*
X251356831Y-69706305D01*
X251327657Y-69698488D01*
X251327658Y-69698488D01*
X251319294Y-69696247D01*
X251280872Y-69699609D01*
X251280833Y-69699612D01*
X251272204Y-69699989D01*
X250801324Y-69699989D01*
X250743133Y-69681082D01*
X250731320Y-69670993D01*
X246243093Y-65182766D01*
X246237259Y-65176399D01*
X246225711Y-65162637D01*
X246202790Y-65105907D01*
X246217592Y-65046539D01*
X246264462Y-65007209D01*
X246301549Y-65000000D01*
X254101000Y-65000000D01*
X254159191Y-65018907D01*
X254195155Y-65068407D01*
X254200000Y-65099000D01*
X254200000Y-81513944D01*
X254181093Y-81572135D01*
X254131593Y-81608099D01*
X254113408Y-81612163D01*
X253917967Y-81636853D01*
X253908067Y-81637602D01*
X253907796Y-81637609D01*
X253907109Y-81637626D01*
X253907107Y-81637626D01*
X253901513Y-81637768D01*
X253896088Y-81639161D01*
X253892847Y-81639612D01*
X253892567Y-81639665D01*
X253889148Y-81640494D01*
X253883639Y-81641190D01*
X253877433Y-81643455D01*
X253868125Y-81646340D01*
X253587990Y-81718267D01*
X253578262Y-81720250D01*
X253577319Y-81720394D01*
X253577318Y-81720394D01*
X253571778Y-81721237D01*
X253566575Y-81723297D01*
X253563435Y-81724145D01*
X253563151Y-81724237D01*
X253559854Y-81725491D01*
X253554473Y-81726873D01*
X253548600Y-81729898D01*
X253539728Y-81733926D01*
X253337978Y-81813805D01*
X253270814Y-81840397D01*
X253261421Y-81843581D01*
X253255104Y-81845375D01*
X253250196Y-81848074D01*
X253247154Y-81849323D01*
X253246938Y-81849425D01*
X253243813Y-81851088D01*
X253238642Y-81853135D01*
X253234060Y-81856278D01*
X253234057Y-81856280D01*
X253233202Y-81856867D01*
X253224890Y-81861985D01*
X252971448Y-82001316D01*
X252962526Y-82005654D01*
X252956485Y-82008224D01*
X252951961Y-82011511D01*
X252949111Y-82013125D01*
X252948885Y-82013269D01*
X252945995Y-82015309D01*
X252941126Y-82017986D01*
X252936976Y-82021677D01*
X252936973Y-82021679D01*
X252936200Y-82022367D01*
X252928607Y-82028478D01*
X252920596Y-82034299D01*
X252914450Y-82038764D01*
X252856261Y-82057674D01*
X252798069Y-82038770D01*
X252762103Y-81989271D01*
X252762100Y-81928153D01*
X252764535Y-81924675D01*
X252766775Y-81916313D01*
X252769240Y-81911027D01*
X252771238Y-81905536D01*
X252775568Y-81898038D01*
X252777072Y-81889509D01*
X252782315Y-81859774D01*
X252784184Y-81851342D01*
X252792001Y-81822168D01*
X252794242Y-81813805D01*
X252790877Y-81775343D01*
X252790500Y-81766715D01*
X252790500Y-79893145D01*
X252809407Y-79834954D01*
X252847482Y-79805627D01*
X252846695Y-79804068D01*
X253026244Y-79713371D01*
X253026246Y-79713370D01*
X253030565Y-79711188D01*
X253192893Y-79584363D01*
X253196055Y-79580700D01*
X253196060Y-79580695D01*
X253288899Y-79473139D01*
X253327496Y-79428424D01*
X253336502Y-79412572D01*
X253426858Y-79253517D01*
X253426859Y-79253514D01*
X253429247Y-79249311D01*
X253444355Y-79203897D01*
X253492743Y-79058435D01*
X253492743Y-79058433D01*
X253494270Y-79053844D01*
X253497776Y-79026095D01*
X253519740Y-78852225D01*
X253520088Y-78849471D01*
X253520500Y-78820000D01*
X253519055Y-78805263D01*
X253500870Y-78619796D01*
X253500869Y-78619792D01*
X253500398Y-78614986D01*
X253497493Y-78605362D01*
X253467190Y-78504995D01*
X253440858Y-78417780D01*
X253344148Y-78235895D01*
X253213952Y-78076259D01*
X253184105Y-78051567D01*
X253108099Y-77988689D01*
X253075314Y-77937028D01*
X253079156Y-77875963D01*
X253101200Y-77842404D01*
X253856739Y-77086864D01*
X253863107Y-77081029D01*
X253892689Y-77056207D01*
X253912124Y-77022545D01*
X253916761Y-77015266D01*
X253934078Y-76990535D01*
X253939046Y-76983440D01*
X253941287Y-76975077D01*
X253943751Y-76969793D01*
X253945749Y-76964304D01*
X253950079Y-76956804D01*
X253953551Y-76937116D01*
X253956826Y-76918539D01*
X253958696Y-76910106D01*
X253966512Y-76880938D01*
X253968754Y-76872571D01*
X253965388Y-76834098D01*
X253965011Y-76825469D01*
X253965011Y-75734519D01*
X253965388Y-75725891D01*
X253966611Y-75711915D01*
X253968753Y-75687429D01*
X253958695Y-75649892D01*
X253956826Y-75641460D01*
X253951583Y-75611725D01*
X253951583Y-75611724D01*
X253950079Y-75603196D01*
X253945748Y-75595695D01*
X253943752Y-75590212D01*
X253941288Y-75584928D01*
X253939046Y-75576559D01*
X253916759Y-75544729D01*
X253912120Y-75537448D01*
X253902952Y-75521569D01*
X253892689Y-75503793D01*
X253886056Y-75498227D01*
X253886054Y-75498225D01*
X253863107Y-75478971D01*
X253856739Y-75473136D01*
X253271860Y-74888256D01*
X253266026Y-74881888D01*
X253246777Y-74858948D01*
X253246774Y-74858945D01*
X253241207Y-74852311D01*
X253207561Y-74832885D01*
X253200280Y-74828247D01*
X253175538Y-74810923D01*
X253175537Y-74810922D01*
X253168441Y-74805954D01*
X253160072Y-74803712D01*
X253154783Y-74801246D01*
X253149305Y-74799252D01*
X253141804Y-74794921D01*
X253133276Y-74793417D01*
X253133275Y-74793417D01*
X253103540Y-74788174D01*
X253095105Y-74786304D01*
X253091004Y-74785205D01*
X253039691Y-74751879D01*
X253017766Y-74694757D01*
X253033603Y-74635657D01*
X253055680Y-74611566D01*
X253189071Y-74507350D01*
X253189076Y-74507345D01*
X253192893Y-74504363D01*
X253196055Y-74500700D01*
X253196060Y-74500695D01*
X253280123Y-74403306D01*
X253327496Y-74348424D01*
X253340220Y-74326027D01*
X253426858Y-74173517D01*
X253426859Y-74173514D01*
X253429247Y-74169311D01*
X253431533Y-74162441D01*
X253492743Y-73978435D01*
X253492743Y-73978433D01*
X253494270Y-73973844D01*
X253497308Y-73949800D01*
X253519740Y-73772225D01*
X253520088Y-73769471D01*
X253520500Y-73740000D01*
X253519371Y-73728486D01*
X253500870Y-73539796D01*
X253500869Y-73539792D01*
X253500398Y-73534986D01*
X253498748Y-73529519D01*
X253472281Y-73441859D01*
X253440858Y-73337780D01*
X253344148Y-73155895D01*
X253213952Y-72996259D01*
X253177454Y-72966065D01*
X253058955Y-72868034D01*
X253058953Y-72868033D01*
X253055228Y-72864951D01*
X252874023Y-72766973D01*
X252789462Y-72740797D01*
X252681859Y-72707488D01*
X252681855Y-72707487D01*
X252677238Y-72706058D01*
X252672431Y-72705553D01*
X252672427Y-72705552D01*
X252477185Y-72685032D01*
X252477183Y-72685032D01*
X252472369Y-72684526D01*
X252404372Y-72690714D01*
X252272039Y-72702757D01*
X252272036Y-72702758D01*
X252267219Y-72703196D01*
X252262577Y-72704562D01*
X252262573Y-72704563D01*
X252074250Y-72759989D01*
X252074247Y-72759990D01*
X252069603Y-72761357D01*
X252065309Y-72763602D01*
X251891344Y-72854548D01*
X251891340Y-72854551D01*
X251887047Y-72856795D01*
X251883271Y-72859831D01*
X251883268Y-72859833D01*
X251730276Y-72982842D01*
X251726505Y-72985874D01*
X251668924Y-73054497D01*
X251597202Y-73139971D01*
X251597199Y-73139975D01*
X251594093Y-73143677D01*
X251494853Y-73324194D01*
X251493389Y-73328808D01*
X251493388Y-73328811D01*
X251451799Y-73459916D01*
X251432565Y-73520549D01*
X251432025Y-73525361D01*
X251432025Y-73525362D01*
X251410145Y-73720433D01*
X251409603Y-73725263D01*
X251415444Y-73794822D01*
X251426328Y-73924436D01*
X251426840Y-73930538D01*
X251428173Y-73935186D01*
X251428173Y-73935187D01*
X251476104Y-74102339D01*
X251483621Y-74128555D01*
X251485836Y-74132865D01*
X251501036Y-74162441D01*
X251577782Y-74311773D01*
X251705737Y-74473212D01*
X251862612Y-74606723D01*
X251866840Y-74609086D01*
X251866853Y-74609095D01*
X251903845Y-74657831D01*
X251905125Y-74719003D01*
X251870205Y-74769245D01*
X251835964Y-74786017D01*
X251834885Y-74786306D01*
X251826467Y-74788172D01*
X251813034Y-74790541D01*
X251796724Y-74793417D01*
X251796723Y-74793417D01*
X251788196Y-74794921D01*
X251780697Y-74799250D01*
X251775228Y-74801241D01*
X251769928Y-74803713D01*
X251761559Y-74805955D01*
X251754464Y-74810923D01*
X251754462Y-74810924D01*
X251729731Y-74828241D01*
X251722449Y-74832880D01*
X251688793Y-74852311D01*
X251664602Y-74881141D01*
X251663976Y-74881887D01*
X251658141Y-74888255D01*
X250902445Y-75643951D01*
X250847928Y-75671728D01*
X250787496Y-75662157D01*
X250755722Y-75636518D01*
X250677012Y-75540011D01*
X250673952Y-75536259D01*
X250661399Y-75525874D01*
X250518955Y-75408034D01*
X250518953Y-75408033D01*
X250515228Y-75404951D01*
X250370857Y-75326889D01*
X250338277Y-75309273D01*
X250338276Y-75309272D01*
X250334023Y-75306973D01*
X250249462Y-75280797D01*
X250141859Y-75247488D01*
X250141855Y-75247487D01*
X250137238Y-75246058D01*
X250132431Y-75245553D01*
X250132427Y-75245552D01*
X249937185Y-75225032D01*
X249937183Y-75225032D01*
X249932369Y-75224526D01*
X249864372Y-75230714D01*
X249732039Y-75242757D01*
X249732036Y-75242758D01*
X249727219Y-75243196D01*
X249722577Y-75244562D01*
X249722573Y-75244563D01*
X249534250Y-75299989D01*
X249534247Y-75299990D01*
X249529603Y-75301357D01*
X249504036Y-75314723D01*
X249351344Y-75394548D01*
X249351340Y-75394551D01*
X249347047Y-75396795D01*
X249343271Y-75399831D01*
X249343268Y-75399833D01*
X249225521Y-75494504D01*
X249186505Y-75525874D01*
X249132062Y-75590757D01*
X249057202Y-75679971D01*
X249057199Y-75679975D01*
X249054093Y-75683677D01*
X248954853Y-75864194D01*
X248953389Y-75868808D01*
X248953388Y-75868811D01*
X248908557Y-76010135D01*
X248892565Y-76060549D01*
X248892025Y-76065361D01*
X248892025Y-76065362D01*
X248870462Y-76257608D01*
X248869603Y-76265263D01*
X248874401Y-76322407D01*
X248883161Y-76426719D01*
X248886840Y-76470538D01*
X248888173Y-76475186D01*
X248888173Y-76475187D01*
X248942285Y-76663897D01*
X248942286Y-76663900D01*
X248943621Y-76668555D01*
X248945835Y-76672863D01*
X248945836Y-76672865D01*
X248959400Y-76699257D01*
X249037782Y-76851773D01*
X249040790Y-76855568D01*
X249130312Y-76968517D01*
X249151639Y-77025865D01*
X249135185Y-77084797D01*
X249087235Y-77122802D01*
X249052726Y-77129011D01*
X248680346Y-77129011D01*
X248622155Y-77110104D01*
X248610342Y-77100015D01*
X247004831Y-75494504D01*
X246977054Y-75439987D01*
X246986625Y-75379555D01*
X247029890Y-75336290D01*
X247074835Y-75325500D01*
X247651162Y-75325500D01*
X247713666Y-75347726D01*
X247762395Y-75387398D01*
X247762398Y-75387400D01*
X247768132Y-75392068D01*
X247774988Y-75394845D01*
X247812066Y-75409863D01*
X247893666Y-75442914D01*
X248028601Y-75454601D01*
X248095785Y-75440137D01*
X248153769Y-75427654D01*
X248153772Y-75427653D01*
X248161008Y-75426095D01*
X248176233Y-75417569D01*
X248272724Y-75363531D01*
X248279179Y-75359916D01*
X248372667Y-75261915D01*
X248417157Y-75172877D01*
X248429899Y-75147376D01*
X248429900Y-75147374D01*
X248433206Y-75140757D01*
X248447693Y-75053720D01*
X248454804Y-75011001D01*
X248454804Y-75010999D01*
X248455444Y-75007155D01*
X248455500Y-75000000D01*
X248453192Y-74984644D01*
X248436465Y-74873386D01*
X248436464Y-74873384D01*
X248435364Y-74866065D01*
X248431947Y-74858948D01*
X248379937Y-74750639D01*
X248376735Y-74743971D01*
X248284798Y-74644514D01*
X248191016Y-74590041D01*
X248174079Y-74580203D01*
X248174078Y-74580202D01*
X248167681Y-74576487D01*
X248160475Y-74574817D01*
X248160473Y-74574816D01*
X248108869Y-74562855D01*
X248035738Y-74545904D01*
X247900636Y-74555470D01*
X247856345Y-74572605D01*
X247781222Y-74601667D01*
X247781220Y-74601668D01*
X247774319Y-74604338D01*
X247712278Y-74653247D01*
X247650990Y-74674500D01*
X242525835Y-74674500D01*
X242467644Y-74655593D01*
X242455831Y-74645504D01*
X241535590Y-73725263D01*
X248869603Y-73725263D01*
X248875444Y-73794822D01*
X248886328Y-73924436D01*
X248886840Y-73930538D01*
X248888173Y-73935186D01*
X248888173Y-73935187D01*
X248936104Y-74102339D01*
X248943621Y-74128555D01*
X248945836Y-74132865D01*
X248961036Y-74162441D01*
X249037782Y-74311773D01*
X249165737Y-74473212D01*
X249169417Y-74476344D01*
X249169419Y-74476346D01*
X249262390Y-74555470D01*
X249322612Y-74606723D01*
X249326835Y-74609083D01*
X249326839Y-74609086D01*
X249414059Y-74657831D01*
X249502432Y-74707221D01*
X249507030Y-74708715D01*
X249693742Y-74769382D01*
X249693745Y-74769383D01*
X249698347Y-74770878D01*
X249902895Y-74795269D01*
X249907717Y-74794898D01*
X249907720Y-74794898D01*
X250103458Y-74779837D01*
X250103463Y-74779836D01*
X250108286Y-74779465D01*
X250306695Y-74724068D01*
X250327240Y-74713690D01*
X250486244Y-74633371D01*
X250486246Y-74633370D01*
X250490565Y-74631188D01*
X250652893Y-74504363D01*
X250656055Y-74500700D01*
X250656060Y-74500695D01*
X250740123Y-74403306D01*
X250787496Y-74348424D01*
X250800220Y-74326027D01*
X250886858Y-74173517D01*
X250886859Y-74173514D01*
X250889247Y-74169311D01*
X250891533Y-74162441D01*
X250952743Y-73978435D01*
X250952743Y-73978433D01*
X250954270Y-73973844D01*
X250957308Y-73949800D01*
X250979740Y-73772225D01*
X250980088Y-73769471D01*
X250980500Y-73740000D01*
X250979371Y-73728486D01*
X250960870Y-73539796D01*
X250960869Y-73539792D01*
X250960398Y-73534986D01*
X250958748Y-73529519D01*
X250932281Y-73441859D01*
X250900858Y-73337780D01*
X250804148Y-73155895D01*
X250673952Y-72996259D01*
X250637454Y-72966065D01*
X250518955Y-72868034D01*
X250518953Y-72868033D01*
X250515228Y-72864951D01*
X250334023Y-72766973D01*
X250249462Y-72740797D01*
X250141859Y-72707488D01*
X250141855Y-72707487D01*
X250137238Y-72706058D01*
X250132431Y-72705553D01*
X250132427Y-72705552D01*
X249937185Y-72685032D01*
X249937183Y-72685032D01*
X249932369Y-72684526D01*
X249864372Y-72690714D01*
X249732039Y-72702757D01*
X249732036Y-72702758D01*
X249727219Y-72703196D01*
X249722577Y-72704562D01*
X249722573Y-72704563D01*
X249534250Y-72759989D01*
X249534247Y-72759990D01*
X249529603Y-72761357D01*
X249525309Y-72763602D01*
X249351344Y-72854548D01*
X249351340Y-72854551D01*
X249347047Y-72856795D01*
X249343271Y-72859831D01*
X249343268Y-72859833D01*
X249190276Y-72982842D01*
X249186505Y-72985874D01*
X249128924Y-73054497D01*
X249057202Y-73139971D01*
X249057199Y-73139975D01*
X249054093Y-73143677D01*
X248954853Y-73324194D01*
X248953389Y-73328808D01*
X248953388Y-73328811D01*
X248911799Y-73459916D01*
X248892565Y-73520549D01*
X248892025Y-73525361D01*
X248892025Y-73525362D01*
X248870145Y-73720433D01*
X248869603Y-73725263D01*
X241535590Y-73725263D01*
X237754496Y-69944169D01*
X237726719Y-69889652D01*
X237725500Y-69874165D01*
X237725500Y-68818284D01*
X237725877Y-68809656D01*
X237728487Y-68779821D01*
X237729242Y-68771194D01*
X237719183Y-68733654D01*
X237717315Y-68725225D01*
X237712072Y-68695491D01*
X237710568Y-68686962D01*
X237706239Y-68679463D01*
X237704241Y-68673974D01*
X237701776Y-68668689D01*
X237699535Y-68660325D01*
X237685856Y-68640790D01*
X237677242Y-68628486D01*
X237672603Y-68621204D01*
X237657508Y-68595059D01*
X237653178Y-68587559D01*
X237623601Y-68562741D01*
X237617234Y-68556907D01*
X235668582Y-66608255D01*
X235662747Y-66601887D01*
X235637930Y-66572311D01*
X235604284Y-66552885D01*
X235597003Y-66548247D01*
X235572261Y-66530923D01*
X235572260Y-66530922D01*
X235565164Y-66525954D01*
X235556795Y-66523712D01*
X235551506Y-66521246D01*
X235546028Y-66519252D01*
X235538527Y-66514921D01*
X235529999Y-66513417D01*
X235529998Y-66513417D01*
X235500263Y-66508174D01*
X235491831Y-66506305D01*
X235462657Y-66498488D01*
X235462658Y-66498488D01*
X235454294Y-66496247D01*
X235415872Y-66499609D01*
X235415833Y-66499612D01*
X235407204Y-66499989D01*
X230892796Y-66499989D01*
X230884167Y-66499612D01*
X230884128Y-66499609D01*
X230845706Y-66496247D01*
X230837342Y-66498488D01*
X230837343Y-66498488D01*
X230808169Y-66506305D01*
X230799737Y-66508174D01*
X230770002Y-66513417D01*
X230770001Y-66513417D01*
X230761473Y-66514921D01*
X230753972Y-66519252D01*
X230748494Y-66521246D01*
X230743205Y-66523712D01*
X230734836Y-66525954D01*
X230727740Y-66530922D01*
X230727739Y-66530923D01*
X230702997Y-66548247D01*
X230695716Y-66552885D01*
X230662070Y-66572311D01*
X230637253Y-66601887D01*
X230631418Y-66608255D01*
X229394169Y-67845504D01*
X229339652Y-67873281D01*
X229324165Y-67874500D01*
X224863456Y-67874500D01*
X224854828Y-67874123D01*
X224853697Y-67874024D01*
X224816366Y-67870758D01*
X224803808Y-67874123D01*
X224778829Y-67880816D01*
X224770397Y-67882685D01*
X224740662Y-67887928D01*
X224740661Y-67887928D01*
X224732133Y-67889432D01*
X224724632Y-67893763D01*
X224719149Y-67895759D01*
X224713865Y-67898223D01*
X224705496Y-67900465D01*
X224676286Y-67920918D01*
X224673668Y-67922751D01*
X224666387Y-67927390D01*
X224632730Y-67946822D01*
X224627164Y-67953455D01*
X224627162Y-67953457D01*
X224607907Y-67976405D01*
X224602072Y-67982773D01*
X224394024Y-68190821D01*
X224339507Y-68218598D01*
X224279075Y-68209027D01*
X224254016Y-68190821D01*
X223370833Y-67307637D01*
X222445962Y-66382766D01*
X222440127Y-66376398D01*
X222415310Y-66346822D01*
X222381664Y-66327396D01*
X222374383Y-66322758D01*
X222349641Y-66305434D01*
X222349640Y-66305433D01*
X222342544Y-66300465D01*
X222334175Y-66298223D01*
X222328886Y-66295757D01*
X222323408Y-66293763D01*
X222315907Y-66289432D01*
X222307379Y-66287928D01*
X222307378Y-66287928D01*
X222277643Y-66282685D01*
X222269211Y-66280816D01*
X222240037Y-66272999D01*
X222240038Y-66272999D01*
X222231674Y-66270758D01*
X222193252Y-66274120D01*
X222193213Y-66274123D01*
X222184584Y-66274500D01*
X219555234Y-66274500D01*
X219493336Y-66252763D01*
X219489818Y-66249945D01*
X219484798Y-66244514D01*
X219367681Y-66176487D01*
X219360475Y-66174817D01*
X219360473Y-66174816D01*
X219323345Y-66166210D01*
X219235738Y-66145904D01*
X219100636Y-66155470D01*
X219056345Y-66172605D01*
X218981222Y-66201667D01*
X218981220Y-66201668D01*
X218974319Y-66204338D01*
X218912278Y-66253247D01*
X218850990Y-66274500D01*
X217168020Y-66274500D01*
X217159391Y-66274123D01*
X217146544Y-66272999D01*
X217120918Y-66270757D01*
X217112551Y-66272999D01*
X217083383Y-66280815D01*
X217074952Y-66282685D01*
X217062416Y-66284895D01*
X217045214Y-66287928D01*
X217045213Y-66287928D01*
X217036685Y-66289432D01*
X217029185Y-66293762D01*
X217023696Y-66295760D01*
X217018412Y-66298224D01*
X217010049Y-66300465D01*
X217002954Y-66305433D01*
X216978223Y-66322750D01*
X216970944Y-66327387D01*
X216937282Y-66346822D01*
X216912465Y-66376398D01*
X216912460Y-66376404D01*
X216906625Y-66382772D01*
X215582766Y-67706630D01*
X215576399Y-67712464D01*
X215546822Y-67737282D01*
X215542492Y-67744782D01*
X215527397Y-67770927D01*
X215522758Y-67778209D01*
X215516691Y-67786874D01*
X215500465Y-67810048D01*
X215498223Y-67818417D01*
X215495757Y-67823706D01*
X215493763Y-67829184D01*
X215489432Y-67836685D01*
X215487928Y-67845213D01*
X215487928Y-67845214D01*
X215482685Y-67874949D01*
X215480816Y-67883381D01*
X215470758Y-67920918D01*
X215472663Y-67942692D01*
X215474123Y-67959379D01*
X215474500Y-67968008D01*
X215474500Y-68158464D01*
X215474123Y-68167093D01*
X215470758Y-68205554D01*
X215472999Y-68213917D01*
X215480816Y-68243091D01*
X215482685Y-68251523D01*
X215484325Y-68260825D01*
X215489432Y-68289787D01*
X215493763Y-68297288D01*
X215495757Y-68302766D01*
X215498223Y-68308055D01*
X215500465Y-68316424D01*
X215505433Y-68323520D01*
X215505434Y-68323521D01*
X215522758Y-68348263D01*
X215527396Y-68355544D01*
X215546822Y-68389190D01*
X215576398Y-68414007D01*
X215582766Y-68419842D01*
X215981295Y-68818371D01*
X216009072Y-68872888D01*
X215999501Y-68933320D01*
X215981296Y-68958378D01*
X215816708Y-69122965D01*
X215762193Y-69150741D01*
X215753701Y-69151713D01*
X215700636Y-69155470D01*
X215656345Y-69172605D01*
X215581222Y-69201667D01*
X215581220Y-69201668D01*
X215574319Y-69204338D01*
X215557961Y-69217234D01*
X215476552Y-69281412D01*
X215467955Y-69288189D01*
X215463748Y-69294276D01*
X215463747Y-69294277D01*
X215442129Y-69325556D01*
X215390948Y-69399608D01*
X215350108Y-69528744D01*
X215349044Y-69664181D01*
X215351164Y-69671269D01*
X215351164Y-69671271D01*
X215376308Y-69755344D01*
X215387851Y-69793942D01*
X215457816Y-69898652D01*
X215474500Y-69953651D01*
X215474500Y-71175500D01*
X215455593Y-71233691D01*
X215406093Y-71269655D01*
X215375500Y-71274500D01*
X215355234Y-71274500D01*
X215293336Y-71252763D01*
X215289818Y-71249945D01*
X215284798Y-71244514D01*
X215219018Y-71206306D01*
X215174079Y-71180203D01*
X215174078Y-71180202D01*
X215167681Y-71176487D01*
X215160475Y-71174817D01*
X215160473Y-71174816D01*
X215119922Y-71165417D01*
X215035738Y-71145904D01*
X214900636Y-71155470D01*
X214863347Y-71169896D01*
X214781222Y-71201667D01*
X214781220Y-71201668D01*
X214774319Y-71204338D01*
X214745958Y-71226696D01*
X214679681Y-71278945D01*
X214667955Y-71288189D01*
X214663748Y-71294276D01*
X214663747Y-71294277D01*
X214611888Y-71369310D01*
X214590948Y-71399608D01*
X214573766Y-71453937D01*
X214552349Y-71521659D01*
X214550108Y-71528744D01*
X214550050Y-71536143D01*
X214549110Y-71655829D01*
X214549044Y-71664181D01*
X214551164Y-71671269D01*
X214551164Y-71671271D01*
X214562424Y-71708921D01*
X214587851Y-71793942D01*
X214591963Y-71800096D01*
X214591964Y-71800098D01*
X214608045Y-71824165D01*
X214663098Y-71906557D01*
X214668839Y-71911231D01*
X214762395Y-71987398D01*
X214762398Y-71987400D01*
X214768132Y-71992068D01*
X214774988Y-71994845D01*
X214803104Y-72006233D01*
X214893666Y-72042914D01*
X215028601Y-72054601D01*
X215082886Y-72042914D01*
X215153769Y-72027654D01*
X215153772Y-72027653D01*
X215161008Y-72026095D01*
X215168876Y-72021689D01*
X215272724Y-71963531D01*
X215279179Y-71959916D01*
X215284285Y-71954563D01*
X215290136Y-71950025D01*
X215291317Y-71951548D01*
X215336601Y-71927112D01*
X215354391Y-71925500D01*
X215581715Y-71925500D01*
X215590344Y-71925877D01*
X215628805Y-71929242D01*
X215660430Y-71920768D01*
X215666342Y-71919184D01*
X215674774Y-71917315D01*
X215704509Y-71912072D01*
X215704510Y-71912072D01*
X215713038Y-71910568D01*
X215720539Y-71906237D01*
X215726017Y-71904243D01*
X215731306Y-71901777D01*
X215739675Y-71899535D01*
X215747339Y-71894169D01*
X215771514Y-71877242D01*
X215778796Y-71872603D01*
X215804938Y-71857510D01*
X215812441Y-71853178D01*
X215837260Y-71823600D01*
X215843093Y-71817234D01*
X216017221Y-71643105D01*
X216023589Y-71637269D01*
X216046543Y-71618009D01*
X216046545Y-71618007D01*
X216053178Y-71612441D01*
X216072610Y-71578784D01*
X216077249Y-71571503D01*
X216094566Y-71546771D01*
X216099535Y-71539675D01*
X216101777Y-71531307D01*
X216104244Y-71526018D01*
X216106239Y-71520536D01*
X216110568Y-71513038D01*
X216117314Y-71474782D01*
X216119183Y-71466352D01*
X216127002Y-71437172D01*
X216127002Y-71437167D01*
X216129243Y-71428805D01*
X216125877Y-71390335D01*
X216125500Y-71381707D01*
X216125500Y-69951007D01*
X216144407Y-69892816D01*
X216152866Y-69882672D01*
X216160981Y-69874165D01*
X216172667Y-69861915D01*
X216215353Y-69776487D01*
X216229899Y-69747376D01*
X216229900Y-69747374D01*
X216233206Y-69740757D01*
X216250687Y-69635737D01*
X216278338Y-69581989D01*
X216578915Y-69281412D01*
X216628891Y-69255949D01*
X216628601Y-69254601D01*
X216753769Y-69227654D01*
X216753772Y-69227653D01*
X216761008Y-69226095D01*
X216776831Y-69217234D01*
X216872724Y-69163531D01*
X216879179Y-69159916D01*
X216972667Y-69061915D01*
X216975974Y-69055297D01*
X216975976Y-69055294D01*
X217004280Y-68998647D01*
X217047203Y-68955043D01*
X217107558Y-68944997D01*
X217162843Y-68972893D01*
X217445503Y-69255552D01*
X217473281Y-69310069D01*
X217474500Y-69325556D01*
X217474500Y-71824165D01*
X217455593Y-71882356D01*
X217445504Y-71894169D01*
X214168680Y-75170993D01*
X214114163Y-75198770D01*
X214098676Y-75199989D01*
X212363814Y-75199989D01*
X212305623Y-75181082D01*
X212269659Y-75131582D01*
X212269659Y-75070396D01*
X212275254Y-75056738D01*
X212329899Y-74947376D01*
X212329900Y-74947374D01*
X212333206Y-74940757D01*
X212353469Y-74819019D01*
X212354804Y-74811001D01*
X212354804Y-74810999D01*
X212355444Y-74807155D01*
X212355500Y-74800000D01*
X212354737Y-74794921D01*
X212336465Y-74673386D01*
X212336464Y-74673384D01*
X212335364Y-74666065D01*
X212330336Y-74655593D01*
X212279937Y-74550639D01*
X212276735Y-74543971D01*
X212184798Y-74444514D01*
X212091538Y-74390344D01*
X212074079Y-74380203D01*
X212074078Y-74380202D01*
X212067681Y-74376487D01*
X212060475Y-74374817D01*
X212060473Y-74374816D01*
X211995490Y-74359754D01*
X211935738Y-74345904D01*
X211800636Y-74355470D01*
X211793734Y-74358140D01*
X211786514Y-74359754D01*
X211785814Y-74356623D01*
X211738556Y-74359249D01*
X211693872Y-74333545D01*
X211204496Y-73844168D01*
X211176719Y-73789652D01*
X211175500Y-73774165D01*
X211175500Y-73218007D01*
X211175877Y-73209379D01*
X211176124Y-73206557D01*
X211179242Y-73170917D01*
X211169184Y-73133381D01*
X211167316Y-73124953D01*
X211162072Y-73095213D01*
X211162072Y-73095212D01*
X211160568Y-73086685D01*
X211156239Y-73079186D01*
X211154248Y-73073717D01*
X211151776Y-73068417D01*
X211149534Y-73060048D01*
X211139462Y-73045663D01*
X211127248Y-73028220D01*
X211122608Y-73020937D01*
X211120957Y-73018078D01*
X211103178Y-72987282D01*
X211073601Y-72962464D01*
X211067234Y-72956630D01*
X209418859Y-71308255D01*
X209413024Y-71301887D01*
X209388207Y-71272311D01*
X209354561Y-71252885D01*
X209347280Y-71248247D01*
X209322538Y-71230923D01*
X209322537Y-71230922D01*
X209315441Y-71225954D01*
X209307072Y-71223712D01*
X209301783Y-71221246D01*
X209296305Y-71219252D01*
X209288804Y-71214921D01*
X209280276Y-71213417D01*
X209280275Y-71213417D01*
X209250540Y-71208174D01*
X209242108Y-71206305D01*
X209228441Y-71202643D01*
X209204571Y-71196247D01*
X209166149Y-71199609D01*
X209166110Y-71199612D01*
X209157481Y-71199989D01*
X201842804Y-71199989D01*
X201834175Y-71199612D01*
X201795706Y-71196246D01*
X201787344Y-71198487D01*
X201787339Y-71198487D01*
X201758159Y-71206306D01*
X201749729Y-71208175D01*
X201745500Y-71208921D01*
X201720000Y-71213417D01*
X201719998Y-71213418D01*
X201711473Y-71214921D01*
X201703975Y-71219250D01*
X201698493Y-71221245D01*
X201693204Y-71223712D01*
X201684836Y-71225954D01*
X201663635Y-71240799D01*
X201653008Y-71248240D01*
X201645727Y-71252879D01*
X201612070Y-71272311D01*
X201606504Y-71278944D01*
X201587248Y-71301892D01*
X201581414Y-71308259D01*
X201520363Y-71369310D01*
X201488613Y-71389536D01*
X201486482Y-71389912D01*
X201478984Y-71394241D01*
X201473499Y-71396237D01*
X201468211Y-71398703D01*
X201459845Y-71400945D01*
X201433797Y-71419184D01*
X201428017Y-71423231D01*
X201420736Y-71427870D01*
X201387079Y-71447302D01*
X201381513Y-71453935D01*
X201381511Y-71453937D01*
X201362251Y-71476891D01*
X201356415Y-71483259D01*
X201216709Y-71622964D01*
X201162193Y-71650741D01*
X201153701Y-71651713D01*
X201100636Y-71655470D01*
X201066239Y-71668777D01*
X200981222Y-71701667D01*
X200981220Y-71701668D01*
X200974319Y-71704338D01*
X200968506Y-71708921D01*
X200876864Y-71781166D01*
X200867955Y-71788189D01*
X200863748Y-71794276D01*
X200863747Y-71794277D01*
X200814748Y-71865173D01*
X200790948Y-71899608D01*
X200788716Y-71906666D01*
X200752876Y-72019993D01*
X200750108Y-72028744D01*
X200749044Y-72164181D01*
X200751164Y-72171269D01*
X200751164Y-72171271D01*
X200785395Y-72285731D01*
X200787851Y-72293942D01*
X200857816Y-72398652D01*
X200874500Y-72453651D01*
X200874500Y-74224165D01*
X200855593Y-74282356D01*
X200845504Y-74294169D01*
X199668305Y-75471368D01*
X199613788Y-75499145D01*
X199553356Y-75489574D01*
X199510091Y-75446309D01*
X199500401Y-75416083D01*
X199493891Y-75372784D01*
X199485364Y-75316065D01*
X199479380Y-75303602D01*
X199429937Y-75200639D01*
X199426735Y-75193971D01*
X199406918Y-75172533D01*
X199401801Y-75166997D01*
X199376186Y-75111432D01*
X199375500Y-75099797D01*
X199375500Y-73833285D01*
X199375877Y-73824656D01*
X199376707Y-73815173D01*
X199379242Y-73786195D01*
X199372310Y-73760325D01*
X199369184Y-73748658D01*
X199367315Y-73740226D01*
X199362072Y-73710491D01*
X199362072Y-73710490D01*
X199360568Y-73701962D01*
X199356237Y-73694461D01*
X199354243Y-73688983D01*
X199351777Y-73683694D01*
X199349535Y-73675325D01*
X199341862Y-73664366D01*
X199327242Y-73643486D01*
X199322603Y-73636204D01*
X199307508Y-73610059D01*
X199303178Y-73602559D01*
X199273601Y-73577741D01*
X199267234Y-73571907D01*
X195977613Y-70282286D01*
X195977610Y-70282284D01*
X195672767Y-69977441D01*
X195354496Y-69659169D01*
X195326719Y-69604652D01*
X195325500Y-69589165D01*
X195325500Y-68151301D01*
X195344407Y-68093110D01*
X195380015Y-68062858D01*
X195390418Y-68057626D01*
X195455937Y-68001667D01*
X195514781Y-67951410D01*
X195514784Y-67951407D01*
X195519316Y-67947536D01*
X195538443Y-67920918D01*
X195614750Y-67814726D01*
X195614751Y-67814724D01*
X195618234Y-67809877D01*
X195621019Y-67802951D01*
X195679237Y-67658130D01*
X195679238Y-67658128D01*
X195681461Y-67652597D01*
X195683294Y-67639723D01*
X195704889Y-67487981D01*
X195704889Y-67487977D01*
X195705345Y-67484775D01*
X195705500Y-67470000D01*
X195685135Y-67301715D01*
X195625217Y-67143145D01*
X195554422Y-67040137D01*
X195532583Y-67008362D01*
X195529203Y-67003444D01*
X195443089Y-66926719D01*
X195407092Y-66894647D01*
X195407090Y-66894646D01*
X195402638Y-66890679D01*
X195269733Y-66820309D01*
X195258103Y-66814151D01*
X195258100Y-66814150D01*
X195252829Y-66811359D01*
X195170626Y-66790711D01*
X195094213Y-66771517D01*
X195094210Y-66771517D01*
X195088423Y-66770063D01*
X195002734Y-66769615D01*
X194924878Y-66769207D01*
X194924876Y-66769207D01*
X194918912Y-66769176D01*
X194787962Y-66800614D01*
X194769390Y-66805073D01*
X194754082Y-66808748D01*
X194675827Y-66849138D01*
X194608756Y-66883756D01*
X194608754Y-66883758D01*
X194603450Y-66886495D01*
X194598955Y-66890417D01*
X194598951Y-66890419D01*
X194528878Y-66951548D01*
X194475711Y-66997928D01*
X194378240Y-67136615D01*
X194376073Y-67142173D01*
X194376072Y-67142175D01*
X194353528Y-67200000D01*
X194316665Y-67294549D01*
X194294539Y-67462612D01*
X194295194Y-67468545D01*
X194295194Y-67468549D01*
X194312485Y-67625172D01*
X194313140Y-67631102D01*
X194315189Y-67636702D01*
X194315190Y-67636705D01*
X194342915Y-67712465D01*
X194371395Y-67790290D01*
X194374720Y-67795238D01*
X194374721Y-67795240D01*
X194417348Y-67858676D01*
X194465940Y-67930988D01*
X194470352Y-67935003D01*
X194470355Y-67935006D01*
X194586618Y-68040797D01*
X194591317Y-68045073D01*
X194596566Y-68047923D01*
X194622738Y-68062133D01*
X194664856Y-68106515D01*
X194674500Y-68149136D01*
X194674500Y-69746715D01*
X194674123Y-69755344D01*
X194670758Y-69793805D01*
X194672999Y-69802168D01*
X194680816Y-69831342D01*
X194682685Y-69839774D01*
X194689432Y-69878038D01*
X194693763Y-69885539D01*
X194695757Y-69891017D01*
X194698223Y-69896306D01*
X194700465Y-69904675D01*
X194705433Y-69911771D01*
X194705434Y-69911772D01*
X194722758Y-69936514D01*
X194727396Y-69943795D01*
X194746822Y-69977441D01*
X194776398Y-70002258D01*
X194782766Y-70008093D01*
X195237169Y-70462496D01*
X195264946Y-70517013D01*
X195255375Y-70577445D01*
X195237169Y-70602504D01*
X194344152Y-71495521D01*
X194289635Y-71523298D01*
X194281143Y-71524270D01*
X194200636Y-71529970D01*
X194184680Y-71536143D01*
X194081222Y-71576167D01*
X194081220Y-71576168D01*
X194074319Y-71578838D01*
X194056526Y-71592865D01*
X193975448Y-71656782D01*
X193967955Y-71662689D01*
X193963748Y-71668776D01*
X193963747Y-71668777D01*
X193907469Y-71750204D01*
X193890948Y-71774108D01*
X193883894Y-71796414D01*
X193857580Y-71879619D01*
X193850108Y-71903244D01*
X193849044Y-72038681D01*
X193851164Y-72045769D01*
X193851164Y-72045771D01*
X193863856Y-72088208D01*
X193887851Y-72168442D01*
X193891963Y-72174596D01*
X193891964Y-72174598D01*
X193898292Y-72184068D01*
X193963098Y-72281057D01*
X193968839Y-72285731D01*
X194062395Y-72361898D01*
X194062398Y-72361900D01*
X194068132Y-72366568D01*
X194074988Y-72369345D01*
X194107891Y-72382672D01*
X194193666Y-72417414D01*
X194328601Y-72429101D01*
X194395785Y-72414637D01*
X194453769Y-72402154D01*
X194453772Y-72402153D01*
X194461008Y-72400595D01*
X194472610Y-72394098D01*
X194572724Y-72338031D01*
X194579179Y-72334416D01*
X194672667Y-72236415D01*
X194703555Y-72174598D01*
X194729899Y-72121876D01*
X194729900Y-72121874D01*
X194733206Y-72115257D01*
X194741807Y-72063585D01*
X194745595Y-72040829D01*
X194773247Y-71987080D01*
X195697496Y-71062831D01*
X195752013Y-71035054D01*
X195812445Y-71044625D01*
X195837504Y-71062831D01*
X198695504Y-73920831D01*
X198723281Y-73975348D01*
X198724500Y-73990835D01*
X198724500Y-75097837D01*
X198706941Y-75154125D01*
X198685647Y-75184935D01*
X198647202Y-75240560D01*
X198640948Y-75249608D01*
X198637056Y-75261915D01*
X198604875Y-75363672D01*
X198600108Y-75378744D01*
X198599777Y-75420911D01*
X198599126Y-75503793D01*
X198599044Y-75514181D01*
X198601164Y-75521269D01*
X198601164Y-75521271D01*
X198637851Y-75643942D01*
X198635509Y-75644643D01*
X198641750Y-75694052D01*
X198612273Y-75747669D01*
X198556911Y-75773719D01*
X198544504Y-75774500D01*
X189968285Y-75774500D01*
X189959656Y-75774123D01*
X189955038Y-75773719D01*
X189921195Y-75770758D01*
X189912831Y-75772999D01*
X189912832Y-75772999D01*
X189883658Y-75780816D01*
X189875226Y-75782685D01*
X189845491Y-75787928D01*
X189845490Y-75787928D01*
X189836962Y-75789432D01*
X189829461Y-75793763D01*
X189823983Y-75795757D01*
X189818694Y-75798223D01*
X189810325Y-75800465D01*
X189803229Y-75805433D01*
X189803228Y-75805434D01*
X189778486Y-75822758D01*
X189771205Y-75827396D01*
X189737559Y-75846822D01*
X189717663Y-75870533D01*
X189712742Y-75876398D01*
X189706907Y-75882766D01*
X188985478Y-76604195D01*
X188930961Y-76631972D01*
X188870529Y-76622401D01*
X188827264Y-76579136D01*
X188817693Y-76518704D01*
X188825896Y-76492039D01*
X188841167Y-76459586D01*
X188906860Y-76319984D01*
X188911524Y-76311240D01*
X188914900Y-76305609D01*
X188916632Y-76300278D01*
X188917988Y-76297299D01*
X188918091Y-76297040D01*
X188919223Y-76293709D01*
X188921588Y-76288684D01*
X188923000Y-76282234D01*
X188925553Y-76272820D01*
X188926443Y-76270083D01*
X189014928Y-75997752D01*
X189018463Y-75988485D01*
X189021105Y-75982479D01*
X189022154Y-75976981D01*
X189023124Y-75973861D01*
X189023190Y-75973605D01*
X189023900Y-75970138D01*
X189025619Y-75964848D01*
X189026211Y-75958276D01*
X189027566Y-75948607D01*
X189037214Y-75898032D01*
X189081759Y-75664520D01*
X189084106Y-75654872D01*
X189084380Y-75653949D01*
X189085974Y-75648585D01*
X189086326Y-75642998D01*
X189086895Y-75639795D01*
X189086935Y-75639476D01*
X189087202Y-75635985D01*
X189088243Y-75630528D01*
X189088045Y-75624985D01*
X189088045Y-75624979D01*
X189088007Y-75623930D01*
X189088139Y-75614174D01*
X189096574Y-75480102D01*
X189106302Y-75325500D01*
X189107420Y-75315660D01*
X189108484Y-75309195D01*
X189108132Y-75303600D01*
X189108296Y-75300324D01*
X189108296Y-75300063D01*
X189108123Y-75296544D01*
X189108472Y-75290996D01*
X189107411Y-75284482D01*
X189106319Y-75274787D01*
X189106164Y-75272311D01*
X189095187Y-75097837D01*
X189088159Y-74986131D01*
X189088033Y-74976212D01*
X189088046Y-74975885D01*
X189088279Y-74969660D01*
X189087230Y-74964160D01*
X189086982Y-74960888D01*
X189086951Y-74960643D01*
X189086335Y-74957158D01*
X189085986Y-74951606D01*
X189084116Y-74945273D01*
X189081818Y-74935790D01*
X189027625Y-74651700D01*
X189026255Y-74641864D01*
X189026170Y-74640907D01*
X189025678Y-74635335D01*
X189023949Y-74630013D01*
X189023298Y-74626820D01*
X189023220Y-74626516D01*
X189022183Y-74623171D01*
X189021141Y-74617710D01*
X189018489Y-74611654D01*
X189015021Y-74602536D01*
X189010961Y-74590041D01*
X188925649Y-74327476D01*
X188923063Y-74317905D01*
X188921670Y-74311489D01*
X188919288Y-74306427D01*
X188918237Y-74303327D01*
X188918146Y-74303100D01*
X188916680Y-74299872D01*
X188914959Y-74294574D01*
X188911581Y-74288918D01*
X188906994Y-74280302D01*
X188783847Y-74018601D01*
X188780076Y-74009419D01*
X188779759Y-74008521D01*
X188779758Y-74008518D01*
X188777892Y-74003235D01*
X188774890Y-73998505D01*
X188773457Y-73995557D01*
X188773329Y-73995325D01*
X188771483Y-73992328D01*
X188769114Y-73987293D01*
X188765049Y-73982099D01*
X188759423Y-73974133D01*
X188736719Y-73938356D01*
X188634847Y-73777832D01*
X188604444Y-73729924D01*
X188599551Y-73721284D01*
X188599124Y-73720433D01*
X188599123Y-73720431D01*
X188596614Y-73715432D01*
X188593046Y-73711119D01*
X188591253Y-73708372D01*
X188591098Y-73708158D01*
X188588886Y-73705409D01*
X188585908Y-73700716D01*
X188581913Y-73696755D01*
X188581220Y-73696069D01*
X188574635Y-73688864D01*
X188573556Y-73687559D01*
X188390284Y-73466023D01*
X188384344Y-73458061D01*
X188380694Y-73452618D01*
X188376613Y-73448786D01*
X188374490Y-73446285D01*
X188374321Y-73446105D01*
X188371772Y-73443645D01*
X188368227Y-73439360D01*
X188363817Y-73435970D01*
X188362994Y-73435337D01*
X188355559Y-73429015D01*
X188144735Y-73231037D01*
X188137850Y-73223890D01*
X188137218Y-73223165D01*
X188133538Y-73218939D01*
X188129005Y-73215646D01*
X188126578Y-73213424D01*
X188126400Y-73213277D01*
X188123563Y-73211156D01*
X188119508Y-73207348D01*
X188114711Y-73204540D01*
X188114709Y-73204538D01*
X188113815Y-73204015D01*
X188105658Y-73198684D01*
X187871651Y-73028666D01*
X187863937Y-73022446D01*
X187863221Y-73021807D01*
X187859043Y-73018078D01*
X187854136Y-73015380D01*
X187851468Y-73013493D01*
X187851235Y-73013345D01*
X187848166Y-73011603D01*
X187843670Y-73008337D01*
X187838559Y-73006152D01*
X187838556Y-73006150D01*
X187837599Y-73005741D01*
X187828841Y-73001475D01*
X187575386Y-72862137D01*
X187566948Y-72856931D01*
X187561537Y-72853205D01*
X187556338Y-72851146D01*
X187553475Y-72849619D01*
X187553175Y-72849478D01*
X187549931Y-72848143D01*
X187545065Y-72845468D01*
X187539725Y-72843942D01*
X187539718Y-72843939D01*
X187538721Y-72843654D01*
X187529486Y-72840515D01*
X187260576Y-72734047D01*
X187251541Y-72729935D01*
X187245713Y-72726920D01*
X187240289Y-72725527D01*
X187237226Y-72724359D01*
X187236978Y-72724279D01*
X187233573Y-72723356D01*
X187228401Y-72721308D01*
X187221889Y-72720306D01*
X187212337Y-72718351D01*
X187004268Y-72664927D01*
X186932178Y-72646417D01*
X186922703Y-72643470D01*
X186921813Y-72643143D01*
X186921803Y-72643141D01*
X186916552Y-72641214D01*
X186911000Y-72640513D01*
X186907815Y-72639738D01*
X186907545Y-72639686D01*
X186904056Y-72639197D01*
X186898673Y-72637815D01*
X186892127Y-72637638D01*
X186892063Y-72637636D01*
X186882335Y-72636891D01*
X186686592Y-72612163D01*
X186631230Y-72586112D01*
X186601754Y-72532495D01*
X186600000Y-72513944D01*
X186600000Y-67462612D01*
X191094539Y-67462612D01*
X191095194Y-67468545D01*
X191095194Y-67468549D01*
X191112485Y-67625172D01*
X191113140Y-67631102D01*
X191115189Y-67636702D01*
X191115190Y-67636705D01*
X191142915Y-67712465D01*
X191171395Y-67790290D01*
X191174720Y-67795238D01*
X191174721Y-67795240D01*
X191217348Y-67858676D01*
X191265940Y-67930988D01*
X191270352Y-67935003D01*
X191270355Y-67935006D01*
X191386618Y-68040797D01*
X191391317Y-68045073D01*
X191396566Y-68047923D01*
X191462287Y-68083606D01*
X191540288Y-68125957D01*
X191546058Y-68127471D01*
X191546061Y-68127472D01*
X191680662Y-68162784D01*
X191704253Y-68168973D01*
X191710222Y-68169067D01*
X191710224Y-68169067D01*
X191773307Y-68170058D01*
X191873745Y-68171635D01*
X191879561Y-68170303D01*
X192033157Y-68135125D01*
X192033160Y-68135124D01*
X192038980Y-68133791D01*
X192051544Y-68127472D01*
X192185084Y-68060309D01*
X192185087Y-68060307D01*
X192190418Y-68057626D01*
X192255937Y-68001667D01*
X192314781Y-67951410D01*
X192314784Y-67951407D01*
X192319316Y-67947536D01*
X192338443Y-67920918D01*
X192414750Y-67814726D01*
X192414751Y-67814724D01*
X192418234Y-67809877D01*
X192421019Y-67802951D01*
X192479237Y-67658130D01*
X192479238Y-67658128D01*
X192481461Y-67652597D01*
X192483294Y-67639723D01*
X192504889Y-67487981D01*
X192504889Y-67487977D01*
X192505345Y-67484775D01*
X192505500Y-67470000D01*
X192485135Y-67301715D01*
X192425217Y-67143145D01*
X192354422Y-67040137D01*
X192332583Y-67008362D01*
X192329203Y-67003444D01*
X192243089Y-66926719D01*
X192207092Y-66894647D01*
X192207090Y-66894646D01*
X192202638Y-66890679D01*
X192069733Y-66820309D01*
X192058103Y-66814151D01*
X192058100Y-66814150D01*
X192052829Y-66811359D01*
X191970626Y-66790711D01*
X191894213Y-66771517D01*
X191894210Y-66771517D01*
X191888423Y-66770063D01*
X191802734Y-66769615D01*
X191724878Y-66769207D01*
X191724876Y-66769207D01*
X191718912Y-66769176D01*
X191587962Y-66800614D01*
X191569390Y-66805073D01*
X191554082Y-66808748D01*
X191475827Y-66849138D01*
X191408756Y-66883756D01*
X191408754Y-66883758D01*
X191403450Y-66886495D01*
X191398955Y-66890417D01*
X191398951Y-66890419D01*
X191328878Y-66951548D01*
X191275711Y-66997928D01*
X191178240Y-67136615D01*
X191176073Y-67142173D01*
X191176072Y-67142175D01*
X191153528Y-67200000D01*
X191116665Y-67294549D01*
X191094539Y-67462612D01*
X186600000Y-67462612D01*
X186600000Y-66222612D01*
X187844539Y-66222612D01*
X187845194Y-66228545D01*
X187845194Y-66228549D01*
X187862220Y-66382772D01*
X187863140Y-66391102D01*
X187921395Y-66550290D01*
X188015940Y-66690988D01*
X188020352Y-66695003D01*
X188020355Y-66695006D01*
X188136899Y-66801053D01*
X188141317Y-66805073D01*
X188146566Y-66807923D01*
X188150217Y-66809905D01*
X188290288Y-66885957D01*
X188296058Y-66887471D01*
X188296061Y-66887472D01*
X188445661Y-66926719D01*
X188454253Y-66928973D01*
X188460222Y-66929067D01*
X188460224Y-66929067D01*
X188523307Y-66930058D01*
X188623745Y-66931635D01*
X188629561Y-66930303D01*
X188783157Y-66895125D01*
X188783160Y-66895124D01*
X188788980Y-66893791D01*
X188803487Y-66886495D01*
X188935084Y-66820309D01*
X188935086Y-66820308D01*
X188940418Y-66817626D01*
X188997145Y-66769176D01*
X189064781Y-66711410D01*
X189064784Y-66711407D01*
X189069316Y-66707536D01*
X189142852Y-66605200D01*
X189164750Y-66574726D01*
X189164751Y-66574724D01*
X189168234Y-66569877D01*
X189175065Y-66552886D01*
X189229237Y-66418130D01*
X189229238Y-66418128D01*
X189231461Y-66412597D01*
X189235707Y-66382766D01*
X189254889Y-66247981D01*
X189254889Y-66247977D01*
X189255345Y-66244775D01*
X189255500Y-66230000D01*
X189235135Y-66061715D01*
X189175217Y-65903145D01*
X189123677Y-65828153D01*
X189082583Y-65768362D01*
X189079203Y-65763444D01*
X188952638Y-65650679D01*
X188939563Y-65643756D01*
X188808103Y-65574151D01*
X188808100Y-65574150D01*
X188802829Y-65571359D01*
X188718906Y-65550279D01*
X188644213Y-65531517D01*
X188644210Y-65531517D01*
X188638423Y-65530063D01*
X188552734Y-65529615D01*
X188474878Y-65529207D01*
X188474876Y-65529207D01*
X188468912Y-65529176D01*
X188304082Y-65568748D01*
X188225827Y-65609138D01*
X188158756Y-65643756D01*
X188158754Y-65643758D01*
X188153450Y-65646495D01*
X188148955Y-65650417D01*
X188148951Y-65650419D01*
X188095835Y-65696755D01*
X188025711Y-65757928D01*
X187928240Y-65896615D01*
X187926073Y-65902173D01*
X187926072Y-65902175D01*
X187894801Y-65982384D01*
X187866665Y-66054549D01*
X187844539Y-66222612D01*
X186600000Y-66222612D01*
X186600000Y-65099000D01*
X186618907Y-65040809D01*
X186668407Y-65004845D01*
X186699000Y-65000000D01*
X196701000Y-65000000D01*
X196759191Y-65018907D01*
G37*
%TD.AperFunction*%
%TA.AperFunction,Conductor*%
G36*
X239087745Y-72833790D02*
G01*
X241920705Y-75666748D01*
X241926540Y-75673116D01*
X241945794Y-75696063D01*
X241945796Y-75696065D01*
X241951362Y-75702698D01*
X241973854Y-75715684D01*
X241985017Y-75722129D01*
X241992298Y-75726768D01*
X242024128Y-75749055D01*
X242032496Y-75751297D01*
X242037785Y-75753764D01*
X242043267Y-75755759D01*
X242050765Y-75760088D01*
X242059290Y-75761591D01*
X242059292Y-75761592D01*
X242082176Y-75765627D01*
X242089021Y-75766834D01*
X242097451Y-75768703D01*
X242126631Y-75776522D01*
X242126636Y-75776522D01*
X242134998Y-75778763D01*
X242173468Y-75775397D01*
X242182096Y-75775020D01*
X246323685Y-75775020D01*
X246381876Y-75793927D01*
X246393689Y-75804016D01*
X248261418Y-77671745D01*
X248267252Y-77678112D01*
X248292070Y-77707689D01*
X248315268Y-77721082D01*
X248325725Y-77727119D01*
X248333008Y-77731759D01*
X248357739Y-77749076D01*
X248357741Y-77749077D01*
X248364836Y-77754045D01*
X248373205Y-77756287D01*
X248378505Y-77758759D01*
X248383974Y-77760750D01*
X248391473Y-77765079D01*
X248400000Y-77766583D01*
X248400001Y-77766583D01*
X248416311Y-77769459D01*
X248429744Y-77771828D01*
X248438169Y-77773695D01*
X248475705Y-77783753D01*
X248514167Y-77780388D01*
X248522795Y-77780011D01*
X249260922Y-77780011D01*
X249319113Y-77798918D01*
X249355077Y-77848418D01*
X249355077Y-77909604D01*
X249322958Y-77956163D01*
X249186505Y-78065874D01*
X249132935Y-78129717D01*
X249057202Y-78219971D01*
X249057199Y-78219975D01*
X249054093Y-78223677D01*
X248954853Y-78404194D01*
X248953389Y-78408808D01*
X248953388Y-78408811D01*
X248914240Y-78532222D01*
X248892565Y-78600549D01*
X248892025Y-78605361D01*
X248892025Y-78605362D01*
X248870686Y-78795610D01*
X248869603Y-78805263D01*
X248873804Y-78855296D01*
X248886226Y-79003223D01*
X248886840Y-79010538D01*
X248888173Y-79015186D01*
X248888173Y-79015187D01*
X248939527Y-79194277D01*
X248943621Y-79208555D01*
X249037782Y-79391773D01*
X249165737Y-79553212D01*
X249169417Y-79556344D01*
X249169419Y-79556346D01*
X249216256Y-79596207D01*
X249322612Y-79686723D01*
X249326839Y-79689086D01*
X249330814Y-79691848D01*
X249330205Y-79692724D01*
X249368404Y-79733976D01*
X249375647Y-79794731D01*
X249345797Y-79848140D01*
X249290254Y-79873804D01*
X249278533Y-79874500D01*
X236518284Y-79874500D01*
X236509656Y-79874123D01*
X236508525Y-79874024D01*
X236471194Y-79870758D01*
X236433658Y-79880816D01*
X236425233Y-79882683D01*
X236411800Y-79885052D01*
X236395490Y-79887928D01*
X236395489Y-79887928D01*
X236386962Y-79889432D01*
X236379463Y-79893761D01*
X236373994Y-79895752D01*
X236368694Y-79898224D01*
X236360325Y-79900466D01*
X236353230Y-79905434D01*
X236353228Y-79905435D01*
X236328497Y-79922752D01*
X236321215Y-79927391D01*
X236287559Y-79946822D01*
X236268226Y-79969862D01*
X236262742Y-79976398D01*
X236256907Y-79982766D01*
X236070149Y-80169524D01*
X236015632Y-80197301D01*
X236000145Y-80198520D01*
X232186809Y-80198520D01*
X232128618Y-80179613D01*
X232092654Y-80130113D01*
X232092654Y-80068927D01*
X232116805Y-80029516D01*
X233241259Y-78905061D01*
X233247627Y-78899226D01*
X233277209Y-78874404D01*
X233296644Y-78840742D01*
X233301281Y-78833463D01*
X233318598Y-78808732D01*
X233323566Y-78801637D01*
X233325807Y-78793274D01*
X233328271Y-78787990D01*
X233330269Y-78782501D01*
X233334599Y-78775001D01*
X233341346Y-78736734D01*
X233343216Y-78728303D01*
X233351032Y-78699135D01*
X233353274Y-78690768D01*
X233349908Y-78652295D01*
X233349531Y-78643666D01*
X233349531Y-77687522D01*
X233368438Y-77629331D01*
X233378527Y-77617518D01*
X233967518Y-77028527D01*
X234022035Y-77000750D01*
X234037522Y-76999531D01*
X238015678Y-76999531D01*
X238024307Y-76999908D01*
X238062768Y-77003273D01*
X238100305Y-76993215D01*
X238108737Y-76991346D01*
X238138472Y-76986103D01*
X238138473Y-76986103D01*
X238147001Y-76984599D01*
X238154502Y-76980268D01*
X238159980Y-76978274D01*
X238165269Y-76975808D01*
X238173638Y-76973566D01*
X238188193Y-76963375D01*
X238205477Y-76951273D01*
X238212759Y-76946634D01*
X238215115Y-76945274D01*
X238246404Y-76927209D01*
X238271222Y-76897632D01*
X238277056Y-76891265D01*
X239267234Y-75901087D01*
X239273602Y-75895252D01*
X239287867Y-75883282D01*
X239303178Y-75870435D01*
X239322609Y-75836779D01*
X239327248Y-75829497D01*
X239344565Y-75804766D01*
X239344566Y-75804764D01*
X239349534Y-75797669D01*
X239351776Y-75789300D01*
X239354248Y-75784000D01*
X239356239Y-75778531D01*
X239360568Y-75771032D01*
X239367317Y-75732761D01*
X239369185Y-75724333D01*
X239369197Y-75724289D01*
X239379242Y-75686800D01*
X239375877Y-75648338D01*
X239375500Y-75639710D01*
X239375500Y-73742883D01*
X239375877Y-73734255D01*
X239378141Y-73708372D01*
X239379242Y-73695793D01*
X239369184Y-73658256D01*
X239367315Y-73649824D01*
X239362072Y-73620089D01*
X239362072Y-73620088D01*
X239360568Y-73611560D01*
X239356237Y-73604059D01*
X239354241Y-73598576D01*
X239351777Y-73593292D01*
X239349535Y-73584923D01*
X239327248Y-73553093D01*
X239322609Y-73545812D01*
X239320188Y-73541619D01*
X239303178Y-73512157D01*
X239296545Y-73506591D01*
X239296543Y-73506589D01*
X239273589Y-73487329D01*
X239267233Y-73481505D01*
X238948130Y-73162401D01*
X238920355Y-73107888D01*
X238919983Y-73079482D01*
X238930500Y-72999598D01*
X238919588Y-72916716D01*
X238930738Y-72856556D01*
X238975120Y-72814438D01*
X239035782Y-72806452D01*
X239087745Y-72833790D01*
G37*
%TD.AperFunction*%
%TA.AperFunction,Conductor*%
G36*
X230061421Y-71169896D02*
G01*
X230073234Y-71179985D01*
X230574714Y-71681465D01*
X230602491Y-71735982D01*
X230592920Y-71796414D01*
X230549655Y-71839679D01*
X230504710Y-71850469D01*
X226501322Y-71850469D01*
X226492694Y-71850092D01*
X226490408Y-71849892D01*
X226454232Y-71846727D01*
X226416696Y-71856785D01*
X226408271Y-71858652D01*
X226394838Y-71861021D01*
X226378528Y-71863897D01*
X226378527Y-71863897D01*
X226370000Y-71865401D01*
X226362501Y-71869730D01*
X226357032Y-71871721D01*
X226351732Y-71874193D01*
X226343363Y-71876435D01*
X226336268Y-71881403D01*
X226336266Y-71881404D01*
X226311535Y-71898721D01*
X226304253Y-71903360D01*
X226270597Y-71922791D01*
X226261853Y-71933212D01*
X226245780Y-71952367D01*
X226239945Y-71958735D01*
X225367305Y-72831375D01*
X225360938Y-72837209D01*
X225331361Y-72862027D01*
X225327031Y-72869527D01*
X225311936Y-72895672D01*
X225307297Y-72902954D01*
X225289973Y-72927696D01*
X225285004Y-72934793D01*
X225282762Y-72943162D01*
X225280296Y-72948451D01*
X225278302Y-72953929D01*
X225273971Y-72961430D01*
X225272467Y-72969958D01*
X225272467Y-72969959D01*
X225267224Y-72999694D01*
X225265355Y-73008126D01*
X225263957Y-73013345D01*
X225255297Y-73045663D01*
X225257784Y-73074091D01*
X225258662Y-73084124D01*
X225259039Y-73092753D01*
X225259039Y-74006999D01*
X225241480Y-74063286D01*
X225207847Y-74111949D01*
X225205615Y-74119007D01*
X225170891Y-74228805D01*
X225167007Y-74241085D01*
X225166949Y-74248484D01*
X225166116Y-74354563D01*
X225165943Y-74376522D01*
X225168063Y-74383610D01*
X225168063Y-74383612D01*
X225185250Y-74441080D01*
X225183809Y-74502248D01*
X225146689Y-74550887D01*
X225136525Y-74556270D01*
X225136667Y-74556518D01*
X225130240Y-74560184D01*
X225123336Y-74562855D01*
X225088851Y-74590041D01*
X225024328Y-74640907D01*
X225016972Y-74646706D01*
X225012765Y-74652793D01*
X225012764Y-74652794D01*
X224948868Y-74745244D01*
X224939965Y-74758125D01*
X224924459Y-74807155D01*
X224905634Y-74866681D01*
X224899125Y-74887261D01*
X224899067Y-74894660D01*
X224898270Y-74996153D01*
X224898061Y-75022698D01*
X224900181Y-75029786D01*
X224900181Y-75029788D01*
X224933895Y-75142519D01*
X224936868Y-75152459D01*
X224958885Y-75185409D01*
X224975493Y-75244295D01*
X224954316Y-75301699D01*
X224903442Y-75335692D01*
X224883561Y-75339162D01*
X224848995Y-75341609D01*
X224848992Y-75341610D01*
X224841616Y-75342132D01*
X224817556Y-75351440D01*
X224722202Y-75388329D01*
X224722200Y-75388330D01*
X224715299Y-75391000D01*
X224677357Y-75420911D01*
X224616290Y-75469053D01*
X224608935Y-75474851D01*
X224604728Y-75480938D01*
X224604727Y-75480939D01*
X224543544Y-75569463D01*
X224531928Y-75586270D01*
X224515101Y-75639476D01*
X224497208Y-75696056D01*
X224491088Y-75715406D01*
X224490849Y-75745778D01*
X224490090Y-75842492D01*
X224490024Y-75850843D01*
X224492144Y-75857933D01*
X224493187Y-75865259D01*
X224490139Y-75865693D01*
X224489024Y-75913440D01*
X224451915Y-75962088D01*
X224431329Y-75972990D01*
X224357202Y-76001667D01*
X224357200Y-76001668D01*
X224350299Y-76004338D01*
X224327418Y-76022376D01*
X224250917Y-76082685D01*
X224243935Y-76088189D01*
X224239728Y-76094276D01*
X224239727Y-76094277D01*
X224180680Y-76179711D01*
X224166928Y-76199608D01*
X224152827Y-76244196D01*
X224148585Y-76257608D01*
X224113011Y-76307388D01*
X224054970Y-76326752D01*
X224031843Y-76324199D01*
X224021854Y-76321884D01*
X223886752Y-76331450D01*
X223849109Y-76346013D01*
X223767338Y-76377647D01*
X223767336Y-76377648D01*
X223760435Y-76380318D01*
X223654071Y-76464169D01*
X223649864Y-76470256D01*
X223649863Y-76470257D01*
X223586663Y-76561699D01*
X223577064Y-76575588D01*
X223567530Y-76605735D01*
X223546300Y-76672865D01*
X223536224Y-76704724D01*
X223536166Y-76712123D01*
X223536094Y-76721237D01*
X223516729Y-76779277D01*
X223509500Y-76786969D01*
X223509505Y-76786973D01*
X223503940Y-76793605D01*
X223497302Y-76799175D01*
X223492970Y-76806678D01*
X223477877Y-76832820D01*
X223473238Y-76840102D01*
X223462409Y-76855568D01*
X223450945Y-76871941D01*
X223448703Y-76880310D01*
X223446237Y-76885599D01*
X223444243Y-76891077D01*
X223439912Y-76898578D01*
X223438408Y-76907106D01*
X223438408Y-76907107D01*
X223433165Y-76936842D01*
X223431296Y-76945274D01*
X223421238Y-76982811D01*
X223422148Y-76993215D01*
X223424603Y-77021272D01*
X223424980Y-77029901D01*
X223424980Y-77802250D01*
X223406073Y-77860441D01*
X223395984Y-77872254D01*
X222470333Y-78797904D01*
X222415816Y-78825681D01*
X222400329Y-78826900D01*
X221208153Y-78826900D01*
X221149962Y-78807993D01*
X221113998Y-78758493D01*
X221113998Y-78697307D01*
X221138149Y-78657896D01*
X223375102Y-76420942D01*
X223381470Y-76415107D01*
X223404417Y-76395853D01*
X223404419Y-76395851D01*
X223411052Y-76390285D01*
X223430484Y-76356628D01*
X223435123Y-76349347D01*
X223437086Y-76346544D01*
X223457409Y-76317519D01*
X223459651Y-76309151D01*
X223462118Y-76303862D01*
X223464113Y-76298380D01*
X223468442Y-76290882D01*
X223472110Y-76270083D01*
X223475187Y-76252629D01*
X223477057Y-76244196D01*
X223484874Y-76215022D01*
X223484874Y-76215019D01*
X223486156Y-76210236D01*
X223486159Y-76210229D01*
X223487118Y-76206649D01*
X223487706Y-76206806D01*
X223512077Y-76152891D01*
X223525432Y-76138892D01*
X223525436Y-76138887D01*
X223530541Y-76133535D01*
X223565036Y-76064499D01*
X223587773Y-76018996D01*
X223587774Y-76018994D01*
X223591080Y-76012377D01*
X223610366Y-75896511D01*
X223612678Y-75882621D01*
X223612678Y-75882619D01*
X223613318Y-75878775D01*
X223613374Y-75871620D01*
X223612069Y-75862936D01*
X223594339Y-75745006D01*
X223594338Y-75745004D01*
X223593238Y-75737685D01*
X223588831Y-75728506D01*
X223537811Y-75622259D01*
X223534609Y-75615591D01*
X223442672Y-75516134D01*
X223355737Y-75465638D01*
X223331953Y-75451823D01*
X223331952Y-75451822D01*
X223325555Y-75448107D01*
X223318349Y-75446437D01*
X223318347Y-75446436D01*
X223281219Y-75437830D01*
X223193612Y-75417524D01*
X223058510Y-75427090D01*
X223017607Y-75442914D01*
X222960220Y-75465115D01*
X222899127Y-75468477D01*
X222847726Y-75435288D01*
X222825500Y-75372784D01*
X222825500Y-74075835D01*
X222844407Y-74017644D01*
X222854496Y-74005831D01*
X223659304Y-73201023D01*
X223713821Y-73173246D01*
X223774253Y-73182817D01*
X223817518Y-73226082D01*
X223828308Y-73271027D01*
X223828308Y-74528019D01*
X223809401Y-74586210D01*
X223765029Y-74620350D01*
X223740501Y-74629839D01*
X223697258Y-74663929D01*
X223640448Y-74708715D01*
X223634137Y-74713690D01*
X223629930Y-74719777D01*
X223629929Y-74719778D01*
X223579034Y-74793417D01*
X223557130Y-74825109D01*
X223549897Y-74847981D01*
X223518812Y-74946272D01*
X223516290Y-74954245D01*
X223515829Y-75012923D01*
X223515378Y-75070396D01*
X223515226Y-75089682D01*
X223517346Y-75096770D01*
X223517346Y-75096772D01*
X223543050Y-75182720D01*
X223554033Y-75219443D01*
X223558145Y-75225597D01*
X223558146Y-75225599D01*
X223574189Y-75249608D01*
X223629280Y-75332058D01*
X223635021Y-75336732D01*
X223728577Y-75412899D01*
X223728580Y-75412901D01*
X223734314Y-75417569D01*
X223741170Y-75420346D01*
X223789662Y-75439987D01*
X223859848Y-75468415D01*
X223994783Y-75480102D01*
X224064396Y-75465115D01*
X224119951Y-75453155D01*
X224119954Y-75453154D01*
X224127190Y-75451596D01*
X224147652Y-75440137D01*
X224238906Y-75389032D01*
X224245361Y-75385417D01*
X224338849Y-75287416D01*
X224372813Y-75219443D01*
X224396081Y-75172877D01*
X224396082Y-75172875D01*
X224399388Y-75166258D01*
X224420082Y-75041930D01*
X224436642Y-75001402D01*
X224448376Y-74984644D01*
X224448376Y-74984643D01*
X224453343Y-74977550D01*
X224455584Y-74969187D01*
X224458049Y-74963901D01*
X224460047Y-74958412D01*
X224464376Y-74950913D01*
X224471123Y-74912650D01*
X224472992Y-74904218D01*
X224478975Y-74881888D01*
X224483050Y-74866681D01*
X224479685Y-74828219D01*
X224479308Y-74819591D01*
X224479308Y-73234493D01*
X224498215Y-73176302D01*
X224508304Y-73164489D01*
X225185148Y-72487645D01*
X225235124Y-72462182D01*
X225234834Y-72460834D01*
X225360002Y-72433887D01*
X225360005Y-72433886D01*
X225367241Y-72432328D01*
X225374145Y-72428462D01*
X225478957Y-72369764D01*
X225485412Y-72366149D01*
X225578900Y-72268148D01*
X225632264Y-72161350D01*
X225636132Y-72153609D01*
X225636133Y-72153607D01*
X225639439Y-72146990D01*
X225654817Y-72054601D01*
X225661037Y-72017234D01*
X225661037Y-72017232D01*
X225661677Y-72013388D01*
X225661733Y-72006233D01*
X225660799Y-72000015D01*
X225642698Y-71879619D01*
X225642697Y-71879617D01*
X225641597Y-71872298D01*
X225634148Y-71856784D01*
X225586170Y-71756872D01*
X225582968Y-71750204D01*
X225491031Y-71650747D01*
X225484631Y-71647030D01*
X225484629Y-71647028D01*
X225424256Y-71611960D01*
X225383435Y-71566383D01*
X225377199Y-71505517D01*
X225403977Y-71456350D01*
X225405831Y-71454496D01*
X225460348Y-71426719D01*
X225475835Y-71425500D01*
X227831438Y-71425500D01*
X227840067Y-71425877D01*
X227878528Y-71429242D01*
X227903771Y-71422478D01*
X227916065Y-71419184D01*
X227924497Y-71417315D01*
X227954232Y-71412072D01*
X227954233Y-71412072D01*
X227962761Y-71410568D01*
X227970262Y-71406237D01*
X227975740Y-71404243D01*
X227981029Y-71401777D01*
X227989398Y-71399535D01*
X227996495Y-71394566D01*
X228021237Y-71377242D01*
X228028519Y-71372603D01*
X228044232Y-71363531D01*
X228062164Y-71353178D01*
X228086982Y-71323601D01*
X228092816Y-71317234D01*
X228230065Y-71179985D01*
X228284582Y-71152208D01*
X228300069Y-71150989D01*
X230003230Y-71150989D01*
X230061421Y-71169896D01*
G37*
%TD.AperFunction*%
%TA.AperFunction,Conductor*%
G36*
X214859590Y-75497480D02*
G01*
X214902855Y-75540745D01*
X214909494Y-75557324D01*
X214928614Y-75621256D01*
X214937213Y-75650009D01*
X214941325Y-75656163D01*
X214941326Y-75656165D01*
X214957233Y-75679971D01*
X215012460Y-75762624D01*
X215018201Y-75767298D01*
X215111752Y-75843461D01*
X215111755Y-75843463D01*
X215117494Y-75848135D01*
X215123979Y-75850762D01*
X215164312Y-75896511D01*
X215170071Y-75957425D01*
X215167848Y-75965676D01*
X215144324Y-76040060D01*
X215144004Y-76080816D01*
X215143438Y-76152891D01*
X215143260Y-76175497D01*
X215145380Y-76182585D01*
X215145380Y-76182587D01*
X215179551Y-76296846D01*
X215182067Y-76305258D01*
X215186179Y-76311412D01*
X215186180Y-76311414D01*
X215194324Y-76323602D01*
X215257314Y-76417873D01*
X215263055Y-76422547D01*
X215356611Y-76498714D01*
X215356614Y-76498716D01*
X215362348Y-76503384D01*
X215487882Y-76554230D01*
X215574119Y-76561699D01*
X215630460Y-76585557D01*
X215635579Y-76590326D01*
X215744510Y-76699257D01*
X215750344Y-76705624D01*
X215775162Y-76735201D01*
X215782663Y-76739531D01*
X215782662Y-76739531D01*
X215808807Y-76754626D01*
X215816089Y-76759265D01*
X215825747Y-76766027D01*
X215847928Y-76781558D01*
X215856292Y-76783799D01*
X215861577Y-76786264D01*
X215867066Y-76788262D01*
X215874565Y-76792591D01*
X215883094Y-76794095D01*
X215912828Y-76799338D01*
X215921257Y-76801206D01*
X215958797Y-76811265D01*
X215997259Y-76807900D01*
X216005887Y-76807523D01*
X216150018Y-76807523D01*
X216208209Y-76826430D01*
X216244173Y-76875930D01*
X216244173Y-76937116D01*
X216220022Y-76976527D01*
X215351045Y-77845504D01*
X215296528Y-77873281D01*
X215281041Y-77874500D01*
X214525558Y-77874500D01*
X214467367Y-77855593D01*
X214455554Y-77845504D01*
X213192816Y-76582766D01*
X213186981Y-76576398D01*
X213186301Y-76575588D01*
X213162164Y-76546822D01*
X213128518Y-76527396D01*
X213121237Y-76522758D01*
X213096495Y-76505434D01*
X213096494Y-76505433D01*
X213089398Y-76500465D01*
X213081029Y-76498223D01*
X213075740Y-76495757D01*
X213070262Y-76493763D01*
X213062761Y-76489432D01*
X213054233Y-76487928D01*
X213054232Y-76487928D01*
X213024497Y-76482685D01*
X213016065Y-76480816D01*
X212986891Y-76472999D01*
X212986892Y-76472999D01*
X212978528Y-76470758D01*
X212940106Y-76474120D01*
X212940067Y-76474123D01*
X212931438Y-76474500D01*
X208175413Y-76474500D01*
X208166785Y-76474123D01*
X208165654Y-76474024D01*
X208128323Y-76470758D01*
X208090783Y-76480817D01*
X208082354Y-76482685D01*
X208044091Y-76489432D01*
X208036592Y-76493761D01*
X208031103Y-76495759D01*
X208025818Y-76498224D01*
X208017454Y-76500465D01*
X207997919Y-76514144D01*
X207985615Y-76522758D01*
X207978334Y-76527396D01*
X207944688Y-76546822D01*
X207920551Y-76575588D01*
X207919871Y-76576398D01*
X207914036Y-76582766D01*
X206623889Y-77872913D01*
X206569372Y-77900690D01*
X206553885Y-77901909D01*
X205994326Y-77901909D01*
X205936135Y-77883002D01*
X205900171Y-77833502D01*
X205900171Y-77772316D01*
X205924322Y-77732905D01*
X207777241Y-75879985D01*
X207831758Y-75852208D01*
X207847245Y-75850989D01*
X214256226Y-75850989D01*
X214264855Y-75851366D01*
X214303316Y-75854731D01*
X214340853Y-75844673D01*
X214349285Y-75842804D01*
X214379020Y-75837561D01*
X214379021Y-75837561D01*
X214387549Y-75836057D01*
X214395050Y-75831726D01*
X214400528Y-75829732D01*
X214405817Y-75827266D01*
X214414186Y-75825024D01*
X214421283Y-75820055D01*
X214446025Y-75802731D01*
X214453307Y-75798092D01*
X214460521Y-75793927D01*
X214486952Y-75778667D01*
X214511770Y-75749090D01*
X214517604Y-75742723D01*
X214744641Y-75515686D01*
X214799158Y-75487909D01*
X214859590Y-75497480D01*
G37*
%TD.AperFunction*%
%TA.AperFunction,Conductor*%
G36*
X224783836Y-70993927D02*
G01*
X224819800Y-71043427D01*
X224819800Y-71104613D01*
X224795649Y-71144024D01*
X222282766Y-73656907D01*
X222276399Y-73662741D01*
X222246822Y-73687559D01*
X222227842Y-73720433D01*
X222227397Y-73721204D01*
X222222758Y-73728486D01*
X222211916Y-73743971D01*
X222200465Y-73760325D01*
X222198223Y-73768694D01*
X222195757Y-73773983D01*
X222193763Y-73779461D01*
X222189432Y-73786962D01*
X222187928Y-73795490D01*
X222187928Y-73795491D01*
X222182685Y-73825226D01*
X222180816Y-73833658D01*
X222170758Y-73871195D01*
X222171513Y-73879822D01*
X222174123Y-73909656D01*
X222174500Y-73918285D01*
X222174500Y-76024165D01*
X222155593Y-76082356D01*
X222145504Y-76094169D01*
X221157411Y-77082262D01*
X221102894Y-77110039D01*
X221042462Y-77100468D01*
X220999197Y-77057203D01*
X220989507Y-77026976D01*
X220989298Y-77025581D01*
X220977224Y-76945274D01*
X220970814Y-76902634D01*
X220970813Y-76902632D01*
X220969713Y-76895313D01*
X220965049Y-76885599D01*
X220914286Y-76779887D01*
X220911084Y-76773219D01*
X220819147Y-76673762D01*
X220702030Y-76605735D01*
X220694824Y-76604065D01*
X220694822Y-76604064D01*
X220657694Y-76595458D01*
X220570087Y-76575152D01*
X220434985Y-76584718D01*
X220390694Y-76601853D01*
X220315571Y-76630915D01*
X220315569Y-76630916D01*
X220308668Y-76633586D01*
X220270219Y-76663897D01*
X220209045Y-76712123D01*
X220202304Y-76717437D01*
X220198097Y-76723524D01*
X220198096Y-76723525D01*
X220163838Y-76773092D01*
X220115199Y-76810212D01*
X220054031Y-76811653D01*
X220003697Y-76776865D01*
X219993153Y-76759658D01*
X219987597Y-76748088D01*
X219984394Y-76741418D01*
X219892457Y-76641961D01*
X219796296Y-76586106D01*
X219781738Y-76577650D01*
X219781737Y-76577649D01*
X219775340Y-76573934D01*
X219768134Y-76572264D01*
X219768132Y-76572263D01*
X219722555Y-76561699D01*
X219643397Y-76543351D01*
X219643559Y-76542650D01*
X219592449Y-76521478D01*
X219586742Y-76516203D01*
X219253305Y-76182766D01*
X219247470Y-76176398D01*
X219243313Y-76171444D01*
X219222653Y-76146822D01*
X219189007Y-76127396D01*
X219181726Y-76122758D01*
X219156984Y-76105434D01*
X219156983Y-76105433D01*
X219149887Y-76100465D01*
X219141518Y-76098223D01*
X219136229Y-76095757D01*
X219130751Y-76093763D01*
X219123250Y-76089432D01*
X219114722Y-76087928D01*
X219114721Y-76087928D01*
X219084986Y-76082685D01*
X219076554Y-76080816D01*
X219047380Y-76072999D01*
X219047381Y-76072999D01*
X219039017Y-76070758D01*
X219000595Y-76074120D01*
X219000556Y-76074123D01*
X218991927Y-76074500D01*
X217424835Y-76074500D01*
X217366644Y-76055593D01*
X217330680Y-76006093D01*
X217330680Y-75944907D01*
X217354831Y-75905496D01*
X222256310Y-71004016D01*
X222310827Y-70976239D01*
X222326314Y-70975020D01*
X224725645Y-70975020D01*
X224783836Y-70993927D01*
G37*
%TD.AperFunction*%
%TA.AperFunction,Conductor*%
G36*
X218913666Y-66947726D02*
G01*
X218962395Y-66987398D01*
X218962398Y-66987400D01*
X218968132Y-66992068D01*
X218974988Y-66994845D01*
X218996218Y-67003444D01*
X219093666Y-67042914D01*
X219228601Y-67054601D01*
X219295785Y-67040137D01*
X219353769Y-67027654D01*
X219353772Y-67027653D01*
X219361008Y-67026095D01*
X219401455Y-67003444D01*
X219472724Y-66963531D01*
X219479179Y-66959916D01*
X219484285Y-66954563D01*
X219490136Y-66950025D01*
X219491317Y-66951548D01*
X219536601Y-66927112D01*
X219554391Y-66925500D01*
X222027034Y-66925500D01*
X222085225Y-66944407D01*
X222097038Y-66954496D01*
X223844172Y-68701629D01*
X223871949Y-68756146D01*
X223873165Y-68772407D01*
X223873064Y-68785332D01*
X223875184Y-68792420D01*
X223875184Y-68792422D01*
X223890246Y-68842785D01*
X223888805Y-68903954D01*
X223851685Y-68952592D01*
X223795397Y-68970151D01*
X221158364Y-68970151D01*
X221149735Y-68969774D01*
X221136888Y-68968650D01*
X221111262Y-68966408D01*
X221080400Y-68974678D01*
X221073727Y-68976466D01*
X221065296Y-68978336D01*
X221052760Y-68980546D01*
X221035558Y-68983579D01*
X221035557Y-68983579D01*
X221027029Y-68985083D01*
X221019529Y-68989413D01*
X221014040Y-68991411D01*
X221008756Y-68993875D01*
X221000393Y-68996116D01*
X220993298Y-69001084D01*
X220968567Y-69018401D01*
X220961288Y-69023038D01*
X220927626Y-69042473D01*
X220908199Y-69065625D01*
X220902803Y-69072056D01*
X220896968Y-69078424D01*
X218294504Y-71680888D01*
X218239987Y-71708665D01*
X218179555Y-71699094D01*
X218136290Y-71655829D01*
X218125500Y-71610884D01*
X218125500Y-69168016D01*
X218125877Y-69159387D01*
X218126548Y-69151713D01*
X218129243Y-69120918D01*
X218127002Y-69112556D01*
X218127002Y-69112551D01*
X218119183Y-69083371D01*
X218117313Y-69074938D01*
X218112072Y-69045212D01*
X218112071Y-69045210D01*
X218110568Y-69036685D01*
X218106239Y-69029187D01*
X218104244Y-69023705D01*
X218101777Y-69018416D01*
X218099535Y-69010048D01*
X218077248Y-68978218D01*
X218072609Y-68970937D01*
X218066495Y-68960348D01*
X218053178Y-68937282D01*
X218046545Y-68931716D01*
X218046543Y-68931714D01*
X218023596Y-68912460D01*
X218017228Y-68906625D01*
X217492293Y-68381690D01*
X216956595Y-67845991D01*
X216950770Y-67839633D01*
X216948297Y-67836685D01*
X216937406Y-67823706D01*
X216931522Y-67816693D01*
X216931520Y-67816691D01*
X216925954Y-67810058D01*
X216917901Y-67805408D01*
X216894705Y-67786876D01*
X216821562Y-67707750D01*
X216730867Y-67655070D01*
X216690047Y-67609494D01*
X216683811Y-67548627D01*
X216710588Y-67499462D01*
X217255553Y-66954496D01*
X217310070Y-66926719D01*
X217325557Y-66925500D01*
X218851162Y-66925500D01*
X218913666Y-66947726D01*
G37*
%TD.AperFunction*%
%TA.AperFunction,Conductor*%
G36*
X235307845Y-67169896D02*
G01*
X235319658Y-67179985D01*
X237045504Y-68905831D01*
X237073281Y-68960348D01*
X237074500Y-68975835D01*
X237074500Y-70031715D01*
X237074123Y-70040344D01*
X237070758Y-70078805D01*
X237072999Y-70087168D01*
X237080816Y-70116342D01*
X237082685Y-70124774D01*
X237089432Y-70163038D01*
X237093763Y-70170539D01*
X237095757Y-70176017D01*
X237098223Y-70181306D01*
X237100465Y-70189675D01*
X237105433Y-70196771D01*
X237105434Y-70196772D01*
X237122758Y-70221514D01*
X237127396Y-70228795D01*
X237146822Y-70262441D01*
X237170480Y-70282292D01*
X237176398Y-70287258D01*
X237182766Y-70293093D01*
X238346129Y-71456456D01*
X238373906Y-71510973D01*
X238364335Y-71571405D01*
X238321070Y-71614670D01*
X238276125Y-71625460D01*
X231565201Y-71625460D01*
X231507010Y-71606553D01*
X231471046Y-71557053D01*
X231471046Y-71495867D01*
X231507010Y-71446367D01*
X231544360Y-71429679D01*
X231561008Y-71426095D01*
X231573349Y-71419184D01*
X231672724Y-71363531D01*
X231679179Y-71359916D01*
X231772667Y-71261915D01*
X231824520Y-71158140D01*
X231829899Y-71147376D01*
X231829900Y-71147374D01*
X231833206Y-71140757D01*
X231855444Y-71007155D01*
X231855500Y-71000000D01*
X231854747Y-70994986D01*
X231836465Y-70873386D01*
X231836464Y-70873384D01*
X231835364Y-70866065D01*
X231800523Y-70793508D01*
X231779937Y-70750639D01*
X231776735Y-70743971D01*
X231705423Y-70666826D01*
X231679807Y-70611261D01*
X231691744Y-70551251D01*
X231706487Y-70531290D01*
X231761081Y-70474060D01*
X231772667Y-70461915D01*
X231826601Y-70353976D01*
X231829899Y-70347376D01*
X231829900Y-70347374D01*
X231833206Y-70340757D01*
X231851664Y-70229864D01*
X231854804Y-70211001D01*
X231854804Y-70210999D01*
X231855444Y-70207155D01*
X231855500Y-70200000D01*
X231854881Y-70195878D01*
X231836465Y-70073386D01*
X231836464Y-70073384D01*
X231835364Y-70066065D01*
X231818870Y-70031715D01*
X231779937Y-69950639D01*
X231776735Y-69943971D01*
X231684798Y-69844514D01*
X231678398Y-69840797D01*
X231678396Y-69840795D01*
X231661854Y-69831187D01*
X231621032Y-69785612D01*
X231614794Y-69724745D01*
X231645525Y-69671837D01*
X231690740Y-69648798D01*
X231700254Y-69646750D01*
X231767241Y-69632328D01*
X231885412Y-69566149D01*
X231978900Y-69468148D01*
X232039439Y-69346990D01*
X232055121Y-69252778D01*
X232061037Y-69217234D01*
X232061037Y-69217232D01*
X232061677Y-69213388D01*
X232061733Y-69206233D01*
X232055988Y-69168016D01*
X232042698Y-69079619D01*
X232042697Y-69079617D01*
X232041597Y-69072298D01*
X232028591Y-69045212D01*
X231986170Y-68956872D01*
X231982968Y-68950204D01*
X231900987Y-68861517D01*
X231875371Y-68805952D01*
X231887308Y-68745942D01*
X231902052Y-68725981D01*
X231958058Y-68667272D01*
X231958062Y-68667267D01*
X231963167Y-68661915D01*
X231996573Y-68595059D01*
X232020399Y-68547376D01*
X232020400Y-68547374D01*
X232023706Y-68540757D01*
X232037882Y-68455593D01*
X232045304Y-68411001D01*
X232045304Y-68410999D01*
X232045944Y-68407155D01*
X232046000Y-68400000D01*
X232043248Y-68381690D01*
X232026965Y-68273386D01*
X232026964Y-68273384D01*
X232025864Y-68266065D01*
X232016836Y-68247263D01*
X231970437Y-68150639D01*
X231967235Y-68143971D01*
X231875298Y-68044514D01*
X231801532Y-68001667D01*
X231764579Y-67980203D01*
X231764578Y-67980202D01*
X231758181Y-67976487D01*
X231750975Y-67974817D01*
X231750973Y-67974816D01*
X231713845Y-67966210D01*
X231626238Y-67945904D01*
X231491136Y-67955470D01*
X231481032Y-67959379D01*
X231371722Y-68001667D01*
X231371720Y-68001668D01*
X231364819Y-68004338D01*
X231258455Y-68088189D01*
X231254248Y-68094276D01*
X231254247Y-68094277D01*
X231206899Y-68162784D01*
X231181448Y-68199608D01*
X231140608Y-68328744D01*
X231140550Y-68336143D01*
X231140445Y-68349495D01*
X231121081Y-68407535D01*
X231111452Y-68418721D01*
X231084669Y-68445504D01*
X231030152Y-68473281D01*
X231014665Y-68474500D01*
X229924835Y-68474500D01*
X229866644Y-68455593D01*
X229830680Y-68406093D01*
X229830680Y-68344907D01*
X229854831Y-68305496D01*
X230980342Y-67179985D01*
X231034859Y-67152208D01*
X231050346Y-67150989D01*
X235249654Y-67150989D01*
X235307845Y-67169896D01*
G37*
%TD.AperFunction*%
%TD*%
M02*
