%TF.GenerationSoftware,KiCad,Pcbnew,(5.99.0-10506-gb986797469)*%
%TF.CreationDate,2021-09-15T01:16:02+02:00*%
%TF.ProjectId,Tastatur,54617374-6174-4757-922e-6b696361645f,rev?*%
%TF.SameCoordinates,Original*%
%TF.FileFunction,Copper,L1,Top*%
%TF.FilePolarity,Positive*%
%FSLAX46Y46*%
G04 Gerber Fmt 4.6, Leading zero omitted, Abs format (unit mm)*
G04 Created by KiCad (PCBNEW (5.99.0-10506-gb986797469)) date 2021-09-15 01:16:02*
%MOMM*%
%LPD*%
G01*
G04 APERTURE LIST*
G04 Aperture macros list*
%AMRoundRect*
0 Rectangle with rounded corners*
0 $1 Rounding radius*
0 $2 $3 $4 $5 $6 $7 $8 $9 X,Y pos of 4 corners*
0 Add a 4 corners polygon primitive as box body*
4,1,4,$2,$3,$4,$5,$6,$7,$8,$9,$2,$3,0*
0 Add four circle primitives for the rounded corners*
1,1,$1+$1,$2,$3*
1,1,$1+$1,$4,$5*
1,1,$1+$1,$6,$7*
1,1,$1+$1,$8,$9*
0 Add four rect primitives between the rounded corners*
20,1,$1+$1,$2,$3,$4,$5,0*
20,1,$1+$1,$4,$5,$6,$7,0*
20,1,$1+$1,$6,$7,$8,$9,0*
20,1,$1+$1,$8,$9,$2,$3,0*%
%AMRotRect*
0 Rectangle, with rotation*
0 The origin of the aperture is its center*
0 $1 length*
0 $2 width*
0 $3 Rotation angle, in degrees counterclockwise*
0 Add horizontal line*
21,1,$1,$2,0,0,$3*%
G04 Aperture macros list end*
%TA.AperFunction,SMDPad,CuDef*%
%ADD10RoundRect,0.147500X0.172500X-0.147500X0.172500X0.147500X-0.172500X0.147500X-0.172500X-0.147500X0*%
%TD*%
%TA.AperFunction,SMDPad,CuDef*%
%ADD11RoundRect,0.140000X0.021213X-0.219203X0.219203X-0.021213X-0.021213X0.219203X-0.219203X0.021213X0*%
%TD*%
%TA.AperFunction,SMDPad,CuDef*%
%ADD12RoundRect,0.140000X-0.170000X0.140000X-0.170000X-0.140000X0.170000X-0.140000X0.170000X0.140000X0*%
%TD*%
%TA.AperFunction,SMDPad,CuDef*%
%ADD13RoundRect,0.140000X-0.140000X-0.170000X0.140000X-0.170000X0.140000X0.170000X-0.140000X0.170000X0*%
%TD*%
%TA.AperFunction,SMDPad,CuDef*%
%ADD14RoundRect,0.250000X-0.250000X-0.475000X0.250000X-0.475000X0.250000X0.475000X-0.250000X0.475000X0*%
%TD*%
%TA.AperFunction,SMDPad,CuDef*%
%ADD15RoundRect,0.250001X0.462499X0.849999X-0.462499X0.849999X-0.462499X-0.849999X0.462499X-0.849999X0*%
%TD*%
%TA.AperFunction,SMDPad,CuDef*%
%ADD16RoundRect,0.147500X-0.147500X-0.172500X0.147500X-0.172500X0.147500X0.172500X-0.147500X0.172500X0*%
%TD*%
%TA.AperFunction,ComponentPad*%
%ADD17R,1.000000X1.000000*%
%TD*%
%TA.AperFunction,ComponentPad*%
%ADD18O,1.000000X1.000000*%
%TD*%
%TA.AperFunction,SMDPad,CuDef*%
%ADD19R,1.000000X7.000000*%
%TD*%
%TA.AperFunction,SMDPad,CuDef*%
%ADD20RoundRect,0.250000X0.250000X0.475000X-0.250000X0.475000X-0.250000X-0.475000X0.250000X-0.475000X0*%
%TD*%
%TA.AperFunction,SMDPad,CuDef*%
%ADD21RoundRect,0.147500X0.017678X-0.226274X0.226274X-0.017678X-0.017678X0.226274X-0.226274X0.017678X0*%
%TD*%
%TA.AperFunction,SMDPad,CuDef*%
%ADD22RoundRect,0.250000X-0.475000X0.250000X-0.475000X-0.250000X0.475000X-0.250000X0.475000X0.250000X0*%
%TD*%
%TA.AperFunction,SMDPad,CuDef*%
%ADD23R,1.060000X0.650000*%
%TD*%
%TA.AperFunction,ComponentPad*%
%ADD24O,1.700000X1.700000*%
%TD*%
%TA.AperFunction,ComponentPad*%
%ADD25R,1.700000X1.700000*%
%TD*%
%TA.AperFunction,ConnectorPad*%
%ADD26R,0.500000X0.500000*%
%TD*%
%TA.AperFunction,ComponentPad*%
%ADD27R,0.900000X0.500000*%
%TD*%
%TA.AperFunction,SMDPad,CuDef*%
%ADD28RoundRect,0.062500X-0.194454X-0.282843X0.282843X0.194454X0.194454X0.282843X-0.282843X-0.194454X0*%
%TD*%
%TA.AperFunction,SMDPad,CuDef*%
%ADD29RoundRect,0.062500X0.194454X-0.282843X0.282843X-0.194454X-0.194454X0.282843X-0.282843X0.194454X0*%
%TD*%
%TA.AperFunction,SMDPad,CuDef*%
%ADD30RotRect,5.300000X5.300000X45.000000*%
%TD*%
%TA.AperFunction,ViaPad*%
%ADD31C,0.800000*%
%TD*%
%TA.AperFunction,ViaPad*%
%ADD32C,0.500000*%
%TD*%
%TA.AperFunction,Conductor*%
%ADD33C,0.500000*%
%TD*%
%TA.AperFunction,Conductor*%
%ADD34C,0.250000*%
%TD*%
%TA.AperFunction,Conductor*%
%ADD35C,0.700000*%
%TD*%
%TA.AperFunction,Conductor*%
%ADD36C,1.000000*%
%TD*%
G04 APERTURE END LIST*
%TO.C,AE1*%
G36*
X213450000Y-70475000D02*
G01*
X213450000Y-70216842D01*
X213751778Y-70216842D01*
X213758309Y-70266368D01*
X213778868Y-70311553D01*
X213812511Y-70346787D01*
X213831122Y-70357400D01*
X213876637Y-70370300D01*
X213925156Y-70371043D01*
X213967819Y-70358935D01*
X213975731Y-70354581D01*
X214013674Y-70321797D01*
X214037742Y-70279395D01*
X214047583Y-70231785D01*
X214042847Y-70183378D01*
X214023185Y-70138584D01*
X213988245Y-70101814D01*
X213955353Y-70084908D01*
X213907267Y-70077018D01*
X213857682Y-70083592D01*
X213812372Y-70103687D01*
X213777112Y-70136357D01*
X213760218Y-70168583D01*
X213751778Y-70216842D01*
X213450000Y-70216842D01*
X213450000Y-65575000D01*
X212050000Y-65575000D01*
X212050000Y-70475000D01*
X211550000Y-70475000D01*
X211550000Y-65575000D01*
X209850000Y-65575000D01*
X209850000Y-68215000D01*
X206850000Y-68215000D01*
X206850000Y-65575000D01*
X205150000Y-65575000D01*
X205150000Y-68215000D01*
X202150000Y-68215000D01*
X202150000Y-65575000D01*
X200450000Y-65575000D01*
X200450000Y-69515000D01*
X199950000Y-69515000D01*
X199950000Y-65075000D01*
X202650000Y-65075000D01*
X202650000Y-67715000D01*
X204650000Y-67715000D01*
X204650000Y-65075000D01*
X207350000Y-65075000D01*
X207350000Y-67715000D01*
X209350000Y-67715000D01*
X209350000Y-65075000D01*
X214350000Y-65075000D01*
X214350000Y-70475000D01*
X213450000Y-70475000D01*
G37*
%TD*%
D10*
%TO.P,R5,1*%
%TO.N,Net-(J1-Pad24)*%
X241000000Y-79685000D03*
%TO.P,R5,2*%
%TO.N,/ADC1_CH3*%
X241000000Y-78715000D03*
%TD*%
D11*
%TO.P,C9,2*%
%TO.N,/EN*%
X217139411Y-76860589D03*
%TO.P,C9,1*%
%TO.N,GND*%
X216460589Y-77539411D03*
%TD*%
D12*
%TO.P,C11,1*%
%TO.N,+3V3*%
X214600000Y-75120000D03*
%TO.P,C11,2*%
%TO.N,GND*%
X214600000Y-76080000D03*
%TD*%
D13*
%TO.P,C6,1*%
%TO.N,/ADC2_CH8*%
X226120000Y-76000000D03*
%TO.P,C6,2*%
%TO.N,GND*%
X227080000Y-76000000D03*
%TD*%
D10*
%TO.P,R8,1*%
%TO.N,Net-(J1-Pad27)*%
X247400000Y-79685000D03*
%TO.P,R8,2*%
%TO.N,/ADC1_CH0*%
X247400000Y-78715000D03*
%TD*%
D13*
%TO.P,C3,1*%
%TO.N,/ADC1_CH2*%
X232320000Y-70200000D03*
%TO.P,C3,2*%
%TO.N,GND*%
X233280000Y-70200000D03*
%TD*%
%TO.P,C2,1*%
%TO.N,/ADC1_CH1*%
X232320000Y-68400000D03*
%TO.P,C2,2*%
%TO.N,GND*%
X233280000Y-68400000D03*
%TD*%
D10*
%TO.P,R3,1*%
%TO.N,Net-(J1-Pad22)*%
X237000000Y-79685000D03*
%TO.P,R3,2*%
%TO.N,/ADC2_CH8*%
X237000000Y-78715000D03*
%TD*%
D13*
%TO.P,C5,2*%
%TO.N,GND*%
X227080000Y-75000000D03*
%TO.P,C5,1*%
%TO.N,/ADC2_CH9*%
X226120000Y-75000000D03*
%TD*%
D14*
%TO.P,C13,1*%
%TO.N,+3V3*%
X201250000Y-73300000D03*
%TO.P,C13,2*%
%TO.N,GND*%
X203150000Y-73300000D03*
%TD*%
D13*
%TO.P,C4,1*%
%TO.N,/ADC1_CH3*%
X232320000Y-71200000D03*
%TO.P,C4,2*%
%TO.N,GND*%
X233280000Y-71200000D03*
%TD*%
D10*
%TO.P,R6,1*%
%TO.N,Net-(J1-Pad25)*%
X243200000Y-79685000D03*
%TO.P,R6,2*%
%TO.N,/ADC1_CH2*%
X243200000Y-78715000D03*
%TD*%
D13*
%TO.P,C1,1*%
%TO.N,/ADC1_CH0*%
X232320000Y-67400000D03*
%TO.P,C1,2*%
%TO.N,GND*%
X233280000Y-67400000D03*
%TD*%
D15*
%TO.P,L2,1,1*%
%TO.N,Net-(L2-Pad1)*%
X193262500Y-75400000D03*
%TO.P,L2,2,2*%
%TO.N,+4V*%
X190937500Y-75400000D03*
%TD*%
D16*
%TO.P,R13,1*%
%TO.N,Net-(R12-Pad2)*%
X196815000Y-71100000D03*
%TO.P,R13,2*%
%TO.N,GND*%
X197785000Y-71100000D03*
%TD*%
D17*
%TO.P,J3,1,Pin_1*%
%TO.N,GND*%
X195000000Y-66200000D03*
D18*
%TO.P,J3,2,Pin_2*%
%TO.N,+5V*%
X195000000Y-67470000D03*
%TD*%
D17*
%TO.P,J5,1,Pin_1*%
%TO.N,GND*%
X191800000Y-66200000D03*
D18*
%TO.P,J5,2,Pin_2*%
%TO.N,+4V*%
X191800000Y-67470000D03*
%TD*%
D19*
%TO.P,J1,1,Pin_1*%
%TO.N,/C12*%
X188400000Y-84800000D03*
%TO.P,J1,2,Pin_2*%
%TO.N,/C16*%
X190400000Y-84800000D03*
%TO.P,J1,3,Pin_3*%
%TO.N,/C17*%
X192400000Y-84800000D03*
%TO.P,J1,4,Pin_4*%
%TO.N,/C1*%
X194400000Y-84800000D03*
%TO.P,J1,5,Pin_5*%
%TO.N,/C2*%
X196400000Y-84800000D03*
%TO.P,J1,6,Pin_6*%
%TO.N,/C8*%
X198400000Y-84800000D03*
%TO.P,J1,7,Pin_7*%
%TO.N,/C15*%
X200400000Y-84800000D03*
%TO.P,J1,8,Pin_8*%
%TO.N,/C6*%
X202400000Y-84800000D03*
%TO.P,J1,9,Pin_9*%
%TO.N,/C7*%
X204400000Y-84800000D03*
%TO.P,J1,10,Pin_10*%
%TO.N,/C9*%
X206400000Y-84800000D03*
%TO.P,J1,11,Pin_11*%
%TO.N,/C0*%
X208400000Y-84800000D03*
%TO.P,J1,12,Pin_12*%
%TO.N,/C4*%
X210400000Y-84800000D03*
%TO.P,J1,13,Pin_13*%
%TO.N,/C5*%
X212400000Y-84800000D03*
%TO.P,J1,14,Pin_14*%
%TO.N,/C3*%
X214400000Y-84800000D03*
%TO.P,J1,15,Pin_15*%
%TO.N,/C10*%
X224000000Y-84800000D03*
%TO.P,J1,16,Pin_16*%
%TO.N,/C14*%
X226100000Y-84800000D03*
%TO.P,J1,17,Pin_17*%
%TO.N,/C11*%
X228100000Y-84800000D03*
%TO.P,J1,18,Pin_18*%
%TO.N,/C13*%
X230100000Y-84800000D03*
%TO.P,J1,19,Pin_19*%
%TO.N,/C18*%
X232100000Y-84800000D03*
%TO.P,J1,20,Pin_20*%
%TO.N,Net-(J1-Pad20)*%
X234100000Y-84800000D03*
%TO.P,J1,21,Pin_21*%
%TO.N,Net-(J1-Pad21)*%
X236100000Y-84800000D03*
%TO.P,J1,22,Pin_22*%
%TO.N,Net-(J1-Pad22)*%
X238100000Y-84800000D03*
%TO.P,J1,23,Pin_23*%
%TO.N,Net-(J1-Pad23)*%
X240100000Y-84800000D03*
%TO.P,J1,24,Pin_24*%
%TO.N,Net-(J1-Pad24)*%
X242100000Y-84800000D03*
%TO.P,J1,25,Pin_25*%
%TO.N,Net-(J1-Pad25)*%
X244100000Y-84800000D03*
%TO.P,J1,26,Pin_26*%
%TO.N,Net-(J1-Pad26)*%
X246100000Y-84800000D03*
%TO.P,J1,27,Pin_27*%
%TO.N,Net-(J1-Pad27)*%
X248100000Y-84800000D03*
%TD*%
D20*
%TO.P,C12,1*%
%TO.N,+4V*%
X207950000Y-76900000D03*
%TO.P,C12,2*%
%TO.N,GND*%
X206050000Y-76900000D03*
%TD*%
D10*
%TO.P,R4,1*%
%TO.N,Net-(J1-Pad23)*%
X239000000Y-79685000D03*
%TO.P,R4,2*%
%TO.N,/ADC2_CH9*%
X239000000Y-78715000D03*
%TD*%
D16*
%TO.P,R10,1*%
%TO.N,+3V3*%
X202515000Y-71500000D03*
%TO.P,R10,2*%
%TO.N,Net-(R10-Pad2)*%
X203485000Y-71500000D03*
%TD*%
D21*
%TO.P,R9,1*%
%TO.N,+3V3*%
X217257053Y-78342947D03*
%TO.P,R9,2*%
%TO.N,/EN*%
X217942947Y-77657053D03*
%TD*%
D15*
%TO.P,L1,1,1*%
%TO.N,Net-(L1-Pad1)*%
X203762500Y-75700000D03*
%TO.P,L1,2,2*%
%TO.N,+3V3*%
X201437500Y-75700000D03*
%TD*%
D13*
%TO.P,C8,1*%
%TO.N,/ADC1_CH6*%
X220120000Y-79200000D03*
%TO.P,C8,2*%
%TO.N,GND*%
X221080000Y-79200000D03*
%TD*%
D22*
%TO.P,C10,1*%
%TO.N,+3V3*%
X213000000Y-75450000D03*
%TO.P,C10,2*%
%TO.N,GND*%
X213000000Y-77350000D03*
%TD*%
D16*
%TO.P,R12,1*%
%TO.N,+4V*%
X192815000Y-71300000D03*
%TO.P,R12,2*%
%TO.N,Net-(R12-Pad2)*%
X193785000Y-71300000D03*
%TD*%
D20*
%TO.P,C14,1*%
%TO.N,+5V*%
X198150000Y-76400000D03*
%TO.P,C14,2*%
%TO.N,GND*%
X196250000Y-76400000D03*
%TD*%
D23*
%TO.P,U2,1,EN*%
%TO.N,+4V*%
X205700000Y-72950000D03*
%TO.P,U2,2,GND*%
%TO.N,GND*%
X205700000Y-73900000D03*
%TO.P,U2,3,SW*%
%TO.N,Net-(L1-Pad1)*%
X205700000Y-74850000D03*
%TO.P,U2,4,IN*%
%TO.N,+4V*%
X207900000Y-74850000D03*
%TO.P,U2,5,NC*%
%TO.N,unconnected-(U2-Pad5)*%
X207900000Y-73900000D03*
%TO.P,U2,6,FB*%
%TO.N,Net-(R10-Pad2)*%
X207900000Y-72950000D03*
%TD*%
D24*
%TO.P,J2,8,Pin_8*%
%TO.N,+3V3*%
X252465000Y-78820000D03*
%TO.P,J2,7,Pin_7*%
%TO.N,/C18*%
X249925000Y-78820000D03*
%TO.P,J2,6,Pin_6*%
%TO.N,/EN*%
X252465000Y-76280000D03*
%TO.P,J2,5,Pin_5*%
%TO.N,/C0*%
X249925000Y-76280000D03*
%TO.P,J2,4,Pin_4*%
%TO.N,/C2*%
X252465000Y-73740000D03*
%TO.P,J2,3,Pin_3*%
%TO.N,/C1*%
X249925000Y-73740000D03*
%TO.P,J2,2,Pin_2*%
%TO.N,/TX*%
X252465000Y-71200000D03*
D25*
%TO.P,J2,1,Pin_1*%
%TO.N,GND*%
X249925000Y-71200000D03*
%TD*%
D26*
%TO.P,AE1,1,A*%
%TO.N,Net-(AE1-Pad1)*%
X211800000Y-70225000D03*
D27*
%TO.P,AE1,2,Shield*%
%TO.N,GND*%
X213900000Y-70225000D03*
%TD*%
D10*
%TO.P,R7,1*%
%TO.N,Net-(J1-Pad26)*%
X245400000Y-79685000D03*
%TO.P,R7,2*%
%TO.N,/ADC1_CH1*%
X245400000Y-78715000D03*
%TD*%
D23*
%TO.P,U3,1,EN*%
%TO.N,+5V*%
X195190000Y-72520000D03*
%TO.P,U3,2,GND*%
%TO.N,GND*%
X195190000Y-73470000D03*
%TO.P,U3,3,SW*%
%TO.N,Net-(L2-Pad1)*%
X195190000Y-74420000D03*
%TO.P,U3,4,IN*%
%TO.N,+5V*%
X197390000Y-74420000D03*
%TO.P,U3,5,NC*%
%TO.N,unconnected-(U3-Pad5)*%
X197390000Y-73470000D03*
%TO.P,U3,6,FB*%
%TO.N,Net-(R12-Pad2)*%
X197390000Y-72520000D03*
%TD*%
D14*
%TO.P,C15,1*%
%TO.N,+4V*%
X191550000Y-72900000D03*
%TO.P,C15,2*%
%TO.N,GND*%
X193450000Y-72900000D03*
%TD*%
D16*
%TO.P,R11,1*%
%TO.N,Net-(R10-Pad2)*%
X207315000Y-71500000D03*
%TO.P,R11,2*%
%TO.N,GND*%
X208285000Y-71500000D03*
%TD*%
D10*
%TO.P,R1,1*%
%TO.N,Net-(J1-Pad20)*%
X233000000Y-79685000D03*
%TO.P,R1,2*%
%TO.N,/ADC1_CH6*%
X233000000Y-78715000D03*
%TD*%
D28*
%TO.P,U1,1,VDDA*%
%TO.N,+3V3*%
X215615938Y-72294975D03*
%TO.P,U1,2,LNA_IN*%
%TO.N,Net-(AE1-Pad1)*%
X215969491Y-72648528D03*
%TO.P,U1,3,VDDA3P3*%
%TO.N,+3V3*%
X216323045Y-73002082D03*
%TO.P,U1,4,VDDA3P3*%
X216676598Y-73355635D03*
%TO.P,U1,5,SENSOR_VP*%
%TO.N,/ADC1_CH0*%
X217030152Y-73709188D03*
%TO.P,U1,6,SENSOR_CAPP*%
%TO.N,/ADC1_CH1*%
X217383705Y-74062742D03*
%TO.P,U1,7,SENSOR_CAPN*%
%TO.N,/ADC1_CH2*%
X217737258Y-74416295D03*
%TO.P,U1,8,SENSOR_VN*%
%TO.N,/ADC1_CH3*%
X218090812Y-74769848D03*
%TO.P,U1,9,EN*%
%TO.N,/EN*%
X218444365Y-75123402D03*
%TO.P,U1,10,IO34*%
%TO.N,/ADC1_CH6*%
X218797918Y-75476955D03*
%TO.P,U1,11,IO35*%
%TO.N,/ADC1_CH7*%
X219151472Y-75830509D03*
%TO.P,U1,12,IO32*%
%TO.N,/C16*%
X219505025Y-76184062D03*
D29*
%TO.P,U1,13,IO33*%
%TO.N,/C17*%
X220494975Y-76184062D03*
%TO.P,U1,14,IO25*%
%TO.N,/ADC2_CH8*%
X220848528Y-75830509D03*
%TO.P,U1,15,IO26*%
%TO.N,/ADC2_CH9*%
X221202082Y-75476955D03*
%TO.P,U1,16,IO27*%
%TO.N,/C15*%
X221555635Y-75123402D03*
%TO.P,U1,17,IO14*%
%TO.N,/C8*%
X221909188Y-74769848D03*
%TO.P,U1,18,IO12*%
%TO.N,/C6*%
X222262742Y-74416295D03*
%TO.P,U1,19,VDD3P3_RTC*%
%TO.N,+3V3*%
X222616295Y-74062742D03*
%TO.P,U1,20,IO13*%
%TO.N,/C7*%
X222969848Y-73709188D03*
%TO.P,U1,21,IO15*%
%TO.N,/C9*%
X223323402Y-73355635D03*
%TO.P,U1,22,IO2*%
%TO.N,/C1*%
X223676955Y-73002082D03*
%TO.P,U1,23,IO0*%
%TO.N,/C0*%
X224030509Y-72648528D03*
%TO.P,U1,24,IO4*%
%TO.N,/C2*%
X224384062Y-72294975D03*
D28*
%TO.P,U1,25,IO16*%
%TO.N,unconnected-(U1-Pad25)*%
X224384062Y-71305025D03*
%TO.P,U1,26,VDD_SDIO*%
%TO.N,unconnected-(U1-Pad26)*%
X224030509Y-70951472D03*
%TO.P,U1,27,IO17*%
%TO.N,unconnected-(U1-Pad27)*%
X223676955Y-70597918D03*
%TO.P,U1,28,SD2/IO9*%
%TO.N,/C4*%
X223323402Y-70244365D03*
%TO.P,U1,29,SD3/IO10*%
%TO.N,/C5*%
X222969848Y-69890812D03*
%TO.P,U1,30,CMD*%
%TO.N,unconnected-(U1-Pad30)*%
X222616295Y-69537258D03*
%TO.P,U1,31,CLK*%
%TO.N,unconnected-(U1-Pad31)*%
X222262742Y-69183705D03*
%TO.P,U1,32,SD0*%
%TO.N,unconnected-(U1-Pad32)*%
X221909188Y-68830152D03*
%TO.P,U1,33,SD1*%
%TO.N,unconnected-(U1-Pad33)*%
X221555635Y-68476598D03*
%TO.P,U1,34,IO5*%
%TO.N,/C3*%
X221202082Y-68123045D03*
%TO.P,U1,35,IO18*%
%TO.N,/C10*%
X220848528Y-67769491D03*
%TO.P,U1,36,IO23*%
%TO.N,/C14*%
X220494975Y-67415938D03*
D29*
%TO.P,U1,37,VDD3P3_CPU*%
%TO.N,+3V3*%
X219505025Y-67415938D03*
%TO.P,U1,38,IO19*%
%TO.N,/C11*%
X219151472Y-67769491D03*
%TO.P,U1,39,IO22*%
%TO.N,/C13*%
X218797918Y-68123045D03*
%TO.P,U1,40,U0RXD/IO3*%
%TO.N,/C18*%
X218444365Y-68476598D03*
%TO.P,U1,41,U0TXD/IO1*%
%TO.N,/TX*%
X218090812Y-68830152D03*
%TO.P,U1,42,IO21*%
%TO.N,/C12*%
X217737258Y-69183705D03*
%TO.P,U1,43,VDDA*%
%TO.N,+3V3*%
X217383705Y-69537258D03*
%TO.P,U1,44,XTAL_N_NC*%
%TO.N,unconnected-(U1-Pad44)*%
X217030152Y-69890812D03*
%TO.P,U1,45,XTAL_P_NC*%
%TO.N,unconnected-(U1-Pad45)*%
X216676598Y-70244365D03*
%TO.P,U1,46,VDDA*%
%TO.N,+3V3*%
X216323045Y-70597918D03*
%TO.P,U1,47,CAP2_NC*%
%TO.N,unconnected-(U1-Pad47)*%
X215969491Y-70951472D03*
%TO.P,U1,48,CAP1_NC*%
%TO.N,unconnected-(U1-Pad48)*%
X215615938Y-71305025D03*
D30*
%TO.P,U1,49,GND*%
%TO.N,GND*%
X220000000Y-71800000D03*
%TD*%
D17*
%TO.P,J4,1,Pin_1*%
%TO.N,GND*%
X188550000Y-67500000D03*
D18*
%TO.P,J4,2,Pin_2*%
%TO.N,+4V*%
X188550000Y-66230000D03*
%TD*%
D13*
%TO.P,C7,1*%
%TO.N,/ADC1_CH7*%
X220120000Y-78200000D03*
%TO.P,C7,2*%
%TO.N,GND*%
X221080000Y-78200000D03*
%TD*%
D10*
%TO.P,R2,1*%
%TO.N,Net-(J1-Pad21)*%
X235000000Y-79685000D03*
%TO.P,R2,2*%
%TO.N,/ADC1_CH7*%
X235000000Y-78715000D03*
%TD*%
D31*
%TO.N,GND*%
X251450000Y-80150000D03*
D32*
X214600000Y-76800000D03*
X206800000Y-73600000D03*
X239950000Y-79100000D03*
X236500000Y-69100000D03*
X213000000Y-73800000D03*
X212600000Y-71400000D03*
X215550000Y-66450000D03*
X233900000Y-73900000D03*
X203773816Y-70626184D03*
X190400000Y-73200000D03*
X191050000Y-77200000D03*
D31*
X220000000Y-74000000D03*
D32*
X241300000Y-75650000D03*
X200400000Y-70626184D03*
X241150000Y-77900000D03*
X206800000Y-74400000D03*
X207573816Y-70626184D03*
X206800000Y-72800000D03*
X189550000Y-78550000D03*
X196800000Y-65400000D03*
X235700000Y-79200000D03*
X199400000Y-77450000D03*
X234000000Y-67400000D03*
X196300000Y-73000000D03*
X236100000Y-66150000D03*
X214000000Y-73899500D03*
X215000000Y-73899500D03*
X202573816Y-70626184D03*
X213200000Y-72000000D03*
X188900000Y-73450000D03*
X214600000Y-77600000D03*
X198400000Y-70000000D03*
X199200000Y-70600000D03*
X212200000Y-73200000D03*
X211100500Y-70626184D03*
X196300000Y-73900000D03*
X190400000Y-72350000D03*
X198050000Y-79350000D03*
X229200000Y-66200000D03*
X196300000Y-74900000D03*
X196300000Y-72200000D03*
X212150000Y-80250000D03*
X244850000Y-77050000D03*
X233993767Y-70206233D03*
X190450000Y-70600000D03*
X214200000Y-72400008D03*
X234000000Y-68400000D03*
X211200000Y-71800000D03*
X212499500Y-70600000D03*
X209973816Y-70626184D03*
X228400000Y-71400000D03*
X226100000Y-67400000D03*
X206373816Y-70626184D03*
X246450000Y-79150000D03*
X197000000Y-67200000D03*
X243100000Y-77450000D03*
X247450000Y-77700000D03*
X197600000Y-68800000D03*
X187200000Y-70650000D03*
D31*
X218600000Y-70400000D03*
D32*
X227800011Y-75400000D03*
X206800000Y-75200000D03*
X216700000Y-71800000D03*
X189750000Y-80200000D03*
X195400000Y-79450000D03*
X190550000Y-80200000D03*
X208773816Y-70626184D03*
X244300000Y-79150000D03*
X187800000Y-79500000D03*
X201573816Y-70626184D03*
X236500000Y-71150000D03*
X211600000Y-72600000D03*
D31*
X222200000Y-71800000D03*
D32*
X204973816Y-70626184D03*
X229400000Y-73600000D03*
X237900000Y-79150000D03*
X208900000Y-72100000D03*
X230600000Y-68200000D03*
X236300000Y-74600000D03*
X233900000Y-79150000D03*
X199600000Y-80050000D03*
X204450000Y-77450000D03*
X210900000Y-76100000D03*
X239950000Y-75650000D03*
X234000000Y-71200000D03*
X222000000Y-78577900D03*
%TO.N,/ADC1_CH3*%
X215594216Y-76111316D03*
X231400000Y-71000000D03*
%TO.N,/ADC1_CH2*%
X216263369Y-75907512D03*
X231400000Y-70200000D03*
%TO.N,/ADC1_CH1*%
X216018517Y-75252264D03*
X231606233Y-69206233D03*
%TO.N,/ADC1_CH0*%
X231590500Y-68400000D03*
X215349362Y-75456067D03*
%TO.N,/EN*%
X218081333Y-78420414D03*
%TO.N,+3V3*%
X223966182Y-75025501D03*
X224324020Y-68721151D03*
X215000000Y-71600000D03*
X216600000Y-68800000D03*
X215800000Y-69600000D03*
X219200000Y-66600000D03*
X201200000Y-72100000D03*
X211900000Y-74800000D03*
X225206233Y-72006233D03*
X248000000Y-75000000D03*
%TO.N,+5V*%
X199050000Y-75450000D03*
X194300000Y-71974500D03*
D31*
%TO.N,/TX*%
X216400000Y-65400000D03*
%TO.N,/C1*%
X194400000Y-80000000D03*
D32*
X225616899Y-74312341D03*
D31*
X238325000Y-72999598D03*
%TO.N,/C2*%
X236900000Y-73400000D03*
X196400000Y-80000000D03*
D32*
X226319750Y-73189534D03*
%TO.N,/C0*%
X231300000Y-80524020D03*
X231318739Y-78893727D03*
X222600000Y-81075460D03*
X209450000Y-80600000D03*
X226159050Y-73870327D03*
X222600000Y-82700000D03*
%TO.N,/C18*%
X232600000Y-75676940D03*
X232000000Y-78200000D03*
D31*
X237550000Y-74450000D03*
D32*
%TO.N,/C16*%
X192343767Y-79543767D03*
X219607659Y-76997447D03*
%TO.N,/C17*%
X220534349Y-77029248D03*
X193200000Y-79500000D03*
%TO.N,/C15*%
X223986116Y-76775980D03*
X200400000Y-80400000D03*
%TO.N,/C8*%
X223157874Y-75871620D03*
X218800000Y-78577900D03*
%TO.N,/C6*%
X202600000Y-80400000D03*
X224575980Y-76400000D03*
%TO.N,/C7*%
X224940980Y-75786662D03*
X204400000Y-80600000D03*
%TO.N,/C9*%
X206600000Y-80600000D03*
X225349017Y-74958517D03*
%TO.N,/C4*%
X226900497Y-73790980D03*
X210600000Y-80600000D03*
%TO.N,/C5*%
X226800000Y-78600000D03*
X227600000Y-73790980D03*
%TO.N,/C3*%
X228058049Y-78258049D03*
X228800000Y-74000000D03*
%TO.N,/C10*%
X228775907Y-78175907D03*
X229000000Y-75676940D03*
%TO.N,/C14*%
X229983580Y-75596046D03*
X229590650Y-78184417D03*
%TO.N,/C11*%
X230393767Y-78193767D03*
X230753063Y-75639031D03*
%TO.N,/C13*%
X231200000Y-78200000D03*
X231593767Y-75606233D03*
%TO.N,/C12*%
X191500000Y-79500000D03*
X216536764Y-68063236D03*
%TO.N,+4V*%
X204600000Y-72900000D03*
X208900000Y-73100000D03*
%TD*%
D33*
%TO.N,GND*%
X214500000Y-70550000D02*
X213200000Y-70550000D01*
D34*
X214700000Y-70350000D02*
X214500000Y-70550000D01*
X214575000Y-70225000D02*
X214700000Y-70350000D01*
X213900000Y-70225000D02*
X214575000Y-70225000D01*
X222000000Y-78577900D02*
X222000000Y-78640000D01*
X216460589Y-77539411D02*
X216400000Y-77600000D01*
D35*
X194020000Y-73470000D02*
X193450000Y-72900000D01*
X206800000Y-73900000D02*
X206800000Y-72800000D01*
D34*
X213900000Y-70225000D02*
X212900684Y-70225000D01*
X233987534Y-70200000D02*
X233993767Y-70206233D01*
X199971751Y-70624101D02*
X199694165Y-70587556D01*
X200397917Y-70624101D02*
X199971751Y-70624101D01*
X203773816Y-70626184D02*
X202573816Y-70626184D01*
X208285000Y-71500000D02*
X208300000Y-71500000D01*
D35*
X206800000Y-75400000D02*
X206050000Y-76150000D01*
D34*
X199423724Y-70515092D02*
X199165055Y-70407948D01*
X221622100Y-78200000D02*
X221080000Y-78200000D01*
X221440000Y-79200000D02*
X221080000Y-79200000D01*
D35*
X205700000Y-73900000D02*
X203750000Y-73900000D01*
D34*
X222000000Y-78640000D02*
X221440000Y-79200000D01*
X214600000Y-76080000D02*
X214600000Y-76800000D01*
X233280000Y-70200000D02*
X233987534Y-70200000D01*
X206373816Y-70626184D02*
X204973816Y-70626184D01*
D35*
X195190000Y-73470000D02*
X196170000Y-73470000D01*
D34*
X209973816Y-70626184D02*
X208773816Y-70626184D01*
X204973816Y-70626184D02*
X203773816Y-70626184D01*
X199694165Y-70587556D02*
X199423724Y-70515092D01*
X227200011Y-76000000D02*
X227800011Y-75400000D01*
X212900684Y-70225000D02*
X212499500Y-70626184D01*
X233280000Y-71200000D02*
X234000000Y-71200000D01*
D35*
X196170000Y-73470000D02*
X196300000Y-73600000D01*
X196300000Y-72200000D02*
X196300000Y-73000000D01*
D34*
X208773816Y-70626184D02*
X207573816Y-70626184D01*
D35*
X196300000Y-73600000D02*
X196300000Y-76350000D01*
D34*
X199165055Y-70407948D02*
X198922585Y-70267957D01*
X233280000Y-68400000D02*
X234000000Y-68400000D01*
D35*
X205700000Y-73900000D02*
X206800000Y-73900000D01*
X203750000Y-73900000D02*
X203150000Y-73300000D01*
D34*
X227400011Y-75000000D02*
X227800011Y-75400000D01*
X211100500Y-70626184D02*
X209973816Y-70626184D01*
X216400000Y-77600000D02*
X214600000Y-77600000D01*
D35*
X196300000Y-73000000D02*
X196300000Y-73600000D01*
X196300000Y-76350000D02*
X196250000Y-76400000D01*
D34*
X233280000Y-67400000D02*
X234000000Y-67400000D01*
X198922585Y-70267957D02*
X198700461Y-70097515D01*
X227080000Y-75000000D02*
X227400011Y-75000000D01*
X202573816Y-70626184D02*
X201573816Y-70626184D01*
D35*
X195190000Y-73470000D02*
X194020000Y-73470000D01*
D34*
X201573816Y-70626184D02*
X200400000Y-70626184D01*
X196800000Y-65654416D02*
X196800000Y-65400000D01*
X227080000Y-76000000D02*
X227200011Y-76000000D01*
D35*
X206800000Y-75200000D02*
X206800000Y-75400000D01*
D34*
X208300000Y-71500000D02*
X208900000Y-72100000D01*
X213000000Y-77350000D02*
X214350000Y-77350000D01*
X198700461Y-70097515D02*
X198600000Y-70000000D01*
D35*
X206800000Y-75200000D02*
X206800000Y-73900000D01*
D34*
X196800000Y-65400000D02*
X196800000Y-65000000D01*
D35*
X206050000Y-76150000D02*
X206050000Y-76900000D01*
D34*
X200400000Y-70626184D02*
X200397917Y-70624101D01*
X214350000Y-77350000D02*
X214600000Y-77600000D01*
X207573816Y-70626184D02*
X206373816Y-70626184D01*
X222000000Y-78577900D02*
X221622100Y-78200000D01*
X196800001Y-65654416D02*
G75*
G03*
X198600001Y-69999999I6145581J-1D01*
G01*
%TO.N,Net-(AE1-Pad1)*%
X215969491Y-72648528D02*
X215951472Y-72648528D01*
D33*
X211800000Y-71234315D02*
X211800000Y-70225000D01*
D34*
X215951472Y-72648528D02*
X215522193Y-73077807D01*
D33*
X215227193Y-73200000D02*
X213800000Y-73200000D01*
X212775736Y-72775736D02*
X212200000Y-72200000D01*
X211800000Y-71234315D02*
G75*
G03*
X212200000Y-72200000I1365684J0D01*
G01*
X212775736Y-72775736D02*
G75*
G03*
X213800000Y-73200000I1024265J1024267D01*
G01*
X215227193Y-73200000D02*
G75*
G03*
X215522193Y-73077807I0J417193D01*
G01*
D34*
%TO.N,/ADC2_CH9*%
X235279443Y-76972591D02*
X235329719Y-76972591D01*
X236452609Y-78095480D02*
X238380480Y-78095480D01*
X226120000Y-74986000D02*
X226740520Y-74365480D01*
X221202082Y-75476955D02*
X223075607Y-77350480D01*
X228374511Y-75901728D02*
X228724223Y-76251440D01*
X226740520Y-74365480D02*
X228034520Y-74365480D01*
X235329719Y-76972591D02*
X236452609Y-78095480D01*
X223075607Y-77350480D02*
X224757923Y-77350480D01*
X225515480Y-76592923D02*
X225515480Y-75604520D01*
X226120000Y-75000000D02*
X226120000Y-74986000D01*
X228374511Y-74705471D02*
X228374511Y-75901728D01*
X228724223Y-76251440D02*
X234558291Y-76251440D01*
X225515480Y-75604520D02*
X226120000Y-75000000D01*
X224757923Y-77350480D02*
X225515480Y-76592923D01*
X238380480Y-78095480D02*
X239000000Y-78715000D01*
X228034520Y-74365480D02*
X228374511Y-74705471D01*
X234558291Y-76251440D02*
X235279443Y-76972591D01*
%TO.N,/ADC2_CH8*%
X235143522Y-77422111D02*
X235093246Y-77422111D01*
X234372094Y-76700960D02*
X226806960Y-76700960D01*
X236436411Y-78715000D02*
X235143522Y-77422111D01*
X222818019Y-77800000D02*
X220848528Y-75830509D01*
X237000000Y-78715000D02*
X236436411Y-78715000D01*
X224944121Y-77800000D02*
X222818019Y-77800000D01*
X226000000Y-76120000D02*
X226000000Y-76744121D01*
X226120000Y-76014000D02*
X226120000Y-76000000D01*
X226120000Y-76000000D02*
X226000000Y-76120000D01*
X226806960Y-76700960D02*
X226120000Y-76014000D01*
X235093246Y-77422111D02*
X234372094Y-76700960D01*
X226000000Y-76744121D02*
X224944121Y-77800000D01*
%TO.N,/ADC1_CH7*%
X235000000Y-77964583D02*
X235000000Y-78715000D01*
X234185897Y-77150480D02*
X235000000Y-77964583D01*
X218449520Y-76651774D02*
X219997746Y-78200000D01*
X220120000Y-78186000D02*
X220740520Y-77565480D01*
X220120000Y-78200000D02*
X220120000Y-78186000D01*
X225667303Y-77712536D02*
X226229359Y-77150480D01*
X219997746Y-78200000D02*
X220120000Y-78200000D01*
X220740520Y-77565480D02*
X221947781Y-77565480D01*
X225667303Y-77932697D02*
X225667303Y-77712536D01*
X226229359Y-77150480D02*
X234185897Y-77150480D01*
X221947781Y-77565480D02*
X222631821Y-78249520D01*
X218449520Y-76532461D02*
X218449520Y-76651774D01*
X222631821Y-78249520D02*
X225350480Y-78249520D01*
X225350480Y-78249520D02*
X225667303Y-77932697D01*
X219151472Y-75830509D02*
X218449520Y-76532461D01*
%TO.N,/ADC1_CH6*%
X221441197Y-79834520D02*
X221824277Y-79451440D01*
X220120000Y-79174000D02*
X219515480Y-78569480D01*
X220740520Y-79834520D02*
X221441197Y-79834520D01*
X233000000Y-78000000D02*
X233000000Y-78715000D01*
X219515480Y-78569480D02*
X219515480Y-78353452D01*
X221824277Y-79451440D02*
X224948561Y-79451440D01*
X218758763Y-75476955D02*
X218797918Y-75476955D01*
X218000000Y-76235718D02*
X218758763Y-75476955D01*
X226800001Y-77600000D02*
X232600000Y-77600000D01*
X220120000Y-79200000D02*
X220120000Y-79174000D01*
X220120000Y-79214000D02*
X220740520Y-79834520D01*
X218000000Y-76837972D02*
X218000000Y-76235718D01*
X232600000Y-77600000D02*
X233000000Y-78000000D01*
X224948561Y-79451440D02*
X226800001Y-77600000D01*
X219515480Y-78353452D02*
X218000000Y-76837972D01*
X220120000Y-79200000D02*
X220120000Y-79214000D01*
%TO.N,/ADC1_CH3*%
X216539135Y-76482023D02*
X216837880Y-76183278D01*
X235515917Y-76523071D02*
X236638806Y-77645960D01*
X239930960Y-77645960D02*
X241000000Y-78715000D01*
X216837880Y-76022780D02*
X218090812Y-74769848D01*
X232649520Y-73706951D02*
X235465640Y-76523071D01*
X215987603Y-76482023D02*
X216539135Y-76482023D01*
X232120000Y-71000000D02*
X232320000Y-71200000D01*
X216837880Y-76183278D02*
X216837880Y-76022780D01*
X215594216Y-76111316D02*
X215667785Y-76037747D01*
X232320000Y-71200000D02*
X232320000Y-71391436D01*
X231400000Y-71000000D02*
X232120000Y-71000000D01*
X232320000Y-71200000D02*
X232649520Y-71529520D01*
X215688858Y-76183278D02*
X215987603Y-76482023D01*
X215688858Y-76037747D02*
X215688858Y-76183278D01*
X235465640Y-76523071D02*
X235515917Y-76523071D01*
X232649520Y-71529520D02*
X232649520Y-73706951D01*
X215667785Y-76037747D02*
X215688858Y-76037747D01*
X236638806Y-77645960D02*
X239930960Y-77645960D01*
%TO.N,/ADC1_CH2*%
X216373393Y-75797488D02*
X216373393Y-75780160D01*
X232320000Y-70200000D02*
X232320000Y-70186000D01*
X241681440Y-77196440D02*
X243200000Y-78715000D01*
X232940520Y-69565480D02*
X234165480Y-69565480D01*
X234750480Y-75172193D02*
X235651838Y-76073551D01*
X234165480Y-69565480D02*
X234750480Y-70150480D01*
X232320000Y-70186000D02*
X232940520Y-69565480D01*
X234750480Y-70150480D02*
X234750480Y-75172193D01*
X236825004Y-77196440D02*
X241681440Y-77196440D01*
X235651838Y-76073551D02*
X235702115Y-76073551D01*
X235702115Y-76073551D02*
X236825004Y-77196440D01*
X216373393Y-75780160D02*
X217737258Y-74416295D01*
X216263369Y-75907512D02*
X216373393Y-75797488D01*
X231400000Y-70200000D02*
X232320000Y-70200000D01*
%TO.N,/ADC1_CH1*%
X233021960Y-69115960D02*
X234515960Y-69115960D01*
X216018517Y-75252264D02*
X216200655Y-75252264D01*
X243431920Y-76746920D02*
X245400000Y-78715000D01*
X235888313Y-75624031D02*
X237011202Y-76746920D01*
X237011202Y-76746920D02*
X243431920Y-76746920D01*
X217383705Y-74069214D02*
X217383705Y-74062742D01*
X232320000Y-68400000D02*
X232320000Y-68492466D01*
X216200655Y-75252264D02*
X217383705Y-74069214D01*
X235838036Y-75624031D02*
X235888313Y-75624031D01*
X232320000Y-68400000D02*
X232320000Y-68414000D01*
X234515960Y-69115960D02*
X235200000Y-69800000D01*
X232320000Y-68414000D02*
X233021960Y-69115960D01*
X235200000Y-69800000D02*
X235200000Y-74985995D01*
X232320000Y-68492466D02*
X231606233Y-69206233D01*
X235200000Y-74985995D02*
X235838036Y-75624031D01*
%TO.N,/ADC1_CH0*%
X236024234Y-75174511D02*
X235649520Y-74799797D01*
X235649520Y-68199243D02*
X234215757Y-66765480D01*
X215349362Y-75086356D02*
X215349362Y-75456067D01*
X216061587Y-74677753D02*
X215757965Y-74677753D01*
X234215757Y-66765480D02*
X232644520Y-66765480D01*
X232320000Y-67090000D02*
X232320000Y-67400000D01*
X232644520Y-66765480D02*
X232320000Y-67090000D01*
X244982400Y-76297400D02*
X237197400Y-76297400D01*
X217030152Y-73709188D02*
X216061587Y-74677753D01*
X236074511Y-75174511D02*
X236024234Y-75174511D01*
X237197400Y-76297400D02*
X236074511Y-75174511D01*
X235649520Y-74799797D02*
X235649520Y-68199243D01*
X215757965Y-74677753D02*
X215349362Y-75086356D01*
X231590500Y-68400000D02*
X231590500Y-68129500D01*
X247400000Y-78715000D02*
X244982400Y-76297400D01*
X231590500Y-68129500D02*
X232320000Y-67400000D01*
%TO.N,/EN*%
X217960347Y-77674453D02*
X217942947Y-77657053D01*
X218444365Y-75155635D02*
X217400000Y-76200000D01*
X217400000Y-76200000D02*
X217400000Y-76600000D01*
X218444365Y-75123402D02*
X218444365Y-75155635D01*
X217935875Y-77657053D02*
X217139411Y-76860589D01*
X217942947Y-77657053D02*
X217935875Y-77657053D01*
X217400000Y-76600000D02*
X217139411Y-76860589D01*
X218081333Y-78420414D02*
X217960347Y-78299428D01*
X217960347Y-78299428D02*
X217960347Y-77674453D01*
%TO.N,+3V3*%
X211950480Y-76849520D02*
X211950480Y-75949520D01*
X216646447Y-68800000D02*
X216600000Y-68800000D01*
X225206233Y-69606233D02*
X225206233Y-72006233D01*
D33*
X201250000Y-72150000D02*
X201200000Y-72100000D01*
D34*
X251099511Y-75699511D02*
X250400000Y-75000000D01*
X217257053Y-78342947D02*
X216649520Y-78950480D01*
X251663277Y-78820000D02*
X251099511Y-78256234D01*
X216649520Y-78950480D02*
X213055914Y-78950480D01*
X215771767Y-74228233D02*
X215571767Y-74228233D01*
X211900000Y-74800000D02*
X211950480Y-74850480D01*
X224324020Y-68724020D02*
X225206233Y-69606233D01*
X223966182Y-75025501D02*
X223788281Y-74847600D01*
X214800000Y-75000000D02*
X213600000Y-75000000D01*
X211950480Y-75450480D02*
X211950480Y-76849520D01*
X252465000Y-78820000D02*
X251663277Y-78820000D01*
X213055914Y-78950480D02*
X211950480Y-77845046D01*
X216644365Y-73355635D02*
X215771767Y-74228233D01*
X202515000Y-71500000D02*
X201800000Y-71500000D01*
X215615938Y-72294975D02*
X215615938Y-72215938D01*
D33*
X201250000Y-73300000D02*
X201250000Y-72150000D01*
D34*
X223401153Y-74847600D02*
X222616295Y-74062742D01*
X215800000Y-69600000D02*
X215800000Y-70074873D01*
X211950480Y-74850480D02*
X211950480Y-75450480D01*
X215571767Y-74228233D02*
X214800000Y-75000000D01*
D33*
X201437500Y-73487500D02*
X201250000Y-73300000D01*
D34*
X216676598Y-73355635D02*
X216644365Y-73355635D01*
X250400000Y-75000000D02*
X248000000Y-75000000D01*
X212450000Y-75450000D02*
X213000000Y-75450000D01*
X211950960Y-75450000D02*
X211950480Y-75450480D01*
X211950480Y-77845046D02*
X211950480Y-76849520D01*
X217383705Y-69537258D02*
X216646447Y-68800000D01*
X251099511Y-78256234D02*
X251099511Y-75699511D01*
D36*
X201437500Y-75700000D02*
X201250000Y-75512500D01*
D34*
X216323045Y-73002082D02*
X216676598Y-73355635D01*
X213000000Y-75450000D02*
X211950960Y-75450000D01*
X201800000Y-71500000D02*
X201200000Y-72100000D01*
X219200000Y-66600000D02*
X219200000Y-67110913D01*
X224324020Y-68721151D02*
X224324020Y-68724020D01*
X219200000Y-67110913D02*
X219505025Y-67415938D01*
X215615938Y-72215938D02*
X215000000Y-71600000D01*
D36*
X201250000Y-75512500D02*
X201250000Y-73300000D01*
D34*
X223788281Y-74847600D02*
X223401153Y-74847600D01*
X215800000Y-70074873D02*
X216323045Y-70597918D01*
%TO.N,+5V*%
X195190000Y-72520000D02*
X194845500Y-72520000D01*
X199050000Y-75450000D02*
X198150000Y-76350000D01*
X198150000Y-76350000D02*
X198150000Y-76400000D01*
D35*
X197390000Y-75640000D02*
X198150000Y-76400000D01*
D34*
X194845500Y-72520000D02*
X194300000Y-71974500D01*
D35*
X197390000Y-74420000D02*
X197390000Y-75640000D01*
D34*
%TO.N,/TX*%
X218090812Y-68830152D02*
X218090812Y-68804817D01*
X216400000Y-67114005D02*
X216400000Y-65400000D01*
X218090812Y-68804817D02*
X216400000Y-67114005D01*
%TO.N,/C1*%
X224173913Y-73499040D02*
X224803597Y-73499040D01*
X194400000Y-84800000D02*
X194400000Y-80000000D01*
X247595718Y-73740000D02*
X249925000Y-73740000D01*
X223676955Y-73002082D02*
X224173913Y-73499040D01*
X238325000Y-72999598D02*
X239875402Y-74550000D01*
X239875402Y-74550000D02*
X246785718Y-74550000D01*
X224803597Y-73499040D02*
X225616899Y-74312341D01*
X246785718Y-74550000D02*
X247595718Y-73740000D01*
%TO.N,/C2*%
X225730216Y-72600000D02*
X224689087Y-72600000D01*
X246600000Y-74100000D02*
X248134511Y-72565489D01*
X226319750Y-73189534D02*
X225730216Y-72600000D01*
X238600000Y-72250000D02*
X240450000Y-74100000D01*
X251290489Y-72565489D02*
X252465000Y-73740000D01*
X248134511Y-72565489D02*
X251290489Y-72565489D01*
X238050000Y-72250000D02*
X238600000Y-72250000D01*
X240450000Y-74100000D02*
X246600000Y-74100000D01*
X224689087Y-72600000D02*
X224384062Y-72294975D01*
X196400000Y-84800000D02*
X196400000Y-80000000D01*
X236900000Y-73400000D02*
X238050000Y-72250000D01*
%TO.N,/C0*%
X225974828Y-73723917D02*
X225300431Y-73049520D01*
X226159050Y-73870327D02*
X226012640Y-73723917D01*
X222600000Y-81075460D02*
X222600000Y-82700000D01*
X208400000Y-81650000D02*
X208400000Y-84800000D01*
X231318739Y-80505281D02*
X231300000Y-80524020D01*
X225300431Y-73049520D02*
X224431501Y-73049520D01*
X224431501Y-73049520D02*
X224030509Y-72648528D01*
X209450000Y-80600000D02*
X208400000Y-81650000D01*
X226012640Y-73723917D02*
X225974828Y-73723917D01*
X231318739Y-78893727D02*
X231318739Y-80505281D01*
%TO.N,/C18*%
X239689205Y-74999520D02*
X246104520Y-74999520D01*
X237550000Y-74450000D02*
X239139685Y-74450000D01*
X232100000Y-78300000D02*
X232000000Y-78200000D01*
X230025489Y-67875765D02*
X227149724Y-65000000D01*
X239139685Y-74450000D02*
X239689205Y-74999520D01*
X230025489Y-68475766D02*
X230025489Y-67875765D01*
X217000000Y-67032233D02*
X218444365Y-68476598D01*
X232100000Y-84800000D02*
X232100000Y-78300000D01*
X230825489Y-69275766D02*
X230025489Y-68475766D01*
X232200000Y-72650277D02*
X230825489Y-71275766D01*
X230825489Y-71275766D02*
X230825489Y-69275766D01*
X227149724Y-65000000D02*
X218200001Y-65000000D01*
X232600000Y-75676940D02*
X232200000Y-75276940D01*
X218200001Y-65000000D02*
X217000000Y-66200000D01*
X217000000Y-66200000D02*
X217000000Y-67032233D01*
X232200000Y-75276940D02*
X232200000Y-72650277D01*
X246104520Y-74999520D02*
X249925000Y-78820000D01*
D35*
%TO.N,Net-(L1-Pad1)*%
X204612500Y-74850000D02*
X203762500Y-75700000D01*
X205700000Y-74850000D02*
X204612500Y-74850000D01*
D34*
%TO.N,Net-(R10-Pad2)*%
X203485000Y-71500000D02*
X203685000Y-71700000D01*
X207900000Y-72375000D02*
X207315000Y-71790000D01*
X207115000Y-71700000D02*
X207315000Y-71500000D01*
X207315000Y-71790000D02*
X207315000Y-71500000D01*
X207900000Y-72950000D02*
X207900000Y-72375000D01*
X203685000Y-71700000D02*
X207115000Y-71700000D01*
%TO.N,/C16*%
X219800000Y-76479037D02*
X219505025Y-76184062D01*
X192343767Y-79543767D02*
X190400000Y-81487534D01*
X190400000Y-81487534D02*
X190400000Y-84800000D01*
X219800000Y-76805106D02*
X219800000Y-76479037D01*
X219607659Y-76997447D02*
X219800000Y-76805106D01*
%TO.N,/C17*%
X220534349Y-77029248D02*
X220249520Y-76744419D01*
X220249520Y-76744419D02*
X220249520Y-76429517D01*
X220249520Y-76429517D02*
X220494975Y-76184062D01*
X193200000Y-79500000D02*
X192400000Y-80300000D01*
X192400000Y-80300000D02*
X192400000Y-84800000D01*
%TO.N,/C15*%
X223300960Y-76900960D02*
X221555635Y-75155635D01*
X223861136Y-76900960D02*
X223300960Y-76900960D01*
X221555635Y-75155635D02*
X221555635Y-75123402D01*
X223986116Y-76775980D02*
X223861136Y-76900960D01*
X200400000Y-84800000D02*
X200400000Y-80400000D01*
%TO.N,/C8*%
X218800000Y-79200000D02*
X218800000Y-78577900D01*
X218600000Y-79400000D02*
X218800000Y-79200000D01*
X223010960Y-75871620D02*
X221909188Y-74769848D01*
X223157874Y-75871620D02*
X223010960Y-75871620D01*
X198400000Y-80400000D02*
X199400000Y-79400000D01*
X199400000Y-79400000D02*
X218600000Y-79400000D01*
X198400000Y-84800000D02*
X198400000Y-80400000D01*
%TO.N,/C6*%
X223143567Y-75297120D02*
X222262742Y-74416295D01*
X202400000Y-84800000D02*
X202400000Y-80600000D01*
X202400000Y-80600000D02*
X202600000Y-80400000D01*
X223425335Y-75297120D02*
X223143567Y-75297120D01*
X224575980Y-76400000D02*
X224528215Y-76400000D01*
X224528215Y-76400000D02*
X223425335Y-75297120D01*
%TO.N,/C7*%
X204400000Y-84800000D02*
X204400000Y-80600000D01*
X224700000Y-74937166D02*
X224160914Y-74398080D01*
X224700000Y-75545682D02*
X224700000Y-74937166D01*
X223658740Y-74398080D02*
X222969848Y-73709188D01*
X224160914Y-74398080D02*
X223658740Y-74398080D01*
X224940980Y-75786662D02*
X224700000Y-75545682D01*
%TO.N,/C9*%
X206400000Y-80800000D02*
X206600000Y-80600000D01*
X225349017Y-74950465D02*
X225349017Y-74958517D01*
X223916327Y-73948560D02*
X224347112Y-73948560D01*
X206400000Y-84800000D02*
X206400000Y-80800000D01*
X224347112Y-73948560D02*
X225349017Y-74950465D01*
X223323402Y-73355635D02*
X223916327Y-73948560D01*
%TO.N,/C4*%
X210400000Y-84800000D02*
X210400000Y-80800000D01*
X223749520Y-68286198D02*
X223749520Y-69818247D01*
X226000000Y-72048535D02*
X226000000Y-69471436D01*
X227100000Y-73148535D02*
X226000000Y-72048535D01*
X226000000Y-69471436D02*
X224675204Y-68146640D01*
X226900497Y-73790980D02*
X226900497Y-73640206D01*
X223889078Y-68146640D02*
X223749520Y-68286198D01*
X227100000Y-73440703D02*
X227100000Y-73148535D01*
X210400000Y-80800000D02*
X210600000Y-80600000D01*
X224675204Y-68146640D02*
X223889078Y-68146640D01*
X226900497Y-73640206D02*
X227100000Y-73440703D01*
X223749520Y-69818247D02*
X223323402Y-70244365D01*
%TO.N,/C5*%
X222969848Y-69890812D02*
X223300000Y-69560660D01*
X222010475Y-79900960D02*
X221627394Y-80284040D01*
X221627394Y-80284040D02*
X220554322Y-80284040D01*
X225499040Y-79900960D02*
X222010475Y-79900960D01*
X223702880Y-67697120D02*
X224861401Y-67697120D01*
X220554322Y-80284040D02*
X220171242Y-79900960D01*
X226800000Y-78600000D02*
X225499040Y-79900960D01*
X220171242Y-79900960D02*
X214299040Y-79900960D01*
X223300000Y-69560660D02*
X223300000Y-68100000D01*
X226449520Y-69285239D02*
X226449520Y-71825489D01*
X212400000Y-81800000D02*
X212400000Y-84800000D01*
X226449520Y-71825489D02*
X227600000Y-72975969D01*
X227600000Y-72975969D02*
X227600000Y-73790980D01*
X223300000Y-68100000D02*
X223702880Y-67697120D01*
X214299040Y-79900960D02*
X212400000Y-81800000D01*
X224861401Y-67697120D02*
X226449520Y-69285239D01*
%TO.N,/C3*%
X215849520Y-80350480D02*
X214400000Y-81800000D01*
X226899040Y-69099042D02*
X225047598Y-67247600D01*
X228800000Y-73540251D02*
X226899040Y-71639291D01*
X214400000Y-81800000D02*
X214400000Y-84800000D01*
X226899040Y-71639291D02*
X226899040Y-69099042D01*
X220368124Y-80733560D02*
X219985044Y-80350480D01*
X228058049Y-78258049D02*
X225965618Y-80350480D01*
X228800000Y-74000000D02*
X228800000Y-73540251D01*
X219985044Y-80350480D02*
X215849520Y-80350480D01*
X225965618Y-80350480D02*
X222196672Y-80350480D01*
X222196672Y-80350480D02*
X221813592Y-80733560D01*
X221813592Y-80733560D02*
X220368124Y-80733560D01*
X222077527Y-67247600D02*
X221202082Y-68123045D01*
X225047598Y-67247600D02*
X222077527Y-67247600D01*
%TO.N,/C10*%
X226328564Y-80800000D02*
X225000000Y-80800000D01*
X230100960Y-74575980D02*
X229000000Y-75676940D01*
X221819939Y-66798080D02*
X226404932Y-66798080D01*
X224000000Y-81800000D02*
X224000000Y-84800000D01*
X228227409Y-69220554D02*
X229027409Y-70020555D01*
X228775907Y-78175907D02*
X228775907Y-78352657D01*
X230100960Y-73094106D02*
X230100960Y-74575980D01*
X228775907Y-78352657D02*
X226328564Y-80800000D01*
X226404932Y-66798080D02*
X228227409Y-68620557D01*
X228227409Y-68620557D02*
X228227409Y-69220554D01*
X229027409Y-72020555D02*
X230100960Y-73094106D01*
X229027409Y-70020555D02*
X229027409Y-72020555D01*
X225000000Y-80800000D02*
X224000000Y-81800000D01*
X220848528Y-67769491D02*
X221819939Y-66798080D01*
%TO.N,/C14*%
X230550480Y-72907909D02*
X229476929Y-71834358D01*
X229983580Y-75596046D02*
X230550480Y-75029146D01*
X229579865Y-78184417D02*
X226100000Y-81664282D01*
X229590650Y-78184417D02*
X229579865Y-78184417D01*
X226100000Y-81664282D02*
X226100000Y-84800000D01*
X229476929Y-71834358D02*
X229476929Y-69834358D01*
X228676929Y-68434359D02*
X226591130Y-66348560D01*
X230550480Y-75029146D02*
X230550480Y-72907909D01*
X221562353Y-66348560D02*
X220494975Y-67415938D01*
X226591130Y-66348560D02*
X221562353Y-66348560D01*
X228676929Y-69034357D02*
X228676929Y-68434359D01*
X229476929Y-69834358D02*
X228676929Y-69034357D01*
%TO.N,/C11*%
X218700960Y-65899040D02*
X218400000Y-66200000D01*
X229126449Y-68248161D02*
X226777328Y-65899040D01*
X231000000Y-75392094D02*
X231000000Y-72721712D01*
X230393767Y-78193767D02*
X228100000Y-80487534D01*
X229926449Y-71648161D02*
X229926449Y-69648161D01*
X230753063Y-75639031D02*
X231000000Y-75392094D01*
X231000000Y-72721712D02*
X229926449Y-71648161D01*
X226777328Y-65899040D02*
X218700960Y-65899040D01*
X229126449Y-68848160D02*
X229126449Y-68248161D01*
X229926449Y-69648161D02*
X229126449Y-68848160D01*
X218400000Y-66200000D02*
X218400000Y-67018019D01*
X218400000Y-67018019D02*
X219151472Y-67769491D01*
X228100000Y-80487534D02*
X228100000Y-84800000D01*
%TO.N,/C13*%
X229575969Y-68661963D02*
X229575969Y-68061963D01*
X231750480Y-72836474D02*
X230375969Y-71461963D01*
X230100000Y-79300000D02*
X231200000Y-78200000D01*
X231750480Y-75449520D02*
X231750480Y-72836474D01*
X231593767Y-75606233D02*
X231750480Y-75449520D01*
X230375969Y-69461964D02*
X229575969Y-68661963D01*
X218386198Y-65449520D02*
X217600000Y-66235718D01*
X226963526Y-65449520D02*
X218386198Y-65449520D01*
X217600000Y-66925127D02*
X218797918Y-68123045D01*
X230375969Y-71461963D02*
X230375969Y-69461964D01*
X217600000Y-66235718D02*
X217600000Y-66925127D01*
X229575969Y-68061963D02*
X226963526Y-65449520D01*
X230100000Y-84800000D02*
X230100000Y-79300000D01*
%TO.N,/C12*%
X216713513Y-68063236D02*
X217174511Y-68524234D01*
X216536764Y-68063236D02*
X216713513Y-68063236D01*
X217174511Y-68620958D02*
X217737258Y-69183705D01*
X189600000Y-79500000D02*
X188400000Y-80700000D01*
X217174511Y-68524234D02*
X217174511Y-68620958D01*
X191500000Y-79500000D02*
X189600000Y-79500000D01*
X188400000Y-80700000D02*
X188400000Y-84800000D01*
%TO.N,Net-(J1-Pad20)*%
X234100000Y-84800000D02*
X234100000Y-80785000D01*
X234100000Y-80785000D02*
X233000000Y-79685000D01*
%TO.N,Net-(J1-Pad21)*%
X236100000Y-84800000D02*
X236100000Y-80785000D01*
X236100000Y-80785000D02*
X235000000Y-79685000D01*
%TO.N,Net-(J1-Pad22)*%
X238100000Y-84800000D02*
X238100000Y-80785000D01*
X238100000Y-80785000D02*
X237000000Y-79685000D01*
%TO.N,Net-(J1-Pad23)*%
X240100000Y-80785000D02*
X239000000Y-79685000D01*
X240100000Y-84800000D02*
X240100000Y-80785000D01*
%TO.N,Net-(J1-Pad24)*%
X242100000Y-84800000D02*
X242100000Y-80785000D01*
X242100000Y-80785000D02*
X241000000Y-79685000D01*
%TO.N,Net-(J1-Pad25)*%
X244100000Y-80585000D02*
X243200000Y-79685000D01*
X244100000Y-84800000D02*
X244100000Y-80585000D01*
%TO.N,Net-(J1-Pad26)*%
X246100000Y-84800000D02*
X246100000Y-80385000D01*
X246100000Y-80385000D02*
X245400000Y-79685000D01*
%TO.N,Net-(J1-Pad27)*%
X248100000Y-80385000D02*
X247400000Y-79685000D01*
X248100000Y-84800000D02*
X248100000Y-80385000D01*
%TO.N,+4V*%
X208900000Y-76700000D02*
X208700000Y-76900000D01*
D33*
X190650000Y-78250000D02*
X189700000Y-77300000D01*
D34*
X192565000Y-71550000D02*
X192815000Y-71300000D01*
X204650000Y-72950000D02*
X204600000Y-72900000D01*
D33*
X207900000Y-76850000D02*
X207950000Y-76900000D01*
X207950000Y-76900000D02*
X206600000Y-78250000D01*
X189900000Y-71650000D02*
X191550000Y-71650000D01*
X191300000Y-75037500D02*
X190937500Y-75400000D01*
X191800000Y-69100000D02*
X191550000Y-69350000D01*
D34*
X205700000Y-72950000D02*
X204650000Y-72950000D01*
D33*
X191550000Y-72900000D02*
X191550000Y-71650000D01*
X187300000Y-69450000D02*
X189500000Y-71650000D01*
X187300000Y-66772894D02*
X187300000Y-69450000D01*
D34*
X208700000Y-76900000D02*
X207950000Y-76900000D01*
X208900000Y-73100000D02*
X208900000Y-76700000D01*
D33*
X188550000Y-66230000D02*
X187842894Y-66230000D01*
X187842894Y-66230000D02*
X187300000Y-66772894D01*
X189700000Y-71850000D02*
X189900000Y-71650000D01*
X191550000Y-72900000D02*
X191300000Y-73150000D01*
X191300000Y-73150000D02*
X191300000Y-75037500D01*
X191800000Y-67470000D02*
X191800000Y-69100000D01*
D34*
X188864120Y-66230000D02*
X188550000Y-66230000D01*
X191650000Y-71550000D02*
X192565000Y-71550000D01*
D33*
X191550000Y-69350000D02*
X191550000Y-71650000D01*
X189500000Y-71650000D02*
X189900000Y-71650000D01*
D35*
X207900000Y-74850000D02*
X207900000Y-76850000D01*
D34*
X191550000Y-71650000D02*
X191650000Y-71550000D01*
D33*
X189700000Y-77300000D02*
X189700000Y-71850000D01*
X206600000Y-78250000D02*
X190650000Y-78250000D01*
D35*
%TO.N,Net-(L2-Pad1)*%
X194242500Y-74420000D02*
X193262500Y-75400000D01*
X195190000Y-74420000D02*
X194242500Y-74420000D01*
D34*
%TO.N,Net-(R12-Pad2)*%
X196515000Y-71400000D02*
X193885000Y-71400000D01*
X196815000Y-71100000D02*
X196515000Y-71400000D01*
X193885000Y-71400000D02*
X193785000Y-71300000D01*
X196815000Y-71420000D02*
X197390000Y-71995000D01*
X196815000Y-71100000D02*
X196815000Y-71420000D01*
X197390000Y-71995000D02*
X197390000Y-72520000D01*
%TD*%
%TA.AperFunction,Conductor*%
%TO.N,GND*%
G36*
X213833356Y-79744407D02*
G01*
X213869320Y-79793907D01*
X213869320Y-79855093D01*
X213845169Y-79894504D01*
X212968669Y-80771004D01*
X212914152Y-80798781D01*
X212898665Y-80800000D01*
X211140185Y-80800000D01*
X211081994Y-80781093D01*
X211046030Y-80731593D01*
X211042529Y-80684745D01*
X211043353Y-80679798D01*
X211051727Y-80629486D01*
X211054804Y-80611001D01*
X211054804Y-80610999D01*
X211055444Y-80607155D01*
X211055500Y-80600000D01*
X211054590Y-80593942D01*
X211036465Y-80473386D01*
X211036464Y-80473384D01*
X211035364Y-80466065D01*
X211031842Y-80458729D01*
X210979937Y-80350639D01*
X210976735Y-80343971D01*
X210884798Y-80244514D01*
X210797002Y-80193518D01*
X210774079Y-80180203D01*
X210774078Y-80180202D01*
X210767681Y-80176487D01*
X210760475Y-80174817D01*
X210760473Y-80174816D01*
X210723345Y-80166210D01*
X210635738Y-80145904D01*
X210500636Y-80155470D01*
X210470851Y-80166993D01*
X210381222Y-80201667D01*
X210381220Y-80201668D01*
X210374319Y-80204338D01*
X210331330Y-80238228D01*
X210288539Y-80271962D01*
X210267955Y-80288189D01*
X210263748Y-80294276D01*
X210263747Y-80294277D01*
X210209643Y-80372559D01*
X210190948Y-80399608D01*
X210181815Y-80428486D01*
X210152493Y-80521204D01*
X210150108Y-80528744D01*
X210150050Y-80536143D01*
X210149890Y-80556491D01*
X210136629Y-80605213D01*
X210128604Y-80619113D01*
X210127397Y-80621204D01*
X210122758Y-80628486D01*
X210111775Y-80644172D01*
X210100465Y-80660325D01*
X210098223Y-80668692D01*
X210095755Y-80673986D01*
X210093761Y-80679464D01*
X210089432Y-80686962D01*
X210089061Y-80689068D01*
X210053648Y-80734395D01*
X209994833Y-80751260D01*
X209937337Y-80730333D01*
X209903123Y-80679608D01*
X209900632Y-80636065D01*
X209904804Y-80611001D01*
X209904804Y-80610999D01*
X209905444Y-80607155D01*
X209905500Y-80600000D01*
X209904590Y-80593942D01*
X209886465Y-80473386D01*
X209886464Y-80473384D01*
X209885364Y-80466065D01*
X209881842Y-80458729D01*
X209829937Y-80350639D01*
X209826735Y-80343971D01*
X209734798Y-80244514D01*
X209647002Y-80193518D01*
X209624079Y-80180203D01*
X209624078Y-80180202D01*
X209617681Y-80176487D01*
X209610475Y-80174817D01*
X209610473Y-80174816D01*
X209573345Y-80166210D01*
X209485738Y-80145904D01*
X209350636Y-80155470D01*
X209320851Y-80166993D01*
X209231222Y-80201667D01*
X209231220Y-80201668D01*
X209224319Y-80204338D01*
X209181330Y-80238228D01*
X209138539Y-80271962D01*
X209117955Y-80288189D01*
X209113748Y-80294276D01*
X209113747Y-80294277D01*
X209059643Y-80372559D01*
X209040948Y-80399608D01*
X209031815Y-80428486D01*
X209002493Y-80521204D01*
X209000108Y-80528744D01*
X208999962Y-80547376D01*
X208999945Y-80549495D01*
X208980581Y-80607535D01*
X208970952Y-80618721D01*
X208818669Y-80771004D01*
X208764152Y-80798781D01*
X208748665Y-80800000D01*
X207140185Y-80800000D01*
X207081994Y-80781093D01*
X207046030Y-80731593D01*
X207042529Y-80684745D01*
X207043353Y-80679798D01*
X207051727Y-80629486D01*
X207054804Y-80611001D01*
X207054804Y-80610999D01*
X207055444Y-80607155D01*
X207055500Y-80600000D01*
X207054590Y-80593942D01*
X207036465Y-80473386D01*
X207036464Y-80473384D01*
X207035364Y-80466065D01*
X207031842Y-80458729D01*
X206979937Y-80350639D01*
X206976735Y-80343971D01*
X206884798Y-80244514D01*
X206797002Y-80193518D01*
X206774079Y-80180203D01*
X206774078Y-80180202D01*
X206767681Y-80176487D01*
X206760475Y-80174817D01*
X206760473Y-80174816D01*
X206723345Y-80166210D01*
X206635738Y-80145904D01*
X206500636Y-80155470D01*
X206470851Y-80166993D01*
X206381222Y-80201667D01*
X206381220Y-80201668D01*
X206374319Y-80204338D01*
X206331330Y-80238228D01*
X206288539Y-80271962D01*
X206267955Y-80288189D01*
X206263748Y-80294276D01*
X206263747Y-80294277D01*
X206209643Y-80372559D01*
X206190948Y-80399608D01*
X206181815Y-80428486D01*
X206152493Y-80521204D01*
X206150108Y-80528744D01*
X206150050Y-80536143D01*
X206149890Y-80556491D01*
X206136629Y-80605213D01*
X206128604Y-80619113D01*
X206127397Y-80621204D01*
X206122758Y-80628486D01*
X206111775Y-80644172D01*
X206100465Y-80660325D01*
X206098223Y-80668694D01*
X206095757Y-80673983D01*
X206093763Y-80679461D01*
X206089432Y-80686962D01*
X206086272Y-80704887D01*
X206083926Y-80718190D01*
X206055202Y-80772214D01*
X206000210Y-80799036D01*
X205986430Y-80800000D01*
X204940185Y-80800000D01*
X204881994Y-80781093D01*
X204846030Y-80731593D01*
X204842529Y-80684745D01*
X204843353Y-80679798D01*
X204851727Y-80629486D01*
X204854804Y-80611001D01*
X204854804Y-80610999D01*
X204855444Y-80607155D01*
X204855500Y-80600000D01*
X204854590Y-80593942D01*
X204836465Y-80473386D01*
X204836464Y-80473384D01*
X204835364Y-80466065D01*
X204831842Y-80458729D01*
X204779937Y-80350639D01*
X204776735Y-80343971D01*
X204684798Y-80244514D01*
X204597002Y-80193518D01*
X204574079Y-80180203D01*
X204574078Y-80180202D01*
X204567681Y-80176487D01*
X204560475Y-80174817D01*
X204560473Y-80174816D01*
X204523345Y-80166210D01*
X204435738Y-80145904D01*
X204300636Y-80155470D01*
X204270851Y-80166993D01*
X204181222Y-80201667D01*
X204181220Y-80201668D01*
X204174319Y-80204338D01*
X204131330Y-80238228D01*
X204088539Y-80271962D01*
X204067955Y-80288189D01*
X204063748Y-80294276D01*
X204063747Y-80294277D01*
X204009643Y-80372559D01*
X203990948Y-80399608D01*
X203981815Y-80428486D01*
X203952493Y-80521204D01*
X203950108Y-80528744D01*
X203950050Y-80536143D01*
X203949317Y-80629486D01*
X203949044Y-80664181D01*
X203951164Y-80671269D01*
X203951164Y-80671271D01*
X203951572Y-80672634D01*
X203951542Y-80673922D01*
X203952207Y-80678597D01*
X203951429Y-80678708D01*
X203950131Y-80733802D01*
X203913011Y-80782441D01*
X203856723Y-80800000D01*
X203063808Y-80800000D01*
X203005617Y-80781093D01*
X202969653Y-80731593D01*
X202969653Y-80670407D01*
X202975248Y-80656749D01*
X202977008Y-80653228D01*
X203009500Y-80588201D01*
X203029899Y-80547376D01*
X203029900Y-80547374D01*
X203033206Y-80540757D01*
X203051291Y-80432107D01*
X203054804Y-80411001D01*
X203054804Y-80410999D01*
X203055444Y-80407155D01*
X203055500Y-80400000D01*
X203054526Y-80393518D01*
X203036465Y-80273386D01*
X203036464Y-80273384D01*
X203035364Y-80266065D01*
X203025016Y-80244514D01*
X202979937Y-80150639D01*
X202976735Y-80143971D01*
X202884798Y-80044514D01*
X202767681Y-79976487D01*
X202760475Y-79974817D01*
X202760473Y-79974816D01*
X202723345Y-79966210D01*
X202635738Y-79945904D01*
X202500636Y-79955470D01*
X202456345Y-79972605D01*
X202381222Y-80001667D01*
X202381220Y-80001668D01*
X202374319Y-80004338D01*
X202368506Y-80008921D01*
X202285061Y-80074704D01*
X202267955Y-80088189D01*
X202263748Y-80094276D01*
X202263747Y-80094277D01*
X202208083Y-80174816D01*
X202190948Y-80199608D01*
X202188716Y-80206666D01*
X202154617Y-80314488D01*
X202150108Y-80328744D01*
X202150050Y-80336143D01*
X202149890Y-80356491D01*
X202136629Y-80405213D01*
X202131217Y-80414587D01*
X202127397Y-80421204D01*
X202122758Y-80428486D01*
X202110968Y-80445325D01*
X202100465Y-80460325D01*
X202098223Y-80468694D01*
X202095757Y-80473983D01*
X202093763Y-80479461D01*
X202089432Y-80486962D01*
X202087928Y-80495490D01*
X202087928Y-80495491D01*
X202082685Y-80525226D01*
X202080816Y-80533658D01*
X202070758Y-80571195D01*
X202072520Y-80591336D01*
X202074123Y-80609656D01*
X202074500Y-80618285D01*
X202074500Y-80701000D01*
X202055593Y-80759191D01*
X202006093Y-80795155D01*
X201975500Y-80800000D01*
X200863808Y-80800000D01*
X200805617Y-80781093D01*
X200769653Y-80731593D01*
X200769653Y-80670407D01*
X200775248Y-80656749D01*
X200777008Y-80653228D01*
X200809500Y-80588201D01*
X200829899Y-80547376D01*
X200829900Y-80547374D01*
X200833206Y-80540757D01*
X200851291Y-80432107D01*
X200854804Y-80411001D01*
X200854804Y-80410999D01*
X200855444Y-80407155D01*
X200855500Y-80400000D01*
X200854526Y-80393518D01*
X200836465Y-80273386D01*
X200836464Y-80273384D01*
X200835364Y-80266065D01*
X200825016Y-80244514D01*
X200779937Y-80150639D01*
X200776735Y-80143971D01*
X200684798Y-80044514D01*
X200567681Y-79976487D01*
X200560475Y-79974817D01*
X200560473Y-79974816D01*
X200523345Y-79966210D01*
X200435738Y-79945904D01*
X200300636Y-79955470D01*
X200256345Y-79972605D01*
X200181222Y-80001667D01*
X200181220Y-80001668D01*
X200174319Y-80004338D01*
X200168506Y-80008921D01*
X200085061Y-80074704D01*
X200067955Y-80088189D01*
X200063748Y-80094276D01*
X200063747Y-80094277D01*
X200008083Y-80174816D01*
X199990948Y-80199608D01*
X199988716Y-80206666D01*
X199954617Y-80314488D01*
X199950108Y-80328744D01*
X199949892Y-80356194D01*
X199949368Y-80423000D01*
X199949044Y-80464181D01*
X199951164Y-80471269D01*
X199951164Y-80471271D01*
X199973201Y-80544957D01*
X199987851Y-80593942D01*
X200022635Y-80646001D01*
X200039243Y-80704887D01*
X200018065Y-80762291D01*
X199967191Y-80796283D01*
X199940319Y-80800000D01*
X198824500Y-80800000D01*
X198766309Y-80781093D01*
X198730345Y-80731593D01*
X198725500Y-80701000D01*
X198725500Y-80575835D01*
X198744407Y-80517644D01*
X198754496Y-80505831D01*
X199505830Y-79754496D01*
X199560347Y-79726719D01*
X199575834Y-79725500D01*
X213775165Y-79725500D01*
X213833356Y-79744407D01*
G37*
%TD.AperFunction*%
%TA.AperFunction,Conductor*%
G36*
X234068253Y-77494887D02*
G01*
X234080066Y-77504976D01*
X234645504Y-78070413D01*
X234673281Y-78124930D01*
X234674500Y-78140417D01*
X234674500Y-78195316D01*
X234655593Y-78253507D01*
X234622510Y-78282442D01*
X234611144Y-78288575D01*
X234532460Y-78373695D01*
X234529152Y-78381177D01*
X234529151Y-78381179D01*
X234501197Y-78444409D01*
X234485590Y-78479712D01*
X234479500Y-78527920D01*
X234479500Y-78892540D01*
X234493532Y-78976843D01*
X234548575Y-79078856D01*
X234599199Y-79125652D01*
X234629096Y-79179036D01*
X234621904Y-79239797D01*
X234604697Y-79265549D01*
X234597196Y-79273664D01*
X234538014Y-79337686D01*
X234538012Y-79337688D01*
X234532460Y-79343695D01*
X234529152Y-79351177D01*
X234529151Y-79351179D01*
X234518600Y-79375045D01*
X234485590Y-79449712D01*
X234479500Y-79497920D01*
X234479500Y-79862540D01*
X234493532Y-79946843D01*
X234497419Y-79954047D01*
X234502436Y-79963346D01*
X234548575Y-80048856D01*
X234633695Y-80127540D01*
X234641177Y-80130848D01*
X234641179Y-80130849D01*
X234710327Y-80161419D01*
X234739712Y-80174410D01*
X234787920Y-80180500D01*
X234994165Y-80180500D01*
X235052356Y-80199407D01*
X235064168Y-80209496D01*
X235485669Y-80630996D01*
X235513447Y-80685513D01*
X235503876Y-80745945D01*
X235460611Y-80789210D01*
X235415666Y-80800000D01*
X234516945Y-80800000D01*
X234458754Y-80781093D01*
X234421318Y-80726621D01*
X234419184Y-80718656D01*
X234417315Y-80710226D01*
X234412072Y-80680491D01*
X234412072Y-80680490D01*
X234410568Y-80671962D01*
X234406237Y-80664461D01*
X234404241Y-80658978D01*
X234401777Y-80653694D01*
X234399535Y-80645325D01*
X234377248Y-80613495D01*
X234372609Y-80606214D01*
X234366418Y-80595491D01*
X234353178Y-80572559D01*
X234346545Y-80566993D01*
X234346543Y-80566991D01*
X234323596Y-80547737D01*
X234317228Y-80541902D01*
X233549496Y-79774169D01*
X233521719Y-79719652D01*
X233520500Y-79704165D01*
X233520500Y-79507460D01*
X233506468Y-79423157D01*
X233451425Y-79321144D01*
X233400801Y-79274347D01*
X233370904Y-79220964D01*
X233378096Y-79160203D01*
X233395303Y-79134451D01*
X233429974Y-79096944D01*
X233461986Y-79062314D01*
X233461988Y-79062312D01*
X233467540Y-79056305D01*
X233472042Y-79046123D01*
X233511497Y-78956877D01*
X233514410Y-78950288D01*
X233520500Y-78902080D01*
X233520500Y-78537460D01*
X233506468Y-78453157D01*
X233451425Y-78351144D01*
X233366305Y-78272460D01*
X233366590Y-78272152D01*
X233331891Y-78228839D01*
X233325500Y-78193846D01*
X233325500Y-78018284D01*
X233325877Y-78009656D01*
X233327430Y-77991901D01*
X233329242Y-77971194D01*
X233319184Y-77933658D01*
X233317316Y-77925230D01*
X233312072Y-77895490D01*
X233312072Y-77895489D01*
X233310568Y-77886962D01*
X233306239Y-77879463D01*
X233304248Y-77873994D01*
X233301776Y-77868694D01*
X233299534Y-77860325D01*
X233292092Y-77849696D01*
X233277248Y-77828497D01*
X233272608Y-77821214D01*
X233267768Y-77812830D01*
X233253178Y-77787559D01*
X233223601Y-77762741D01*
X233217234Y-77756907D01*
X233105311Y-77644984D01*
X233077534Y-77590467D01*
X233087105Y-77530035D01*
X233130370Y-77486770D01*
X233175315Y-77475980D01*
X234010062Y-77475980D01*
X234068253Y-77494887D01*
G37*
%TD.AperFunction*%
%TA.AperFunction,Conductor*%
G36*
X241563796Y-77540847D02*
G01*
X241575609Y-77550936D01*
X242650504Y-78625831D01*
X242678281Y-78680348D01*
X242679500Y-78695833D01*
X242679500Y-78892540D01*
X242693532Y-78976843D01*
X242748575Y-79078856D01*
X242799199Y-79125652D01*
X242829096Y-79179036D01*
X242821904Y-79239797D01*
X242804697Y-79265549D01*
X242797196Y-79273664D01*
X242738014Y-79337686D01*
X242738012Y-79337688D01*
X242732460Y-79343695D01*
X242729152Y-79351177D01*
X242729151Y-79351179D01*
X242718600Y-79375045D01*
X242685590Y-79449712D01*
X242679500Y-79497920D01*
X242679500Y-79862540D01*
X242693532Y-79946843D01*
X242697419Y-79954047D01*
X242702436Y-79963346D01*
X242748575Y-80048856D01*
X242833695Y-80127540D01*
X242841177Y-80130848D01*
X242841179Y-80130849D01*
X242910327Y-80161419D01*
X242939712Y-80174410D01*
X242987920Y-80180500D01*
X243194165Y-80180500D01*
X243252356Y-80199407D01*
X243264169Y-80209496D01*
X243685669Y-80630996D01*
X243713446Y-80685513D01*
X243703875Y-80745945D01*
X243660610Y-80789210D01*
X243615665Y-80800000D01*
X242516945Y-80800000D01*
X242458754Y-80781093D01*
X242421318Y-80726621D01*
X242419184Y-80718656D01*
X242417315Y-80710226D01*
X242412072Y-80680491D01*
X242412072Y-80680490D01*
X242410568Y-80671962D01*
X242406237Y-80664461D01*
X242404241Y-80658978D01*
X242401777Y-80653694D01*
X242399535Y-80645325D01*
X242377248Y-80613495D01*
X242372609Y-80606214D01*
X242366418Y-80595491D01*
X242353178Y-80572559D01*
X242346545Y-80566993D01*
X242346543Y-80566991D01*
X242323596Y-80547737D01*
X242317228Y-80541902D01*
X241549496Y-79774169D01*
X241521719Y-79719652D01*
X241520500Y-79704165D01*
X241520500Y-79507460D01*
X241506468Y-79423157D01*
X241451425Y-79321144D01*
X241400801Y-79274347D01*
X241370904Y-79220964D01*
X241378096Y-79160203D01*
X241395303Y-79134451D01*
X241429974Y-79096944D01*
X241461986Y-79062314D01*
X241461988Y-79062312D01*
X241467540Y-79056305D01*
X241472042Y-79046123D01*
X241511497Y-78956877D01*
X241514410Y-78950288D01*
X241520500Y-78902080D01*
X241520500Y-78537460D01*
X241506468Y-78453157D01*
X241451425Y-78351144D01*
X241366305Y-78272460D01*
X241358823Y-78269152D01*
X241358821Y-78269151D01*
X241266877Y-78228503D01*
X241260288Y-78225590D01*
X241212080Y-78219500D01*
X241005834Y-78219500D01*
X240947643Y-78200593D01*
X240935830Y-78190504D01*
X240436271Y-77690944D01*
X240408494Y-77636427D01*
X240418065Y-77575995D01*
X240461330Y-77532730D01*
X240506275Y-77521940D01*
X241505605Y-77521940D01*
X241563796Y-77540847D01*
G37*
%TD.AperFunction*%
%TA.AperFunction,Conductor*%
G36*
X243314276Y-77091327D02*
G01*
X243326089Y-77101416D01*
X244850504Y-78625831D01*
X244878281Y-78680348D01*
X244879500Y-78695833D01*
X244879500Y-78892540D01*
X244893532Y-78976843D01*
X244948575Y-79078856D01*
X244999199Y-79125652D01*
X245029096Y-79179036D01*
X245021904Y-79239797D01*
X245004697Y-79265549D01*
X244997196Y-79273664D01*
X244938014Y-79337686D01*
X244938012Y-79337688D01*
X244932460Y-79343695D01*
X244929152Y-79351177D01*
X244929151Y-79351179D01*
X244918600Y-79375045D01*
X244885590Y-79449712D01*
X244879500Y-79497920D01*
X244879500Y-79862540D01*
X244893532Y-79946843D01*
X244897419Y-79954047D01*
X244902436Y-79963346D01*
X244948575Y-80048856D01*
X245033695Y-80127540D01*
X245041177Y-80130848D01*
X245041179Y-80130849D01*
X245110327Y-80161419D01*
X245139712Y-80174410D01*
X245187920Y-80180500D01*
X245394165Y-80180500D01*
X245452356Y-80199407D01*
X245464169Y-80209496D01*
X245745504Y-80490831D01*
X245773281Y-80545348D01*
X245774500Y-80560835D01*
X245774500Y-80701000D01*
X245755593Y-80759191D01*
X245706093Y-80795155D01*
X245675500Y-80800000D01*
X244524500Y-80800000D01*
X244466309Y-80781093D01*
X244430345Y-80731593D01*
X244425500Y-80701000D01*
X244425500Y-80603284D01*
X244425877Y-80594656D01*
X244426560Y-80586850D01*
X244429242Y-80556194D01*
X244419183Y-80518654D01*
X244417315Y-80510225D01*
X244412072Y-80480491D01*
X244410568Y-80471962D01*
X244406239Y-80464463D01*
X244404241Y-80458974D01*
X244401776Y-80453689D01*
X244399535Y-80445325D01*
X244380153Y-80417644D01*
X244377242Y-80413486D01*
X244372603Y-80406204D01*
X244357508Y-80380059D01*
X244353178Y-80372559D01*
X244323601Y-80347741D01*
X244317234Y-80341907D01*
X243749496Y-79774169D01*
X243721719Y-79719652D01*
X243720500Y-79704165D01*
X243720500Y-79507460D01*
X243706468Y-79423157D01*
X243651425Y-79321144D01*
X243600801Y-79274347D01*
X243570904Y-79220964D01*
X243578096Y-79160203D01*
X243595303Y-79134451D01*
X243629974Y-79096944D01*
X243661986Y-79062314D01*
X243661988Y-79062312D01*
X243667540Y-79056305D01*
X243672042Y-79046123D01*
X243711497Y-78956877D01*
X243714410Y-78950288D01*
X243720500Y-78902080D01*
X243720500Y-78537460D01*
X243706468Y-78453157D01*
X243651425Y-78351144D01*
X243566305Y-78272460D01*
X243558823Y-78269152D01*
X243558821Y-78269151D01*
X243466877Y-78228503D01*
X243460288Y-78225590D01*
X243412080Y-78219500D01*
X243205835Y-78219500D01*
X243147644Y-78200593D01*
X243135831Y-78190504D01*
X242186751Y-77241424D01*
X242158974Y-77186907D01*
X242168545Y-77126475D01*
X242211810Y-77083210D01*
X242256755Y-77072420D01*
X243256085Y-77072420D01*
X243314276Y-77091327D01*
G37*
%TD.AperFunction*%
%TA.AperFunction,Conductor*%
G36*
X244864756Y-76641807D02*
G01*
X244876569Y-76651896D01*
X246850504Y-78625830D01*
X246878281Y-78680347D01*
X246879500Y-78695833D01*
X246879500Y-78892540D01*
X246893532Y-78976843D01*
X246948575Y-79078856D01*
X246999199Y-79125652D01*
X247029096Y-79179036D01*
X247021904Y-79239797D01*
X247004697Y-79265549D01*
X246997196Y-79273664D01*
X246938014Y-79337686D01*
X246938012Y-79337688D01*
X246932460Y-79343695D01*
X246929152Y-79351177D01*
X246929151Y-79351179D01*
X246918600Y-79375045D01*
X246885590Y-79449712D01*
X246879500Y-79497920D01*
X246879500Y-79862540D01*
X246893532Y-79946843D01*
X246897419Y-79954047D01*
X246902436Y-79963346D01*
X246948575Y-80048856D01*
X247033695Y-80127540D01*
X247041177Y-80130848D01*
X247041179Y-80130849D01*
X247110327Y-80161419D01*
X247139712Y-80174410D01*
X247187920Y-80180500D01*
X247394165Y-80180500D01*
X247452356Y-80199407D01*
X247464169Y-80209496D01*
X247745504Y-80490831D01*
X247773281Y-80545348D01*
X247774500Y-80560835D01*
X247774500Y-80701000D01*
X247755593Y-80759191D01*
X247706093Y-80795155D01*
X247675500Y-80800000D01*
X246524500Y-80800000D01*
X246466309Y-80781093D01*
X246430345Y-80731593D01*
X246425500Y-80701000D01*
X246425500Y-80403284D01*
X246425877Y-80394656D01*
X246426498Y-80387559D01*
X246429242Y-80356194D01*
X246419184Y-80318658D01*
X246417316Y-80310230D01*
X246412072Y-80280490D01*
X246412072Y-80280489D01*
X246410568Y-80271962D01*
X246406239Y-80264463D01*
X246404248Y-80258994D01*
X246401776Y-80253694D01*
X246399534Y-80245325D01*
X246387744Y-80228486D01*
X246377248Y-80213497D01*
X246372608Y-80206214D01*
X246358623Y-80181991D01*
X246353178Y-80172559D01*
X246323601Y-80147741D01*
X246317234Y-80141907D01*
X245949496Y-79774169D01*
X245921719Y-79719652D01*
X245920500Y-79704165D01*
X245920500Y-79507460D01*
X245906468Y-79423157D01*
X245851425Y-79321144D01*
X245800801Y-79274347D01*
X245770904Y-79220964D01*
X245778096Y-79160203D01*
X245795303Y-79134451D01*
X245829974Y-79096944D01*
X245861986Y-79062314D01*
X245861988Y-79062312D01*
X245867540Y-79056305D01*
X245872042Y-79046123D01*
X245911497Y-78956877D01*
X245914410Y-78950288D01*
X245920500Y-78902080D01*
X245920500Y-78537460D01*
X245906468Y-78453157D01*
X245851425Y-78351144D01*
X245766305Y-78272460D01*
X245758823Y-78269152D01*
X245758821Y-78269151D01*
X245666877Y-78228503D01*
X245660288Y-78225590D01*
X245612080Y-78219500D01*
X245405835Y-78219500D01*
X245347644Y-78200593D01*
X245335831Y-78190504D01*
X243937231Y-76791904D01*
X243909454Y-76737387D01*
X243919025Y-76676955D01*
X243962290Y-76633690D01*
X244007235Y-76622900D01*
X244806565Y-76622900D01*
X244864756Y-76641807D01*
G37*
%TD.AperFunction*%
%TA.AperFunction,Conductor*%
G36*
X191213666Y-79847726D02*
G01*
X191262395Y-79887398D01*
X191262398Y-79887400D01*
X191268132Y-79892068D01*
X191319666Y-79912941D01*
X191366502Y-79952311D01*
X191381253Y-80011691D01*
X191358283Y-80068402D01*
X191352506Y-80074702D01*
X191004207Y-80423000D01*
X190656203Y-80771004D01*
X190601686Y-80798781D01*
X190586199Y-80800000D01*
X188999335Y-80800000D01*
X188941144Y-80781093D01*
X188905180Y-80731593D01*
X188905180Y-80670407D01*
X188929331Y-80630996D01*
X189705831Y-79854496D01*
X189760348Y-79826719D01*
X189775835Y-79825500D01*
X191151162Y-79825500D01*
X191213666Y-79847726D01*
G37*
%TD.AperFunction*%
%TA.AperFunction,Conductor*%
G36*
X235683343Y-78422259D02*
G01*
X236193318Y-78932234D01*
X236199152Y-78938601D01*
X236223970Y-78968178D01*
X236231471Y-78972508D01*
X236231470Y-78972508D01*
X236257615Y-78987603D01*
X236264897Y-78992242D01*
X236272250Y-78997390D01*
X236296736Y-79014535D01*
X236305100Y-79016776D01*
X236310385Y-79019241D01*
X236315874Y-79021239D01*
X236323373Y-79025568D01*
X236331902Y-79027072D01*
X236361636Y-79032315D01*
X236370065Y-79034183D01*
X236407605Y-79044242D01*
X236446067Y-79040877D01*
X236454695Y-79040500D01*
X236472024Y-79040500D01*
X236530215Y-79059407D01*
X236546702Y-79075384D01*
X236548575Y-79078856D01*
X236599199Y-79125652D01*
X236629096Y-79179036D01*
X236621904Y-79239797D01*
X236604697Y-79265549D01*
X236597196Y-79273664D01*
X236538014Y-79337686D01*
X236538012Y-79337688D01*
X236532460Y-79343695D01*
X236529152Y-79351177D01*
X236529151Y-79351179D01*
X236518600Y-79375045D01*
X236485590Y-79449712D01*
X236479500Y-79497920D01*
X236479500Y-79862540D01*
X236493532Y-79946843D01*
X236497419Y-79954047D01*
X236502436Y-79963346D01*
X236548575Y-80048856D01*
X236633695Y-80127540D01*
X236641177Y-80130848D01*
X236641179Y-80130849D01*
X236710327Y-80161419D01*
X236739712Y-80174410D01*
X236787920Y-80180500D01*
X236994165Y-80180500D01*
X237052356Y-80199407D01*
X237064168Y-80209496D01*
X237485669Y-80630996D01*
X237513447Y-80685513D01*
X237503876Y-80745945D01*
X237460611Y-80789210D01*
X237415666Y-80800000D01*
X236516945Y-80800000D01*
X236458754Y-80781093D01*
X236421318Y-80726621D01*
X236419184Y-80718656D01*
X236417315Y-80710226D01*
X236412072Y-80680491D01*
X236412072Y-80680490D01*
X236410568Y-80671962D01*
X236406237Y-80664461D01*
X236404241Y-80658978D01*
X236401777Y-80653694D01*
X236399535Y-80645325D01*
X236377248Y-80613495D01*
X236372609Y-80606214D01*
X236366418Y-80595491D01*
X236353178Y-80572559D01*
X236346545Y-80566993D01*
X236346543Y-80566991D01*
X236323596Y-80547737D01*
X236317228Y-80541902D01*
X235549496Y-79774169D01*
X235521719Y-79719652D01*
X235520500Y-79704165D01*
X235520500Y-79507460D01*
X235506468Y-79423157D01*
X235451425Y-79321144D01*
X235400801Y-79274347D01*
X235370904Y-79220964D01*
X235378096Y-79160203D01*
X235395303Y-79134451D01*
X235429974Y-79096944D01*
X235461986Y-79062314D01*
X235461988Y-79062312D01*
X235467540Y-79056305D01*
X235472042Y-79046123D01*
X235511497Y-78956877D01*
X235514410Y-78950288D01*
X235520500Y-78902080D01*
X235520500Y-78537460D01*
X235515682Y-78508515D01*
X235524779Y-78448011D01*
X235567703Y-78404409D01*
X235628058Y-78394363D01*
X235683343Y-78422259D01*
G37*
%TD.AperFunction*%
%TA.AperFunction,Conductor*%
G36*
X238262837Y-78439887D02*
G01*
X238274649Y-78449976D01*
X238450503Y-78625829D01*
X238478281Y-78680346D01*
X238479500Y-78695833D01*
X238479500Y-78892540D01*
X238493532Y-78976843D01*
X238548575Y-79078856D01*
X238599199Y-79125652D01*
X238629096Y-79179036D01*
X238621904Y-79239797D01*
X238604697Y-79265549D01*
X238597196Y-79273664D01*
X238538014Y-79337686D01*
X238538012Y-79337688D01*
X238532460Y-79343695D01*
X238529152Y-79351177D01*
X238529151Y-79351179D01*
X238518600Y-79375045D01*
X238485590Y-79449712D01*
X238479500Y-79497920D01*
X238479500Y-79862540D01*
X238493532Y-79946843D01*
X238497419Y-79954047D01*
X238502436Y-79963346D01*
X238548575Y-80048856D01*
X238633695Y-80127540D01*
X238641177Y-80130848D01*
X238641179Y-80130849D01*
X238710327Y-80161419D01*
X238739712Y-80174410D01*
X238787920Y-80180500D01*
X238994165Y-80180500D01*
X239052356Y-80199407D01*
X239064168Y-80209496D01*
X239485669Y-80630996D01*
X239513447Y-80685513D01*
X239503876Y-80745945D01*
X239460611Y-80789210D01*
X239415666Y-80800000D01*
X238516945Y-80800000D01*
X238458754Y-80781093D01*
X238421318Y-80726621D01*
X238419184Y-80718656D01*
X238417315Y-80710226D01*
X238412072Y-80680491D01*
X238412072Y-80680490D01*
X238410568Y-80671962D01*
X238406237Y-80664461D01*
X238404241Y-80658978D01*
X238401777Y-80653694D01*
X238399535Y-80645325D01*
X238377248Y-80613495D01*
X238372609Y-80606214D01*
X238366418Y-80595491D01*
X238353178Y-80572559D01*
X238346545Y-80566993D01*
X238346543Y-80566991D01*
X238323596Y-80547737D01*
X238317228Y-80541902D01*
X237549496Y-79774169D01*
X237521719Y-79719652D01*
X237520500Y-79704165D01*
X237520500Y-79507460D01*
X237506468Y-79423157D01*
X237451425Y-79321144D01*
X237400801Y-79274347D01*
X237370904Y-79220964D01*
X237378096Y-79160203D01*
X237395303Y-79134451D01*
X237429974Y-79096944D01*
X237461986Y-79062314D01*
X237461988Y-79062312D01*
X237467540Y-79056305D01*
X237472042Y-79046123D01*
X237511497Y-78956877D01*
X237514410Y-78950288D01*
X237520500Y-78902080D01*
X237520500Y-78537460D01*
X237519829Y-78533431D01*
X237519493Y-78529363D01*
X237521354Y-78529209D01*
X237529388Y-78475736D01*
X237572308Y-78432130D01*
X237617952Y-78420980D01*
X238204646Y-78420980D01*
X238262837Y-78439887D01*
G37*
%TD.AperFunction*%
%TA.AperFunction,Conductor*%
G36*
X254159191Y-65018907D02*
G01*
X254195155Y-65068407D01*
X254200000Y-65099000D01*
X254200000Y-80701000D01*
X254181093Y-80759191D01*
X254131593Y-80795155D01*
X254101000Y-80800000D01*
X248524500Y-80800000D01*
X248466309Y-80781093D01*
X248430345Y-80731593D01*
X248425500Y-80701000D01*
X248425500Y-80403284D01*
X248425877Y-80394656D01*
X248426498Y-80387559D01*
X248429242Y-80356194D01*
X248419184Y-80318658D01*
X248417316Y-80310230D01*
X248412072Y-80280490D01*
X248412072Y-80280489D01*
X248410568Y-80271962D01*
X248406239Y-80264463D01*
X248404248Y-80258994D01*
X248401776Y-80253694D01*
X248399534Y-80245325D01*
X248387744Y-80228486D01*
X248377248Y-80213497D01*
X248372608Y-80206214D01*
X248358623Y-80181991D01*
X248353178Y-80172559D01*
X248323601Y-80147741D01*
X248317234Y-80141907D01*
X247949496Y-79774169D01*
X247921719Y-79719652D01*
X247920500Y-79704165D01*
X247920500Y-79507460D01*
X247906468Y-79423157D01*
X247851425Y-79321144D01*
X247800801Y-79274347D01*
X247770904Y-79220964D01*
X247778096Y-79160203D01*
X247795303Y-79134451D01*
X247829974Y-79096944D01*
X247861986Y-79062314D01*
X247861988Y-79062312D01*
X247867540Y-79056305D01*
X247872042Y-79046123D01*
X247911497Y-78956877D01*
X247914410Y-78950288D01*
X247920500Y-78902080D01*
X247920500Y-78537460D01*
X247906468Y-78453157D01*
X247851425Y-78351144D01*
X247766305Y-78272460D01*
X247758823Y-78269152D01*
X247758821Y-78269151D01*
X247666877Y-78228503D01*
X247660288Y-78225590D01*
X247612080Y-78219500D01*
X247405834Y-78219500D01*
X247347643Y-78200593D01*
X247335830Y-78190504D01*
X246292840Y-77147513D01*
X245225493Y-76080166D01*
X245219658Y-76073798D01*
X245219305Y-76073377D01*
X245194841Y-76044222D01*
X245161195Y-76024796D01*
X245153914Y-76020158D01*
X245129172Y-76002834D01*
X245129171Y-76002833D01*
X245122075Y-75997865D01*
X245113706Y-75995623D01*
X245108417Y-75993157D01*
X245102939Y-75991163D01*
X245095438Y-75986832D01*
X245086910Y-75985328D01*
X245086909Y-75985328D01*
X245057174Y-75980085D01*
X245048742Y-75978216D01*
X245031533Y-75973605D01*
X245011205Y-75968158D01*
X244976402Y-75971203D01*
X244972744Y-75971523D01*
X244964115Y-75971900D01*
X237373234Y-75971900D01*
X237315043Y-75952993D01*
X237303230Y-75942904D01*
X236824753Y-75464427D01*
X236317593Y-74957266D01*
X236311768Y-74950908D01*
X236308080Y-74946512D01*
X236302186Y-74939488D01*
X236292520Y-74927968D01*
X236292518Y-74927966D01*
X236286952Y-74921333D01*
X236253306Y-74901907D01*
X236246025Y-74897269D01*
X236221283Y-74879945D01*
X236221282Y-74879944D01*
X236214186Y-74874976D01*
X236205818Y-74872734D01*
X236200535Y-74870271D01*
X236195052Y-74868275D01*
X236187549Y-74863943D01*
X236185156Y-74863521D01*
X236153231Y-74843182D01*
X236004016Y-74693966D01*
X235976239Y-74639450D01*
X235975020Y-74623963D01*
X235975020Y-73400000D01*
X236294500Y-73400000D01*
X236315132Y-73556715D01*
X236375622Y-73702750D01*
X236471847Y-73828153D01*
X236597250Y-73924378D01*
X236743285Y-73984868D01*
X236872263Y-74001848D01*
X236882796Y-74003235D01*
X236900000Y-74005500D01*
X236926553Y-74002004D01*
X236986712Y-74013153D01*
X237028829Y-74057535D01*
X237036816Y-74118197D01*
X237026538Y-74146056D01*
X237025622Y-74147250D01*
X236965132Y-74293285D01*
X236944500Y-74450000D01*
X236965132Y-74606715D01*
X237025622Y-74752750D01*
X237121847Y-74878153D01*
X237247250Y-74974378D01*
X237393285Y-75034868D01*
X237520886Y-75051667D01*
X237541174Y-75054338D01*
X237550000Y-75055500D01*
X237558827Y-75054338D01*
X237579114Y-75051667D01*
X237706715Y-75034868D01*
X237852750Y-74974378D01*
X237978153Y-74878153D01*
X238027201Y-74814233D01*
X238077624Y-74779577D01*
X238105742Y-74775500D01*
X238963851Y-74775500D01*
X239022042Y-74794407D01*
X239033854Y-74804496D01*
X239446100Y-75216741D01*
X239451936Y-75223109D01*
X239471196Y-75246063D01*
X239471198Y-75246065D01*
X239476764Y-75252698D01*
X239491611Y-75261270D01*
X239510419Y-75272129D01*
X239517700Y-75276768D01*
X239549530Y-75299055D01*
X239557898Y-75301297D01*
X239563187Y-75303764D01*
X239568669Y-75305759D01*
X239576167Y-75310088D01*
X239584692Y-75311591D01*
X239584694Y-75311592D01*
X239607578Y-75315627D01*
X239614423Y-75316834D01*
X239622853Y-75318703D01*
X239652033Y-75326522D01*
X239652038Y-75326522D01*
X239660400Y-75328763D01*
X239698870Y-75325397D01*
X239707498Y-75325020D01*
X245928685Y-75325020D01*
X245986876Y-75343927D01*
X245998689Y-75354016D01*
X248936022Y-78291349D01*
X248963799Y-78345866D01*
X248957028Y-78400238D01*
X248954853Y-78404194D01*
X248892565Y-78600549D01*
X248892025Y-78605361D01*
X248892025Y-78605362D01*
X248872400Y-78780330D01*
X248869603Y-78805263D01*
X248875460Y-78875015D01*
X248885304Y-78992242D01*
X248886840Y-79010538D01*
X248888173Y-79015186D01*
X248888173Y-79015187D01*
X248942181Y-79203532D01*
X248943621Y-79208555D01*
X248945835Y-79212863D01*
X248945836Y-79212865D01*
X248978487Y-79276398D01*
X249037782Y-79391773D01*
X249165737Y-79553212D01*
X249169417Y-79556344D01*
X249169419Y-79556346D01*
X249198029Y-79580695D01*
X249322612Y-79686723D01*
X249326835Y-79689083D01*
X249326839Y-79689086D01*
X249391995Y-79725500D01*
X249502432Y-79787221D01*
X249507030Y-79788715D01*
X249693742Y-79849382D01*
X249693745Y-79849383D01*
X249698347Y-79850878D01*
X249902895Y-79875269D01*
X249907717Y-79874898D01*
X249907720Y-79874898D01*
X250103458Y-79859837D01*
X250103463Y-79859836D01*
X250108286Y-79859465D01*
X250306695Y-79804068D01*
X250311013Y-79801887D01*
X250486244Y-79713371D01*
X250486246Y-79713370D01*
X250490565Y-79711188D01*
X250652893Y-79584363D01*
X250656055Y-79580700D01*
X250656060Y-79580695D01*
X250762950Y-79456861D01*
X250787496Y-79428424D01*
X250800838Y-79404939D01*
X250886858Y-79253517D01*
X250886859Y-79253514D01*
X250889247Y-79249311D01*
X250891024Y-79243971D01*
X250952743Y-79058435D01*
X250952743Y-79058433D01*
X250954270Y-79053844D01*
X250955246Y-79046123D01*
X250977058Y-78873456D01*
X250980088Y-78849471D01*
X250980130Y-78846509D01*
X250980291Y-78834954D01*
X251000010Y-78777033D01*
X251050008Y-78741765D01*
X251111187Y-78742620D01*
X251149284Y-78766334D01*
X251420176Y-79037225D01*
X251426001Y-79043581D01*
X251428137Y-79046126D01*
X251447469Y-79082479D01*
X251483621Y-79208555D01*
X251577782Y-79391773D01*
X251705737Y-79553212D01*
X251709417Y-79556344D01*
X251709419Y-79556346D01*
X251738029Y-79580695D01*
X251862612Y-79686723D01*
X251866835Y-79689083D01*
X251866839Y-79689086D01*
X251931995Y-79725500D01*
X252042432Y-79787221D01*
X252047030Y-79788715D01*
X252233742Y-79849382D01*
X252233745Y-79849383D01*
X252238347Y-79850878D01*
X252442895Y-79875269D01*
X252447717Y-79874898D01*
X252447720Y-79874898D01*
X252643458Y-79859837D01*
X252643463Y-79859836D01*
X252648286Y-79859465D01*
X252846695Y-79804068D01*
X252851013Y-79801887D01*
X253026244Y-79713371D01*
X253026246Y-79713370D01*
X253030565Y-79711188D01*
X253192893Y-79584363D01*
X253196055Y-79580700D01*
X253196060Y-79580695D01*
X253302950Y-79456861D01*
X253327496Y-79428424D01*
X253340838Y-79404939D01*
X253426858Y-79253517D01*
X253426859Y-79253514D01*
X253429247Y-79249311D01*
X253431024Y-79243971D01*
X253492743Y-79058435D01*
X253492743Y-79058433D01*
X253494270Y-79053844D01*
X253495246Y-79046123D01*
X253517058Y-78873456D01*
X253520088Y-78849471D01*
X253520130Y-78846509D01*
X253520461Y-78822776D01*
X253520500Y-78820000D01*
X253519055Y-78805263D01*
X253500870Y-78619796D01*
X253500869Y-78619792D01*
X253500398Y-78614986D01*
X253497493Y-78605362D01*
X253472363Y-78522129D01*
X253440858Y-78417780D01*
X253344148Y-78235895D01*
X253213952Y-78076259D01*
X253210223Y-78073174D01*
X253058955Y-77948034D01*
X253058953Y-77948033D01*
X253055228Y-77944951D01*
X252898717Y-77860325D01*
X252878277Y-77849273D01*
X252878276Y-77849272D01*
X252874023Y-77846973D01*
X252759315Y-77811465D01*
X252681859Y-77787488D01*
X252681855Y-77787487D01*
X252677238Y-77786058D01*
X252672431Y-77785553D01*
X252672427Y-77785552D01*
X252477185Y-77765032D01*
X252477183Y-77765032D01*
X252472369Y-77764526D01*
X252404682Y-77770686D01*
X252272039Y-77782757D01*
X252272036Y-77782758D01*
X252267219Y-77783196D01*
X252262577Y-77784562D01*
X252262573Y-77784563D01*
X252074250Y-77839989D01*
X252074247Y-77839990D01*
X252069603Y-77841357D01*
X252038198Y-77857775D01*
X251891344Y-77934548D01*
X251891340Y-77934551D01*
X251887047Y-77936795D01*
X251883271Y-77939831D01*
X251883268Y-77939833D01*
X251773779Y-78027865D01*
X251726505Y-78065874D01*
X251723396Y-78069579D01*
X251723391Y-78069584D01*
X251633055Y-78177242D01*
X251581167Y-78209665D01*
X251520131Y-78205397D01*
X251487215Y-78183611D01*
X251454006Y-78150402D01*
X251426230Y-78095887D01*
X251425011Y-78080400D01*
X251425011Y-76943314D01*
X251443918Y-76885123D01*
X251493418Y-76849159D01*
X251554604Y-76849159D01*
X251601597Y-76881820D01*
X251705737Y-77013212D01*
X251709417Y-77016344D01*
X251709419Y-77016346D01*
X251807713Y-77100000D01*
X251862612Y-77146723D01*
X251866835Y-77149083D01*
X251866839Y-77149086D01*
X251957108Y-77199535D01*
X252042432Y-77247221D01*
X252047030Y-77248715D01*
X252233742Y-77309382D01*
X252233745Y-77309383D01*
X252238347Y-77310878D01*
X252442895Y-77335269D01*
X252447717Y-77334898D01*
X252447720Y-77334898D01*
X252643458Y-77319837D01*
X252643463Y-77319836D01*
X252648286Y-77319465D01*
X252846695Y-77264068D01*
X252851013Y-77261887D01*
X253026244Y-77173371D01*
X253026246Y-77173370D01*
X253030565Y-77171188D01*
X253192893Y-77044363D01*
X253196055Y-77040700D01*
X253196060Y-77040695D01*
X253285334Y-76937269D01*
X253327496Y-76888424D01*
X253332422Y-76879754D01*
X253426858Y-76713517D01*
X253426859Y-76713514D01*
X253429247Y-76709311D01*
X253431576Y-76702312D01*
X253492743Y-76518435D01*
X253492743Y-76518433D01*
X253494270Y-76513844D01*
X253495592Y-76503384D01*
X253518580Y-76321405D01*
X253520088Y-76309471D01*
X253520265Y-76296846D01*
X253520300Y-76294316D01*
X253520500Y-76280000D01*
X253519055Y-76265263D01*
X253500870Y-76079796D01*
X253500869Y-76079792D01*
X253500398Y-76074986D01*
X253497493Y-76065362D01*
X253470664Y-75976502D01*
X253440858Y-75877780D01*
X253344148Y-75695895D01*
X253213952Y-75536259D01*
X253163561Y-75494572D01*
X253058955Y-75408034D01*
X253058953Y-75408033D01*
X253055228Y-75404951D01*
X252925144Y-75334614D01*
X252878277Y-75309273D01*
X252878276Y-75309272D01*
X252874023Y-75306973D01*
X252791016Y-75281278D01*
X252681859Y-75247488D01*
X252681855Y-75247487D01*
X252677238Y-75246058D01*
X252672431Y-75245553D01*
X252672427Y-75245552D01*
X252477185Y-75225032D01*
X252477183Y-75225032D01*
X252472369Y-75224526D01*
X252404372Y-75230714D01*
X252272039Y-75242757D01*
X252272036Y-75242758D01*
X252267219Y-75243196D01*
X252262577Y-75244562D01*
X252262573Y-75244563D01*
X252074250Y-75299989D01*
X252074247Y-75299990D01*
X252069603Y-75301357D01*
X252052902Y-75310088D01*
X251891344Y-75394548D01*
X251891340Y-75394551D01*
X251887047Y-75396795D01*
X251883271Y-75399831D01*
X251883268Y-75399833D01*
X251781066Y-75482006D01*
X251726505Y-75525874D01*
X251594093Y-75683677D01*
X251592288Y-75682163D01*
X251551016Y-75713928D01*
X251489854Y-75715618D01*
X251439379Y-75681035D01*
X251422207Y-75646275D01*
X251418695Y-75633167D01*
X251416826Y-75624737D01*
X251411583Y-75595002D01*
X251411583Y-75595001D01*
X251410079Y-75586473D01*
X251405748Y-75578972D01*
X251403752Y-75573489D01*
X251401288Y-75568205D01*
X251399046Y-75559836D01*
X251376759Y-75528006D01*
X251372120Y-75520725D01*
X251357020Y-75494572D01*
X251352689Y-75487070D01*
X251346056Y-75481504D01*
X251346054Y-75481502D01*
X251323107Y-75462248D01*
X251316739Y-75456413D01*
X250643094Y-74782767D01*
X250637260Y-74776399D01*
X250618011Y-74753459D01*
X250618008Y-74753456D01*
X250612441Y-74746822D01*
X250584354Y-74730606D01*
X250543413Y-74685136D01*
X250537019Y-74624285D01*
X250567612Y-74571298D01*
X250572905Y-74566857D01*
X250649071Y-74507350D01*
X250649076Y-74507345D01*
X250652893Y-74504363D01*
X250656055Y-74500700D01*
X250656060Y-74500695D01*
X250760975Y-74379149D01*
X250787496Y-74348424D01*
X250802076Y-74322760D01*
X250886858Y-74173517D01*
X250886859Y-74173514D01*
X250889247Y-74169311D01*
X250894143Y-74154595D01*
X250952743Y-73978435D01*
X250952743Y-73978433D01*
X250954270Y-73973844D01*
X250957308Y-73949800D01*
X250977857Y-73787133D01*
X250980088Y-73769471D01*
X250980141Y-73765728D01*
X250980461Y-73742776D01*
X250980500Y-73740000D01*
X250980230Y-73737244D01*
X250960870Y-73539796D01*
X250960869Y-73539792D01*
X250960398Y-73534986D01*
X250958723Y-73529436D01*
X250926207Y-73421739D01*
X250900858Y-73337780D01*
X250804148Y-73155895D01*
X250719870Y-73052560D01*
X250697743Y-72995515D01*
X250713373Y-72936360D01*
X250760788Y-72897689D01*
X250796589Y-72890989D01*
X251114654Y-72890989D01*
X251172845Y-72909896D01*
X251184658Y-72919985D01*
X251476022Y-73211349D01*
X251503799Y-73265866D01*
X251497028Y-73320238D01*
X251494853Y-73324194D01*
X251432565Y-73520549D01*
X251432025Y-73525361D01*
X251432025Y-73525362D01*
X251410145Y-73720433D01*
X251409603Y-73725263D01*
X251415459Y-73795000D01*
X251426370Y-73924936D01*
X251426840Y-73930538D01*
X251428173Y-73935186D01*
X251428173Y-73935187D01*
X251480962Y-74119281D01*
X251483621Y-74128555D01*
X251577782Y-74311773D01*
X251705737Y-74473212D01*
X251709417Y-74476344D01*
X251709419Y-74476346D01*
X251802390Y-74555470D01*
X251862612Y-74606723D01*
X251866835Y-74609083D01*
X251866839Y-74609086D01*
X251960153Y-74661237D01*
X252042432Y-74707221D01*
X252047030Y-74708715D01*
X252233742Y-74769382D01*
X252233745Y-74769383D01*
X252238347Y-74770878D01*
X252442895Y-74795269D01*
X252447717Y-74794898D01*
X252447720Y-74794898D01*
X252643458Y-74779837D01*
X252643463Y-74779836D01*
X252648286Y-74779465D01*
X252846695Y-74724068D01*
X252864395Y-74715127D01*
X253026244Y-74633371D01*
X253026246Y-74633370D01*
X253030565Y-74631188D01*
X253192893Y-74504363D01*
X253196055Y-74500700D01*
X253196060Y-74500695D01*
X253300975Y-74379149D01*
X253327496Y-74348424D01*
X253342076Y-74322760D01*
X253426858Y-74173517D01*
X253426859Y-74173514D01*
X253429247Y-74169311D01*
X253434143Y-74154595D01*
X253492743Y-73978435D01*
X253492743Y-73978433D01*
X253494270Y-73973844D01*
X253497308Y-73949800D01*
X253517857Y-73787133D01*
X253520088Y-73769471D01*
X253520141Y-73765728D01*
X253520461Y-73742776D01*
X253520500Y-73740000D01*
X253520230Y-73737244D01*
X253500870Y-73539796D01*
X253500869Y-73539792D01*
X253500398Y-73534986D01*
X253498723Y-73529436D01*
X253466207Y-73421739D01*
X253440858Y-73337780D01*
X253344148Y-73155895D01*
X253213952Y-72996259D01*
X253183783Y-72971301D01*
X253058955Y-72868034D01*
X253058953Y-72868033D01*
X253055228Y-72864951D01*
X252913414Y-72788272D01*
X252878277Y-72769273D01*
X252878276Y-72769272D01*
X252874023Y-72766973D01*
X252797057Y-72743148D01*
X252681859Y-72707488D01*
X252681855Y-72707487D01*
X252677238Y-72706058D01*
X252672431Y-72705553D01*
X252672427Y-72705552D01*
X252477185Y-72685032D01*
X252477183Y-72685032D01*
X252472369Y-72684526D01*
X252404372Y-72690714D01*
X252272039Y-72702757D01*
X252272036Y-72702758D01*
X252267219Y-72703196D01*
X252262577Y-72704562D01*
X252262573Y-72704563D01*
X252074250Y-72759989D01*
X252074247Y-72759990D01*
X252069603Y-72761357D01*
X252053330Y-72769864D01*
X251993004Y-72780068D01*
X251937461Y-72752134D01*
X251533582Y-72348255D01*
X251527747Y-72341887D01*
X251502930Y-72312311D01*
X251469284Y-72292885D01*
X251462003Y-72288247D01*
X251437261Y-72270923D01*
X251437260Y-72270922D01*
X251430164Y-72265954D01*
X251421795Y-72263712D01*
X251416506Y-72261246D01*
X251411028Y-72259252D01*
X251403527Y-72254921D01*
X251394999Y-72253417D01*
X251394998Y-72253417D01*
X251365263Y-72248174D01*
X251356831Y-72246305D01*
X251331852Y-72239612D01*
X251319294Y-72236247D01*
X251282513Y-72239465D01*
X251280833Y-72239612D01*
X251272204Y-72239989D01*
X248152795Y-72239989D01*
X248144167Y-72239612D01*
X248142487Y-72239465D01*
X248105705Y-72236247D01*
X248068169Y-72246305D01*
X248059744Y-72248172D01*
X248046311Y-72250541D01*
X248030001Y-72253417D01*
X248030000Y-72253417D01*
X248021473Y-72254921D01*
X248013974Y-72259250D01*
X248008505Y-72261241D01*
X248003205Y-72263713D01*
X247994836Y-72265955D01*
X247987741Y-72270923D01*
X247987739Y-72270924D01*
X247963008Y-72288241D01*
X247955726Y-72292880D01*
X247922070Y-72312311D01*
X247897253Y-72341887D01*
X247891418Y-72348255D01*
X246494169Y-73745504D01*
X246439652Y-73773281D01*
X246424165Y-73774500D01*
X240625835Y-73774500D01*
X240567644Y-73755593D01*
X240555831Y-73745504D01*
X238843093Y-72032766D01*
X238837258Y-72026398D01*
X238812441Y-71996822D01*
X238778795Y-71977396D01*
X238771514Y-71972758D01*
X238746772Y-71955434D01*
X238746771Y-71955433D01*
X238739675Y-71950465D01*
X238731306Y-71948223D01*
X238726017Y-71945757D01*
X238720539Y-71943763D01*
X238713038Y-71939432D01*
X238704510Y-71937928D01*
X238704509Y-71937928D01*
X238674774Y-71932685D01*
X238666342Y-71930816D01*
X238637168Y-71922999D01*
X238637169Y-71922999D01*
X238628805Y-71920758D01*
X238590383Y-71924120D01*
X238590344Y-71924123D01*
X238581715Y-71924500D01*
X238068293Y-71924500D01*
X238059664Y-71924123D01*
X238021195Y-71920757D01*
X238012833Y-71922998D01*
X238012828Y-71922998D01*
X237983648Y-71930817D01*
X237975218Y-71932686D01*
X237972237Y-71933212D01*
X237945489Y-71937928D01*
X237945487Y-71937929D01*
X237936962Y-71939432D01*
X237929464Y-71943761D01*
X237923982Y-71945756D01*
X237918693Y-71948223D01*
X237910325Y-71950465D01*
X237889101Y-71965326D01*
X237878497Y-71972751D01*
X237871216Y-71977390D01*
X237837559Y-71996822D01*
X237831993Y-72003455D01*
X237831991Y-72003457D01*
X237822801Y-72014410D01*
X237813496Y-72025500D01*
X237812737Y-72026404D01*
X237806902Y-72032772D01*
X237062806Y-72776867D01*
X237008289Y-72804644D01*
X236979880Y-72805016D01*
X236906434Y-72795347D01*
X236900000Y-72794500D01*
X236743285Y-72815132D01*
X236597250Y-72875622D01*
X236471847Y-72971847D01*
X236375622Y-73097250D01*
X236315132Y-73243285D01*
X236301990Y-73343106D01*
X236295359Y-73393479D01*
X236294500Y-73400000D01*
X235975020Y-73400000D01*
X235975020Y-71185263D01*
X251409603Y-71185263D01*
X251413622Y-71233123D01*
X251426347Y-71384665D01*
X251426840Y-71390538D01*
X251428173Y-71395186D01*
X251428173Y-71395187D01*
X251470700Y-71543493D01*
X251483621Y-71588555D01*
X251577782Y-71771773D01*
X251705737Y-71933212D01*
X251709417Y-71936344D01*
X251709419Y-71936346D01*
X251800309Y-72013699D01*
X251862612Y-72066723D01*
X251866835Y-72069083D01*
X251866839Y-72069086D01*
X251956238Y-72119049D01*
X252042432Y-72167221D01*
X252047030Y-72168715D01*
X252233742Y-72229382D01*
X252233745Y-72229383D01*
X252238347Y-72230878D01*
X252442895Y-72255269D01*
X252447717Y-72254898D01*
X252447720Y-72254898D01*
X252643458Y-72239837D01*
X252643463Y-72239836D01*
X252648286Y-72239465D01*
X252846695Y-72184068D01*
X252851013Y-72181887D01*
X253026244Y-72093371D01*
X253026246Y-72093370D01*
X253030565Y-72091188D01*
X253192893Y-71964363D01*
X253196055Y-71960700D01*
X253196060Y-71960695D01*
X253305306Y-71834131D01*
X253327496Y-71808424D01*
X253337048Y-71791611D01*
X253426858Y-71633517D01*
X253426859Y-71633514D01*
X253429247Y-71629311D01*
X253438320Y-71602039D01*
X253492743Y-71438435D01*
X253492743Y-71438433D01*
X253494270Y-71433844D01*
X253496464Y-71416482D01*
X253519740Y-71232225D01*
X253520088Y-71229471D01*
X253520158Y-71224500D01*
X253520461Y-71202776D01*
X253520500Y-71200000D01*
X253519976Y-71194653D01*
X253500870Y-70999796D01*
X253500869Y-70999792D01*
X253500398Y-70994986D01*
X253497493Y-70985362D01*
X253453518Y-70839712D01*
X253440858Y-70797780D01*
X253344148Y-70615895D01*
X253213952Y-70456259D01*
X253173940Y-70423158D01*
X253058955Y-70328034D01*
X253058953Y-70328033D01*
X253055228Y-70324951D01*
X252874023Y-70226973D01*
X252775222Y-70196389D01*
X252681859Y-70167488D01*
X252681855Y-70167487D01*
X252677238Y-70166058D01*
X252672431Y-70165553D01*
X252672427Y-70165552D01*
X252477185Y-70145032D01*
X252477183Y-70145032D01*
X252472369Y-70144526D01*
X252404372Y-70150714D01*
X252272039Y-70162757D01*
X252272036Y-70162758D01*
X252267219Y-70163196D01*
X252262577Y-70164562D01*
X252262573Y-70164563D01*
X252074250Y-70219989D01*
X252074247Y-70219990D01*
X252069603Y-70221357D01*
X252065309Y-70223602D01*
X251891344Y-70314548D01*
X251891340Y-70314551D01*
X251887047Y-70316795D01*
X251883271Y-70319831D01*
X251883268Y-70319833D01*
X251738671Y-70436092D01*
X251726505Y-70445874D01*
X251673016Y-70509620D01*
X251597202Y-70599971D01*
X251597199Y-70599975D01*
X251594093Y-70603677D01*
X251494853Y-70784194D01*
X251493389Y-70788808D01*
X251493388Y-70788811D01*
X251452297Y-70918345D01*
X251432565Y-70980549D01*
X251432025Y-70985361D01*
X251432025Y-70985362D01*
X251410191Y-71180023D01*
X251409603Y-71185263D01*
X235975020Y-71185263D01*
X235975020Y-68217528D01*
X235975397Y-68208899D01*
X235978007Y-68179065D01*
X235978762Y-68170438D01*
X235968704Y-68132901D01*
X235966835Y-68124469D01*
X235961592Y-68094734D01*
X235961592Y-68094733D01*
X235960088Y-68086205D01*
X235955757Y-68078704D01*
X235953763Y-68073226D01*
X235951297Y-68067937D01*
X235949055Y-68059568D01*
X235942171Y-68049736D01*
X235926762Y-68027729D01*
X235922123Y-68020447D01*
X235914372Y-68007022D01*
X235902698Y-67986802D01*
X235873121Y-67961984D01*
X235866754Y-67956150D01*
X234458850Y-66548246D01*
X234453015Y-66541878D01*
X234433765Y-66518937D01*
X234428198Y-66512302D01*
X234394552Y-66492876D01*
X234387271Y-66488238D01*
X234362529Y-66470914D01*
X234362528Y-66470913D01*
X234355432Y-66465945D01*
X234347063Y-66463703D01*
X234341774Y-66461237D01*
X234336296Y-66459243D01*
X234328795Y-66454912D01*
X234320267Y-66453408D01*
X234320266Y-66453408D01*
X234290531Y-66448165D01*
X234282099Y-66446296D01*
X234252925Y-66438479D01*
X234252926Y-66438479D01*
X234244562Y-66436238D01*
X234206650Y-66439555D01*
X234206101Y-66439603D01*
X234197472Y-66439980D01*
X232662813Y-66439980D01*
X232654184Y-66439603D01*
X232615715Y-66436237D01*
X232607353Y-66438478D01*
X232607348Y-66438478D01*
X232578168Y-66446297D01*
X232569738Y-66448166D01*
X232562893Y-66449373D01*
X232540009Y-66453408D01*
X232540007Y-66453409D01*
X232531482Y-66454912D01*
X232523984Y-66459241D01*
X232518502Y-66461236D01*
X232513213Y-66463703D01*
X232504845Y-66465945D01*
X232473017Y-66488231D01*
X232465736Y-66492870D01*
X232432079Y-66512302D01*
X232426513Y-66518935D01*
X232426511Y-66518937D01*
X232407251Y-66541891D01*
X232401415Y-66548259D01*
X232102766Y-66846907D01*
X232096400Y-66852740D01*
X232066822Y-66877559D01*
X232062493Y-66885056D01*
X232062493Y-66885057D01*
X232061663Y-66886495D01*
X232059248Y-66890679D01*
X232058525Y-66891931D01*
X232022288Y-66928167D01*
X232003005Y-66939300D01*
X231957917Y-66965332D01*
X231880788Y-67057250D01*
X231839749Y-67170005D01*
X231839500Y-67172851D01*
X231839500Y-67379167D01*
X231820593Y-67437358D01*
X231810503Y-67449171D01*
X231588847Y-67670826D01*
X231373272Y-67886401D01*
X231366905Y-67892236D01*
X231337322Y-67917059D01*
X231320523Y-67946155D01*
X231317897Y-67950704D01*
X231313258Y-67957986D01*
X231299047Y-67978282D01*
X231290965Y-67989825D01*
X231288723Y-67998194D01*
X231286257Y-68003483D01*
X231284263Y-68008961D01*
X231279932Y-68016462D01*
X231278428Y-68024990D01*
X231278428Y-68024991D01*
X231274065Y-68049736D01*
X231258010Y-68088833D01*
X231247299Y-68104330D01*
X231195288Y-68179584D01*
X231181448Y-68199608D01*
X231179216Y-68206666D01*
X231147498Y-68306959D01*
X231140608Y-68328744D01*
X231139544Y-68464181D01*
X231141664Y-68471269D01*
X231141664Y-68471271D01*
X231163027Y-68542702D01*
X231178351Y-68593942D01*
X231253598Y-68706557D01*
X231280851Y-68728744D01*
X231285134Y-68732231D01*
X231318323Y-68783633D01*
X231314960Y-68844726D01*
X231283921Y-68886749D01*
X231274188Y-68894422D01*
X231197181Y-69005841D01*
X231197030Y-69006319D01*
X231156758Y-69047873D01*
X231096484Y-69058391D01*
X231040432Y-69030383D01*
X230379985Y-68369935D01*
X230352208Y-68315418D01*
X230350989Y-68299931D01*
X230350989Y-67894050D01*
X230351366Y-67885422D01*
X230353976Y-67855587D01*
X230354731Y-67846960D01*
X230344673Y-67809423D01*
X230342804Y-67800991D01*
X230337561Y-67771256D01*
X230337561Y-67771255D01*
X230336057Y-67762727D01*
X230331726Y-67755226D01*
X230329730Y-67749743D01*
X230327266Y-67744459D01*
X230325024Y-67736090D01*
X230302737Y-67704260D01*
X230298098Y-67696979D01*
X230282998Y-67670826D01*
X230278667Y-67663324D01*
X230272034Y-67657758D01*
X230272032Y-67657756D01*
X230249085Y-67638502D01*
X230242717Y-67632667D01*
X227779055Y-65169004D01*
X227751278Y-65114487D01*
X227760849Y-65054055D01*
X227804114Y-65010790D01*
X227849059Y-65000000D01*
X254101000Y-65000000D01*
X254159191Y-65018907D01*
G37*
%TD.AperFunction*%
%TA.AperFunction,Conductor*%
G36*
X239813316Y-77990367D02*
G01*
X239825129Y-78000456D01*
X240450504Y-78625830D01*
X240478281Y-78680347D01*
X240479500Y-78695833D01*
X240479500Y-78892540D01*
X240493532Y-78976843D01*
X240548575Y-79078856D01*
X240599199Y-79125652D01*
X240629096Y-79179036D01*
X240621904Y-79239797D01*
X240604697Y-79265549D01*
X240597196Y-79273664D01*
X240538014Y-79337686D01*
X240538012Y-79337688D01*
X240532460Y-79343695D01*
X240529152Y-79351177D01*
X240529151Y-79351179D01*
X240518600Y-79375045D01*
X240485590Y-79449712D01*
X240479500Y-79497920D01*
X240479500Y-79862540D01*
X240493532Y-79946843D01*
X240497419Y-79954047D01*
X240502436Y-79963346D01*
X240548575Y-80048856D01*
X240633695Y-80127540D01*
X240641177Y-80130848D01*
X240641179Y-80130849D01*
X240710327Y-80161419D01*
X240739712Y-80174410D01*
X240787920Y-80180500D01*
X240994165Y-80180500D01*
X241052356Y-80199407D01*
X241064168Y-80209496D01*
X241485669Y-80630996D01*
X241513447Y-80685513D01*
X241503876Y-80745945D01*
X241460611Y-80789210D01*
X241415666Y-80800000D01*
X240516945Y-80800000D01*
X240458754Y-80781093D01*
X240421318Y-80726621D01*
X240419184Y-80718656D01*
X240417315Y-80710226D01*
X240412072Y-80680491D01*
X240412072Y-80680490D01*
X240410568Y-80671962D01*
X240406237Y-80664461D01*
X240404241Y-80658978D01*
X240401777Y-80653694D01*
X240399535Y-80645325D01*
X240377248Y-80613495D01*
X240372609Y-80606214D01*
X240366418Y-80595491D01*
X240353178Y-80572559D01*
X240346545Y-80566993D01*
X240346543Y-80566991D01*
X240323596Y-80547737D01*
X240317228Y-80541902D01*
X239549496Y-79774169D01*
X239521719Y-79719652D01*
X239520500Y-79704165D01*
X239520500Y-79507460D01*
X239506468Y-79423157D01*
X239451425Y-79321144D01*
X239400801Y-79274347D01*
X239370904Y-79220964D01*
X239378096Y-79160203D01*
X239395303Y-79134451D01*
X239429974Y-79096944D01*
X239461986Y-79062314D01*
X239461988Y-79062312D01*
X239467540Y-79056305D01*
X239472042Y-79046123D01*
X239511497Y-78956877D01*
X239514410Y-78950288D01*
X239520500Y-78902080D01*
X239520500Y-78537460D01*
X239506468Y-78453157D01*
X239451425Y-78351144D01*
X239366305Y-78272460D01*
X239358823Y-78269152D01*
X239358821Y-78269151D01*
X239266877Y-78228503D01*
X239260288Y-78225590D01*
X239212080Y-78219500D01*
X239005833Y-78219500D01*
X238947642Y-78200593D01*
X238935837Y-78190511D01*
X238885788Y-78140461D01*
X238858012Y-78085947D01*
X238867583Y-78025515D01*
X238910848Y-77982250D01*
X238955793Y-77971460D01*
X239755125Y-77971460D01*
X239813316Y-77990367D01*
G37*
%TD.AperFunction*%
%TA.AperFunction,Conductor*%
G36*
X196759191Y-65018907D02*
G01*
X196795155Y-65068407D01*
X196800000Y-65099000D01*
X196800000Y-65800000D01*
X196800497Y-65803479D01*
X196996435Y-67175042D01*
X197000000Y-67200000D01*
X197002197Y-67205491D01*
X197002197Y-67205493D01*
X197200288Y-67700720D01*
X197400000Y-68200000D01*
X198000000Y-69400000D01*
X198800000Y-70200000D01*
X198809332Y-70203733D01*
X198809334Y-70203734D01*
X199791227Y-70596491D01*
X199800000Y-70600000D01*
X211250500Y-70600000D01*
X211308691Y-70618907D01*
X211344655Y-70668407D01*
X211349500Y-70699000D01*
X211349500Y-71136932D01*
X211346342Y-71158538D01*
X211346681Y-71158598D01*
X211345690Y-71164157D01*
X211344075Y-71169564D01*
X211343542Y-71178086D01*
X211345519Y-71301542D01*
X211345554Y-71303750D01*
X211344466Y-71320057D01*
X211342057Y-71336080D01*
X211341218Y-71341661D01*
X211341888Y-71350173D01*
X211346741Y-71380813D01*
X211346794Y-71381236D01*
X211346809Y-71382205D01*
X211349803Y-71400161D01*
X211349909Y-71400813D01*
X211379051Y-71584808D01*
X211380267Y-71599518D01*
X211380473Y-71625749D01*
X211382466Y-71634051D01*
X211406115Y-71706835D01*
X211406294Y-71707396D01*
X211421761Y-71756303D01*
X211422439Y-71757284D01*
X211422781Y-71758128D01*
X211455878Y-71859990D01*
X211459380Y-71874329D01*
X211462574Y-71893516D01*
X211463686Y-71900200D01*
X211466954Y-71908088D01*
X211498932Y-71970849D01*
X211501578Y-71976042D01*
X211501915Y-71976710D01*
X211524889Y-72022687D01*
X211525712Y-72023550D01*
X211526185Y-72024335D01*
X211539104Y-72049690D01*
X211574806Y-72119759D01*
X211580504Y-72133363D01*
X211588808Y-72158252D01*
X211593269Y-72165532D01*
X211594413Y-72167107D01*
X211594422Y-72167120D01*
X211638155Y-72227313D01*
X211638611Y-72227946D01*
X211664124Y-72263648D01*
X211668419Y-72269659D01*
X211669367Y-72270383D01*
X211669954Y-72271081D01*
X211730240Y-72354058D01*
X211738716Y-72368017D01*
X211748474Y-72387560D01*
X211753915Y-72394141D01*
X211755251Y-72395521D01*
X211755273Y-72395545D01*
X211775473Y-72416401D01*
X211775784Y-72416744D01*
X211776350Y-72417523D01*
X211778111Y-72419312D01*
X211789129Y-72430505D01*
X211789690Y-72431080D01*
X211799609Y-72441321D01*
X211895939Y-72540783D01*
X211898874Y-72543024D01*
X211923440Y-72561784D01*
X211933359Y-72570462D01*
X212388537Y-73025640D01*
X212401782Y-73043397D01*
X212402008Y-73043239D01*
X212405243Y-73047864D01*
X212407931Y-73052827D01*
X212413588Y-73059223D01*
X212414982Y-73060570D01*
X212414994Y-73060582D01*
X212508399Y-73150804D01*
X212519251Y-73163190D01*
X212525552Y-73171720D01*
X212532010Y-73180463D01*
X212538502Y-73186009D01*
X212540071Y-73187149D01*
X212540080Y-73187156D01*
X212563655Y-73204284D01*
X212564237Y-73204736D01*
X212565098Y-73205569D01*
X212567576Y-73207334D01*
X212567593Y-73207347D01*
X212581161Y-73217010D01*
X212581920Y-73217555D01*
X212741217Y-73333291D01*
X212752476Y-73342831D01*
X212755790Y-73346093D01*
X212771166Y-73361229D01*
X212778446Y-73365691D01*
X212780182Y-73366575D01*
X212780181Y-73366575D01*
X212846433Y-73400332D01*
X212847125Y-73400689D01*
X212889720Y-73422816D01*
X212889731Y-73422821D01*
X212892675Y-73424350D01*
X212893851Y-73424565D01*
X212894690Y-73424920D01*
X213001710Y-73479449D01*
X213014308Y-73487102D01*
X213035653Y-73502355D01*
X213041350Y-73504714D01*
X213041744Y-73504878D01*
X213041750Y-73504880D01*
X213043541Y-73505622D01*
X213116188Y-73529226D01*
X213116643Y-73529376D01*
X213165544Y-73545691D01*
X213166736Y-73545719D01*
X213167623Y-73545939D01*
X213281842Y-73583052D01*
X213295499Y-73588646D01*
X213313910Y-73597845D01*
X213313912Y-73597846D01*
X213318962Y-73600369D01*
X213324810Y-73601773D01*
X213325388Y-73601912D01*
X213325397Y-73601914D01*
X213327264Y-73602362D01*
X213402627Y-73614298D01*
X213403354Y-73614416D01*
X213454030Y-73622852D01*
X213455215Y-73622693D01*
X213456125Y-73622772D01*
X213569897Y-73640791D01*
X213585878Y-73644708D01*
X213606246Y-73651540D01*
X213611860Y-73652080D01*
X213611863Y-73652081D01*
X213612285Y-73652121D01*
X213614745Y-73652358D01*
X213616695Y-73652392D01*
X213616699Y-73652392D01*
X213645808Y-73652896D01*
X213646558Y-73652933D01*
X213647747Y-73653122D01*
X213667651Y-73653278D01*
X213668393Y-73653288D01*
X213786239Y-73655330D01*
X213821659Y-73655944D01*
X213821661Y-73655944D01*
X213825360Y-73656008D01*
X213860394Y-73651360D01*
X213873415Y-73650500D01*
X215130684Y-73650500D01*
X215153231Y-73653751D01*
X215153255Y-73653612D01*
X215157981Y-73654436D01*
X215158650Y-73654532D01*
X215164226Y-73656174D01*
X215169857Y-73656505D01*
X215170805Y-73656561D01*
X215170812Y-73656561D01*
X215172749Y-73656675D01*
X215216203Y-73655809D01*
X215275003Y-73654638D01*
X215281380Y-73654716D01*
X215324466Y-73656635D01*
X215324468Y-73656635D01*
X215330106Y-73656886D01*
X215338501Y-73655330D01*
X215340362Y-73654831D01*
X215340390Y-73654825D01*
X215376252Y-73645215D01*
X215385210Y-73643254D01*
X215426117Y-73636269D01*
X215435627Y-73631467D01*
X215454616Y-73624218D01*
X215496331Y-73613040D01*
X215500595Y-73611999D01*
X215547324Y-73601682D01*
X215552832Y-73600466D01*
X215557925Y-73598037D01*
X215558791Y-73597624D01*
X215558796Y-73597621D01*
X215560539Y-73596790D01*
X215589408Y-73580123D01*
X215599326Y-73575118D01*
X215632510Y-73560655D01*
X215644771Y-73550127D01*
X215659760Y-73539504D01*
X215696560Y-73518258D01*
X215702162Y-73515260D01*
X215745893Y-73493637D01*
X215750253Y-73490061D01*
X215751001Y-73489448D01*
X215751010Y-73489440D01*
X215752495Y-73488222D01*
X215753875Y-73486896D01*
X215753885Y-73486887D01*
X215780677Y-73461140D01*
X215787581Y-73455096D01*
X215795912Y-73448458D01*
X215853205Y-73426983D01*
X215912179Y-73443285D01*
X215927609Y-73455881D01*
X215935697Y-73463969D01*
X215963474Y-73518486D01*
X215953903Y-73578918D01*
X215935698Y-73603976D01*
X215665935Y-73873738D01*
X215611420Y-73901514D01*
X215595933Y-73902733D01*
X215590051Y-73902733D01*
X215581423Y-73902356D01*
X215580292Y-73902257D01*
X215542961Y-73898991D01*
X215505425Y-73909049D01*
X215497000Y-73910916D01*
X215483567Y-73913285D01*
X215467257Y-73916161D01*
X215467256Y-73916161D01*
X215458729Y-73917665D01*
X215451230Y-73921994D01*
X215445761Y-73923985D01*
X215440461Y-73926457D01*
X215432092Y-73928699D01*
X215424997Y-73933667D01*
X215424995Y-73933668D01*
X215400264Y-73950985D01*
X215392982Y-73955624D01*
X215359326Y-73975055D01*
X215342318Y-73995325D01*
X215334509Y-74004631D01*
X215328674Y-74010999D01*
X214729169Y-74610504D01*
X214674652Y-74638281D01*
X214659165Y-74639500D01*
X214401643Y-74639500D01*
X214311832Y-74655336D01*
X214304333Y-74659666D01*
X214304329Y-74659667D01*
X214301610Y-74661237D01*
X214252111Y-74674500D01*
X213571644Y-74674500D01*
X213486962Y-74689432D01*
X213424953Y-74725233D01*
X213405893Y-74736237D01*
X213356393Y-74749500D01*
X212491742Y-74749500D01*
X212448986Y-74755928D01*
X212388631Y-74745882D01*
X212345708Y-74702279D01*
X212338792Y-74680410D01*
X212338640Y-74680457D01*
X212336464Y-74673385D01*
X212335364Y-74666065D01*
X212328977Y-74652763D01*
X212279937Y-74550639D01*
X212276735Y-74543971D01*
X212184798Y-74444514D01*
X212067681Y-74376487D01*
X212060475Y-74374817D01*
X212060473Y-74374816D01*
X211996189Y-74359916D01*
X211935738Y-74345904D01*
X211800636Y-74355470D01*
X211760878Y-74370851D01*
X211681222Y-74401667D01*
X211681220Y-74401668D01*
X211674319Y-74404338D01*
X211644743Y-74427654D01*
X211575300Y-74482399D01*
X211567955Y-74488189D01*
X211563748Y-74494276D01*
X211563747Y-74494277D01*
X211517262Y-74561535D01*
X211490948Y-74599608D01*
X211486833Y-74612620D01*
X211452881Y-74719977D01*
X211450108Y-74728744D01*
X211449044Y-74864181D01*
X211451164Y-74871269D01*
X211451164Y-74871271D01*
X211468560Y-74929438D01*
X211487851Y-74993942D01*
X211563098Y-75106557D01*
X211568839Y-75111231D01*
X211568840Y-75111232D01*
X211588485Y-75127226D01*
X211621674Y-75178628D01*
X211624980Y-75203999D01*
X211624980Y-75394676D01*
X211623669Y-75404631D01*
X211624234Y-75404680D01*
X211623479Y-75413311D01*
X211621238Y-75421675D01*
X211622853Y-75440137D01*
X211624603Y-75460136D01*
X211624980Y-75468765D01*
X211624980Y-77826761D01*
X211624603Y-77835390D01*
X211621238Y-77873851D01*
X211623479Y-77882214D01*
X211631296Y-77911388D01*
X211633165Y-77919820D01*
X211638246Y-77948634D01*
X211639912Y-77958084D01*
X211644243Y-77965585D01*
X211646237Y-77971063D01*
X211648703Y-77976352D01*
X211650945Y-77984721D01*
X211655913Y-77991817D01*
X211655914Y-77991818D01*
X211673238Y-78016560D01*
X211677876Y-78023841D01*
X211697302Y-78057487D01*
X211703935Y-78063053D01*
X211703937Y-78063055D01*
X211726877Y-78082303D01*
X211733235Y-78088128D01*
X212227153Y-78582045D01*
X212550604Y-78905496D01*
X212578381Y-78960013D01*
X212568810Y-79020445D01*
X212525545Y-79063710D01*
X212480600Y-79074500D01*
X199418297Y-79074500D01*
X199409668Y-79074123D01*
X199381459Y-79071655D01*
X199371195Y-79070757D01*
X199340971Y-79078856D01*
X199333660Y-79080815D01*
X199325229Y-79082685D01*
X199312693Y-79084895D01*
X199295491Y-79087928D01*
X199295490Y-79087928D01*
X199286962Y-79089432D01*
X199279462Y-79093762D01*
X199273973Y-79095760D01*
X199268689Y-79098224D01*
X199260326Y-79100465D01*
X199232065Y-79120254D01*
X199228500Y-79122750D01*
X199221221Y-79127387D01*
X199187559Y-79146822D01*
X199166841Y-79171513D01*
X199162737Y-79176404D01*
X199156902Y-79182772D01*
X198182755Y-80156918D01*
X198176397Y-80162743D01*
X198153457Y-80181991D01*
X198153455Y-80181993D01*
X198146822Y-80187559D01*
X198132590Y-80212209D01*
X198127397Y-80221204D01*
X198122758Y-80228486D01*
X198107730Y-80249949D01*
X198100465Y-80260325D01*
X198098223Y-80268694D01*
X198095757Y-80273983D01*
X198093763Y-80279461D01*
X198089432Y-80286962D01*
X198087928Y-80295490D01*
X198087928Y-80295491D01*
X198082685Y-80325226D01*
X198080816Y-80333658D01*
X198070758Y-80371195D01*
X198071513Y-80379822D01*
X198074123Y-80409656D01*
X198074500Y-80418285D01*
X198074500Y-80701000D01*
X198055593Y-80759191D01*
X198006093Y-80795155D01*
X197975500Y-80800000D01*
X196824500Y-80800000D01*
X196766309Y-80781093D01*
X196730345Y-80731593D01*
X196725500Y-80701000D01*
X196725500Y-80555742D01*
X196744407Y-80497551D01*
X196764233Y-80477200D01*
X196771060Y-80471962D01*
X196828153Y-80428153D01*
X196924378Y-80302750D01*
X196984868Y-80156715D01*
X197005500Y-80000000D01*
X196984868Y-79843285D01*
X196924378Y-79697250D01*
X196828153Y-79571847D01*
X196702750Y-79475622D01*
X196576089Y-79423157D01*
X196562712Y-79417616D01*
X196556715Y-79415132D01*
X196427737Y-79398152D01*
X196406434Y-79395347D01*
X196400000Y-79394500D01*
X196393566Y-79395347D01*
X196372263Y-79398152D01*
X196243285Y-79415132D01*
X196237288Y-79417616D01*
X196223911Y-79423157D01*
X196097250Y-79475622D01*
X195971847Y-79571847D01*
X195875622Y-79697250D01*
X195815132Y-79843285D01*
X195794500Y-80000000D01*
X195815132Y-80156715D01*
X195875622Y-80302750D01*
X195971847Y-80428153D01*
X196028941Y-80471962D01*
X196035767Y-80477200D01*
X196070423Y-80527624D01*
X196074500Y-80555742D01*
X196074500Y-80701000D01*
X196055593Y-80759191D01*
X196006093Y-80795155D01*
X195975500Y-80800000D01*
X194824500Y-80800000D01*
X194766309Y-80781093D01*
X194730345Y-80731593D01*
X194725500Y-80701000D01*
X194725500Y-80555742D01*
X194744407Y-80497551D01*
X194764233Y-80477200D01*
X194771060Y-80471962D01*
X194828153Y-80428153D01*
X194924378Y-80302750D01*
X194984868Y-80156715D01*
X195005500Y-80000000D01*
X194984868Y-79843285D01*
X194924378Y-79697250D01*
X194828153Y-79571847D01*
X194702750Y-79475622D01*
X194576089Y-79423157D01*
X194562712Y-79417616D01*
X194556715Y-79415132D01*
X194427737Y-79398152D01*
X194406434Y-79395347D01*
X194400000Y-79394500D01*
X194393566Y-79395347D01*
X194372263Y-79398152D01*
X194243285Y-79415132D01*
X194237288Y-79417616D01*
X194223911Y-79423157D01*
X194097250Y-79475622D01*
X193971847Y-79571847D01*
X193875622Y-79697250D01*
X193815132Y-79843285D01*
X193794500Y-80000000D01*
X193815132Y-80156715D01*
X193875622Y-80302750D01*
X193971847Y-80428153D01*
X194028941Y-80471962D01*
X194035767Y-80477200D01*
X194070423Y-80527624D01*
X194074500Y-80555742D01*
X194074500Y-80701000D01*
X194055593Y-80759191D01*
X194006093Y-80795155D01*
X193975500Y-80800000D01*
X192824500Y-80800000D01*
X192766309Y-80781093D01*
X192730345Y-80731593D01*
X192725500Y-80701000D01*
X192725500Y-80475835D01*
X192744407Y-80417644D01*
X192754496Y-80405831D01*
X193178915Y-79981412D01*
X193228891Y-79955949D01*
X193228601Y-79954601D01*
X193353769Y-79927654D01*
X193353772Y-79927653D01*
X193361008Y-79926095D01*
X193430107Y-79887398D01*
X193472724Y-79863531D01*
X193479179Y-79859916D01*
X193572667Y-79761915D01*
X193607551Y-79692101D01*
X193629899Y-79647376D01*
X193629900Y-79647374D01*
X193633206Y-79640757D01*
X193648408Y-79549425D01*
X193654804Y-79511001D01*
X193654804Y-79510999D01*
X193655444Y-79507155D01*
X193655500Y-79500000D01*
X193653722Y-79488168D01*
X193636465Y-79373386D01*
X193636464Y-79373384D01*
X193635364Y-79366065D01*
X193624469Y-79343375D01*
X193579937Y-79250639D01*
X193576735Y-79243971D01*
X193484798Y-79144514D01*
X193395563Y-79092682D01*
X193374079Y-79080203D01*
X193374078Y-79080202D01*
X193367681Y-79076487D01*
X193360475Y-79074817D01*
X193360473Y-79074816D01*
X193317713Y-79064905D01*
X193235738Y-79045904D01*
X193100636Y-79055470D01*
X193079337Y-79063710D01*
X192981222Y-79101667D01*
X192981220Y-79101668D01*
X192974319Y-79104338D01*
X192937487Y-79133374D01*
X192875891Y-79181933D01*
X192867955Y-79188189D01*
X192863748Y-79194276D01*
X192863747Y-79194277D01*
X192859470Y-79200466D01*
X192836142Y-79234219D01*
X192835763Y-79234767D01*
X192787125Y-79271887D01*
X192725956Y-79273328D01*
X192681624Y-79245680D01*
X192642663Y-79203532D01*
X192628565Y-79188281D01*
X192547897Y-79141425D01*
X192517846Y-79123970D01*
X192517845Y-79123969D01*
X192511448Y-79120254D01*
X192504242Y-79118584D01*
X192504240Y-79118583D01*
X192462546Y-79108919D01*
X192379505Y-79089671D01*
X192244403Y-79099237D01*
X192200112Y-79116372D01*
X192124989Y-79145434D01*
X192124987Y-79145435D01*
X192118086Y-79148105D01*
X192011722Y-79231956D01*
X192009852Y-79234662D01*
X191957967Y-79263184D01*
X191897264Y-79255514D01*
X191866721Y-79233138D01*
X191861410Y-79227392D01*
X191784798Y-79144514D01*
X191695563Y-79092682D01*
X191674079Y-79080203D01*
X191674078Y-79080202D01*
X191667681Y-79076487D01*
X191660475Y-79074817D01*
X191660473Y-79074816D01*
X191617713Y-79064905D01*
X191535738Y-79045904D01*
X191400636Y-79055470D01*
X191379337Y-79063710D01*
X191281222Y-79101667D01*
X191281220Y-79101668D01*
X191274319Y-79104338D01*
X191212278Y-79153247D01*
X191150990Y-79174500D01*
X189618284Y-79174500D01*
X189609656Y-79174123D01*
X189608525Y-79174024D01*
X189571194Y-79170758D01*
X189533658Y-79180816D01*
X189525233Y-79182683D01*
X189520001Y-79183606D01*
X189495490Y-79187928D01*
X189495489Y-79187928D01*
X189486962Y-79189432D01*
X189479463Y-79193761D01*
X189473994Y-79195752D01*
X189468694Y-79198224D01*
X189460325Y-79200466D01*
X189453230Y-79205434D01*
X189453228Y-79205435D01*
X189428497Y-79222752D01*
X189421215Y-79227391D01*
X189387559Y-79246822D01*
X189367673Y-79270521D01*
X189362742Y-79276398D01*
X189356907Y-79282766D01*
X188182766Y-80456907D01*
X188176399Y-80462741D01*
X188146822Y-80487559D01*
X188128192Y-80519827D01*
X188127397Y-80521204D01*
X188122758Y-80528486D01*
X188109279Y-80547737D01*
X188100465Y-80560325D01*
X188098223Y-80568694D01*
X188095757Y-80573983D01*
X188093763Y-80579461D01*
X188089432Y-80586962D01*
X188087928Y-80595490D01*
X188087928Y-80595491D01*
X188082685Y-80625226D01*
X188080816Y-80633658D01*
X188070758Y-80671195D01*
X188072138Y-80686962D01*
X188072611Y-80692370D01*
X188058848Y-80751987D01*
X188012672Y-80792129D01*
X187973988Y-80800000D01*
X186699000Y-80800000D01*
X186640809Y-80781093D01*
X186604845Y-80731593D01*
X186600000Y-80701000D01*
X186600000Y-78086056D01*
X186618907Y-78027865D01*
X186668407Y-77991901D01*
X186686592Y-77987837D01*
X186882033Y-77963147D01*
X186891933Y-77962398D01*
X186892204Y-77962391D01*
X186892891Y-77962374D01*
X186892893Y-77962374D01*
X186898487Y-77962232D01*
X186903912Y-77960839D01*
X186907153Y-77960388D01*
X186907428Y-77960336D01*
X186910850Y-77959506D01*
X186916361Y-77958810D01*
X186921582Y-77956905D01*
X186921584Y-77956904D01*
X186922553Y-77956550D01*
X186931876Y-77953659D01*
X186947861Y-77949555D01*
X187030302Y-77928388D01*
X187212015Y-77881733D01*
X187221740Y-77879750D01*
X187222688Y-77879606D01*
X187222696Y-77879604D01*
X187228222Y-77878763D01*
X187233424Y-77876703D01*
X187236591Y-77875847D01*
X187236849Y-77875764D01*
X187240149Y-77874509D01*
X187245527Y-77873128D01*
X187251399Y-77870104D01*
X187260275Y-77866072D01*
X187529185Y-77759603D01*
X187538592Y-77756415D01*
X187539505Y-77756156D01*
X187539510Y-77756154D01*
X187544896Y-77754625D01*
X187549804Y-77751927D01*
X187552840Y-77750680D01*
X187553062Y-77750576D01*
X187556191Y-77748911D01*
X187561358Y-77746865D01*
X187565942Y-77743721D01*
X187565945Y-77743719D01*
X187566805Y-77743129D01*
X187575102Y-77738019D01*
X187828563Y-77598679D01*
X187837476Y-77594346D01*
X187843515Y-77591776D01*
X187848046Y-77588484D01*
X187850906Y-77586864D01*
X187851114Y-77586732D01*
X187854003Y-77584692D01*
X187858875Y-77582014D01*
X187863030Y-77578319D01*
X187863035Y-77578315D01*
X187863804Y-77577631D01*
X187871406Y-77571512D01*
X188105393Y-77401510D01*
X188113711Y-77396083D01*
X188114533Y-77395604D01*
X188114535Y-77395602D01*
X188119368Y-77392784D01*
X188123448Y-77388952D01*
X188126058Y-77387005D01*
X188126295Y-77386809D01*
X188128885Y-77384442D01*
X188133383Y-77381174D01*
X188137727Y-77376203D01*
X188144502Y-77369181D01*
X188174924Y-77340613D01*
X188355334Y-77171196D01*
X188362895Y-77164778D01*
X188368105Y-77160788D01*
X188371671Y-77156478D01*
X188374029Y-77154207D01*
X188374230Y-77153992D01*
X188376508Y-77151313D01*
X188380554Y-77147513D01*
X188384242Y-77142036D01*
X188390077Y-77134229D01*
X188574447Y-76911364D01*
X188581132Y-76904063D01*
X188585805Y-76899446D01*
X188588806Y-76894718D01*
X188590855Y-76892176D01*
X188591028Y-76891938D01*
X188592950Y-76888997D01*
X188596492Y-76884716D01*
X188599465Y-76878818D01*
X188604281Y-76870332D01*
X188614265Y-76854601D01*
X188759249Y-76626141D01*
X188764978Y-76618042D01*
X188769032Y-76612881D01*
X188771418Y-76607811D01*
X188773138Y-76605023D01*
X188773272Y-76604779D01*
X188774812Y-76601618D01*
X188777789Y-76596927D01*
X188779997Y-76590708D01*
X188783711Y-76581686D01*
X188866085Y-76406633D01*
X188906860Y-76319984D01*
X188911524Y-76311240D01*
X188914900Y-76305609D01*
X188916632Y-76300278D01*
X188917988Y-76297299D01*
X188918091Y-76297040D01*
X188919223Y-76293709D01*
X188921588Y-76288684D01*
X188923000Y-76282234D01*
X188925553Y-76272820D01*
X188926443Y-76270083D01*
X189014928Y-75997752D01*
X189018463Y-75988485D01*
X189021105Y-75982479D01*
X189022154Y-75976981D01*
X189023124Y-75973861D01*
X189023190Y-75973605D01*
X189023900Y-75970138D01*
X189025619Y-75964848D01*
X189026211Y-75958276D01*
X189027566Y-75948607D01*
X189053254Y-75813946D01*
X189082730Y-75760329D01*
X189138092Y-75734278D01*
X189198194Y-75745743D01*
X189240078Y-75790345D01*
X189249500Y-75832497D01*
X189249500Y-77268123D01*
X189248814Y-77279759D01*
X189244725Y-77314308D01*
X189246054Y-77321585D01*
X189246054Y-77321588D01*
X189249529Y-77340613D01*
X189254747Y-77369181D01*
X189255337Y-77372414D01*
X189255846Y-77375471D01*
X189256704Y-77381174D01*
X189262390Y-77418993D01*
X189264636Y-77433935D01*
X189267761Y-77440443D01*
X189269058Y-77447545D01*
X189272469Y-77454111D01*
X189272469Y-77454112D01*
X189296293Y-77499975D01*
X189297682Y-77502754D01*
X189323265Y-77556029D01*
X189327368Y-77560468D01*
X189328892Y-77562729D01*
X189331493Y-77567736D01*
X189336525Y-77573628D01*
X189374952Y-77612055D01*
X189377645Y-77614857D01*
X189415202Y-77655486D01*
X189421077Y-77658899D01*
X189427958Y-77665061D01*
X190308919Y-78546023D01*
X190316661Y-78554737D01*
X190332674Y-78575049D01*
X190338189Y-78582045D01*
X190358285Y-78595934D01*
X190386783Y-78615631D01*
X190389312Y-78617438D01*
X190424499Y-78643427D01*
X190436858Y-78652555D01*
X190443668Y-78654946D01*
X190449608Y-78659052D01*
X190456661Y-78661283D01*
X190456666Y-78661285D01*
X190494441Y-78673231D01*
X190505971Y-78676878D01*
X190508856Y-78677840D01*
X190564648Y-78697432D01*
X190570688Y-78697669D01*
X190573367Y-78698191D01*
X190578744Y-78699892D01*
X190584365Y-78700334D01*
X190584368Y-78700335D01*
X190584454Y-78700341D01*
X190586469Y-78700500D01*
X190640787Y-78700500D01*
X190644673Y-78700576D01*
X190692590Y-78702459D01*
X190692593Y-78702459D01*
X190699984Y-78702749D01*
X190706551Y-78701008D01*
X190715776Y-78700500D01*
X206568123Y-78700500D01*
X206579759Y-78701186D01*
X206614308Y-78705275D01*
X206621585Y-78703946D01*
X206621588Y-78703946D01*
X206655704Y-78697715D01*
X206672435Y-78694659D01*
X206675471Y-78694154D01*
X206733935Y-78685364D01*
X206740443Y-78682239D01*
X206747545Y-78680942D01*
X206754478Y-78677341D01*
X206799975Y-78653707D01*
X206802756Y-78652317D01*
X206837978Y-78635403D01*
X206856029Y-78626735D01*
X206860468Y-78622632D01*
X206862729Y-78621108D01*
X206867736Y-78618507D01*
X206873628Y-78613475D01*
X206912054Y-78575049D01*
X206914857Y-78572355D01*
X206950051Y-78539822D01*
X206955486Y-78534798D01*
X206958899Y-78528923D01*
X206965061Y-78522042D01*
X207632607Y-77854496D01*
X207687124Y-77826719D01*
X207702611Y-77825500D01*
X208233258Y-77825500D01*
X208269697Y-77820022D01*
X208326614Y-77811465D01*
X208326616Y-77811464D01*
X208333935Y-77810364D01*
X208340606Y-77807161D01*
X208340608Y-77807160D01*
X208449361Y-77754937D01*
X208456029Y-77751735D01*
X208555486Y-77659798D01*
X208594424Y-77592762D01*
X208619795Y-77549083D01*
X208619796Y-77549080D01*
X208623513Y-77542681D01*
X208643100Y-77458177D01*
X208649225Y-77431754D01*
X208649225Y-77431751D01*
X208650500Y-77426252D01*
X208650500Y-77325300D01*
X208669407Y-77267109D01*
X208718907Y-77231145D01*
X208728424Y-77229209D01*
X208728805Y-77229242D01*
X208766342Y-77219184D01*
X208774774Y-77217315D01*
X208804509Y-77212072D01*
X208804510Y-77212072D01*
X208813038Y-77210568D01*
X208820539Y-77206237D01*
X208826017Y-77204243D01*
X208831306Y-77201777D01*
X208839675Y-77199535D01*
X208846772Y-77194566D01*
X208871514Y-77177242D01*
X208878796Y-77172603D01*
X208904938Y-77157510D01*
X208912441Y-77153178D01*
X208920491Y-77143585D01*
X208937259Y-77123601D01*
X208943093Y-77117234D01*
X209117221Y-76943105D01*
X209123589Y-76937269D01*
X209146543Y-76918009D01*
X209146545Y-76918007D01*
X209153178Y-76912441D01*
X209172610Y-76878784D01*
X209177249Y-76871503D01*
X209178069Y-76870332D01*
X209199535Y-76839675D01*
X209201777Y-76831307D01*
X209204244Y-76826018D01*
X209206239Y-76820536D01*
X209210568Y-76813038D01*
X209212655Y-76801207D01*
X209217313Y-76774785D01*
X209219183Y-76766352D01*
X209227002Y-76737172D01*
X209227002Y-76737167D01*
X209229243Y-76728805D01*
X209225877Y-76690335D01*
X209225500Y-76681707D01*
X209225500Y-73451007D01*
X209244407Y-73392816D01*
X209252866Y-73382672D01*
X209255179Y-73380247D01*
X209272667Y-73361915D01*
X209321827Y-73263530D01*
X209329899Y-73247376D01*
X209329900Y-73247374D01*
X209333206Y-73240757D01*
X209349982Y-73139971D01*
X209354804Y-73111001D01*
X209354804Y-73110999D01*
X209355444Y-73107155D01*
X209355500Y-73100000D01*
X209354589Y-73093935D01*
X209336465Y-72973386D01*
X209336464Y-72973384D01*
X209335364Y-72966065D01*
X209290109Y-72871821D01*
X209279937Y-72850639D01*
X209276735Y-72843971D01*
X209184798Y-72744514D01*
X209092779Y-72691065D01*
X209074079Y-72680203D01*
X209074078Y-72680202D01*
X209067681Y-72676487D01*
X209060475Y-72674817D01*
X209060473Y-72674816D01*
X209016108Y-72664533D01*
X208935738Y-72645904D01*
X208800636Y-72655470D01*
X208762767Y-72670120D01*
X208701677Y-72673483D01*
X208650275Y-72640294D01*
X208629951Y-72597104D01*
X208629437Y-72594519D01*
X208619857Y-72546359D01*
X208575310Y-72479690D01*
X208508641Y-72435143D01*
X208499078Y-72433241D01*
X208499076Y-72433240D01*
X208470630Y-72427582D01*
X208430000Y-72419500D01*
X208324850Y-72419500D01*
X208266659Y-72400593D01*
X208229224Y-72346124D01*
X208219185Y-72308659D01*
X208217315Y-72300226D01*
X208212072Y-72270491D01*
X208212072Y-72270490D01*
X208210568Y-72261962D01*
X208206237Y-72254461D01*
X208204241Y-72248978D01*
X208201777Y-72243694D01*
X208199535Y-72235325D01*
X208177248Y-72203495D01*
X208172609Y-72196214D01*
X208166636Y-72185869D01*
X208153178Y-72162559D01*
X208146545Y-72156993D01*
X208146543Y-72156991D01*
X208123595Y-72137736D01*
X208117227Y-72131901D01*
X207831625Y-71846299D01*
X207803848Y-71791782D01*
X207805635Y-71760443D01*
X207804410Y-71760288D01*
X207805313Y-71753137D01*
X207810500Y-71712080D01*
X207810500Y-71297460D01*
X207796468Y-71213157D01*
X207741425Y-71111144D01*
X207656305Y-71032460D01*
X207648823Y-71029152D01*
X207648821Y-71029151D01*
X207556877Y-70988503D01*
X207550288Y-70985590D01*
X207502080Y-70979500D01*
X207137460Y-70979500D01*
X207053157Y-70993532D01*
X206951144Y-71048575D01*
X206872460Y-71133695D01*
X206869152Y-71141177D01*
X206869151Y-71141179D01*
X206844891Y-71196055D01*
X206825590Y-71239712D01*
X206819501Y-71287911D01*
X206793452Y-71343269D01*
X206739835Y-71372746D01*
X206721283Y-71374500D01*
X204077206Y-71374500D01*
X204019015Y-71355593D01*
X203983051Y-71306093D01*
X203979553Y-71291770D01*
X203966468Y-71213157D01*
X203911425Y-71111144D01*
X203826305Y-71032460D01*
X203818823Y-71029152D01*
X203818821Y-71029151D01*
X203726877Y-70988503D01*
X203720288Y-70985590D01*
X203672080Y-70979500D01*
X203307460Y-70979500D01*
X203223157Y-70993532D01*
X203121144Y-71048575D01*
X203091105Y-71081071D01*
X203074348Y-71099199D01*
X203020964Y-71129096D01*
X202960203Y-71121904D01*
X202934451Y-71104697D01*
X202896542Y-71069655D01*
X202862314Y-71038014D01*
X202862312Y-71038012D01*
X202856305Y-71032460D01*
X202848823Y-71029152D01*
X202848821Y-71029151D01*
X202756877Y-70988503D01*
X202750288Y-70985590D01*
X202702080Y-70979500D01*
X202337460Y-70979500D01*
X202253157Y-70993532D01*
X202151144Y-71048575D01*
X202072460Y-71133695D01*
X202072152Y-71133410D01*
X202028839Y-71168109D01*
X201993846Y-71174500D01*
X201818284Y-71174500D01*
X201809656Y-71174123D01*
X201808525Y-71174024D01*
X201771194Y-71170758D01*
X201733654Y-71180817D01*
X201725225Y-71182685D01*
X201686962Y-71189432D01*
X201679463Y-71193761D01*
X201673974Y-71195759D01*
X201668689Y-71198224D01*
X201660325Y-71200465D01*
X201642199Y-71213157D01*
X201628486Y-71222758D01*
X201621205Y-71227396D01*
X201587559Y-71246822D01*
X201562742Y-71276398D01*
X201556907Y-71282766D01*
X201221024Y-71618649D01*
X201161884Y-71647047D01*
X201157407Y-71647541D01*
X201150016Y-71647251D01*
X201142866Y-71649147D01*
X201142864Y-71649147D01*
X201134758Y-71651296D01*
X201116381Y-71654355D01*
X201108017Y-71654947D01*
X201108015Y-71654947D01*
X201100636Y-71655470D01*
X201093737Y-71658139D01*
X201093732Y-71658140D01*
X201065674Y-71668995D01*
X201055329Y-71672356D01*
X201019099Y-71681963D01*
X201012823Y-71685877D01*
X201012821Y-71685878D01*
X201010235Y-71687491D01*
X201005708Y-71690315D01*
X200989039Y-71698643D01*
X200981221Y-71701667D01*
X200981216Y-71701670D01*
X200974319Y-71704338D01*
X200944881Y-71727545D01*
X200935987Y-71733796D01*
X200904176Y-71753635D01*
X200899326Y-71759225D01*
X200899323Y-71759227D01*
X200893831Y-71765557D01*
X200880346Y-71778421D01*
X200867955Y-71788189D01*
X200849089Y-71815487D01*
X200846649Y-71819017D01*
X200839981Y-71827613D01*
X200824942Y-71844945D01*
X200815409Y-71855931D01*
X200809188Y-71870004D01*
X200809029Y-71870363D01*
X200799924Y-71886620D01*
X200795158Y-71893516D01*
X200795157Y-71893519D01*
X200790948Y-71899608D01*
X200780488Y-71932685D01*
X200779648Y-71935340D01*
X200775802Y-71945519D01*
X200771727Y-71954737D01*
X200760644Y-71979805D01*
X200759775Y-71987147D01*
X200759774Y-71987151D01*
X200758789Y-71995479D01*
X200754866Y-72013699D01*
X200752339Y-72021687D01*
X200752338Y-72021692D01*
X200750108Y-72028744D01*
X200749851Y-72061571D01*
X200749814Y-72066225D01*
X200749131Y-72077081D01*
X200744725Y-72114308D01*
X200746055Y-72121590D01*
X200747560Y-72129833D01*
X200749168Y-72148397D01*
X200749044Y-72164181D01*
X200755381Y-72185369D01*
X200759784Y-72200094D01*
X200762323Y-72210670D01*
X200769058Y-72247545D01*
X200772469Y-72254112D01*
X200772470Y-72254114D01*
X200776335Y-72261554D01*
X200783330Y-72278823D01*
X200787851Y-72293942D01*
X200790477Y-72297872D01*
X200799500Y-72338242D01*
X200799500Y-72359440D01*
X200780593Y-72417631D01*
X200756147Y-72441321D01*
X200750645Y-72445060D01*
X200743971Y-72448265D01*
X200644514Y-72540202D01*
X200617847Y-72586112D01*
X200580205Y-72650917D01*
X200580204Y-72650920D01*
X200576487Y-72657319D01*
X200574815Y-72664533D01*
X200551402Y-72765544D01*
X200549500Y-72773748D01*
X200549500Y-74679570D01*
X200546943Y-74701924D01*
X200528884Y-74779837D01*
X200524500Y-74798749D01*
X200524500Y-76583257D01*
X200525050Y-76586914D01*
X200538321Y-76675185D01*
X200539636Y-76683935D01*
X200542839Y-76690606D01*
X200542840Y-76690608D01*
X200588774Y-76786264D01*
X200598265Y-76806029D01*
X200690202Y-76905486D01*
X200807320Y-76973513D01*
X200845239Y-76982302D01*
X200918247Y-76999225D01*
X200918250Y-76999225D01*
X200923749Y-77000500D01*
X201933257Y-77000500D01*
X201986282Y-76992528D01*
X202046636Y-77002574D01*
X202089560Y-77046177D01*
X202095049Y-77069442D01*
X202095155Y-77069408D01*
X202100000Y-77084319D01*
X202100000Y-77100000D01*
X204801000Y-77100000D01*
X204859191Y-77118907D01*
X204895155Y-77168407D01*
X204900000Y-77199000D01*
X204900000Y-77700500D01*
X204881093Y-77758691D01*
X204831593Y-77794655D01*
X204801000Y-77799500D01*
X190877611Y-77799500D01*
X190819420Y-77780593D01*
X190807607Y-77770504D01*
X190179496Y-77142392D01*
X190151719Y-77087875D01*
X190150500Y-77072388D01*
X190150500Y-76754418D01*
X190169407Y-76696227D01*
X190218907Y-76660263D01*
X190280093Y-76660263D01*
X190299220Y-76668809D01*
X190300914Y-76669793D01*
X190300919Y-76669795D01*
X190307320Y-76673513D01*
X190320699Y-76676614D01*
X190418247Y-76699225D01*
X190418250Y-76699225D01*
X190423749Y-76700500D01*
X191433257Y-76700500D01*
X191469611Y-76695034D01*
X191526614Y-76686465D01*
X191526616Y-76686464D01*
X191533935Y-76685364D01*
X191540606Y-76682161D01*
X191540608Y-76682160D01*
X191656029Y-76626735D01*
X191657219Y-76629213D01*
X191704111Y-76615590D01*
X191761679Y-76636316D01*
X191796069Y-76686922D01*
X191800000Y-76714541D01*
X191800000Y-77300000D01*
X196900000Y-77300000D01*
X196900000Y-76167532D01*
X196918907Y-76109341D01*
X196968407Y-76073377D01*
X197029593Y-76073377D01*
X197069004Y-76097528D01*
X197420504Y-76449028D01*
X197448281Y-76503545D01*
X197449500Y-76519032D01*
X197449500Y-76908258D01*
X197453769Y-76936651D01*
X197459311Y-76973513D01*
X197464636Y-77008935D01*
X197467839Y-77015606D01*
X197467840Y-77015608D01*
X197504200Y-77091327D01*
X197523265Y-77131029D01*
X197615202Y-77230486D01*
X197658184Y-77255452D01*
X197725917Y-77294795D01*
X197725920Y-77294796D01*
X197732319Y-77298513D01*
X197768762Y-77306960D01*
X197843246Y-77324225D01*
X197843249Y-77324225D01*
X197848748Y-77325500D01*
X198433258Y-77325500D01*
X198473400Y-77319465D01*
X198526614Y-77311465D01*
X198526616Y-77311464D01*
X198533935Y-77310364D01*
X198540606Y-77307161D01*
X198540608Y-77307160D01*
X198649361Y-77254937D01*
X198656029Y-77251735D01*
X198755486Y-77159798D01*
X198789397Y-77101416D01*
X198819795Y-77049083D01*
X198819796Y-77049080D01*
X198823513Y-77042681D01*
X198835138Y-76992528D01*
X198849225Y-76931754D01*
X198849225Y-76931751D01*
X198850500Y-76926252D01*
X198850500Y-76150835D01*
X198869407Y-76092644D01*
X198879496Y-76080831D01*
X199028915Y-75931412D01*
X199078891Y-75905949D01*
X199078601Y-75904601D01*
X199203769Y-75877654D01*
X199203772Y-75877653D01*
X199211008Y-75876095D01*
X199218526Y-75871885D01*
X199322724Y-75813531D01*
X199329179Y-75809916D01*
X199422667Y-75711915D01*
X199464099Y-75628997D01*
X199479899Y-75597376D01*
X199479900Y-75597374D01*
X199483206Y-75590757D01*
X199501308Y-75482006D01*
X199504804Y-75461001D01*
X199504804Y-75460999D01*
X199505444Y-75457155D01*
X199505500Y-75450000D01*
X199504018Y-75440137D01*
X199486465Y-75323386D01*
X199486464Y-75323384D01*
X199485364Y-75316065D01*
X199480799Y-75306557D01*
X199429937Y-75200639D01*
X199426735Y-75193971D01*
X199334798Y-75094514D01*
X199232110Y-75034868D01*
X199224079Y-75030203D01*
X199224078Y-75030202D01*
X199217681Y-75026487D01*
X199210475Y-75024817D01*
X199210473Y-75024816D01*
X199155616Y-75012101D01*
X199085738Y-74995904D01*
X198950636Y-75005470D01*
X198933496Y-75012101D01*
X198831222Y-75051667D01*
X198831220Y-75051668D01*
X198824319Y-75054338D01*
X198802840Y-75071271D01*
X198743126Y-75118346D01*
X198717955Y-75138189D01*
X198713748Y-75144276D01*
X198713747Y-75144277D01*
X198645683Y-75242757D01*
X198640948Y-75249608D01*
X198632611Y-75275971D01*
X198609191Y-75350025D01*
X198600108Y-75378744D01*
X198600050Y-75386143D01*
X198598892Y-75393453D01*
X198597384Y-75393214D01*
X198580690Y-75443242D01*
X198530908Y-75478813D01*
X198478707Y-75480863D01*
X198456757Y-75475775D01*
X198456748Y-75475774D01*
X198451252Y-75474500D01*
X198044032Y-75474500D01*
X197985841Y-75455593D01*
X197974028Y-75445504D01*
X197969496Y-75440972D01*
X197941719Y-75386455D01*
X197940500Y-75370968D01*
X197940500Y-75023030D01*
X197959407Y-74964839D01*
X197997035Y-74935177D01*
X197998641Y-74934857D01*
X198065310Y-74890310D01*
X198109857Y-74823641D01*
X198113928Y-74803178D01*
X198117952Y-74782945D01*
X198125500Y-74745000D01*
X198125500Y-74095000D01*
X198116591Y-74050213D01*
X198111760Y-74025924D01*
X198111759Y-74025922D01*
X198109857Y-74016359D01*
X198104437Y-74008247D01*
X198098927Y-74000000D01*
X198082319Y-73941112D01*
X198098927Y-73890000D01*
X198104437Y-73881753D01*
X198104437Y-73881752D01*
X198109857Y-73873641D01*
X198112532Y-73860196D01*
X198124298Y-73801042D01*
X198125500Y-73795000D01*
X198125500Y-73145000D01*
X198109857Y-73066359D01*
X198103642Y-73057057D01*
X198098927Y-73050000D01*
X198082319Y-72991112D01*
X198098927Y-72940000D01*
X198104437Y-72931753D01*
X198104437Y-72931752D01*
X198109857Y-72923641D01*
X198125500Y-72845000D01*
X198125500Y-72195000D01*
X198115547Y-72144966D01*
X198111760Y-72125924D01*
X198111759Y-72125922D01*
X198109857Y-72116359D01*
X198065310Y-72049690D01*
X197998641Y-72005143D01*
X197989078Y-72003241D01*
X197989076Y-72003240D01*
X197956809Y-71996822D01*
X197920000Y-71989500D01*
X197802601Y-71989500D01*
X197744410Y-71970593D01*
X197708446Y-71921093D01*
X197705105Y-71907692D01*
X197702072Y-71890491D01*
X197702072Y-71890490D01*
X197700568Y-71881962D01*
X197696237Y-71874461D01*
X197694241Y-71868978D01*
X197691777Y-71863694D01*
X197689535Y-71855325D01*
X197667248Y-71823495D01*
X197662609Y-71816214D01*
X197653304Y-71800098D01*
X197643178Y-71782559D01*
X197636545Y-71776993D01*
X197636543Y-71776991D01*
X197613595Y-71757736D01*
X197607227Y-71751901D01*
X197325104Y-71469778D01*
X197297327Y-71415261D01*
X197299719Y-71373279D01*
X197301497Y-71366876D01*
X197304410Y-71360288D01*
X197310500Y-71312080D01*
X197310500Y-70897460D01*
X197296468Y-70813157D01*
X197241425Y-70711144D01*
X197156305Y-70632460D01*
X197148823Y-70629152D01*
X197148821Y-70629151D01*
X197056877Y-70588503D01*
X197050288Y-70585590D01*
X197002080Y-70579500D01*
X196637460Y-70579500D01*
X196553157Y-70593532D01*
X196451144Y-70648575D01*
X196372460Y-70733695D01*
X196369152Y-70741177D01*
X196369151Y-70741179D01*
X196337962Y-70811728D01*
X196325590Y-70839712D01*
X196319500Y-70887920D01*
X196319500Y-70975500D01*
X196300593Y-71033691D01*
X196251093Y-71069655D01*
X196220500Y-71074500D01*
X194356797Y-71074500D01*
X194298606Y-71055593D01*
X194267036Y-71012851D01*
X194266468Y-71013157D01*
X194264316Y-71009168D01*
X194264315Y-71009166D01*
X194260256Y-71001643D01*
X194238092Y-70960567D01*
X194211425Y-70911144D01*
X194126305Y-70832460D01*
X194118823Y-70829152D01*
X194118821Y-70829151D01*
X194026877Y-70788503D01*
X194020288Y-70785590D01*
X193972080Y-70779500D01*
X193607460Y-70779500D01*
X193523157Y-70793532D01*
X193421144Y-70848575D01*
X193374348Y-70899199D01*
X193320964Y-70929096D01*
X193260203Y-70921904D01*
X193234451Y-70904697D01*
X193201882Y-70874591D01*
X193162314Y-70838014D01*
X193162312Y-70838012D01*
X193156305Y-70832460D01*
X193148823Y-70829152D01*
X193148821Y-70829151D01*
X193056877Y-70788503D01*
X193050288Y-70785590D01*
X193002080Y-70779500D01*
X192637460Y-70779500D01*
X192553157Y-70793532D01*
X192451144Y-70848575D01*
X192372460Y-70933695D01*
X192369152Y-70941177D01*
X192369151Y-70941179D01*
X192339605Y-71008011D01*
X192325590Y-71039712D01*
X192319500Y-71087920D01*
X192319500Y-71125500D01*
X192300593Y-71183691D01*
X192251093Y-71219655D01*
X192220500Y-71224500D01*
X192099500Y-71224500D01*
X192041309Y-71205593D01*
X192005345Y-71156093D01*
X192000500Y-71125500D01*
X192000500Y-69577611D01*
X192019407Y-69519420D01*
X192029496Y-69507607D01*
X192096018Y-69441085D01*
X192104724Y-69433349D01*
X192132045Y-69411811D01*
X192165655Y-69363181D01*
X192167436Y-69360690D01*
X192198158Y-69319097D01*
X192198160Y-69319093D01*
X192202555Y-69313143D01*
X192204947Y-69306331D01*
X192209052Y-69300392D01*
X192226875Y-69244035D01*
X192227843Y-69241132D01*
X192247431Y-69185352D01*
X192247668Y-69179319D01*
X192248191Y-69176634D01*
X192249892Y-69171256D01*
X192250500Y-69163531D01*
X192250500Y-69109203D01*
X192250576Y-69105316D01*
X192250769Y-69100399D01*
X192252749Y-69050016D01*
X192251008Y-69043449D01*
X192250500Y-69034224D01*
X192250500Y-68051951D01*
X192269407Y-67993760D01*
X192285204Y-67976671D01*
X192312444Y-67953405D01*
X192319316Y-67947536D01*
X192328320Y-67935006D01*
X192414750Y-67814726D01*
X192414751Y-67814724D01*
X192418234Y-67809877D01*
X192421807Y-67800991D01*
X192479237Y-67658130D01*
X192479238Y-67658128D01*
X192481461Y-67652597D01*
X192483040Y-67641507D01*
X192504889Y-67487981D01*
X192504889Y-67487977D01*
X192505345Y-67484775D01*
X192505500Y-67470000D01*
X192504606Y-67462612D01*
X194294539Y-67462612D01*
X194295194Y-67468545D01*
X194295194Y-67468549D01*
X194312485Y-67625172D01*
X194313140Y-67631102D01*
X194315189Y-67636702D01*
X194315190Y-67636705D01*
X194326090Y-67666489D01*
X194371395Y-67790290D01*
X194374720Y-67795238D01*
X194374721Y-67795240D01*
X194401216Y-67834668D01*
X194465940Y-67930988D01*
X194470352Y-67935003D01*
X194470355Y-67935006D01*
X194572256Y-68027729D01*
X194591317Y-68045073D01*
X194596566Y-68047923D01*
X194729350Y-68120018D01*
X194740288Y-68125957D01*
X194746058Y-68127471D01*
X194746061Y-68127472D01*
X194898474Y-68167457D01*
X194904253Y-68168973D01*
X194910222Y-68169067D01*
X194910224Y-68169067D01*
X194973307Y-68170058D01*
X195073745Y-68171635D01*
X195079561Y-68170303D01*
X195233157Y-68135125D01*
X195233160Y-68135124D01*
X195238980Y-68133791D01*
X195249045Y-68128729D01*
X195385084Y-68060309D01*
X195385086Y-68060308D01*
X195390418Y-68057626D01*
X195439832Y-68015422D01*
X195514781Y-67951410D01*
X195514784Y-67951407D01*
X195519316Y-67947536D01*
X195528320Y-67935006D01*
X195614750Y-67814726D01*
X195614751Y-67814724D01*
X195618234Y-67809877D01*
X195621807Y-67800991D01*
X195679237Y-67658130D01*
X195679238Y-67658128D01*
X195681461Y-67652597D01*
X195683040Y-67641507D01*
X195704889Y-67487981D01*
X195704889Y-67487977D01*
X195705345Y-67484775D01*
X195705500Y-67470000D01*
X195691837Y-67357098D01*
X195685852Y-67307637D01*
X195685851Y-67307634D01*
X195685135Y-67301715D01*
X195625217Y-67143145D01*
X195619187Y-67134370D01*
X195532583Y-67008362D01*
X195529203Y-67003444D01*
X195430878Y-66915840D01*
X195407092Y-66894647D01*
X195407090Y-66894646D01*
X195402638Y-66890679D01*
X195372123Y-66874522D01*
X195258103Y-66814151D01*
X195258100Y-66814150D01*
X195252829Y-66811359D01*
X195168990Y-66790300D01*
X195094213Y-66771517D01*
X195094210Y-66771517D01*
X195088423Y-66770063D01*
X195002734Y-66769615D01*
X194924878Y-66769207D01*
X194924876Y-66769207D01*
X194918912Y-66769176D01*
X194830924Y-66790300D01*
X194769390Y-66805073D01*
X194754082Y-66808748D01*
X194726706Y-66822878D01*
X194608756Y-66883756D01*
X194608754Y-66883758D01*
X194603450Y-66886495D01*
X194598955Y-66890417D01*
X194598951Y-66890419D01*
X194542918Y-66939300D01*
X194475711Y-66997928D01*
X194472282Y-67002807D01*
X194406982Y-67095720D01*
X194378240Y-67136615D01*
X194376073Y-67142173D01*
X194376072Y-67142175D01*
X194320186Y-67285519D01*
X194316665Y-67294549D01*
X194294539Y-67462612D01*
X192504606Y-67462612D01*
X192491837Y-67357098D01*
X192485852Y-67307637D01*
X192485851Y-67307634D01*
X192485135Y-67301715D01*
X192425217Y-67143145D01*
X192419187Y-67134370D01*
X192332583Y-67008362D01*
X192329203Y-67003444D01*
X192230878Y-66915840D01*
X192207092Y-66894647D01*
X192207090Y-66894646D01*
X192202638Y-66890679D01*
X192172123Y-66874522D01*
X192058103Y-66814151D01*
X192058100Y-66814150D01*
X192052829Y-66811359D01*
X191968990Y-66790300D01*
X191894213Y-66771517D01*
X191894210Y-66771517D01*
X191888423Y-66770063D01*
X191802734Y-66769615D01*
X191724878Y-66769207D01*
X191724876Y-66769207D01*
X191718912Y-66769176D01*
X191630924Y-66790300D01*
X191569390Y-66805073D01*
X191554082Y-66808748D01*
X191526706Y-66822878D01*
X191408756Y-66883756D01*
X191408754Y-66883758D01*
X191403450Y-66886495D01*
X191398955Y-66890417D01*
X191398951Y-66890419D01*
X191342918Y-66939300D01*
X191275711Y-66997928D01*
X191272282Y-67002807D01*
X191206982Y-67095720D01*
X191178240Y-67136615D01*
X191176073Y-67142173D01*
X191176072Y-67142175D01*
X191120186Y-67285519D01*
X191116665Y-67294549D01*
X191094539Y-67462612D01*
X191095194Y-67468545D01*
X191095194Y-67468549D01*
X191112485Y-67625172D01*
X191113140Y-67631102D01*
X191115189Y-67636702D01*
X191115190Y-67636705D01*
X191126090Y-67666489D01*
X191171395Y-67790290D01*
X191174720Y-67795238D01*
X191174721Y-67795240D01*
X191201216Y-67834668D01*
X191265940Y-67930988D01*
X191317130Y-67977567D01*
X191347443Y-68030714D01*
X191349500Y-68050789D01*
X191349500Y-68872388D01*
X191330593Y-68930579D01*
X191320504Y-68942392D01*
X191253977Y-69008919D01*
X191245263Y-69016661D01*
X191224914Y-69032703D01*
X191217955Y-69038189D01*
X191201586Y-69061873D01*
X191184369Y-69086783D01*
X191182562Y-69089312D01*
X191151843Y-69130903D01*
X191147445Y-69136858D01*
X191145054Y-69143668D01*
X191140948Y-69149608D01*
X191138717Y-69156661D01*
X191138715Y-69156666D01*
X191123127Y-69205957D01*
X191122160Y-69208856D01*
X191102568Y-69264648D01*
X191102331Y-69270688D01*
X191101809Y-69273367D01*
X191100108Y-69278744D01*
X191099500Y-69286469D01*
X191099500Y-69340787D01*
X191099424Y-69344673D01*
X191097564Y-69392021D01*
X191097251Y-69399984D01*
X191098992Y-69406551D01*
X191099500Y-69415776D01*
X191099500Y-71100500D01*
X191080593Y-71158691D01*
X191031093Y-71194655D01*
X191000500Y-71199500D01*
X189931878Y-71199500D01*
X189920242Y-71198814D01*
X189912426Y-71197889D01*
X189885693Y-71194725D01*
X189870679Y-71197467D01*
X189868368Y-71197889D01*
X189850582Y-71199500D01*
X189727611Y-71199500D01*
X189669420Y-71180593D01*
X189657607Y-71170504D01*
X187779496Y-69292392D01*
X187751719Y-69237875D01*
X187750500Y-69222388D01*
X187750500Y-67000505D01*
X187769407Y-66942314D01*
X187779496Y-66930501D01*
X187950767Y-66759230D01*
X188005284Y-66731453D01*
X188065716Y-66741024D01*
X188087396Y-66756008D01*
X188141317Y-66805073D01*
X188153128Y-66811486D01*
X188274821Y-66877559D01*
X188290288Y-66885957D01*
X188296058Y-66887471D01*
X188296061Y-66887472D01*
X188448474Y-66927457D01*
X188454253Y-66928973D01*
X188460222Y-66929067D01*
X188460224Y-66929067D01*
X188523307Y-66930058D01*
X188623745Y-66931635D01*
X188629561Y-66930303D01*
X188783157Y-66895125D01*
X188783160Y-66895124D01*
X188788980Y-66893791D01*
X188803487Y-66886495D01*
X188935084Y-66820309D01*
X188935086Y-66820308D01*
X188940418Y-66817626D01*
X189003579Y-66763681D01*
X189064781Y-66711410D01*
X189064784Y-66711407D01*
X189069316Y-66707536D01*
X189073554Y-66701638D01*
X189164750Y-66574726D01*
X189164751Y-66574724D01*
X189168234Y-66569877D01*
X189170994Y-66563013D01*
X189229237Y-66418130D01*
X189229238Y-66418128D01*
X189231461Y-66412597D01*
X189238037Y-66366394D01*
X189254889Y-66247981D01*
X189254889Y-66247977D01*
X189255345Y-66244775D01*
X189255500Y-66230000D01*
X189235135Y-66061715D01*
X189175217Y-65903145D01*
X189157386Y-65877200D01*
X189082583Y-65768362D01*
X189079203Y-65763444D01*
X188952638Y-65650679D01*
X188868997Y-65606393D01*
X188808103Y-65574151D01*
X188808100Y-65574150D01*
X188802829Y-65571359D01*
X188718906Y-65550279D01*
X188644213Y-65531517D01*
X188644210Y-65531517D01*
X188638423Y-65530063D01*
X188552734Y-65529615D01*
X188474878Y-65529207D01*
X188474876Y-65529207D01*
X188468912Y-65529176D01*
X188304082Y-65568748D01*
X188249690Y-65596822D01*
X188158756Y-65643756D01*
X188158754Y-65643758D01*
X188153450Y-65646495D01*
X188148955Y-65650417D01*
X188148951Y-65650419D01*
X188028949Y-65755103D01*
X187972669Y-65779108D01*
X187963869Y-65779500D01*
X187874771Y-65779500D01*
X187863135Y-65778814D01*
X187861662Y-65778640D01*
X187828586Y-65774725D01*
X187821309Y-65776054D01*
X187821306Y-65776054D01*
X187790642Y-65781654D01*
X187770459Y-65785341D01*
X187767423Y-65785846D01*
X187708959Y-65794636D01*
X187702451Y-65797761D01*
X187695349Y-65799058D01*
X187688783Y-65802469D01*
X187688782Y-65802469D01*
X187642919Y-65826293D01*
X187640140Y-65827682D01*
X187586865Y-65853265D01*
X187582426Y-65857368D01*
X187580165Y-65858892D01*
X187575158Y-65861493D01*
X187569266Y-65866525D01*
X187530839Y-65904952D01*
X187528037Y-65907645D01*
X187487408Y-65945202D01*
X187483995Y-65951077D01*
X187477833Y-65957958D01*
X187003979Y-66431812D01*
X186995265Y-66439554D01*
X186967955Y-66461083D01*
X186959452Y-66473386D01*
X186934369Y-66509677D01*
X186932562Y-66512206D01*
X186901843Y-66553797D01*
X186897445Y-66559752D01*
X186895054Y-66566562D01*
X186890948Y-66572502D01*
X186888717Y-66579555D01*
X186888715Y-66579560D01*
X186873127Y-66628851D01*
X186872160Y-66631750D01*
X186852568Y-66687542D01*
X186852331Y-66693582D01*
X186851809Y-66696261D01*
X186850108Y-66701638D01*
X186849500Y-66709363D01*
X186849500Y-66763681D01*
X186849424Y-66767567D01*
X186847594Y-66814151D01*
X186847251Y-66822878D01*
X186848992Y-66829445D01*
X186849500Y-66838670D01*
X186849500Y-69418123D01*
X186848814Y-69429759D01*
X186844725Y-69464308D01*
X186846054Y-69471585D01*
X186846054Y-69471588D01*
X186851654Y-69502252D01*
X186855205Y-69521689D01*
X186855337Y-69522414D01*
X186855846Y-69525471D01*
X186864636Y-69583935D01*
X186867761Y-69590443D01*
X186869058Y-69597545D01*
X186872469Y-69604111D01*
X186872469Y-69604112D01*
X186896293Y-69649975D01*
X186897682Y-69652754D01*
X186923265Y-69706029D01*
X186927368Y-69710468D01*
X186928892Y-69712729D01*
X186931493Y-69717736D01*
X186936525Y-69723628D01*
X186974951Y-69762054D01*
X186977644Y-69764856D01*
X187015202Y-69805486D01*
X187021077Y-69808899D01*
X187027958Y-69815061D01*
X189158919Y-71946023D01*
X189166661Y-71954737D01*
X189183457Y-71976042D01*
X189188189Y-71982045D01*
X189203305Y-71992492D01*
X189206789Y-71994900D01*
X189243908Y-72043540D01*
X189249500Y-72076341D01*
X189249500Y-74767502D01*
X189230593Y-74825693D01*
X189181093Y-74861657D01*
X189119907Y-74861657D01*
X189070407Y-74825693D01*
X189053254Y-74786053D01*
X189049199Y-74764793D01*
X189027625Y-74651700D01*
X189026255Y-74641864D01*
X189026170Y-74640907D01*
X189025678Y-74635335D01*
X189023949Y-74630013D01*
X189023298Y-74626820D01*
X189023220Y-74626516D01*
X189022183Y-74623171D01*
X189021141Y-74617710D01*
X189018489Y-74611654D01*
X189015021Y-74602536D01*
X189003428Y-74566857D01*
X188925649Y-74327476D01*
X188923063Y-74317905D01*
X188921670Y-74311489D01*
X188919288Y-74306427D01*
X188918237Y-74303327D01*
X188918146Y-74303100D01*
X188916680Y-74299872D01*
X188914959Y-74294574D01*
X188911581Y-74288918D01*
X188906994Y-74280302D01*
X188783846Y-74018599D01*
X188780074Y-74009413D01*
X188779760Y-74008522D01*
X188779756Y-74008514D01*
X188777892Y-74003235D01*
X188774891Y-73998506D01*
X188773457Y-73995557D01*
X188773329Y-73995325D01*
X188771483Y-73992328D01*
X188769114Y-73987293D01*
X188765049Y-73982099D01*
X188759423Y-73974133D01*
X188753648Y-73965032D01*
X188644804Y-73793522D01*
X188604444Y-73729924D01*
X188599551Y-73721284D01*
X188599124Y-73720433D01*
X188599123Y-73720431D01*
X188596614Y-73715432D01*
X188593046Y-73711119D01*
X188591253Y-73708372D01*
X188591098Y-73708158D01*
X188588886Y-73705409D01*
X188585908Y-73700716D01*
X188581915Y-73696757D01*
X188581220Y-73696069D01*
X188574635Y-73688864D01*
X188554369Y-73664366D01*
X188390284Y-73466023D01*
X188384344Y-73458061D01*
X188384277Y-73457961D01*
X188380694Y-73452618D01*
X188376613Y-73448786D01*
X188374490Y-73446285D01*
X188374321Y-73446105D01*
X188371772Y-73443645D01*
X188368227Y-73439360D01*
X188363519Y-73435741D01*
X188362994Y-73435337D01*
X188355559Y-73429015D01*
X188144735Y-73231037D01*
X188137850Y-73223890D01*
X188137218Y-73223165D01*
X188133538Y-73218939D01*
X188129005Y-73215646D01*
X188126578Y-73213424D01*
X188126400Y-73213277D01*
X188123563Y-73211156D01*
X188119508Y-73207348D01*
X188114711Y-73204540D01*
X188114709Y-73204538D01*
X188113815Y-73204015D01*
X188105658Y-73198684D01*
X187871651Y-73028666D01*
X187863937Y-73022446D01*
X187863221Y-73021807D01*
X187859043Y-73018078D01*
X187854136Y-73015380D01*
X187851468Y-73013493D01*
X187851235Y-73013345D01*
X187848166Y-73011603D01*
X187843670Y-73008337D01*
X187838559Y-73006152D01*
X187838556Y-73006150D01*
X187837599Y-73005741D01*
X187828841Y-73001475D01*
X187575386Y-72862137D01*
X187566948Y-72856931D01*
X187561537Y-72853205D01*
X187556338Y-72851146D01*
X187553475Y-72849619D01*
X187553175Y-72849478D01*
X187549931Y-72848143D01*
X187545065Y-72845468D01*
X187539725Y-72843942D01*
X187539718Y-72843939D01*
X187538721Y-72843654D01*
X187529486Y-72840515D01*
X187260576Y-72734047D01*
X187251541Y-72729935D01*
X187245713Y-72726920D01*
X187240289Y-72725527D01*
X187237226Y-72724359D01*
X187236978Y-72724279D01*
X187233573Y-72723356D01*
X187228401Y-72721308D01*
X187221889Y-72720306D01*
X187212337Y-72718351D01*
X187023714Y-72669920D01*
X186932178Y-72646417D01*
X186922703Y-72643470D01*
X186921813Y-72643143D01*
X186921803Y-72643141D01*
X186916552Y-72641214D01*
X186911000Y-72640513D01*
X186907815Y-72639738D01*
X186907545Y-72639686D01*
X186904056Y-72639197D01*
X186898673Y-72637815D01*
X186892127Y-72637638D01*
X186892063Y-72637636D01*
X186882335Y-72636891D01*
X186686592Y-72612163D01*
X186631230Y-72586112D01*
X186601754Y-72532495D01*
X186600000Y-72513944D01*
X186600000Y-65099000D01*
X186618907Y-65040809D01*
X186668407Y-65004845D01*
X186699000Y-65000000D01*
X196701000Y-65000000D01*
X196759191Y-65018907D01*
G37*
%TD.AperFunction*%
%TA.AperFunction,Conductor*%
G36*
X221830137Y-77909887D02*
G01*
X221841950Y-77919976D01*
X222388723Y-78466748D01*
X222394558Y-78473116D01*
X222413812Y-78496063D01*
X222413814Y-78496065D01*
X222419380Y-78502698D01*
X222429459Y-78508517D01*
X222453035Y-78522129D01*
X222460316Y-78526768D01*
X222492146Y-78549055D01*
X222500514Y-78551297D01*
X222505803Y-78553764D01*
X222511285Y-78555759D01*
X222518783Y-78560088D01*
X222527308Y-78561591D01*
X222527310Y-78561592D01*
X222550194Y-78565627D01*
X222557039Y-78566834D01*
X222565469Y-78568703D01*
X222594649Y-78576522D01*
X222594654Y-78576522D01*
X222603016Y-78578763D01*
X222641486Y-78575397D01*
X222650114Y-78575020D01*
X225125646Y-78575020D01*
X225183837Y-78593927D01*
X225219801Y-78643427D01*
X225219801Y-78704613D01*
X225195650Y-78744024D01*
X224842730Y-79096944D01*
X224788213Y-79124721D01*
X224772726Y-79125940D01*
X221842562Y-79125940D01*
X221833933Y-79125563D01*
X221825566Y-79124831D01*
X221795472Y-79122198D01*
X221785646Y-79124831D01*
X221757935Y-79132256D01*
X221749503Y-79134125D01*
X221719768Y-79139368D01*
X221719767Y-79139368D01*
X221711239Y-79140872D01*
X221703738Y-79145203D01*
X221698255Y-79147199D01*
X221692971Y-79149663D01*
X221684602Y-79151905D01*
X221654476Y-79172999D01*
X221652774Y-79174191D01*
X221645493Y-79178830D01*
X221611836Y-79198262D01*
X221606270Y-79204895D01*
X221606268Y-79204897D01*
X221587008Y-79227851D01*
X221581172Y-79234219D01*
X221335366Y-79480024D01*
X221280850Y-79507801D01*
X221265363Y-79509020D01*
X220916353Y-79509020D01*
X220858162Y-79490113D01*
X220846349Y-79480023D01*
X220629496Y-79263169D01*
X220601719Y-79208653D01*
X220600500Y-79193166D01*
X220600500Y-79001643D01*
X220584664Y-78911832D01*
X220577147Y-78898811D01*
X220529001Y-78815422D01*
X220524668Y-78807917D01*
X220489349Y-78778281D01*
X220456928Y-78726393D01*
X220461196Y-78665357D01*
X220482959Y-78635403D01*
X220482083Y-78634668D01*
X220530234Y-78577284D01*
X220559212Y-78542750D01*
X220600251Y-78429995D01*
X220600500Y-78427149D01*
X220600500Y-78206834D01*
X220619407Y-78148643D01*
X220629496Y-78136831D01*
X220846349Y-77919977D01*
X220900866Y-77892199D01*
X220916353Y-77890980D01*
X221771946Y-77890980D01*
X221830137Y-77909887D01*
G37*
%TD.AperFunction*%
%TA.AperFunction,Conductor*%
G36*
X214104593Y-75377964D02*
G01*
X214110236Y-75386655D01*
X214165332Y-75482083D01*
X214257250Y-75559212D01*
X214301518Y-75575324D01*
X214339629Y-75589195D01*
X214370005Y-75600251D01*
X214372851Y-75600500D01*
X214798357Y-75600500D01*
X214802608Y-75599750D01*
X214802613Y-75599750D01*
X214831645Y-75594631D01*
X214892235Y-75603147D01*
X214936675Y-75648211D01*
X214937213Y-75650009D01*
X214941323Y-75656161D01*
X214941325Y-75656164D01*
X214962558Y-75687941D01*
X215012460Y-75762624D01*
X215018201Y-75767298D01*
X215111752Y-75843461D01*
X215111755Y-75843463D01*
X215117494Y-75848135D01*
X215123979Y-75850762D01*
X215164312Y-75896511D01*
X215170071Y-75957425D01*
X215167848Y-75965676D01*
X215144324Y-76040060D01*
X215144125Y-76065362D01*
X215143323Y-76167532D01*
X215143260Y-76175497D01*
X215145380Y-76182585D01*
X215145380Y-76182587D01*
X215158418Y-76226183D01*
X215182067Y-76305258D01*
X215186179Y-76311412D01*
X215186180Y-76311414D01*
X215192856Y-76321405D01*
X215257314Y-76417873D01*
X215263055Y-76422547D01*
X215356611Y-76498714D01*
X215356614Y-76498716D01*
X215362348Y-76503384D01*
X215369204Y-76506161D01*
X215400981Y-76519032D01*
X215487882Y-76554230D01*
X215574119Y-76561699D01*
X215630460Y-76585557D01*
X215635579Y-76590326D01*
X215744510Y-76699257D01*
X215750344Y-76705624D01*
X215775162Y-76735201D01*
X215782663Y-76739531D01*
X215782662Y-76739531D01*
X215808807Y-76754626D01*
X215816089Y-76759265D01*
X215826211Y-76766352D01*
X215847928Y-76781558D01*
X215856292Y-76783799D01*
X215861577Y-76786264D01*
X215867066Y-76788262D01*
X215874565Y-76792591D01*
X215883094Y-76794095D01*
X215912828Y-76799338D01*
X215921257Y-76801206D01*
X215958797Y-76811265D01*
X215997259Y-76807900D01*
X216005887Y-76807523D01*
X216485154Y-76807523D01*
X216543345Y-76826430D01*
X216579309Y-76875930D01*
X216583777Y-76897895D01*
X216586480Y-76928798D01*
X216637191Y-77037547D01*
X216639028Y-77039735D01*
X216939906Y-77340613D01*
X217014609Y-77392922D01*
X217022975Y-77395164D01*
X217022976Y-77395164D01*
X217122148Y-77421736D01*
X217130512Y-77423977D01*
X217187476Y-77418993D01*
X217247091Y-77432756D01*
X217266107Y-77447612D01*
X217338655Y-77520160D01*
X217366432Y-77574677D01*
X217366738Y-77594188D01*
X217366456Y-77595132D01*
X217368919Y-77657803D01*
X217369163Y-77664018D01*
X217352555Y-77722906D01*
X217304505Y-77760786D01*
X217274126Y-77766829D01*
X217167791Y-77771007D01*
X217059684Y-77812830D01*
X217053995Y-77817243D01*
X217024667Y-77839992D01*
X217021289Y-77842612D01*
X216763464Y-78100438D01*
X216761090Y-78103760D01*
X216718849Y-78162871D01*
X216713775Y-78169971D01*
X216701904Y-78209665D01*
X216683124Y-78272460D01*
X216680562Y-78281026D01*
X216680883Y-78289199D01*
X216680883Y-78289200D01*
X216682822Y-78338539D01*
X216685003Y-78394057D01*
X216685003Y-78394058D01*
X216685113Y-78396853D01*
X216684693Y-78396870D01*
X216678603Y-78452031D01*
X216658378Y-78481295D01*
X216543689Y-78595984D01*
X216489172Y-78623761D01*
X216473685Y-78624980D01*
X213231748Y-78624980D01*
X213173557Y-78606073D01*
X213161744Y-78595984D01*
X212304976Y-77739215D01*
X212277199Y-77684698D01*
X212275980Y-77669211D01*
X212275980Y-76229231D01*
X212294887Y-76171040D01*
X212344387Y-76135076D01*
X212397334Y-76132788D01*
X212473748Y-76150500D01*
X213508258Y-76150500D01*
X213546032Y-76144821D01*
X213601614Y-76136465D01*
X213601616Y-76136464D01*
X213608935Y-76135364D01*
X213615606Y-76132161D01*
X213615608Y-76132160D01*
X213724361Y-76079937D01*
X213731029Y-76076735D01*
X213830486Y-75984798D01*
X213863614Y-75927764D01*
X213894795Y-75874083D01*
X213894796Y-75874080D01*
X213898513Y-75867681D01*
X213916439Y-75790345D01*
X213924225Y-75756754D01*
X213924225Y-75756751D01*
X213925500Y-75751252D01*
X213925500Y-75436155D01*
X213944407Y-75377964D01*
X213993907Y-75342000D01*
X214055093Y-75342000D01*
X214104593Y-75377964D01*
G37*
%TD.AperFunction*%
%TA.AperFunction,Conductor*%
G36*
X227916877Y-74709887D02*
G01*
X227928689Y-74719976D01*
X228020014Y-74811300D01*
X228047792Y-74865816D01*
X228049011Y-74881304D01*
X228049011Y-75883443D01*
X228048634Y-75892072D01*
X228045269Y-75930533D01*
X228047510Y-75938896D01*
X228055327Y-75968070D01*
X228057196Y-75976502D01*
X228059307Y-75988476D01*
X228063943Y-76014766D01*
X228068274Y-76022267D01*
X228070268Y-76027745D01*
X228072734Y-76033034D01*
X228074976Y-76041403D01*
X228079944Y-76048499D01*
X228079945Y-76048500D01*
X228097269Y-76073242D01*
X228101907Y-76080523D01*
X228121333Y-76114169D01*
X228150792Y-76138888D01*
X228150909Y-76138986D01*
X228157277Y-76144821D01*
X228218912Y-76206456D01*
X228246689Y-76260973D01*
X228237118Y-76321405D01*
X228193853Y-76364670D01*
X228148908Y-76375460D01*
X226982795Y-76375460D01*
X226924604Y-76356553D01*
X226912791Y-76346464D01*
X226629496Y-76063169D01*
X226601719Y-76008652D01*
X226600500Y-75993165D01*
X226600500Y-75801643D01*
X226584664Y-75711832D01*
X226576376Y-75697476D01*
X226529001Y-75615422D01*
X226524668Y-75607917D01*
X226489349Y-75578281D01*
X226456928Y-75526393D01*
X226461196Y-75465357D01*
X226482959Y-75435403D01*
X226482083Y-75434668D01*
X226492312Y-75422478D01*
X226559212Y-75342750D01*
X226600251Y-75229995D01*
X226600500Y-75227149D01*
X226600500Y-75006834D01*
X226619407Y-74948643D01*
X226629496Y-74936831D01*
X226846349Y-74719977D01*
X226900866Y-74692199D01*
X226916353Y-74690980D01*
X227858686Y-74690980D01*
X227916877Y-74709887D01*
G37*
%TD.AperFunction*%
%TA.AperFunction,Conductor*%
G36*
X220044945Y-67821996D02*
G01*
X220070004Y-67840202D01*
X220132326Y-67902524D01*
X220136363Y-67905221D01*
X220136366Y-67905224D01*
X220160282Y-67921204D01*
X220197961Y-67946381D01*
X220207524Y-67948283D01*
X220207526Y-67948284D01*
X220233275Y-67953405D01*
X220286660Y-67983301D01*
X220311061Y-68031191D01*
X220316182Y-68056940D01*
X220316183Y-68056942D01*
X220318085Y-68066505D01*
X220336255Y-68093698D01*
X220358823Y-68127472D01*
X220361942Y-68132140D01*
X220485879Y-68256077D01*
X220489916Y-68258774D01*
X220489919Y-68258777D01*
X220513897Y-68274798D01*
X220551514Y-68299934D01*
X220561077Y-68301836D01*
X220561079Y-68301837D01*
X220586830Y-68306959D01*
X220640214Y-68336856D01*
X220664614Y-68384743D01*
X220671639Y-68420059D01*
X220681070Y-68434173D01*
X220705859Y-68471271D01*
X220715496Y-68485694D01*
X220839433Y-68609631D01*
X220843470Y-68612328D01*
X220843473Y-68612331D01*
X220849473Y-68616340D01*
X220905068Y-68653488D01*
X220914631Y-68655390D01*
X220914633Y-68655391D01*
X220940382Y-68660512D01*
X220993767Y-68690408D01*
X221018168Y-68738298D01*
X221023289Y-68764047D01*
X221023290Y-68764049D01*
X221025192Y-68773612D01*
X221034454Y-68787473D01*
X221063999Y-68831689D01*
X221069049Y-68839247D01*
X221192986Y-68963184D01*
X221197023Y-68965881D01*
X221197026Y-68965884D01*
X221223486Y-68983564D01*
X221258621Y-69007041D01*
X221293935Y-69014065D01*
X221347319Y-69043961D01*
X221371720Y-69091849D01*
X221376788Y-69117326D01*
X221378745Y-69127166D01*
X221401527Y-69161261D01*
X221418992Y-69187398D01*
X221422602Y-69192801D01*
X221546539Y-69316738D01*
X221550576Y-69319435D01*
X221550579Y-69319438D01*
X221562742Y-69327565D01*
X221612174Y-69360595D01*
X221621737Y-69362497D01*
X221621739Y-69362498D01*
X221647491Y-69367620D01*
X221700875Y-69397517D01*
X221725275Y-69445405D01*
X221732299Y-69480719D01*
X221750265Y-69507607D01*
X221765595Y-69530548D01*
X221776156Y-69546354D01*
X221900093Y-69670291D01*
X221904130Y-69672988D01*
X221904133Y-69672991D01*
X221929963Y-69690250D01*
X221965728Y-69714148D01*
X221975291Y-69716050D01*
X221975293Y-69716051D01*
X222001042Y-69721172D01*
X222054427Y-69751068D01*
X222078828Y-69798958D01*
X222083949Y-69824707D01*
X222083950Y-69824709D01*
X222085852Y-69834272D01*
X222091270Y-69842380D01*
X222125108Y-69893021D01*
X222129709Y-69899907D01*
X222253646Y-70023844D01*
X222257683Y-70026541D01*
X222257686Y-70026544D01*
X222292088Y-70049531D01*
X222319281Y-70067701D01*
X222354595Y-70074725D01*
X222407979Y-70104621D01*
X222432380Y-70152509D01*
X222435360Y-70167488D01*
X222439405Y-70187826D01*
X222450035Y-70203734D01*
X222473806Y-70239309D01*
X222483262Y-70253461D01*
X222607199Y-70377398D01*
X222611236Y-70380095D01*
X222611239Y-70380098D01*
X222617239Y-70384107D01*
X222672834Y-70421255D01*
X222682397Y-70423157D01*
X222682399Y-70423158D01*
X222708151Y-70428280D01*
X222761535Y-70458177D01*
X222785935Y-70506065D01*
X222792959Y-70541379D01*
X222800361Y-70552457D01*
X222834064Y-70602895D01*
X222836816Y-70607014D01*
X222960753Y-70730951D01*
X222964790Y-70733648D01*
X222964793Y-70733651D01*
X222979020Y-70743157D01*
X223026388Y-70774808D01*
X223035951Y-70776710D01*
X223035953Y-70776711D01*
X223061702Y-70781832D01*
X223115087Y-70811728D01*
X223139488Y-70859618D01*
X223144609Y-70885367D01*
X223144610Y-70885369D01*
X223146512Y-70894932D01*
X223190369Y-70960567D01*
X223314306Y-71084504D01*
X223318343Y-71087201D01*
X223318346Y-71087204D01*
X223319418Y-71087920D01*
X223379941Y-71128361D01*
X223389504Y-71130263D01*
X223389506Y-71130264D01*
X223415257Y-71135386D01*
X223468641Y-71165283D01*
X223493041Y-71213170D01*
X223496284Y-71229471D01*
X223500066Y-71248486D01*
X223522972Y-71282766D01*
X223538559Y-71306093D01*
X223543923Y-71314121D01*
X223667860Y-71438058D01*
X223671897Y-71440755D01*
X223671900Y-71440758D01*
X223704803Y-71462743D01*
X223733495Y-71481915D01*
X223743058Y-71483817D01*
X223743060Y-71483818D01*
X223768809Y-71488939D01*
X223822194Y-71518835D01*
X223846595Y-71566725D01*
X223851716Y-71592474D01*
X223851717Y-71592476D01*
X223853619Y-71602039D01*
X223859037Y-71610147D01*
X223888135Y-71653694D01*
X223897476Y-71667674D01*
X223959798Y-71729996D01*
X223987575Y-71784513D01*
X223978004Y-71844945D01*
X223959798Y-71870004D01*
X223897476Y-71932326D01*
X223894779Y-71936363D01*
X223894776Y-71936366D01*
X223874845Y-71966195D01*
X223853619Y-71997961D01*
X223851717Y-72007524D01*
X223851716Y-72007526D01*
X223846595Y-72033275D01*
X223816699Y-72086660D01*
X223768809Y-72111061D01*
X223743060Y-72116182D01*
X223743058Y-72116183D01*
X223733495Y-72118085D01*
X223710945Y-72133153D01*
X223671900Y-72159242D01*
X223671897Y-72159245D01*
X223667860Y-72161942D01*
X223543923Y-72285879D01*
X223541226Y-72289916D01*
X223541223Y-72289919D01*
X223526886Y-72311376D01*
X223500066Y-72351514D01*
X223498164Y-72361077D01*
X223498163Y-72361079D01*
X223493041Y-72386830D01*
X223463144Y-72440214D01*
X223415257Y-72464614D01*
X223389506Y-72469736D01*
X223389504Y-72469737D01*
X223379941Y-72471639D01*
X223355755Y-72487800D01*
X223318346Y-72512796D01*
X223318343Y-72512799D01*
X223314306Y-72515496D01*
X223190369Y-72639433D01*
X223187672Y-72643470D01*
X223187669Y-72643473D01*
X223173597Y-72664533D01*
X223146512Y-72705068D01*
X223144610Y-72714631D01*
X223144609Y-72714633D01*
X223139488Y-72740382D01*
X223109592Y-72793767D01*
X223061702Y-72818168D01*
X223035953Y-72823289D01*
X223035951Y-72823290D01*
X223026388Y-72825192D01*
X223018279Y-72830610D01*
X223018280Y-72830610D01*
X222964793Y-72866349D01*
X222964790Y-72866352D01*
X222960753Y-72869049D01*
X222836816Y-72992986D01*
X222834119Y-72997023D01*
X222834116Y-72997026D01*
X222812963Y-73028683D01*
X222792959Y-73058621D01*
X222786300Y-73092101D01*
X222785935Y-73093935D01*
X222756039Y-73147319D01*
X222708151Y-73171720D01*
X222682399Y-73176842D01*
X222682397Y-73176843D01*
X222672834Y-73178745D01*
X222638711Y-73201546D01*
X222611239Y-73219902D01*
X222611236Y-73219905D01*
X222607199Y-73222602D01*
X222483262Y-73346539D01*
X222480565Y-73350576D01*
X222480562Y-73350579D01*
X222472988Y-73361915D01*
X222439405Y-73412174D01*
X222437503Y-73421737D01*
X222437502Y-73421739D01*
X222432380Y-73447491D01*
X222402483Y-73500875D01*
X222354595Y-73525275D01*
X222319281Y-73532299D01*
X222299239Y-73545691D01*
X222257686Y-73573456D01*
X222257683Y-73573459D01*
X222253646Y-73576156D01*
X222129709Y-73700093D01*
X222127012Y-73704130D01*
X222127009Y-73704133D01*
X222107628Y-73733139D01*
X222085852Y-73765728D01*
X222083950Y-73775291D01*
X222083949Y-73775293D01*
X222078828Y-73801042D01*
X222048932Y-73854427D01*
X222001042Y-73878828D01*
X221975293Y-73883949D01*
X221975291Y-73883950D01*
X221965728Y-73885852D01*
X221957619Y-73891270D01*
X221957620Y-73891270D01*
X221904133Y-73927009D01*
X221904130Y-73927012D01*
X221900093Y-73929709D01*
X221776156Y-74053646D01*
X221773459Y-74057683D01*
X221773456Y-74057686D01*
X221764931Y-74070445D01*
X221732299Y-74119281D01*
X221726736Y-74147250D01*
X221725275Y-74154595D01*
X221695379Y-74207979D01*
X221647491Y-74232380D01*
X221621739Y-74237502D01*
X221621737Y-74237503D01*
X221612174Y-74239405D01*
X221588392Y-74255296D01*
X221550579Y-74280562D01*
X221550576Y-74280565D01*
X221546539Y-74283262D01*
X221422602Y-74407199D01*
X221419905Y-74411236D01*
X221419902Y-74411239D01*
X221409976Y-74426095D01*
X221378745Y-74472834D01*
X221376843Y-74482397D01*
X221376842Y-74482399D01*
X221371720Y-74508151D01*
X221341823Y-74561535D01*
X221293935Y-74585935D01*
X221258621Y-74592959D01*
X221241592Y-74604338D01*
X221197026Y-74634116D01*
X221197023Y-74634119D01*
X221192986Y-74636816D01*
X221069049Y-74760753D01*
X221066352Y-74764790D01*
X221066349Y-74764793D01*
X221046368Y-74794696D01*
X221025192Y-74826388D01*
X221023290Y-74835951D01*
X221023289Y-74835953D01*
X221018168Y-74861702D01*
X220988272Y-74915087D01*
X220940382Y-74939488D01*
X220914633Y-74944609D01*
X220914631Y-74944610D01*
X220905068Y-74946512D01*
X220888956Y-74957278D01*
X220843473Y-74987669D01*
X220843470Y-74987672D01*
X220839433Y-74990369D01*
X220715496Y-75114306D01*
X220671639Y-75179941D01*
X220669737Y-75189504D01*
X220669736Y-75189506D01*
X220664614Y-75215257D01*
X220634717Y-75268641D01*
X220586830Y-75293041D01*
X220561079Y-75298163D01*
X220561077Y-75298164D01*
X220551514Y-75300066D01*
X220516614Y-75323386D01*
X220489919Y-75341223D01*
X220489916Y-75341226D01*
X220485879Y-75343923D01*
X220361942Y-75467860D01*
X220359245Y-75471897D01*
X220359242Y-75471900D01*
X220352438Y-75482083D01*
X220318085Y-75533495D01*
X220316183Y-75543058D01*
X220316182Y-75543060D01*
X220311061Y-75568809D01*
X220281165Y-75622194D01*
X220233275Y-75646595D01*
X220207526Y-75651716D01*
X220207524Y-75651717D01*
X220197961Y-75653619D01*
X220188072Y-75660227D01*
X220136366Y-75694776D01*
X220136363Y-75694779D01*
X220132326Y-75697476D01*
X220070004Y-75759798D01*
X220015487Y-75787575D01*
X219955055Y-75778004D01*
X219929996Y-75759798D01*
X219867674Y-75697476D01*
X219863637Y-75694779D01*
X219863634Y-75694776D01*
X219811928Y-75660227D01*
X219802039Y-75653619D01*
X219792476Y-75651717D01*
X219792474Y-75651716D01*
X219766725Y-75646595D01*
X219713340Y-75616699D01*
X219688939Y-75568809D01*
X219683818Y-75543060D01*
X219683817Y-75543058D01*
X219681915Y-75533495D01*
X219647562Y-75482083D01*
X219640758Y-75471900D01*
X219640755Y-75471897D01*
X219638058Y-75467860D01*
X219514121Y-75343923D01*
X219510084Y-75341226D01*
X219510081Y-75341223D01*
X219483386Y-75323386D01*
X219448486Y-75300066D01*
X219438923Y-75298164D01*
X219438921Y-75298163D01*
X219413170Y-75293041D01*
X219359786Y-75263144D01*
X219335386Y-75215257D01*
X219330264Y-75189506D01*
X219330263Y-75189504D01*
X219328361Y-75179941D01*
X219284504Y-75114306D01*
X219160567Y-74990369D01*
X219156530Y-74987672D01*
X219156527Y-74987669D01*
X219111044Y-74957278D01*
X219094932Y-74946512D01*
X219085369Y-74944610D01*
X219085367Y-74944609D01*
X219059618Y-74939488D01*
X219006233Y-74909592D01*
X218981832Y-74861702D01*
X218976711Y-74835953D01*
X218976710Y-74835951D01*
X218974808Y-74826388D01*
X218953632Y-74794696D01*
X218933651Y-74764793D01*
X218933648Y-74764790D01*
X218930951Y-74760753D01*
X218807014Y-74636816D01*
X218802977Y-74634119D01*
X218802974Y-74634116D01*
X218758408Y-74604338D01*
X218741379Y-74592959D01*
X218706065Y-74585935D01*
X218652681Y-74556039D01*
X218628280Y-74508151D01*
X218623158Y-74482399D01*
X218623157Y-74482397D01*
X218621255Y-74472834D01*
X218590024Y-74426095D01*
X218580098Y-74411239D01*
X218580095Y-74411236D01*
X218577398Y-74407199D01*
X218453461Y-74283262D01*
X218449424Y-74280565D01*
X218449421Y-74280562D01*
X218411608Y-74255296D01*
X218387826Y-74239405D01*
X218378263Y-74237503D01*
X218378261Y-74237502D01*
X218352509Y-74232380D01*
X218299125Y-74202483D01*
X218274725Y-74154595D01*
X218273264Y-74147250D01*
X218267701Y-74119281D01*
X218235069Y-74070445D01*
X218226544Y-74057686D01*
X218226541Y-74057683D01*
X218223844Y-74053646D01*
X218099907Y-73929709D01*
X218095870Y-73927012D01*
X218095867Y-73927009D01*
X218042380Y-73891270D01*
X218042381Y-73891270D01*
X218034272Y-73885852D01*
X218024709Y-73883950D01*
X218024707Y-73883949D01*
X217998958Y-73878828D01*
X217945573Y-73848932D01*
X217921172Y-73801042D01*
X217916051Y-73775293D01*
X217916050Y-73775291D01*
X217914148Y-73765728D01*
X217892372Y-73733139D01*
X217872991Y-73704133D01*
X217872988Y-73704130D01*
X217870291Y-73700093D01*
X217746354Y-73576156D01*
X217742317Y-73573459D01*
X217742314Y-73573456D01*
X217700761Y-73545691D01*
X217680719Y-73532299D01*
X217645405Y-73525275D01*
X217592021Y-73495379D01*
X217567620Y-73447491D01*
X217562498Y-73421739D01*
X217562497Y-73421737D01*
X217560595Y-73412174D01*
X217527012Y-73361915D01*
X217519438Y-73350579D01*
X217519435Y-73350576D01*
X217516738Y-73346539D01*
X217392801Y-73222602D01*
X217388764Y-73219905D01*
X217388761Y-73219902D01*
X217361289Y-73201546D01*
X217327166Y-73178745D01*
X217317603Y-73176843D01*
X217317601Y-73176842D01*
X217291849Y-73171720D01*
X217238465Y-73141823D01*
X217214065Y-73093935D01*
X217213700Y-73092101D01*
X217207041Y-73058621D01*
X217187037Y-73028683D01*
X217165884Y-72997026D01*
X217165881Y-72997023D01*
X217163184Y-72992986D01*
X217039247Y-72869049D01*
X217035210Y-72866352D01*
X217035207Y-72866349D01*
X216981720Y-72830610D01*
X216981721Y-72830610D01*
X216973612Y-72825192D01*
X216964049Y-72823290D01*
X216964047Y-72823289D01*
X216938298Y-72818168D01*
X216884913Y-72788272D01*
X216860512Y-72740382D01*
X216855391Y-72714633D01*
X216855390Y-72714631D01*
X216853488Y-72705068D01*
X216826403Y-72664533D01*
X216812331Y-72643473D01*
X216812328Y-72643470D01*
X216809631Y-72639433D01*
X216685694Y-72515496D01*
X216681657Y-72512799D01*
X216681654Y-72512796D01*
X216644245Y-72487800D01*
X216620059Y-72471639D01*
X216610496Y-72469737D01*
X216610494Y-72469736D01*
X216584743Y-72464614D01*
X216531359Y-72434717D01*
X216506959Y-72386830D01*
X216501837Y-72361079D01*
X216501836Y-72361077D01*
X216499934Y-72351514D01*
X216473114Y-72311376D01*
X216458777Y-72289919D01*
X216458774Y-72289916D01*
X216456077Y-72285879D01*
X216332140Y-72161942D01*
X216328103Y-72159245D01*
X216328100Y-72159242D01*
X216289055Y-72133153D01*
X216266505Y-72118085D01*
X216256942Y-72116183D01*
X216256940Y-72116182D01*
X216231191Y-72111061D01*
X216177806Y-72081165D01*
X216153405Y-72033275D01*
X216148284Y-72007526D01*
X216148283Y-72007524D01*
X216146381Y-71997961D01*
X216125155Y-71966195D01*
X216105224Y-71936366D01*
X216105221Y-71936363D01*
X216102524Y-71932326D01*
X216040202Y-71870004D01*
X216012425Y-71815487D01*
X216021996Y-71755055D01*
X216040202Y-71729996D01*
X216102524Y-71667674D01*
X216111866Y-71653694D01*
X216140963Y-71610147D01*
X216146381Y-71602039D01*
X216148283Y-71592476D01*
X216148284Y-71592474D01*
X216153405Y-71566725D01*
X216183301Y-71513340D01*
X216231191Y-71488939D01*
X216256940Y-71483818D01*
X216256942Y-71483817D01*
X216266505Y-71481915D01*
X216295197Y-71462743D01*
X216328100Y-71440758D01*
X216328103Y-71440755D01*
X216332140Y-71438058D01*
X216456077Y-71314121D01*
X216461442Y-71306093D01*
X216477028Y-71282766D01*
X216499934Y-71248486D01*
X216503717Y-71229471D01*
X216506959Y-71213170D01*
X216536856Y-71159786D01*
X216584743Y-71135386D01*
X216610494Y-71130264D01*
X216610496Y-71130263D01*
X216620059Y-71128361D01*
X216680582Y-71087920D01*
X216681654Y-71087204D01*
X216681657Y-71087201D01*
X216685694Y-71084504D01*
X216809631Y-70960567D01*
X216853488Y-70894932D01*
X216855390Y-70885369D01*
X216855391Y-70885367D01*
X216860512Y-70859618D01*
X216890408Y-70806233D01*
X216938298Y-70781832D01*
X216964047Y-70776711D01*
X216964049Y-70776710D01*
X216973612Y-70774808D01*
X217020980Y-70743157D01*
X217035207Y-70733651D01*
X217035210Y-70733648D01*
X217039247Y-70730951D01*
X217163184Y-70607014D01*
X217165937Y-70602895D01*
X217199639Y-70552457D01*
X217207041Y-70541379D01*
X217214065Y-70506065D01*
X217243961Y-70452681D01*
X217291849Y-70428280D01*
X217317601Y-70423158D01*
X217317603Y-70423157D01*
X217327166Y-70421255D01*
X217382761Y-70384107D01*
X217388761Y-70380098D01*
X217388764Y-70380095D01*
X217392801Y-70377398D01*
X217516738Y-70253461D01*
X217526195Y-70239309D01*
X217549965Y-70203734D01*
X217560595Y-70187826D01*
X217564641Y-70167488D01*
X217567620Y-70152509D01*
X217597517Y-70099125D01*
X217645405Y-70074725D01*
X217680719Y-70067701D01*
X217707912Y-70049531D01*
X217742314Y-70026544D01*
X217742317Y-70026541D01*
X217746354Y-70023844D01*
X217870291Y-69899907D01*
X217874893Y-69893021D01*
X217908730Y-69842380D01*
X217914148Y-69834272D01*
X217916050Y-69824709D01*
X217916051Y-69824707D01*
X217921172Y-69798958D01*
X217951068Y-69745573D01*
X217998958Y-69721172D01*
X218024707Y-69716051D01*
X218024709Y-69716050D01*
X218034272Y-69714148D01*
X218070037Y-69690250D01*
X218095867Y-69672991D01*
X218095870Y-69672988D01*
X218099907Y-69670291D01*
X218223844Y-69546354D01*
X218234406Y-69530548D01*
X218249735Y-69507607D01*
X218267701Y-69480719D01*
X218274725Y-69445405D01*
X218304621Y-69392021D01*
X218352509Y-69367620D01*
X218378261Y-69362498D01*
X218378263Y-69362497D01*
X218387826Y-69360595D01*
X218437258Y-69327565D01*
X218449421Y-69319438D01*
X218449424Y-69319435D01*
X218453461Y-69316738D01*
X218577398Y-69192801D01*
X218581009Y-69187398D01*
X218598473Y-69161261D01*
X218621255Y-69127166D01*
X218623213Y-69117326D01*
X218628280Y-69091849D01*
X218658177Y-69038465D01*
X218706065Y-69014065D01*
X218741379Y-69007041D01*
X218776514Y-68983564D01*
X218802974Y-68965884D01*
X218802977Y-68965881D01*
X218807014Y-68963184D01*
X218930951Y-68839247D01*
X218936002Y-68831689D01*
X218965546Y-68787473D01*
X218974808Y-68773612D01*
X218976710Y-68764049D01*
X218976711Y-68764047D01*
X218981832Y-68738298D01*
X219011728Y-68684913D01*
X219059618Y-68660512D01*
X219085367Y-68655391D01*
X219085369Y-68655390D01*
X219094932Y-68653488D01*
X219150527Y-68616340D01*
X219156527Y-68612331D01*
X219156530Y-68612328D01*
X219160567Y-68609631D01*
X219284504Y-68485694D01*
X219294142Y-68471271D01*
X219318930Y-68434173D01*
X219328361Y-68420059D01*
X219335386Y-68384743D01*
X219365283Y-68331359D01*
X219413170Y-68306959D01*
X219438921Y-68301837D01*
X219438923Y-68301836D01*
X219448486Y-68299934D01*
X219486103Y-68274798D01*
X219510081Y-68258777D01*
X219510084Y-68258774D01*
X219514121Y-68256077D01*
X219638058Y-68132140D01*
X219641178Y-68127472D01*
X219663745Y-68093698D01*
X219681915Y-68066505D01*
X219683817Y-68056942D01*
X219683818Y-68056940D01*
X219688939Y-68031191D01*
X219718835Y-67977806D01*
X219766725Y-67953405D01*
X219792474Y-67948284D01*
X219792476Y-67948283D01*
X219802039Y-67946381D01*
X219839718Y-67921204D01*
X219863634Y-67905224D01*
X219863637Y-67905221D01*
X219867674Y-67902524D01*
X219929996Y-67840202D01*
X219984513Y-67812425D01*
X220044945Y-67821996D01*
G37*
%TD.AperFunction*%
%TA.AperFunction,Conductor*%
G36*
X226287288Y-67142487D02*
G01*
X226299101Y-67152576D01*
X227872913Y-68726387D01*
X227900690Y-68780904D01*
X227901909Y-68796391D01*
X227901909Y-69202269D01*
X227901532Y-69210897D01*
X227898167Y-69249359D01*
X227900408Y-69257722D01*
X227908225Y-69286896D01*
X227910094Y-69295328D01*
X227911795Y-69304974D01*
X227916841Y-69333592D01*
X227921172Y-69341093D01*
X227923168Y-69346576D01*
X227925632Y-69351860D01*
X227927874Y-69360229D01*
X227934719Y-69370005D01*
X227950160Y-69392057D01*
X227954799Y-69399338D01*
X227974231Y-69432995D01*
X227980864Y-69438561D01*
X227980866Y-69438563D01*
X228003813Y-69457817D01*
X228010181Y-69463652D01*
X228672913Y-70126385D01*
X228700690Y-70180902D01*
X228701909Y-70196389D01*
X228701909Y-72002270D01*
X228701532Y-72010899D01*
X228698167Y-72049360D01*
X228700408Y-72057723D01*
X228708225Y-72086897D01*
X228710094Y-72095329D01*
X228715062Y-72123503D01*
X228716841Y-72133593D01*
X228721172Y-72141094D01*
X228723166Y-72146572D01*
X228725632Y-72151861D01*
X228727874Y-72160230D01*
X228732842Y-72167326D01*
X228732843Y-72167327D01*
X228750167Y-72192069D01*
X228754805Y-72199350D01*
X228774231Y-72232996D01*
X228800775Y-72255269D01*
X228803807Y-72257813D01*
X228810175Y-72263648D01*
X229746464Y-73199937D01*
X229774241Y-73254454D01*
X229775460Y-73269941D01*
X229775460Y-74400146D01*
X229756553Y-74458337D01*
X229746464Y-74470150D01*
X229016709Y-75199904D01*
X228962192Y-75227681D01*
X228953699Y-75228653D01*
X228900636Y-75232410D01*
X228834729Y-75257907D01*
X228773639Y-75261270D01*
X228722237Y-75228080D01*
X228700011Y-75165576D01*
X228700011Y-74723756D01*
X228700388Y-74715127D01*
X228702394Y-74692199D01*
X228703753Y-74676666D01*
X228693695Y-74639129D01*
X228691826Y-74630697D01*
X228688745Y-74613226D01*
X228685079Y-74592433D01*
X228680747Y-74584931D01*
X228680053Y-74583023D01*
X228677918Y-74521875D01*
X228712132Y-74471150D01*
X228769628Y-74450223D01*
X228781619Y-74450532D01*
X228828601Y-74454601D01*
X228892719Y-74440797D01*
X228953769Y-74427654D01*
X228953772Y-74427653D01*
X228961008Y-74426095D01*
X228987536Y-74411239D01*
X229072724Y-74363531D01*
X229079179Y-74359916D01*
X229172667Y-74261915D01*
X229216963Y-74173265D01*
X229229899Y-74147376D01*
X229229900Y-74147374D01*
X229233206Y-74140757D01*
X229255444Y-74007155D01*
X229255500Y-74000000D01*
X229254798Y-73995325D01*
X229236465Y-73873386D01*
X229236464Y-73873384D01*
X229235364Y-73866065D01*
X229229776Y-73854427D01*
X229179937Y-73750639D01*
X229176735Y-73743971D01*
X229161539Y-73727532D01*
X229151801Y-73716997D01*
X229126186Y-73661432D01*
X229125500Y-73649797D01*
X229125500Y-73558535D01*
X229125877Y-73549907D01*
X229127185Y-73534951D01*
X229129242Y-73511445D01*
X229119184Y-73473909D01*
X229117316Y-73465481D01*
X229117050Y-73463969D01*
X229110568Y-73427213D01*
X229106239Y-73419714D01*
X229104248Y-73414245D01*
X229101776Y-73408945D01*
X229099534Y-73400576D01*
X229094101Y-73392816D01*
X229077248Y-73368748D01*
X229072608Y-73361465D01*
X229070188Y-73357273D01*
X229053178Y-73327810D01*
X229023601Y-73302992D01*
X229017234Y-73297158D01*
X227253536Y-71533460D01*
X227225759Y-71478943D01*
X227224540Y-71463456D01*
X227224540Y-69117326D01*
X227224917Y-69108698D01*
X227227527Y-69078863D01*
X227228282Y-69070236D01*
X227218224Y-69032700D01*
X227216356Y-69024272D01*
X227211112Y-68994532D01*
X227211112Y-68994531D01*
X227209608Y-68986004D01*
X227205279Y-68978505D01*
X227203288Y-68973036D01*
X227200816Y-68967736D01*
X227198574Y-68959367D01*
X227178417Y-68930579D01*
X227176288Y-68927539D01*
X227171648Y-68920256D01*
X227167782Y-68913560D01*
X227152218Y-68886601D01*
X227122641Y-68861783D01*
X227116274Y-68855949D01*
X225552909Y-67292584D01*
X225525132Y-67238067D01*
X225534703Y-67177635D01*
X225577968Y-67134370D01*
X225622913Y-67123580D01*
X226229097Y-67123580D01*
X226287288Y-67142487D01*
G37*
%TD.AperFunction*%
%TA.AperFunction,Conductor*%
G36*
X234047837Y-69909887D02*
G01*
X234059649Y-69919976D01*
X234395983Y-70256309D01*
X234423761Y-70310826D01*
X234424980Y-70326313D01*
X234424980Y-74783076D01*
X234406073Y-74841267D01*
X234356573Y-74877231D01*
X234295387Y-74877231D01*
X234255976Y-74853080D01*
X233004016Y-73601120D01*
X232976239Y-73546603D01*
X232975020Y-73531116D01*
X232975020Y-71547813D01*
X232975397Y-71539184D01*
X232975898Y-71533460D01*
X232978763Y-71500715D01*
X232976522Y-71492353D01*
X232976522Y-71492348D01*
X232968703Y-71463168D01*
X232966833Y-71454735D01*
X232961592Y-71425009D01*
X232961591Y-71425007D01*
X232960088Y-71416482D01*
X232955759Y-71408984D01*
X232953764Y-71403502D01*
X232951297Y-71398213D01*
X232949055Y-71389845D01*
X232926768Y-71358015D01*
X232922129Y-71350734D01*
X232920691Y-71348243D01*
X232902698Y-71317079D01*
X232896065Y-71311513D01*
X232896063Y-71311511D01*
X232873115Y-71292256D01*
X232866747Y-71286421D01*
X232829496Y-71249170D01*
X232801719Y-71194653D01*
X232800500Y-71179166D01*
X232800500Y-71001643D01*
X232787708Y-70929096D01*
X232786168Y-70920361D01*
X232786168Y-70920360D01*
X232784664Y-70911832D01*
X232777371Y-70899199D01*
X232732725Y-70821872D01*
X232724668Y-70807917D01*
X232689349Y-70778281D01*
X232656928Y-70726393D01*
X232661196Y-70665357D01*
X232682959Y-70635403D01*
X232682083Y-70634668D01*
X232696833Y-70617090D01*
X232759212Y-70542750D01*
X232800251Y-70429995D01*
X232800500Y-70427149D01*
X232800500Y-70206834D01*
X232819407Y-70148643D01*
X232829496Y-70136831D01*
X233046349Y-69919977D01*
X233100866Y-69892199D01*
X233116353Y-69890980D01*
X233989646Y-69890980D01*
X234047837Y-69909887D01*
G37*
%TD.AperFunction*%
%TA.AperFunction,Conductor*%
G36*
X190853773Y-72119407D02*
G01*
X190889737Y-72168907D01*
X190889737Y-72230093D01*
X190881188Y-72249225D01*
X190880206Y-72250915D01*
X190880204Y-72250919D01*
X190876487Y-72257319D01*
X190874485Y-72265955D01*
X190852437Y-72361079D01*
X190849500Y-72373748D01*
X190849500Y-73140787D01*
X190849424Y-73144673D01*
X190847648Y-73189890D01*
X190847251Y-73199984D01*
X190848992Y-73206551D01*
X190849500Y-73215776D01*
X190849500Y-74000500D01*
X190830593Y-74058691D01*
X190781093Y-74094655D01*
X190750500Y-74099500D01*
X190441743Y-74099500D01*
X190405389Y-74104966D01*
X190348386Y-74113535D01*
X190348384Y-74113536D01*
X190341065Y-74114636D01*
X190334394Y-74117840D01*
X190334389Y-74117841D01*
X190292354Y-74138026D01*
X190231713Y-74146171D01*
X190177866Y-74117117D01*
X190151381Y-74061961D01*
X190150500Y-74048782D01*
X190150500Y-72199500D01*
X190169407Y-72141309D01*
X190218907Y-72105345D01*
X190249500Y-72100500D01*
X190795582Y-72100500D01*
X190853773Y-72119407D01*
G37*
%TD.AperFunction*%
%TA.AperFunction,Conductor*%
G36*
X215825931Y-65018907D02*
G01*
X215861895Y-65068407D01*
X215861895Y-65129593D01*
X215859204Y-65136886D01*
X215815132Y-65243285D01*
X215794500Y-65400000D01*
X215815132Y-65556715D01*
X215817616Y-65562712D01*
X215821198Y-65571359D01*
X215875622Y-65702750D01*
X215971847Y-65828153D01*
X216023633Y-65867889D01*
X216035767Y-65877200D01*
X216070423Y-65927624D01*
X216074500Y-65955742D01*
X216074500Y-67095720D01*
X216074123Y-67104349D01*
X216070758Y-67142810D01*
X216072999Y-67151173D01*
X216080816Y-67180347D01*
X216082685Y-67188779D01*
X216089432Y-67227043D01*
X216093763Y-67234544D01*
X216095757Y-67240022D01*
X216098223Y-67245311D01*
X216100465Y-67253680D01*
X216105433Y-67260776D01*
X216105434Y-67260777D01*
X216122758Y-67285519D01*
X216127396Y-67292800D01*
X216146822Y-67326446D01*
X216176398Y-67351263D01*
X216182766Y-67357098D01*
X216336159Y-67510491D01*
X216363936Y-67565008D01*
X216354365Y-67625440D01*
X216315979Y-67665680D01*
X216311083Y-67667574D01*
X216305269Y-67672157D01*
X216305268Y-67672158D01*
X216216543Y-67742104D01*
X216204719Y-67751425D01*
X216200512Y-67757512D01*
X216200511Y-67757513D01*
X216155944Y-67821996D01*
X216127712Y-67862844D01*
X216125480Y-67869902D01*
X216091355Y-67977806D01*
X216086872Y-67991980D01*
X216086455Y-68045073D01*
X216085948Y-68109656D01*
X216085808Y-68127417D01*
X216087928Y-68134505D01*
X216087928Y-68134507D01*
X216110176Y-68208899D01*
X216124615Y-68257178D01*
X216199862Y-68369793D01*
X216205603Y-68374467D01*
X216205605Y-68374469D01*
X216224830Y-68390120D01*
X216258021Y-68441521D01*
X216254660Y-68502614D01*
X216243769Y-68523183D01*
X216190948Y-68599608D01*
X216180283Y-68633332D01*
X216155648Y-68711228D01*
X216150108Y-68728744D01*
X216150050Y-68736143D01*
X216149208Y-68843357D01*
X216149044Y-68864181D01*
X216151164Y-68871269D01*
X216151164Y-68871271D01*
X216179460Y-68965884D01*
X216187851Y-68993942D01*
X216191963Y-69000096D01*
X216191964Y-69000098D01*
X216201297Y-69014065D01*
X216263098Y-69106557D01*
X216268839Y-69111231D01*
X216362395Y-69187398D01*
X216362398Y-69187400D01*
X216368132Y-69192068D01*
X216374988Y-69194845D01*
X216406074Y-69207436D01*
X216493666Y-69242914D01*
X216524946Y-69245623D01*
X216590345Y-69251288D01*
X216646687Y-69275147D01*
X216678245Y-69327565D01*
X216672965Y-69388522D01*
X216651806Y-69419923D01*
X216543566Y-69528163D01*
X216540869Y-69532200D01*
X216540866Y-69532203D01*
X216537926Y-69536603D01*
X216499709Y-69593798D01*
X216493562Y-69624703D01*
X216492685Y-69629112D01*
X216462789Y-69682496D01*
X216414901Y-69706897D01*
X216379584Y-69713922D01*
X216379217Y-69712075D01*
X216330310Y-69715923D01*
X216278142Y-69683952D01*
X216254730Y-69627423D01*
X216254794Y-69611115D01*
X216254804Y-69611001D01*
X216255444Y-69607155D01*
X216255500Y-69600000D01*
X216254064Y-69590443D01*
X216236465Y-69473386D01*
X216236464Y-69473384D01*
X216235364Y-69466065D01*
X216231404Y-69457817D01*
X216179937Y-69350639D01*
X216176735Y-69343971D01*
X216084798Y-69244514D01*
X216001678Y-69196234D01*
X215974079Y-69180203D01*
X215974078Y-69180202D01*
X215967681Y-69176487D01*
X215960475Y-69174817D01*
X215960473Y-69174816D01*
X215903381Y-69161583D01*
X215835738Y-69145904D01*
X215700636Y-69155470D01*
X215678419Y-69164065D01*
X215581222Y-69201667D01*
X215581220Y-69201668D01*
X215574319Y-69204338D01*
X215551423Y-69222388D01*
X215479936Y-69278744D01*
X215467955Y-69288189D01*
X215463748Y-69294276D01*
X215463747Y-69294277D01*
X215427601Y-69346576D01*
X215390948Y-69399608D01*
X215388716Y-69406666D01*
X215355154Y-69512790D01*
X215350108Y-69528744D01*
X215349970Y-69546354D01*
X215349156Y-69649975D01*
X215349044Y-69664181D01*
X215351164Y-69671269D01*
X215351164Y-69671271D01*
X215376345Y-69755470D01*
X215387851Y-69793942D01*
X215457816Y-69898652D01*
X215474500Y-69953651D01*
X215474500Y-70056588D01*
X215474123Y-70065217D01*
X215470758Y-70103678D01*
X215472999Y-70112041D01*
X215480816Y-70141215D01*
X215482685Y-70149647D01*
X215485538Y-70165827D01*
X215489432Y-70187911D01*
X215493763Y-70195412D01*
X215495757Y-70200890D01*
X215498223Y-70206179D01*
X215500465Y-70214548D01*
X215505433Y-70221644D01*
X215505434Y-70221645D01*
X215522758Y-70246387D01*
X215527396Y-70253668D01*
X215546822Y-70287314D01*
X215560749Y-70299000D01*
X215576398Y-70312131D01*
X215582766Y-70317966D01*
X215598260Y-70333460D01*
X215626037Y-70387977D01*
X215616466Y-70448409D01*
X215598260Y-70473468D01*
X215482905Y-70588823D01*
X215480208Y-70592860D01*
X215480205Y-70592863D01*
X215458215Y-70625773D01*
X215439048Y-70654458D01*
X215437146Y-70664021D01*
X215437145Y-70664023D01*
X215432024Y-70689772D01*
X215402128Y-70743157D01*
X215354238Y-70767558D01*
X215328489Y-70772679D01*
X215328487Y-70772680D01*
X215318924Y-70774582D01*
X215310815Y-70780000D01*
X215310816Y-70780000D01*
X215257329Y-70815739D01*
X215257326Y-70815742D01*
X215253289Y-70818439D01*
X215129352Y-70942376D01*
X215085495Y-71008011D01*
X215083593Y-71017574D01*
X215083592Y-71017576D01*
X215073126Y-71070197D01*
X215043230Y-71123581D01*
X214983021Y-71149637D01*
X214900636Y-71155470D01*
X214891173Y-71159131D01*
X214781222Y-71201667D01*
X214781220Y-71201668D01*
X214774319Y-71204338D01*
X214748744Y-71224500D01*
X214682912Y-71276398D01*
X214667955Y-71288189D01*
X214663748Y-71294276D01*
X214663747Y-71294277D01*
X214602976Y-71382205D01*
X214590948Y-71399608D01*
X214588716Y-71406666D01*
X214554980Y-71513340D01*
X214550108Y-71528744D01*
X214550050Y-71536143D01*
X214549117Y-71654947D01*
X214549044Y-71664181D01*
X214551164Y-71671269D01*
X214551164Y-71671271D01*
X214583209Y-71778421D01*
X214587851Y-71793942D01*
X214591963Y-71800096D01*
X214591964Y-71800098D01*
X214605232Y-71819955D01*
X214663098Y-71906557D01*
X214668839Y-71911231D01*
X214762395Y-71987398D01*
X214762398Y-71987400D01*
X214768132Y-71992068D01*
X214774988Y-71994845D01*
X214795715Y-72003240D01*
X214893666Y-72042914D01*
X214955071Y-72048232D01*
X215011412Y-72072090D01*
X215016532Y-72076859D01*
X215125542Y-72185869D01*
X215153319Y-72240386D01*
X215143748Y-72300818D01*
X215132363Y-72318224D01*
X215129352Y-72321235D01*
X215085495Y-72386870D01*
X215083593Y-72396433D01*
X215083592Y-72396435D01*
X215072598Y-72451709D01*
X215065095Y-72489429D01*
X215085495Y-72591989D01*
X215090914Y-72600099D01*
X215094644Y-72609104D01*
X215091987Y-72610205D01*
X215104449Y-72654380D01*
X215083276Y-72711785D01*
X215032404Y-72745781D01*
X215005525Y-72749500D01*
X213901406Y-72749500D01*
X213883164Y-72747579D01*
X213879908Y-72746487D01*
X213874298Y-72745947D01*
X213874174Y-72745935D01*
X213871409Y-72745669D01*
X213869457Y-72745635D01*
X213869454Y-72745635D01*
X213732849Y-72743268D01*
X213719076Y-72742064D01*
X213575622Y-72719342D01*
X213560517Y-72715716D01*
X213426979Y-72672327D01*
X213412627Y-72666382D01*
X213350072Y-72634509D01*
X213287513Y-72602634D01*
X213274274Y-72594521D01*
X213156759Y-72509142D01*
X213146172Y-72500256D01*
X213144863Y-72498991D01*
X213092347Y-72448265D01*
X213070935Y-72427582D01*
X213070933Y-72427581D01*
X213068271Y-72425009D01*
X213053603Y-72414563D01*
X213041028Y-72403925D01*
X212590186Y-71953082D01*
X212578511Y-71938678D01*
X212576834Y-71935320D01*
X212571394Y-71928739D01*
X212500878Y-71855931D01*
X212479765Y-71834131D01*
X212470786Y-71823446D01*
X212393274Y-71716759D01*
X212385157Y-71703514D01*
X212327314Y-71589991D01*
X212321369Y-71575639D01*
X212281994Y-71454455D01*
X212278368Y-71439350D01*
X212263938Y-71348243D01*
X212257738Y-71309098D01*
X212256532Y-71295198D01*
X212256477Y-71291754D01*
X212254909Y-71193772D01*
X212254303Y-71190136D01*
X212254302Y-71190128D01*
X212251848Y-71175413D01*
X212250500Y-71159131D01*
X212250500Y-70699000D01*
X212269407Y-70640809D01*
X212318907Y-70604845D01*
X212349500Y-70600000D01*
X212400000Y-70600000D01*
X212771004Y-70228996D01*
X212825521Y-70201219D01*
X212841008Y-70200000D01*
X213151000Y-70200000D01*
X213209191Y-70218907D01*
X213245155Y-70268407D01*
X213250000Y-70299000D01*
X213250000Y-70496919D01*
X213250069Y-70497224D01*
X213250113Y-70498013D01*
X213250103Y-70509268D01*
X213250104Y-70509271D01*
X213250094Y-70520417D01*
X213254919Y-70530466D01*
X213255320Y-70531300D01*
X213262594Y-70552131D01*
X213265279Y-70563900D01*
X213272227Y-70572619D01*
X213272631Y-70573126D01*
X213284456Y-70591976D01*
X213289565Y-70602616D01*
X213298269Y-70609577D01*
X213298271Y-70609579D01*
X213298991Y-70610154D01*
X213314580Y-70625769D01*
X213322105Y-70635212D01*
X213332145Y-70640055D01*
X213332148Y-70640057D01*
X213332738Y-70640341D01*
X213351557Y-70652191D01*
X213360778Y-70659565D01*
X213371644Y-70662064D01*
X213371647Y-70662065D01*
X213372543Y-70662271D01*
X213393359Y-70669581D01*
X213394192Y-70669983D01*
X213394195Y-70669984D01*
X213404234Y-70674826D01*
X213426631Y-70674845D01*
X213427425Y-70674891D01*
X213427899Y-70675000D01*
X214371919Y-70675000D01*
X214372224Y-70674931D01*
X214373013Y-70674887D01*
X214384268Y-70674897D01*
X214384271Y-70674896D01*
X214395417Y-70674906D01*
X214406303Y-70669679D01*
X214427131Y-70662406D01*
X214428030Y-70662201D01*
X214428031Y-70662201D01*
X214438900Y-70659721D01*
X214448126Y-70652369D01*
X214466976Y-70640544D01*
X214477616Y-70635435D01*
X214484577Y-70626731D01*
X214484579Y-70626729D01*
X214485154Y-70626009D01*
X214500769Y-70610420D01*
X214510212Y-70602895D01*
X214515055Y-70592855D01*
X214515057Y-70592852D01*
X214515341Y-70592262D01*
X214527191Y-70573443D01*
X214534565Y-70564222D01*
X214537064Y-70553356D01*
X214537065Y-70553353D01*
X214537271Y-70552457D01*
X214544581Y-70531641D01*
X214544983Y-70530808D01*
X214544984Y-70530805D01*
X214549826Y-70520766D01*
X214549845Y-70498369D01*
X214549891Y-70497575D01*
X214550000Y-70497101D01*
X214550000Y-70299000D01*
X214568907Y-70240809D01*
X214618407Y-70204845D01*
X214649000Y-70200000D01*
X215000000Y-70200000D01*
X215000000Y-65099000D01*
X215018907Y-65040809D01*
X215068407Y-65004845D01*
X215099000Y-65000000D01*
X215767740Y-65000000D01*
X215825931Y-65018907D01*
G37*
%TD.AperFunction*%
%TA.AperFunction,Conductor*%
G36*
X234098113Y-67109887D02*
G01*
X234109926Y-67119976D01*
X235295024Y-68305074D01*
X235322801Y-68359591D01*
X235324020Y-68375078D01*
X235324020Y-69224686D01*
X235305113Y-69282877D01*
X235255613Y-69318841D01*
X235194427Y-69318841D01*
X235155016Y-69294689D01*
X234759054Y-68898726D01*
X234753220Y-68892359D01*
X234733971Y-68869419D01*
X234733968Y-68869416D01*
X234728401Y-68862782D01*
X234694755Y-68843356D01*
X234687474Y-68838718D01*
X234662732Y-68821394D01*
X234662731Y-68821393D01*
X234655635Y-68816425D01*
X234647266Y-68814183D01*
X234641977Y-68811717D01*
X234636499Y-68809723D01*
X234628998Y-68805392D01*
X234620470Y-68803888D01*
X234620469Y-68803888D01*
X234590734Y-68798645D01*
X234582302Y-68796776D01*
X234553128Y-68788959D01*
X234553129Y-68788959D01*
X234544765Y-68786718D01*
X234506343Y-68790080D01*
X234506304Y-68790083D01*
X234497675Y-68790460D01*
X233197795Y-68790460D01*
X233139604Y-68771553D01*
X233127791Y-68761464D01*
X232829496Y-68463169D01*
X232801719Y-68408652D01*
X232800500Y-68393165D01*
X232800500Y-68201643D01*
X232787643Y-68128729D01*
X232786168Y-68120361D01*
X232786168Y-68120360D01*
X232784664Y-68111832D01*
X232774793Y-68094734D01*
X232731902Y-68020447D01*
X232724668Y-68007917D01*
X232689349Y-67978281D01*
X232656928Y-67926393D01*
X232661196Y-67865357D01*
X232682959Y-67835403D01*
X232682083Y-67834668D01*
X232707533Y-67804338D01*
X232759212Y-67742750D01*
X232800251Y-67629995D01*
X232800500Y-67627149D01*
X232800500Y-67201643D01*
X232799917Y-67198339D01*
X232813622Y-67138988D01*
X232859801Y-67098849D01*
X232898480Y-67090980D01*
X234039922Y-67090980D01*
X234098113Y-67109887D01*
G37*
%TD.AperFunction*%
%TD*%
M02*
