%TF.GenerationSoftware,KiCad,Pcbnew,(5.99.0-10506-gb986797469)*%
%TF.CreationDate,2021-09-15T01:16:02+02:00*%
%TF.ProjectId,Tastatur,54617374-6174-4757-922e-6b696361645f,rev?*%
%TF.SameCoordinates,Original*%
%TF.FileFunction,Soldermask,Top*%
%TF.FilePolarity,Negative*%
%FSLAX46Y46*%
G04 Gerber Fmt 4.6, Leading zero omitted, Abs format (unit mm)*
G04 Created by KiCad (PCBNEW (5.99.0-10506-gb986797469)) date 2021-09-15 01:16:02*
%MOMM*%
%LPD*%
G01*
G04 APERTURE LIST*
G04 Aperture macros list*
%AMRoundRect*
0 Rectangle with rounded corners*
0 $1 Rounding radius*
0 $2 $3 $4 $5 $6 $7 $8 $9 X,Y pos of 4 corners*
0 Add a 4 corners polygon primitive as box body*
4,1,4,$2,$3,$4,$5,$6,$7,$8,$9,$2,$3,0*
0 Add four circle primitives for the rounded corners*
1,1,$1+$1,$2,$3*
1,1,$1+$1,$4,$5*
1,1,$1+$1,$6,$7*
1,1,$1+$1,$8,$9*
0 Add four rect primitives between the rounded corners*
20,1,$1+$1,$2,$3,$4,$5,0*
20,1,$1+$1,$4,$5,$6,$7,0*
20,1,$1+$1,$6,$7,$8,$9,0*
20,1,$1+$1,$8,$9,$2,$3,0*%
%AMRotRect*
0 Rectangle, with rotation*
0 The origin of the aperture is its center*
0 $1 length*
0 $2 width*
0 $3 Rotation angle, in degrees counterclockwise*
0 Add horizontal line*
21,1,$1,$2,0,0,$3*%
G04 Aperture macros list end*
%ADD10C,0.120000*%
%ADD11RoundRect,0.147500X0.172500X-0.147500X0.172500X0.147500X-0.172500X0.147500X-0.172500X-0.147500X0*%
%ADD12RoundRect,0.140000X0.021213X-0.219203X0.219203X-0.021213X-0.021213X0.219203X-0.219203X0.021213X0*%
%ADD13RoundRect,0.140000X-0.170000X0.140000X-0.170000X-0.140000X0.170000X-0.140000X0.170000X0.140000X0*%
%ADD14RoundRect,0.140000X-0.140000X-0.170000X0.140000X-0.170000X0.140000X0.170000X-0.140000X0.170000X0*%
%ADD15RoundRect,0.250000X-0.250000X-0.475000X0.250000X-0.475000X0.250000X0.475000X-0.250000X0.475000X0*%
%ADD16RoundRect,0.250001X0.462499X0.849999X-0.462499X0.849999X-0.462499X-0.849999X0.462499X-0.849999X0*%
%ADD17RoundRect,0.147500X-0.147500X-0.172500X0.147500X-0.172500X0.147500X0.172500X-0.147500X0.172500X0*%
%ADD18R,1.000000X1.000000*%
%ADD19O,1.000000X1.000000*%
%ADD20R,1.000000X7.000000*%
%ADD21RoundRect,0.250000X0.250000X0.475000X-0.250000X0.475000X-0.250000X-0.475000X0.250000X-0.475000X0*%
%ADD22RoundRect,0.147500X0.017678X-0.226274X0.226274X-0.017678X-0.017678X0.226274X-0.226274X0.017678X0*%
%ADD23RoundRect,0.250000X-0.475000X0.250000X-0.475000X-0.250000X0.475000X-0.250000X0.475000X0.250000X0*%
%ADD24R,1.060000X0.650000*%
%ADD25O,1.700000X1.700000*%
%ADD26R,1.700000X1.700000*%
%ADD27RoundRect,0.062500X-0.194454X-0.282843X0.282843X0.194454X0.194454X0.282843X-0.282843X-0.194454X0*%
%ADD28RoundRect,0.062500X0.194454X-0.282843X0.282843X-0.194454X-0.194454X0.282843X-0.282843X0.194454X0*%
%ADD29RotRect,5.300000X5.300000X45.000000*%
G04 APERTURE END LIST*
D10*
%TO.C,J1*%
X254400000Y-88800000D02*
X186400000Y-88800000D01*
X186400000Y-88800000D02*
X186400000Y-80800000D01*
X186400000Y-80800000D02*
X254400000Y-80800000D01*
X254400000Y-80800000D02*
X254400000Y-88800000D01*
G36*
X254400000Y-88800000D02*
G01*
X186400000Y-88800000D01*
X186400000Y-80800000D01*
X254400000Y-80800000D01*
X254400000Y-88800000D01*
G37*
%TD*%
D11*
%TO.C,R5*%
X241000000Y-79685000D03*
X241000000Y-78715000D03*
%TD*%
D12*
%TO.C,C9*%
X217139411Y-76860589D03*
X216460589Y-77539411D03*
%TD*%
D13*
%TO.C,C11*%
X214600000Y-75120000D03*
X214600000Y-76080000D03*
%TD*%
D14*
%TO.C,C6*%
X226120000Y-76000000D03*
X227080000Y-76000000D03*
%TD*%
D11*
%TO.C,R8*%
X247400000Y-79685000D03*
X247400000Y-78715000D03*
%TD*%
D14*
%TO.C,C3*%
X232320000Y-70200000D03*
X233280000Y-70200000D03*
%TD*%
%TO.C,C2*%
X232320000Y-68400000D03*
X233280000Y-68400000D03*
%TD*%
D11*
%TO.C,R3*%
X237000000Y-79685000D03*
X237000000Y-78715000D03*
%TD*%
D14*
%TO.C,C5*%
X227080000Y-75000000D03*
X226120000Y-75000000D03*
%TD*%
D15*
%TO.C,C13*%
X201250000Y-73300000D03*
X203150000Y-73300000D03*
%TD*%
D14*
%TO.C,C4*%
X232320000Y-71200000D03*
X233280000Y-71200000D03*
%TD*%
D11*
%TO.C,R6*%
X243200000Y-79685000D03*
X243200000Y-78715000D03*
%TD*%
D14*
%TO.C,C1*%
X232320000Y-67400000D03*
X233280000Y-67400000D03*
%TD*%
D16*
%TO.C,L2*%
X193262500Y-75400000D03*
X190937500Y-75400000D03*
%TD*%
D17*
%TO.C,R13*%
X196815000Y-71100000D03*
X197785000Y-71100000D03*
%TD*%
D18*
%TO.C,J3*%
X195000000Y-66200000D03*
D19*
X195000000Y-67470000D03*
%TD*%
D18*
%TO.C,J5*%
X191800000Y-66200000D03*
D19*
X191800000Y-67470000D03*
%TD*%
D20*
%TO.C,J1*%
X188400000Y-84800000D03*
X190400000Y-84800000D03*
X192400000Y-84800000D03*
X194400000Y-84800000D03*
X196400000Y-84800000D03*
X198400000Y-84800000D03*
X200400000Y-84800000D03*
X202400000Y-84800000D03*
X204400000Y-84800000D03*
X206400000Y-84800000D03*
X208400000Y-84800000D03*
X210400000Y-84800000D03*
X212400000Y-84800000D03*
X214400000Y-84800000D03*
X224000000Y-84800000D03*
X226100000Y-84800000D03*
X228100000Y-84800000D03*
X230100000Y-84800000D03*
X232100000Y-84800000D03*
X234100000Y-84800000D03*
X236100000Y-84800000D03*
X238100000Y-84800000D03*
X240100000Y-84800000D03*
X242100000Y-84800000D03*
X244100000Y-84800000D03*
X246100000Y-84800000D03*
X248100000Y-84800000D03*
%TD*%
D21*
%TO.C,C12*%
X207950000Y-76900000D03*
X206050000Y-76900000D03*
%TD*%
D11*
%TO.C,R4*%
X239000000Y-79685000D03*
X239000000Y-78715000D03*
%TD*%
D17*
%TO.C,R10*%
X202515000Y-71500000D03*
X203485000Y-71500000D03*
%TD*%
D22*
%TO.C,R9*%
X217257053Y-78342947D03*
X217942947Y-77657053D03*
%TD*%
D16*
%TO.C,L1*%
X203762500Y-75700000D03*
X201437500Y-75700000D03*
%TD*%
D14*
%TO.C,C8*%
X220120000Y-79200000D03*
X221080000Y-79200000D03*
%TD*%
D23*
%TO.C,C10*%
X213000000Y-75450000D03*
X213000000Y-77350000D03*
%TD*%
D17*
%TO.C,R12*%
X192815000Y-71300000D03*
X193785000Y-71300000D03*
%TD*%
D21*
%TO.C,C14*%
X198150000Y-76400000D03*
X196250000Y-76400000D03*
%TD*%
D24*
%TO.C,U2*%
X205700000Y-72950000D03*
X205700000Y-73900000D03*
X205700000Y-74850000D03*
X207900000Y-74850000D03*
X207900000Y-73900000D03*
X207900000Y-72950000D03*
%TD*%
D25*
%TO.C,J2*%
X252465000Y-78820000D03*
X249925000Y-78820000D03*
X252465000Y-76280000D03*
X249925000Y-76280000D03*
X252465000Y-73740000D03*
X249925000Y-73740000D03*
X252465000Y-71200000D03*
D26*
X249925000Y-71200000D03*
%TD*%
D11*
%TO.C,R7*%
X245400000Y-79685000D03*
X245400000Y-78715000D03*
%TD*%
D24*
%TO.C,U3*%
X195190000Y-72520000D03*
X195190000Y-73470000D03*
X195190000Y-74420000D03*
X197390000Y-74420000D03*
X197390000Y-73470000D03*
X197390000Y-72520000D03*
%TD*%
D15*
%TO.C,C15*%
X191550000Y-72900000D03*
X193450000Y-72900000D03*
%TD*%
D17*
%TO.C,R11*%
X207315000Y-71500000D03*
X208285000Y-71500000D03*
%TD*%
D11*
%TO.C,R1*%
X233000000Y-79685000D03*
X233000000Y-78715000D03*
%TD*%
D27*
%TO.C,U1*%
X215615938Y-72294975D03*
X215969491Y-72648528D03*
X216323045Y-73002082D03*
X216676598Y-73355635D03*
X217030152Y-73709188D03*
X217383705Y-74062742D03*
X217737258Y-74416295D03*
X218090812Y-74769848D03*
X218444365Y-75123402D03*
X218797918Y-75476955D03*
X219151472Y-75830509D03*
X219505025Y-76184062D03*
D28*
X220494975Y-76184062D03*
X220848528Y-75830509D03*
X221202082Y-75476955D03*
X221555635Y-75123402D03*
X221909188Y-74769848D03*
X222262742Y-74416295D03*
X222616295Y-74062742D03*
X222969848Y-73709188D03*
X223323402Y-73355635D03*
X223676955Y-73002082D03*
X224030509Y-72648528D03*
X224384062Y-72294975D03*
D27*
X224384062Y-71305025D03*
X224030509Y-70951472D03*
X223676955Y-70597918D03*
X223323402Y-70244365D03*
X222969848Y-69890812D03*
X222616295Y-69537258D03*
X222262742Y-69183705D03*
X221909188Y-68830152D03*
X221555635Y-68476598D03*
X221202082Y-68123045D03*
X220848528Y-67769491D03*
X220494975Y-67415938D03*
D28*
X219505025Y-67415938D03*
X219151472Y-67769491D03*
X218797918Y-68123045D03*
X218444365Y-68476598D03*
X218090812Y-68830152D03*
X217737258Y-69183705D03*
X217383705Y-69537258D03*
X217030152Y-69890812D03*
X216676598Y-70244365D03*
X216323045Y-70597918D03*
X215969491Y-70951472D03*
X215615938Y-71305025D03*
D29*
X220000000Y-71800000D03*
%TD*%
D18*
%TO.C,J4*%
X188550000Y-67500000D03*
D19*
X188550000Y-66230000D03*
%TD*%
D14*
%TO.C,C7*%
X220120000Y-78200000D03*
X221080000Y-78200000D03*
%TD*%
D11*
%TO.C,R2*%
X235000000Y-79685000D03*
X235000000Y-78715000D03*
%TD*%
M02*
