M48
; DRILL file {KiCad (5.99.0-10506-gb986797469)} date Wed Sep 15 01:16:04 2021
; FORMAT={-:-/ absolute / inch / decimal}
; #@! TF.CreationDate,2021-09-15T01:16:04+02:00
; #@! TF.GenerationSoftware,Kicad,Pcbnew,(5.99.0-10506-gb986797469)
; #@! TF.FileFunction,MixedPlating,1,2
FMAT,2
INCH
; #@! TA.AperFunction,Plated,PTH,ViaDrill
T1C0.0118
; #@! TA.AperFunction,Plated,PTH,ComponentDrill
T2C0.0118
; #@! TA.AperFunction,Plated,PTH,ViaDrill
T3C0.0157
; #@! TA.AperFunction,Plated,PTH,ComponentDrill
T4C0.0256
; #@! TA.AperFunction,Plated,PTH,ComponentDrill
T5C0.0394
%
G90
G05
T1
X7.3701Y-2.7815
X7.3937Y-3.1299
X7.437Y-2.8917
X7.4626Y-3.0925
X7.4705Y-3.1575
X7.4961Y-2.8484
X7.4961Y-2.8819
X7.498Y-2.7795
X7.502Y-3.1575
X7.5217Y-3.0394
X7.5394Y-3.1299
X7.5726Y-3.1316
X7.6063Y-3.1299
X7.6496Y-2.8336
X7.6929Y-3.128
X7.7283Y-2.8425
X7.7283Y-2.874
X7.7283Y-2.9094
X7.7283Y-2.9488
X7.748Y-2.5748
X7.7559Y-2.6457
X7.7795Y-2.7087
X7.7972Y-3.124
X7.811Y-2.7559
X7.8366Y-2.9705
X7.8425Y-2.7795
X7.8504Y-3.0492
X7.8583Y-3.1516
X7.8898Y-2.7806
X7.8898Y-3.1654
X7.9213Y-2.8386
X7.936Y-2.7806
X7.9753Y-2.7806
X7.9764Y-3.1654
X8.0226Y-2.7806
X8.0472Y-3.1732
X8.0492Y-3.0492
X8.0551Y-2.8701
X8.0698Y-2.7806
X8.125Y-2.7806
X8.1339Y-3.1732
X8.1417Y-2.8661
X8.1417Y-2.8976
X8.1417Y-2.9291
X8.1417Y-2.9606
X8.1722Y-2.7806
X8.2194Y-2.7806
X8.2244Y-2.8386
X8.2244Y-2.878
X8.2461Y-3.1732
X8.2667Y-2.7806
X8.2913Y-3.1732
X8.3031Y-2.9961
X8.311Y-2.7806
X8.315Y-2.8268
X8.3307Y-2.8583
X8.3425Y-2.9449
X8.3524Y-3.1594
X8.3543Y-2.8819
X8.3661Y-2.7795
X8.3701Y-2.811
X8.3858Y-2.9055
X8.3937Y-2.8346
X8.4252Y-2.9094
X8.4331Y-2.8504
X8.4488Y-3.0236
X8.4488Y-3.0551
X8.4646Y-2.8189
X8.4646Y-2.9094
X8.4783Y-2.9707
X8.4862Y-2.6161
X8.488Y-2.9965
X8.4961Y-2.7402
X8.5047Y-2.9627
X8.5143Y-2.9885
X8.5251Y-2.6797
X8.5276Y-2.7087
X8.5315Y-2.8268
X8.5859Y-3.0874
X8.6142Y-3.0936
X8.6299Y-2.622
X8.646Y-3.0314
X8.6825Y-3.0326
X8.7402Y-3.0936
X8.7638Y-3.1919
X8.7638Y-3.2559
X8.7857Y-2.9871
X8.8176Y-2.9538
X8.8184Y-3.0227
X8.8317Y-2.7056
X8.8416Y-3.0079
X8.8559Y-2.9837
X8.8664Y-2.8349
X8.872Y-2.9511
X8.8826Y-2.9257
X8.9016Y-2.6535
X8.9039Y-2.9083
X8.9102Y-2.8815
X8.9291Y-3.0945
X8.9331Y-2.9052
X8.9606Y-2.9052
X8.9685Y-2.9685
X8.9787Y-3.081
X8.9921Y-2.811
X9.0069Y-3.0778
X9.0079Y-2.9134
X9.0157Y-2.9794
X9.0236Y-2.6063
X9.0315Y-2.8976
X9.039Y-3.0781
X9.0545Y-2.9762
X9.0706Y-3.0785
X9.0787Y-2.685
X9.0848Y-2.9779
X9.1024Y-3.0787
X9.1063Y-3.1702
X9.107Y-3.1061
X9.1102Y-2.7638
X9.1102Y-2.7953
X9.1177Y-2.6929
X9.1179Y-2.9766
X9.1184Y-2.7247
X9.1339Y-3.0787
X9.1575Y-2.9794
X9.2087Y-2.9094
X9.2087Y-3.1161
X9.2124Y-2.764
X9.2126Y-2.6535
X9.2126Y-2.6929
X9.2126Y-2.8031
X9.2795Y-3.1181
X9.2953Y-2.6043
X9.3031Y-2.937
X9.311Y-2.7205
X9.311Y-2.8012
X9.3661Y-3.1161
X9.4469Y-2.9783
X9.4469Y-3.1142
X9.4941Y-3.0669
X9.5Y-2.9783
X9.5709Y-3.0492
X9.6181Y-3.1161
X9.6398Y-3.0335
X9.7028Y-3.1161
X9.7421Y-3.0591
X9.7638Y-2.9528
T2
X8.4213Y-2.7648
T3
X7.6535Y-3.1496
X7.7323Y-3.1496
X8.5197Y-2.5748
X8.6063Y-2.7717
X8.6614Y-2.9134
X8.748Y-2.8268
X9.3268Y-2.8898
X9.3524Y-2.9311
X9.3829Y-2.874
X9.8996Y-3.1555
T4
X7.4232Y-2.6075
X7.4232Y-2.6575
X7.5512Y-2.6063
X7.5512Y-2.6563
X7.6772Y-2.6063
X7.6772Y-2.6563
T5
X9.8396Y-2.8031
X9.8396Y-2.9031
X9.8396Y-3.0031
X9.8396Y-3.1031
X9.9396Y-2.8031
X9.9396Y-2.9031
X9.9396Y-3.0031
X9.9396Y-3.1031
T0
M30
